G04 (created by PCBNEW-RS274X (2012-apr-16-27)-stable) date Thu 18 Jun 2015 14:48:37 CEST*
G01*
G70*
G90*
%MOIN*%
G04 Gerber Fmt 3.4, Leading zero omitted, Abs format*
%FSLAX34Y34*%
G04 APERTURE LIST*
%ADD10C,0.006000*%
%ADD11C,0.015000*%
%ADD12O,0.147600X0.147600*%
%ADD13O,0.098400X0.098400*%
%ADD14R,0.047200X0.027600*%
%ADD15R,0.045000X0.020000*%
%ADD16R,0.060000X0.080000*%
%ADD17R,0.055000X0.035000*%
%ADD18R,0.035000X0.055000*%
%ADD19O,0.080000X0.080000*%
%ADD20C,0.150000*%
%ADD21C,0.078700*%
%ADD22C,0.035000*%
%ADD23C,0.015700*%
%ADD24C,0.031500*%
%ADD25C,0.010000*%
G04 APERTURE END LIST*
G54D10*
G54D11*
X42950Y-15550D02*
X43400Y-15550D01*
X43000Y-15550D02*
X62050Y-15550D01*
X42950Y-32850D02*
X42950Y-15600D01*
X62050Y-32850D02*
X42950Y-32850D01*
X62050Y-15600D02*
X62050Y-32850D01*
G54D12*
X57875Y-18898D03*
X59528Y-16969D03*
X59528Y-20197D03*
G54D13*
X61181Y-18898D03*
G54D12*
X47204Y-18898D03*
X45551Y-20827D03*
X45551Y-17599D03*
G54D13*
X43898Y-18898D03*
G54D14*
X55972Y-22700D03*
X57428Y-22700D03*
X56072Y-21800D03*
X57528Y-21800D03*
G54D15*
X57950Y-23700D03*
X57950Y-24200D03*
X57950Y-24700D03*
X57950Y-25200D03*
X55450Y-25200D03*
X55450Y-24700D03*
X55450Y-24200D03*
X55450Y-23700D03*
X61250Y-21650D03*
X61250Y-22150D03*
X61250Y-22650D03*
X61250Y-23150D03*
X58750Y-23150D03*
X58750Y-22650D03*
X58750Y-22150D03*
X58750Y-21650D03*
X50950Y-25800D03*
X50950Y-26300D03*
X50950Y-26800D03*
X50950Y-27300D03*
X48450Y-27300D03*
X48450Y-26800D03*
X48450Y-26300D03*
X48450Y-25800D03*
G54D16*
X56700Y-20400D03*
X55400Y-20400D03*
X53650Y-26500D03*
X52350Y-26500D03*
G54D17*
X61200Y-24775D03*
X61200Y-24025D03*
G54D18*
X49625Y-30200D03*
X48875Y-30200D03*
X55575Y-28200D03*
X56325Y-28200D03*
X56775Y-17650D03*
X56025Y-17650D03*
X49275Y-23800D03*
X48525Y-23800D03*
G54D17*
X60100Y-24025D03*
X60100Y-24775D03*
X59200Y-24775D03*
X59200Y-24025D03*
G54D18*
X55625Y-26300D03*
X56375Y-26300D03*
X48875Y-29250D03*
X49625Y-29250D03*
X55625Y-27200D03*
X56375Y-27200D03*
G54D19*
X51773Y-24852D03*
X52757Y-24852D03*
X53741Y-24852D03*
G54D20*
X50668Y-22025D03*
X54658Y-22025D03*
G54D21*
X50850Y-18550D03*
X50850Y-17550D03*
X51850Y-18550D03*
X51850Y-17550D03*
X52850Y-18550D03*
X52850Y-17550D03*
X53850Y-18550D03*
X53850Y-17550D03*
X54850Y-18550D03*
X54850Y-17550D03*
X48800Y-20200D03*
X48800Y-21200D03*
X44200Y-25300D03*
X45200Y-25300D03*
X46200Y-25300D03*
X46200Y-22300D03*
X44200Y-22300D03*
G54D12*
X57875Y-28110D03*
X59528Y-26181D03*
X59528Y-29409D03*
G54D13*
X61181Y-28110D03*
G54D12*
X50979Y-30394D03*
X52632Y-28465D03*
X52632Y-31693D03*
G54D13*
X54285Y-30394D03*
G54D12*
X47204Y-28111D03*
X45551Y-30040D03*
X45551Y-26812D03*
G54D13*
X43898Y-28111D03*
G54D18*
X48875Y-28200D03*
X49625Y-28200D03*
G54D22*
X58500Y-23750D03*
X49200Y-27300D03*
X55100Y-25700D03*
X56850Y-25050D03*
X59350Y-22550D03*
X47400Y-24850D03*
X52650Y-23200D03*
X60250Y-22200D03*
X46850Y-24300D03*
X47000Y-25700D03*
X49100Y-26750D03*
X56100Y-18500D03*
X51600Y-29300D03*
X50500Y-28200D03*
X46750Y-23500D03*
X49900Y-26200D03*
G54D23*
X48450Y-26300D02*
X49400Y-26300D01*
X49625Y-26525D02*
X49625Y-28200D01*
X49400Y-26300D02*
X49625Y-26525D01*
G54D24*
X58150Y-21300D02*
X58150Y-22400D01*
X58450Y-23800D02*
X58450Y-23950D01*
X57850Y-22700D02*
X57428Y-22700D01*
X61250Y-21650D02*
X61100Y-21650D01*
X58200Y-24200D02*
X57950Y-24200D01*
X58150Y-22400D02*
X57850Y-22700D01*
X58450Y-23950D02*
X58200Y-24200D01*
X58500Y-23750D02*
X58450Y-23800D01*
X57428Y-24128D02*
X57500Y-24200D01*
X51400Y-26300D02*
X52100Y-25600D01*
X50950Y-26300D02*
X51400Y-26300D01*
X53650Y-25600D02*
X53650Y-24943D01*
X53650Y-26500D02*
X53650Y-25600D01*
X52100Y-25600D02*
X53650Y-25600D01*
X57428Y-22700D02*
X57428Y-24128D01*
X53650Y-24943D02*
X53741Y-24852D01*
X61100Y-21650D02*
X60650Y-21200D01*
X58250Y-21200D02*
X58150Y-21300D01*
X60650Y-21200D02*
X58250Y-21200D01*
X57500Y-24200D02*
X57950Y-24200D01*
X54950Y-25350D02*
X55100Y-25200D01*
X55100Y-25200D02*
X55450Y-25200D01*
X48450Y-27300D02*
X49200Y-27300D01*
X54950Y-25550D02*
X54950Y-25350D01*
X56150Y-21800D02*
X56850Y-22500D01*
X56072Y-21800D02*
X56050Y-21800D01*
X55400Y-21150D02*
X55400Y-20400D01*
X56050Y-21800D02*
X55400Y-21150D01*
X55100Y-25700D02*
X54950Y-25550D01*
X56072Y-21800D02*
X56150Y-21800D01*
X56850Y-22500D02*
X56850Y-25050D01*
X57875Y-18898D02*
X57875Y-19225D01*
X52750Y-23750D02*
X54250Y-23750D01*
X57875Y-19225D02*
X56700Y-20400D01*
X55050Y-24700D02*
X55450Y-24700D01*
X58750Y-23150D02*
X58750Y-22650D01*
X50950Y-27300D02*
X52150Y-27300D01*
X50979Y-28471D02*
X52150Y-27300D01*
X52350Y-27100D02*
X52350Y-26500D01*
X58750Y-22650D02*
X59250Y-22650D01*
X47902Y-18898D02*
X49950Y-16850D01*
X59250Y-22650D02*
X59350Y-22550D01*
X45200Y-24700D02*
X43300Y-22800D01*
X51773Y-24852D02*
X47402Y-24852D01*
X50979Y-30394D02*
X50979Y-28471D01*
X54800Y-24300D02*
X54800Y-24450D01*
X50785Y-30200D02*
X50979Y-30394D01*
X47293Y-28200D02*
X47204Y-28111D01*
X48875Y-28200D02*
X47293Y-28200D01*
X51773Y-24852D02*
X51773Y-24727D01*
X47402Y-24852D02*
X47400Y-24850D01*
X43300Y-22800D02*
X43300Y-21650D01*
X51150Y-16850D02*
X51850Y-17550D01*
X49950Y-16850D02*
X51150Y-16850D01*
X49625Y-30200D02*
X50785Y-30200D01*
X47204Y-18898D02*
X47902Y-18898D01*
X51773Y-24727D02*
X52750Y-23750D01*
X45200Y-25300D02*
X45200Y-24700D01*
X52150Y-27300D02*
X52350Y-27100D01*
X46052Y-18898D02*
X47204Y-18898D01*
X54800Y-24450D02*
X55050Y-24700D01*
X43300Y-21650D02*
X46052Y-18898D01*
X54250Y-23750D02*
X54800Y-24300D01*
G54D23*
X61200Y-23700D02*
X61200Y-24025D01*
X49275Y-23800D02*
X52050Y-23800D01*
X60200Y-22150D02*
X60200Y-21650D01*
X52050Y-23800D02*
X52650Y-23200D01*
X60750Y-23250D02*
X61200Y-23700D01*
X60250Y-22200D02*
X60200Y-22150D01*
X60550Y-21650D02*
X60750Y-21850D01*
X60200Y-21650D02*
X60550Y-21650D01*
X58750Y-21650D02*
X60200Y-21650D01*
X60750Y-21850D02*
X60750Y-23250D01*
X60650Y-23700D02*
X60650Y-24775D01*
X58750Y-22150D02*
X59450Y-22150D01*
X59450Y-22150D02*
X60450Y-23150D01*
X60450Y-23150D02*
X60450Y-23500D01*
X60450Y-23500D02*
X60650Y-23700D01*
X61200Y-24775D02*
X60650Y-24775D01*
X60100Y-24775D02*
X60650Y-24775D01*
X56775Y-17650D02*
X58847Y-17650D01*
X58847Y-17650D02*
X59528Y-16969D01*
X56325Y-28200D02*
X56400Y-28200D01*
X58419Y-26181D02*
X59528Y-26181D01*
X56400Y-28200D02*
X58419Y-26181D01*
G54D24*
X55600Y-22700D02*
X55200Y-23100D01*
X55972Y-22700D02*
X55600Y-22700D01*
X50850Y-19950D02*
X50850Y-18550D01*
X54000Y-23100D02*
X50850Y-19950D01*
X55200Y-23100D02*
X54000Y-23100D01*
X50850Y-18550D02*
X50850Y-17550D01*
X57528Y-21800D02*
X56900Y-21800D01*
X56900Y-21800D02*
X56050Y-20950D01*
X56050Y-19750D02*
X54850Y-18550D01*
X54850Y-18550D02*
X54850Y-17550D01*
X56050Y-20950D02*
X56050Y-19750D01*
G54D23*
X46200Y-22300D02*
X46200Y-23650D01*
X47000Y-25700D02*
X47100Y-25800D01*
X47100Y-25800D02*
X48450Y-25800D01*
X46200Y-23650D02*
X46850Y-24300D01*
X49050Y-26800D02*
X49100Y-26750D01*
X56100Y-18500D02*
X56025Y-18425D01*
X56025Y-18425D02*
X56025Y-17650D01*
X48450Y-26800D02*
X49050Y-26800D01*
X54800Y-28200D02*
X55575Y-28200D01*
X51850Y-29550D02*
X53450Y-29550D01*
X51600Y-29300D02*
X51850Y-29550D01*
X50500Y-27173D02*
X50500Y-28200D01*
X53450Y-29550D02*
X54800Y-28200D01*
X50700Y-26800D02*
X50500Y-27173D01*
X50950Y-26800D02*
X50700Y-26800D01*
X48850Y-25300D02*
X47250Y-25300D01*
X49350Y-25800D02*
X48850Y-25300D01*
X47250Y-25300D02*
X44250Y-22300D01*
X50950Y-25800D02*
X49350Y-25800D01*
X44250Y-22300D02*
X44200Y-22300D01*
X48875Y-29250D02*
X46341Y-29250D01*
X46341Y-29250D02*
X45551Y-30040D01*
X57950Y-24700D02*
X58525Y-24700D01*
X58525Y-24700D02*
X59200Y-24025D01*
X59200Y-24025D02*
X60100Y-24025D01*
X55050Y-26300D02*
X55625Y-26300D01*
X53350Y-24100D02*
X54050Y-24100D01*
X52757Y-24852D02*
X52757Y-24693D01*
X54400Y-25650D02*
X55050Y-26300D01*
X54050Y-24100D02*
X54400Y-24450D01*
X54400Y-24450D02*
X54400Y-25650D01*
X52757Y-24693D02*
X53350Y-24100D01*
X53135Y-28465D02*
X54400Y-27200D01*
X54400Y-27200D02*
X55625Y-27200D01*
X52632Y-28465D02*
X53135Y-28465D01*
X47050Y-23800D02*
X48525Y-23800D01*
X46750Y-23500D02*
X47050Y-23800D01*
X56375Y-24575D02*
X56000Y-24200D01*
X59200Y-24950D02*
X59200Y-24775D01*
X56375Y-26300D02*
X56375Y-24575D01*
X56375Y-27200D02*
X56375Y-26300D01*
X56000Y-24200D02*
X55450Y-24200D01*
X56375Y-27200D02*
X56950Y-27200D01*
X56950Y-27200D02*
X59200Y-24950D01*
X49625Y-29250D02*
X50100Y-28775D01*
X50100Y-26400D02*
X49900Y-26200D01*
X50100Y-28775D02*
X50100Y-26400D01*
X48875Y-30200D02*
X48875Y-30000D01*
X48875Y-30000D02*
X49625Y-29250D01*
G54D10*
G36*
X60142Y-23601D02*
X59776Y-23601D01*
X59684Y-23639D01*
X59650Y-23673D01*
X59616Y-23639D01*
X59525Y-23601D01*
X59426Y-23601D01*
X59225Y-23601D01*
X58898Y-23601D01*
X58861Y-23510D01*
X58850Y-23499D01*
X58850Y-23488D01*
X58862Y-23500D01*
X58926Y-23499D01*
X59025Y-23499D01*
X59116Y-23461D01*
X59186Y-23391D01*
X59224Y-23299D01*
X59225Y-23262D01*
X59225Y-23038D01*
X59224Y-23001D01*
X59186Y-22909D01*
X59177Y-22900D01*
X59186Y-22891D01*
X59224Y-22799D01*
X59225Y-22762D01*
X59163Y-22700D01*
X58800Y-22700D01*
X58800Y-22862D01*
X58800Y-22938D01*
X58800Y-23100D01*
X59163Y-23100D01*
X59225Y-23038D01*
X59225Y-23262D01*
X59163Y-23200D01*
X58850Y-23200D01*
X58800Y-23200D01*
X58700Y-23200D01*
X58650Y-23200D01*
X58337Y-23200D01*
X58275Y-23262D01*
X58276Y-23299D01*
X58305Y-23370D01*
X58288Y-23377D01*
X58225Y-23351D01*
X58126Y-23351D01*
X57835Y-23351D01*
X57835Y-23107D01*
X57850Y-23107D01*
X58006Y-23076D01*
X58138Y-22988D01*
X58290Y-22835D01*
X58314Y-22891D01*
X58323Y-22900D01*
X58314Y-22909D01*
X58276Y-23001D01*
X58275Y-23038D01*
X58337Y-23100D01*
X58700Y-23100D01*
X58700Y-22938D01*
X58700Y-22862D01*
X58700Y-22750D01*
X58700Y-22700D01*
X58700Y-22600D01*
X58800Y-22600D01*
X58850Y-22600D01*
X59163Y-22600D01*
X59225Y-22538D01*
X59224Y-22501D01*
X59214Y-22478D01*
X59314Y-22478D01*
X60122Y-23286D01*
X60122Y-23500D01*
X60142Y-23601D01*
X60142Y-23601D01*
G37*
G54D25*
X60142Y-23601D02*
X59776Y-23601D01*
X59684Y-23639D01*
X59650Y-23673D01*
X59616Y-23639D01*
X59525Y-23601D01*
X59426Y-23601D01*
X59225Y-23601D01*
X58898Y-23601D01*
X58861Y-23510D01*
X58850Y-23499D01*
X58850Y-23488D01*
X58862Y-23500D01*
X58926Y-23499D01*
X59025Y-23499D01*
X59116Y-23461D01*
X59186Y-23391D01*
X59224Y-23299D01*
X59225Y-23262D01*
X59225Y-23038D01*
X59224Y-23001D01*
X59186Y-22909D01*
X59177Y-22900D01*
X59186Y-22891D01*
X59224Y-22799D01*
X59225Y-22762D01*
X59163Y-22700D01*
X58800Y-22700D01*
X58800Y-22862D01*
X58800Y-22938D01*
X58800Y-23100D01*
X59163Y-23100D01*
X59225Y-23038D01*
X59225Y-23262D01*
X59163Y-23200D01*
X58850Y-23200D01*
X58800Y-23200D01*
X58700Y-23200D01*
X58650Y-23200D01*
X58337Y-23200D01*
X58275Y-23262D01*
X58276Y-23299D01*
X58305Y-23370D01*
X58288Y-23377D01*
X58225Y-23351D01*
X58126Y-23351D01*
X57835Y-23351D01*
X57835Y-23107D01*
X57850Y-23107D01*
X58006Y-23076D01*
X58138Y-22988D01*
X58290Y-22835D01*
X58314Y-22891D01*
X58323Y-22900D01*
X58314Y-22909D01*
X58276Y-23001D01*
X58275Y-23038D01*
X58337Y-23100D01*
X58700Y-23100D01*
X58700Y-22938D01*
X58700Y-22862D01*
X58700Y-22750D01*
X58700Y-22700D01*
X58700Y-22600D01*
X58800Y-22600D01*
X58850Y-22600D01*
X59163Y-22600D01*
X59225Y-22538D01*
X59224Y-22501D01*
X59214Y-22478D01*
X59314Y-22478D01*
X60122Y-23286D01*
X60122Y-23500D01*
X60142Y-23601D01*
G54D10*
G36*
X61725Y-32525D02*
X60497Y-32525D01*
X60497Y-29621D01*
X60497Y-29236D01*
X60497Y-29198D01*
X60350Y-28842D01*
X60077Y-28569D01*
X59721Y-28421D01*
X59336Y-28421D01*
X58980Y-28568D01*
X58847Y-28701D01*
X58847Y-28315D01*
X58805Y-28160D01*
X57925Y-28160D01*
X57925Y-29034D01*
X58079Y-29076D01*
X58418Y-28942D01*
X58695Y-28671D01*
X58847Y-28315D01*
X58847Y-28701D01*
X58707Y-28841D01*
X58559Y-29197D01*
X58559Y-29582D01*
X58559Y-29620D01*
X58706Y-29976D01*
X58979Y-30249D01*
X59335Y-30397D01*
X59720Y-30397D01*
X60076Y-30250D01*
X60349Y-29977D01*
X60497Y-29621D01*
X60497Y-32525D01*
X57825Y-32525D01*
X55013Y-32525D01*
X55013Y-30554D01*
X55013Y-30264D01*
X55013Y-30236D01*
X54902Y-29968D01*
X54698Y-29763D01*
X54431Y-29652D01*
X54141Y-29652D01*
X53873Y-29763D01*
X53668Y-29967D01*
X53557Y-30234D01*
X53557Y-30524D01*
X53557Y-30552D01*
X53668Y-30820D01*
X53872Y-31025D01*
X54139Y-31136D01*
X54429Y-31136D01*
X54697Y-31025D01*
X54902Y-30821D01*
X55013Y-30554D01*
X55013Y-32525D01*
X53189Y-32525D01*
X53453Y-32261D01*
X53601Y-31905D01*
X53601Y-31520D01*
X53601Y-31482D01*
X53454Y-31126D01*
X53181Y-30853D01*
X52825Y-30705D01*
X52440Y-30705D01*
X52084Y-30852D01*
X51951Y-30985D01*
X51951Y-30599D01*
X51909Y-30444D01*
X51029Y-30444D01*
X51029Y-31318D01*
X51183Y-31360D01*
X51522Y-31226D01*
X51799Y-30955D01*
X51951Y-30599D01*
X51951Y-30985D01*
X51811Y-31125D01*
X51663Y-31481D01*
X51663Y-31866D01*
X51663Y-31904D01*
X51810Y-32260D01*
X52075Y-32525D01*
X43275Y-32525D01*
X43275Y-28522D01*
X43281Y-28537D01*
X43485Y-28742D01*
X43752Y-28853D01*
X44042Y-28853D01*
X44310Y-28742D01*
X44515Y-28538D01*
X44626Y-28271D01*
X44626Y-27981D01*
X44626Y-27953D01*
X44515Y-27685D01*
X44311Y-27480D01*
X44044Y-27369D01*
X43754Y-27369D01*
X43486Y-27480D01*
X43281Y-27684D01*
X43275Y-27698D01*
X43275Y-19309D01*
X43281Y-19324D01*
X43485Y-19529D01*
X43752Y-19640D01*
X44042Y-19640D01*
X44310Y-19529D01*
X44515Y-19325D01*
X44626Y-19058D01*
X44626Y-18768D01*
X44626Y-18740D01*
X44515Y-18472D01*
X44311Y-18267D01*
X44044Y-18156D01*
X43754Y-18156D01*
X43486Y-18267D01*
X43281Y-18471D01*
X43275Y-18485D01*
X43275Y-15875D01*
X43400Y-15875D01*
X61725Y-15875D01*
X61725Y-18398D01*
X61594Y-18267D01*
X61327Y-18156D01*
X61037Y-18156D01*
X60769Y-18267D01*
X60564Y-18471D01*
X60497Y-18632D01*
X60497Y-17181D01*
X60497Y-16796D01*
X60497Y-16758D01*
X60350Y-16402D01*
X60077Y-16129D01*
X59721Y-15981D01*
X59336Y-15981D01*
X58980Y-16128D01*
X58707Y-16401D01*
X58559Y-16757D01*
X58559Y-17142D01*
X58559Y-17180D01*
X58617Y-17322D01*
X57197Y-17322D01*
X57161Y-17234D01*
X57091Y-17164D01*
X57000Y-17126D01*
X56901Y-17126D01*
X56551Y-17126D01*
X56459Y-17164D01*
X56400Y-17223D01*
X56341Y-17164D01*
X56250Y-17126D01*
X56151Y-17126D01*
X55801Y-17126D01*
X55709Y-17164D01*
X55639Y-17234D01*
X55601Y-17325D01*
X55601Y-17424D01*
X55601Y-17974D01*
X55639Y-18066D01*
X55697Y-18124D01*
X55697Y-18362D01*
X55675Y-18415D01*
X55675Y-18584D01*
X55739Y-18740D01*
X55859Y-18860D01*
X56015Y-18925D01*
X56184Y-18925D01*
X56340Y-18861D01*
X56460Y-18741D01*
X56525Y-18585D01*
X56525Y-18416D01*
X56461Y-18260D01*
X56353Y-18152D01*
X56353Y-18124D01*
X56400Y-18077D01*
X56459Y-18136D01*
X56550Y-18174D01*
X56649Y-18174D01*
X56999Y-18174D01*
X57091Y-18136D01*
X57161Y-18066D01*
X57197Y-17978D01*
X57554Y-17978D01*
X57332Y-18066D01*
X57055Y-18337D01*
X56903Y-18693D01*
X56945Y-18848D01*
X57775Y-18848D01*
X57825Y-18848D01*
X57925Y-18848D01*
X57975Y-18848D01*
X58805Y-18848D01*
X58847Y-18693D01*
X58695Y-18337D01*
X58418Y-18066D01*
X58195Y-17978D01*
X58847Y-17978D01*
X58972Y-17953D01*
X58973Y-17953D01*
X59079Y-17882D01*
X59101Y-17859D01*
X59335Y-17957D01*
X59720Y-17957D01*
X60076Y-17810D01*
X60349Y-17537D01*
X60497Y-17181D01*
X60497Y-18632D01*
X60453Y-18738D01*
X60453Y-19028D01*
X60453Y-19056D01*
X60564Y-19324D01*
X60768Y-19529D01*
X61035Y-19640D01*
X61325Y-19640D01*
X61593Y-19529D01*
X61725Y-19397D01*
X61725Y-27610D01*
X61724Y-27609D01*
X61724Y-25000D01*
X61724Y-24901D01*
X61724Y-24551D01*
X61686Y-24459D01*
X61627Y-24400D01*
X61686Y-24341D01*
X61724Y-24250D01*
X61724Y-24151D01*
X61724Y-23801D01*
X61686Y-23709D01*
X61616Y-23639D01*
X61525Y-23601D01*
X61508Y-23601D01*
X61503Y-23575D01*
X61503Y-23574D01*
X61452Y-23499D01*
X61524Y-23499D01*
X61616Y-23461D01*
X61686Y-23391D01*
X61724Y-23300D01*
X61724Y-23201D01*
X61724Y-23001D01*
X61686Y-22909D01*
X61677Y-22900D01*
X61686Y-22891D01*
X61724Y-22800D01*
X61724Y-22701D01*
X61724Y-22501D01*
X61686Y-22409D01*
X61677Y-22400D01*
X61686Y-22391D01*
X61724Y-22300D01*
X61724Y-22201D01*
X61724Y-22001D01*
X61686Y-21909D01*
X61677Y-21900D01*
X61686Y-21891D01*
X61724Y-21800D01*
X61724Y-21701D01*
X61724Y-21501D01*
X61686Y-21409D01*
X61616Y-21339D01*
X61525Y-21301D01*
X61446Y-21301D01*
X61406Y-21274D01*
X61273Y-21247D01*
X60938Y-20912D01*
X60806Y-20824D01*
X60650Y-20793D01*
X60321Y-20793D01*
X60349Y-20765D01*
X60497Y-20409D01*
X60497Y-20024D01*
X60497Y-19986D01*
X60350Y-19630D01*
X60077Y-19357D01*
X59721Y-19209D01*
X59336Y-19209D01*
X58980Y-19356D01*
X58847Y-19489D01*
X58847Y-19103D01*
X58805Y-18948D01*
X57925Y-18948D01*
X57925Y-19822D01*
X58079Y-19864D01*
X58418Y-19730D01*
X58695Y-19459D01*
X58847Y-19103D01*
X58847Y-19489D01*
X58707Y-19629D01*
X58559Y-19985D01*
X58559Y-20370D01*
X58559Y-20408D01*
X58706Y-20764D01*
X58735Y-20793D01*
X58250Y-20793D01*
X58094Y-20824D01*
X57962Y-20912D01*
X57960Y-20914D01*
X57862Y-21012D01*
X57825Y-21067D01*
X57825Y-19822D01*
X57825Y-18948D01*
X56945Y-18948D01*
X56903Y-19103D01*
X57055Y-19459D01*
X57332Y-19730D01*
X57671Y-19864D01*
X57825Y-19822D01*
X57825Y-21067D01*
X57774Y-21144D01*
X57743Y-21300D01*
X57743Y-21413D01*
X57715Y-21413D01*
X57628Y-21413D01*
X57528Y-21393D01*
X57250Y-21393D01*
X57069Y-21393D01*
X56726Y-21050D01*
X56800Y-21050D01*
X56800Y-21038D01*
X56812Y-21050D01*
X57049Y-21049D01*
X57141Y-21011D01*
X57211Y-20941D01*
X57249Y-20850D01*
X57249Y-20751D01*
X57250Y-20512D01*
X57250Y-20288D01*
X57249Y-20049D01*
X57249Y-19950D01*
X57211Y-19859D01*
X57141Y-19789D01*
X57049Y-19751D01*
X56812Y-19750D01*
X56750Y-19812D01*
X56750Y-20350D01*
X57188Y-20350D01*
X57250Y-20288D01*
X57250Y-20512D01*
X57188Y-20450D01*
X56800Y-20450D01*
X56750Y-20450D01*
X56650Y-20450D01*
X56650Y-20350D01*
X56650Y-20300D01*
X56650Y-19812D01*
X56588Y-19750D01*
X56457Y-19750D01*
X56426Y-19594D01*
X56338Y-19462D01*
X55493Y-18617D01*
X55493Y-18423D01*
X55395Y-18187D01*
X55258Y-18049D01*
X55394Y-17915D01*
X55493Y-17679D01*
X55493Y-17423D01*
X55395Y-17187D01*
X55215Y-17006D01*
X54979Y-16907D01*
X54723Y-16907D01*
X54487Y-17005D01*
X54308Y-17182D01*
X54294Y-17177D01*
X54223Y-17248D01*
X54223Y-17106D01*
X54186Y-17002D01*
X53950Y-16915D01*
X53700Y-16925D01*
X53514Y-17002D01*
X53477Y-17106D01*
X53850Y-17479D01*
X54223Y-17106D01*
X54223Y-17248D01*
X53921Y-17550D01*
X54294Y-17923D01*
X54309Y-17917D01*
X54441Y-18050D01*
X54308Y-18182D01*
X54294Y-18177D01*
X54223Y-18248D01*
X54223Y-18106D01*
X54203Y-18050D01*
X54223Y-17994D01*
X53850Y-17621D01*
X53779Y-17692D01*
X53779Y-17550D01*
X53406Y-17177D01*
X53350Y-17196D01*
X53294Y-17177D01*
X53223Y-17248D01*
X53223Y-17106D01*
X53186Y-17002D01*
X52950Y-16915D01*
X52700Y-16925D01*
X52514Y-17002D01*
X52477Y-17106D01*
X52850Y-17479D01*
X53223Y-17106D01*
X53223Y-17248D01*
X52921Y-17550D01*
X53294Y-17923D01*
X53350Y-17903D01*
X53406Y-17923D01*
X53779Y-17550D01*
X53779Y-17692D01*
X53477Y-17994D01*
X53496Y-18050D01*
X53477Y-18106D01*
X53850Y-18479D01*
X54223Y-18106D01*
X54223Y-18248D01*
X53921Y-18550D01*
X54294Y-18923D01*
X54309Y-18917D01*
X54485Y-19094D01*
X54721Y-19193D01*
X54917Y-19193D01*
X55475Y-19751D01*
X55051Y-19751D01*
X54959Y-19789D01*
X54889Y-19859D01*
X54851Y-19950D01*
X54851Y-20049D01*
X54851Y-20849D01*
X54889Y-20941D01*
X54959Y-21011D01*
X54993Y-21025D01*
X54993Y-21081D01*
X54858Y-21025D01*
X54460Y-21025D01*
X54223Y-21122D01*
X54223Y-18994D01*
X53850Y-18621D01*
X53779Y-18692D01*
X53779Y-18550D01*
X53406Y-18177D01*
X53350Y-18196D01*
X53294Y-18177D01*
X53223Y-18248D01*
X53223Y-18106D01*
X53203Y-18050D01*
X53223Y-17994D01*
X52850Y-17621D01*
X52779Y-17692D01*
X52779Y-17550D01*
X52406Y-17177D01*
X52350Y-17196D01*
X52294Y-17177D01*
X52223Y-17248D01*
X52223Y-17106D01*
X52186Y-17002D01*
X51950Y-16915D01*
X51700Y-16925D01*
X51514Y-17002D01*
X51477Y-17106D01*
X51850Y-17479D01*
X52223Y-17106D01*
X52223Y-17248D01*
X51921Y-17550D01*
X52294Y-17923D01*
X52350Y-17903D01*
X52406Y-17923D01*
X52779Y-17550D01*
X52779Y-17692D01*
X52477Y-17994D01*
X52496Y-18050D01*
X52477Y-18106D01*
X52850Y-18479D01*
X53223Y-18106D01*
X53223Y-18248D01*
X52921Y-18550D01*
X53294Y-18923D01*
X53350Y-18903D01*
X53406Y-18923D01*
X53779Y-18550D01*
X53779Y-18692D01*
X53477Y-18994D01*
X53514Y-19098D01*
X53750Y-19185D01*
X54000Y-19175D01*
X54186Y-19098D01*
X54223Y-18994D01*
X54223Y-21122D01*
X54092Y-21177D01*
X53811Y-21458D01*
X53658Y-21825D01*
X53658Y-22182D01*
X53223Y-21747D01*
X53223Y-18994D01*
X52850Y-18621D01*
X52779Y-18692D01*
X52779Y-18550D01*
X52406Y-18177D01*
X52350Y-18196D01*
X52294Y-18177D01*
X52223Y-18248D01*
X52223Y-18106D01*
X52203Y-18050D01*
X52223Y-17994D01*
X51850Y-17621D01*
X51477Y-17994D01*
X51496Y-18050D01*
X51477Y-18106D01*
X51850Y-18479D01*
X52223Y-18106D01*
X52223Y-18248D01*
X51921Y-18550D01*
X52294Y-18923D01*
X52350Y-18903D01*
X52406Y-18923D01*
X52779Y-18550D01*
X52779Y-18692D01*
X52477Y-18994D01*
X52514Y-19098D01*
X52750Y-19185D01*
X53000Y-19175D01*
X53186Y-19098D01*
X53223Y-18994D01*
X53223Y-21747D01*
X52223Y-20747D01*
X52223Y-18994D01*
X51850Y-18621D01*
X51477Y-18994D01*
X51514Y-19098D01*
X51750Y-19185D01*
X52000Y-19175D01*
X52186Y-19098D01*
X52223Y-18994D01*
X52223Y-20747D01*
X51257Y-19781D01*
X51257Y-19051D01*
X51391Y-18917D01*
X51406Y-18923D01*
X51779Y-18550D01*
X51406Y-18177D01*
X51390Y-18182D01*
X51258Y-18049D01*
X51391Y-17917D01*
X51406Y-17923D01*
X51779Y-17550D01*
X51406Y-17177D01*
X51390Y-17182D01*
X51215Y-17006D01*
X50979Y-16907D01*
X50723Y-16907D01*
X50487Y-17005D01*
X50306Y-17185D01*
X50207Y-17421D01*
X50207Y-17677D01*
X50305Y-17913D01*
X50441Y-18050D01*
X50306Y-18185D01*
X50207Y-18421D01*
X50207Y-18677D01*
X50305Y-18913D01*
X50443Y-19051D01*
X50443Y-19950D01*
X50474Y-20106D01*
X50562Y-20238D01*
X53710Y-23385D01*
X53712Y-23388D01*
X53844Y-23476D01*
X53999Y-23507D01*
X53999Y-23506D01*
X54000Y-23507D01*
X54993Y-23507D01*
X54976Y-23550D01*
X54976Y-23649D01*
X54976Y-23849D01*
X55014Y-23941D01*
X55023Y-23950D01*
X55014Y-23959D01*
X54976Y-24050D01*
X54976Y-24149D01*
X54976Y-24349D01*
X55014Y-24441D01*
X55023Y-24450D01*
X55014Y-24459D01*
X54976Y-24551D01*
X54975Y-24588D01*
X55037Y-24650D01*
X55350Y-24650D01*
X55400Y-24650D01*
X55500Y-24650D01*
X55550Y-24650D01*
X55863Y-24650D01*
X55924Y-24588D01*
X56047Y-24711D01*
X56047Y-25826D01*
X56000Y-25873D01*
X55941Y-25814D01*
X55850Y-25776D01*
X55751Y-25776D01*
X55525Y-25776D01*
X55525Y-25616D01*
X55515Y-25593D01*
X55606Y-25576D01*
X55646Y-25549D01*
X55724Y-25549D01*
X55816Y-25511D01*
X55886Y-25441D01*
X55924Y-25350D01*
X55924Y-25251D01*
X55924Y-25051D01*
X55886Y-24959D01*
X55877Y-24950D01*
X55886Y-24941D01*
X55924Y-24849D01*
X55925Y-24812D01*
X55863Y-24750D01*
X55550Y-24750D01*
X55500Y-24750D01*
X55400Y-24750D01*
X55350Y-24750D01*
X55037Y-24750D01*
X54975Y-24812D01*
X54975Y-24817D01*
X54944Y-24824D01*
X54812Y-24912D01*
X54728Y-24996D01*
X54728Y-24450D01*
X54727Y-24449D01*
X54703Y-24324D01*
X54632Y-24218D01*
X54631Y-24217D01*
X54282Y-23868D01*
X54176Y-23797D01*
X54050Y-23772D01*
X53350Y-23772D01*
X53224Y-23797D01*
X53118Y-23868D01*
X53115Y-23871D01*
X52772Y-24214D01*
X52643Y-24214D01*
X52619Y-24214D01*
X52384Y-24311D01*
X52263Y-24431D01*
X52158Y-24319D01*
X51925Y-24212D01*
X51823Y-24258D01*
X51823Y-24752D01*
X51823Y-24802D01*
X51823Y-24902D01*
X51723Y-24902D01*
X51723Y-24802D01*
X51723Y-24258D01*
X51621Y-24212D01*
X51388Y-24319D01*
X51213Y-24507D01*
X51141Y-24701D01*
X51188Y-24802D01*
X51723Y-24802D01*
X51723Y-24902D01*
X51673Y-24902D01*
X51188Y-24902D01*
X51141Y-25003D01*
X51213Y-25197D01*
X51388Y-25385D01*
X51621Y-25492D01*
X51642Y-25482D01*
X51424Y-25700D01*
X51424Y-25651D01*
X51386Y-25559D01*
X51316Y-25489D01*
X51225Y-25451D01*
X51126Y-25451D01*
X50676Y-25451D01*
X50625Y-25472D01*
X49486Y-25472D01*
X49082Y-25068D01*
X48976Y-24997D01*
X48850Y-24972D01*
X47385Y-24972D01*
X47078Y-24665D01*
X47090Y-24661D01*
X47210Y-24541D01*
X47275Y-24385D01*
X47275Y-24216D01*
X47238Y-24128D01*
X48102Y-24128D01*
X48139Y-24216D01*
X48209Y-24286D01*
X48300Y-24324D01*
X48399Y-24324D01*
X48749Y-24324D01*
X48841Y-24286D01*
X48900Y-24227D01*
X48959Y-24286D01*
X49050Y-24324D01*
X49149Y-24324D01*
X49499Y-24324D01*
X49591Y-24286D01*
X49661Y-24216D01*
X49697Y-24128D01*
X52050Y-24128D01*
X52175Y-24103D01*
X52176Y-24103D01*
X52282Y-24032D01*
X52689Y-23625D01*
X52734Y-23625D01*
X52890Y-23561D01*
X53010Y-23441D01*
X53075Y-23285D01*
X53075Y-23116D01*
X53011Y-22960D01*
X52891Y-22840D01*
X52735Y-22775D01*
X52566Y-22775D01*
X52410Y-22839D01*
X52290Y-22959D01*
X52225Y-23115D01*
X52225Y-23161D01*
X51914Y-23472D01*
X51668Y-23472D01*
X51668Y-22225D01*
X51668Y-21827D01*
X51516Y-21459D01*
X51235Y-21178D01*
X50868Y-21025D01*
X50470Y-21025D01*
X50102Y-21177D01*
X49821Y-21458D01*
X49668Y-21825D01*
X49668Y-22223D01*
X49820Y-22591D01*
X50101Y-22872D01*
X50468Y-23025D01*
X50866Y-23025D01*
X51234Y-22873D01*
X51515Y-22592D01*
X51668Y-22225D01*
X51668Y-23472D01*
X49697Y-23472D01*
X49661Y-23384D01*
X49591Y-23314D01*
X49500Y-23276D01*
X49443Y-23276D01*
X49443Y-21329D01*
X49443Y-21073D01*
X49345Y-20837D01*
X49208Y-20699D01*
X49344Y-20565D01*
X49443Y-20329D01*
X49443Y-20073D01*
X49345Y-19837D01*
X49165Y-19656D01*
X48929Y-19557D01*
X48673Y-19557D01*
X48437Y-19655D01*
X48256Y-19835D01*
X48176Y-20025D01*
X48176Y-19103D01*
X48176Y-18693D01*
X48024Y-18337D01*
X47747Y-18066D01*
X47408Y-17932D01*
X47254Y-17974D01*
X47254Y-18848D01*
X48134Y-18848D01*
X48176Y-18693D01*
X48176Y-19103D01*
X48134Y-18948D01*
X47254Y-18948D01*
X47254Y-19822D01*
X47408Y-19864D01*
X47747Y-19730D01*
X48024Y-19459D01*
X48176Y-19103D01*
X48176Y-20025D01*
X48157Y-20071D01*
X48157Y-20327D01*
X48255Y-20563D01*
X48391Y-20700D01*
X48256Y-20835D01*
X48157Y-21071D01*
X48157Y-21327D01*
X48255Y-21563D01*
X48435Y-21744D01*
X48671Y-21843D01*
X48927Y-21843D01*
X49163Y-21745D01*
X49344Y-21565D01*
X49443Y-21329D01*
X49443Y-23276D01*
X49401Y-23276D01*
X49051Y-23276D01*
X48959Y-23314D01*
X48900Y-23373D01*
X48841Y-23314D01*
X48750Y-23276D01*
X48651Y-23276D01*
X48301Y-23276D01*
X48209Y-23314D01*
X48139Y-23384D01*
X48102Y-23472D01*
X47186Y-23472D01*
X47175Y-23461D01*
X47175Y-23416D01*
X47154Y-23364D01*
X47154Y-19822D01*
X47154Y-18948D01*
X47154Y-18848D01*
X47154Y-17974D01*
X47000Y-17932D01*
X46661Y-18066D01*
X46520Y-18203D01*
X46520Y-17811D01*
X46520Y-17426D01*
X46520Y-17388D01*
X46373Y-17032D01*
X46100Y-16759D01*
X45744Y-16611D01*
X45359Y-16611D01*
X45003Y-16758D01*
X44730Y-17031D01*
X44582Y-17387D01*
X44582Y-17772D01*
X44582Y-17810D01*
X44729Y-18166D01*
X45002Y-18439D01*
X45358Y-18587D01*
X45743Y-18587D01*
X46099Y-18440D01*
X46372Y-18167D01*
X46520Y-17811D01*
X46520Y-18203D01*
X46384Y-18337D01*
X46232Y-18693D01*
X46274Y-18848D01*
X47154Y-18848D01*
X47154Y-18948D01*
X46274Y-18948D01*
X46232Y-19103D01*
X46384Y-19459D01*
X46661Y-19730D01*
X47000Y-19864D01*
X47154Y-19822D01*
X47154Y-23364D01*
X47111Y-23260D01*
X46991Y-23140D01*
X46835Y-23075D01*
X46666Y-23075D01*
X46528Y-23131D01*
X46528Y-22859D01*
X46563Y-22845D01*
X46744Y-22665D01*
X46843Y-22429D01*
X46843Y-22173D01*
X46745Y-21937D01*
X46565Y-21756D01*
X46329Y-21657D01*
X46110Y-21657D01*
X46372Y-21395D01*
X46520Y-21039D01*
X46520Y-20654D01*
X46520Y-20616D01*
X46373Y-20260D01*
X46100Y-19987D01*
X45744Y-19839D01*
X45359Y-19839D01*
X45003Y-19986D01*
X44730Y-20259D01*
X44582Y-20615D01*
X44582Y-21000D01*
X44582Y-21038D01*
X44729Y-21394D01*
X45002Y-21667D01*
X45358Y-21815D01*
X45743Y-21815D01*
X45800Y-21791D01*
X45656Y-21935D01*
X45557Y-22171D01*
X45557Y-22427D01*
X45655Y-22663D01*
X45835Y-22844D01*
X45872Y-22859D01*
X45872Y-23458D01*
X44843Y-22429D01*
X44843Y-22173D01*
X44745Y-21937D01*
X44565Y-21756D01*
X44329Y-21657D01*
X44073Y-21657D01*
X43837Y-21755D01*
X43656Y-21935D01*
X43557Y-22171D01*
X43557Y-22427D01*
X43655Y-22663D01*
X43835Y-22844D01*
X44071Y-22943D01*
X44327Y-22943D01*
X44399Y-22913D01*
X46143Y-24657D01*
X46073Y-24657D01*
X45837Y-24755D01*
X45658Y-24932D01*
X45644Y-24927D01*
X45573Y-24998D01*
X45573Y-24856D01*
X45536Y-24752D01*
X45300Y-24665D01*
X45050Y-24675D01*
X44864Y-24752D01*
X44827Y-24856D01*
X45200Y-25229D01*
X45573Y-24856D01*
X45573Y-24998D01*
X45271Y-25300D01*
X45644Y-25673D01*
X45659Y-25667D01*
X45835Y-25844D01*
X46071Y-25943D01*
X46327Y-25943D01*
X46563Y-25845D01*
X46589Y-25818D01*
X46639Y-25940D01*
X46759Y-26060D01*
X46915Y-26125D01*
X47084Y-26125D01*
X47100Y-26128D01*
X47985Y-26128D01*
X47976Y-26150D01*
X47976Y-26249D01*
X47976Y-26449D01*
X48014Y-26541D01*
X48023Y-26550D01*
X48014Y-26559D01*
X47976Y-26650D01*
X47976Y-26749D01*
X47976Y-26949D01*
X48014Y-27041D01*
X48023Y-27050D01*
X48014Y-27059D01*
X47976Y-27150D01*
X47976Y-27249D01*
X47976Y-27449D01*
X48013Y-27539D01*
X47747Y-27279D01*
X47408Y-27145D01*
X47254Y-27187D01*
X47254Y-28061D01*
X48134Y-28061D01*
X48176Y-27906D01*
X48024Y-27551D01*
X48084Y-27611D01*
X48175Y-27649D01*
X48253Y-27649D01*
X48294Y-27676D01*
X48450Y-27707D01*
X48575Y-27707D01*
X48559Y-27714D01*
X48489Y-27784D01*
X48451Y-27875D01*
X48451Y-27974D01*
X48450Y-28088D01*
X48512Y-28150D01*
X48775Y-28150D01*
X48825Y-28150D01*
X48925Y-28150D01*
X48925Y-28250D01*
X48925Y-28300D01*
X48925Y-28663D01*
X48987Y-28725D01*
X49099Y-28724D01*
X49191Y-28686D01*
X49250Y-28627D01*
X49309Y-28686D01*
X49400Y-28724D01*
X49499Y-28724D01*
X49687Y-28724D01*
X49685Y-28726D01*
X49401Y-28726D01*
X49309Y-28764D01*
X49250Y-28823D01*
X49191Y-28764D01*
X49100Y-28726D01*
X49001Y-28726D01*
X48825Y-28726D01*
X48825Y-28663D01*
X48825Y-28250D01*
X48512Y-28250D01*
X48450Y-28312D01*
X48451Y-28426D01*
X48451Y-28525D01*
X48489Y-28616D01*
X48559Y-28686D01*
X48651Y-28724D01*
X48763Y-28725D01*
X48825Y-28663D01*
X48825Y-28726D01*
X48651Y-28726D01*
X48559Y-28764D01*
X48489Y-28834D01*
X48452Y-28922D01*
X47768Y-28922D01*
X48024Y-28672D01*
X48176Y-28316D01*
X48134Y-28161D01*
X47304Y-28161D01*
X47254Y-28161D01*
X47154Y-28161D01*
X47154Y-28061D01*
X47154Y-27187D01*
X47000Y-27145D01*
X46661Y-27279D01*
X46520Y-27416D01*
X46520Y-27024D01*
X46520Y-26639D01*
X46520Y-26601D01*
X46373Y-26245D01*
X46100Y-25972D01*
X45744Y-25824D01*
X45544Y-25824D01*
X45573Y-25744D01*
X45200Y-25371D01*
X45129Y-25442D01*
X45129Y-25300D01*
X44756Y-24927D01*
X44740Y-24932D01*
X44565Y-24756D01*
X44329Y-24657D01*
X44073Y-24657D01*
X43837Y-24755D01*
X43656Y-24935D01*
X43557Y-25171D01*
X43557Y-25427D01*
X43655Y-25663D01*
X43835Y-25844D01*
X44071Y-25943D01*
X44327Y-25943D01*
X44563Y-25845D01*
X44741Y-25667D01*
X44756Y-25673D01*
X45129Y-25300D01*
X45129Y-25442D01*
X44827Y-25744D01*
X44864Y-25848D01*
X45094Y-25933D01*
X45003Y-25971D01*
X44730Y-26244D01*
X44582Y-26600D01*
X44582Y-26985D01*
X44582Y-27023D01*
X44729Y-27379D01*
X45002Y-27652D01*
X45358Y-27800D01*
X45743Y-27800D01*
X46099Y-27653D01*
X46372Y-27380D01*
X46520Y-27024D01*
X46520Y-27416D01*
X46384Y-27550D01*
X46232Y-27906D01*
X46274Y-28061D01*
X47154Y-28061D01*
X47154Y-28161D01*
X47104Y-28161D01*
X46274Y-28161D01*
X46232Y-28316D01*
X46384Y-28672D01*
X46639Y-28922D01*
X46341Y-28922D01*
X46215Y-28947D01*
X46109Y-29018D01*
X45977Y-29149D01*
X45744Y-29052D01*
X45359Y-29052D01*
X45003Y-29199D01*
X44730Y-29472D01*
X44582Y-29828D01*
X44582Y-30213D01*
X44582Y-30251D01*
X44729Y-30607D01*
X45002Y-30880D01*
X45358Y-31028D01*
X45743Y-31028D01*
X46099Y-30881D01*
X46372Y-30608D01*
X46520Y-30252D01*
X46520Y-29867D01*
X46520Y-29829D01*
X46434Y-29620D01*
X46477Y-29578D01*
X48452Y-29578D01*
X48489Y-29666D01*
X48548Y-29725D01*
X48489Y-29784D01*
X48451Y-29875D01*
X48451Y-29974D01*
X48451Y-30524D01*
X48489Y-30616D01*
X48559Y-30686D01*
X48650Y-30724D01*
X48749Y-30724D01*
X49099Y-30724D01*
X49191Y-30686D01*
X49250Y-30627D01*
X49309Y-30686D01*
X49401Y-30724D01*
X49513Y-30725D01*
X49575Y-30663D01*
X49575Y-30300D01*
X49575Y-30250D01*
X49575Y-30150D01*
X49675Y-30150D01*
X49675Y-30250D01*
X49675Y-30300D01*
X49675Y-30663D01*
X49737Y-30725D01*
X49849Y-30724D01*
X49941Y-30686D01*
X50011Y-30616D01*
X50012Y-30612D01*
X50159Y-30955D01*
X50436Y-31226D01*
X50775Y-31360D01*
X50929Y-31318D01*
X50929Y-30494D01*
X50929Y-30444D01*
X50929Y-30344D01*
X50929Y-30294D01*
X50929Y-29470D01*
X50775Y-29428D01*
X50436Y-29562D01*
X50159Y-29833D01*
X50050Y-30088D01*
X50049Y-29974D01*
X50049Y-29875D01*
X50011Y-29784D01*
X49952Y-29725D01*
X50011Y-29666D01*
X50049Y-29575D01*
X50049Y-29476D01*
X50049Y-29289D01*
X50328Y-29009D01*
X50331Y-29007D01*
X50332Y-29007D01*
X50403Y-28901D01*
X50428Y-28776D01*
X50427Y-28775D01*
X50428Y-28775D01*
X50428Y-28625D01*
X50584Y-28625D01*
X50740Y-28561D01*
X50860Y-28441D01*
X50925Y-28285D01*
X50925Y-28116D01*
X50861Y-27960D01*
X50828Y-27927D01*
X50828Y-27649D01*
X50838Y-27650D01*
X50900Y-27588D01*
X50900Y-27400D01*
X50900Y-27350D01*
X50900Y-27250D01*
X51000Y-27250D01*
X51050Y-27250D01*
X51363Y-27250D01*
X51425Y-27188D01*
X51424Y-27151D01*
X51386Y-27059D01*
X51377Y-27050D01*
X51386Y-27041D01*
X51424Y-26950D01*
X51424Y-26851D01*
X51424Y-26702D01*
X51556Y-26676D01*
X51688Y-26588D01*
X51843Y-26431D01*
X51862Y-26450D01*
X52250Y-26450D01*
X52300Y-26450D01*
X52400Y-26450D01*
X52450Y-26450D01*
X52838Y-26450D01*
X52900Y-26388D01*
X52899Y-26149D01*
X52899Y-26050D01*
X52881Y-26007D01*
X53118Y-26007D01*
X53101Y-26050D01*
X53101Y-26149D01*
X53101Y-26949D01*
X53139Y-27041D01*
X53209Y-27111D01*
X53300Y-27149D01*
X53399Y-27149D01*
X53987Y-27149D01*
X53346Y-27790D01*
X53181Y-27625D01*
X52900Y-27508D01*
X52900Y-26612D01*
X52838Y-26550D01*
X52400Y-26550D01*
X52400Y-27088D01*
X52462Y-27150D01*
X52699Y-27149D01*
X52791Y-27111D01*
X52861Y-27041D01*
X52899Y-26950D01*
X52899Y-26851D01*
X52900Y-26612D01*
X52900Y-27508D01*
X52825Y-27477D01*
X52440Y-27477D01*
X52300Y-27534D01*
X52300Y-27088D01*
X52300Y-26550D01*
X51862Y-26550D01*
X51800Y-26612D01*
X51801Y-26851D01*
X51801Y-26950D01*
X51839Y-27041D01*
X51909Y-27111D01*
X52001Y-27149D01*
X52238Y-27150D01*
X52300Y-27088D01*
X52300Y-27534D01*
X52084Y-27624D01*
X51811Y-27897D01*
X51663Y-28253D01*
X51663Y-28638D01*
X51663Y-28676D01*
X51757Y-28905D01*
X51685Y-28875D01*
X51516Y-28875D01*
X51425Y-28912D01*
X51425Y-27412D01*
X51363Y-27350D01*
X51000Y-27350D01*
X51000Y-27588D01*
X51062Y-27650D01*
X51126Y-27649D01*
X51225Y-27649D01*
X51316Y-27611D01*
X51386Y-27541D01*
X51424Y-27449D01*
X51425Y-27412D01*
X51425Y-28912D01*
X51360Y-28939D01*
X51240Y-29059D01*
X51175Y-29215D01*
X51175Y-29384D01*
X51194Y-29432D01*
X51183Y-29428D01*
X51029Y-29470D01*
X51029Y-30344D01*
X51909Y-30344D01*
X51951Y-30189D01*
X51815Y-29871D01*
X51850Y-29878D01*
X53450Y-29878D01*
X53575Y-29853D01*
X53576Y-29853D01*
X53682Y-29782D01*
X54936Y-28528D01*
X55152Y-28528D01*
X55189Y-28616D01*
X55259Y-28686D01*
X55350Y-28724D01*
X55449Y-28724D01*
X55799Y-28724D01*
X55891Y-28686D01*
X55950Y-28627D01*
X56009Y-28686D01*
X56100Y-28724D01*
X56199Y-28724D01*
X56549Y-28724D01*
X56641Y-28686D01*
X56711Y-28616D01*
X56749Y-28525D01*
X56749Y-28426D01*
X56749Y-28315D01*
X56887Y-28177D01*
X56887Y-28210D01*
X56931Y-28210D01*
X56903Y-28315D01*
X57055Y-28671D01*
X57332Y-28942D01*
X57671Y-29076D01*
X57825Y-29034D01*
X57825Y-28210D01*
X57825Y-28160D01*
X57825Y-28060D01*
X57925Y-28060D01*
X57975Y-28060D01*
X58805Y-28060D01*
X58847Y-27905D01*
X58695Y-27549D01*
X58418Y-27278D01*
X58079Y-27144D01*
X57975Y-27172D01*
X57975Y-27122D01*
X57942Y-27122D01*
X58555Y-26509D01*
X58607Y-26509D01*
X58706Y-26748D01*
X58979Y-27021D01*
X59335Y-27169D01*
X59720Y-27169D01*
X60076Y-27022D01*
X60349Y-26749D01*
X60497Y-26393D01*
X60497Y-26008D01*
X60497Y-25970D01*
X60350Y-25614D01*
X60077Y-25341D01*
X59721Y-25193D01*
X59538Y-25193D01*
X59616Y-25161D01*
X59650Y-25127D01*
X59684Y-25161D01*
X59775Y-25199D01*
X59874Y-25199D01*
X60424Y-25199D01*
X60516Y-25161D01*
X60574Y-25103D01*
X60650Y-25103D01*
X60726Y-25103D01*
X60784Y-25161D01*
X60875Y-25199D01*
X60974Y-25199D01*
X61524Y-25199D01*
X61616Y-25161D01*
X61686Y-25091D01*
X61724Y-25000D01*
X61724Y-27609D01*
X61594Y-27479D01*
X61327Y-27368D01*
X61037Y-27368D01*
X60769Y-27479D01*
X60564Y-27683D01*
X60453Y-27950D01*
X60453Y-28240D01*
X60453Y-28268D01*
X60564Y-28536D01*
X60768Y-28741D01*
X61035Y-28852D01*
X61325Y-28852D01*
X61593Y-28741D01*
X61725Y-28609D01*
X61725Y-32525D01*
X61725Y-32525D01*
G37*
G54D25*
X61725Y-32525D02*
X60497Y-32525D01*
X60497Y-29621D01*
X60497Y-29236D01*
X60497Y-29198D01*
X60350Y-28842D01*
X60077Y-28569D01*
X59721Y-28421D01*
X59336Y-28421D01*
X58980Y-28568D01*
X58847Y-28701D01*
X58847Y-28315D01*
X58805Y-28160D01*
X57925Y-28160D01*
X57925Y-29034D01*
X58079Y-29076D01*
X58418Y-28942D01*
X58695Y-28671D01*
X58847Y-28315D01*
X58847Y-28701D01*
X58707Y-28841D01*
X58559Y-29197D01*
X58559Y-29582D01*
X58559Y-29620D01*
X58706Y-29976D01*
X58979Y-30249D01*
X59335Y-30397D01*
X59720Y-30397D01*
X60076Y-30250D01*
X60349Y-29977D01*
X60497Y-29621D01*
X60497Y-32525D01*
X57825Y-32525D01*
X55013Y-32525D01*
X55013Y-30554D01*
X55013Y-30264D01*
X55013Y-30236D01*
X54902Y-29968D01*
X54698Y-29763D01*
X54431Y-29652D01*
X54141Y-29652D01*
X53873Y-29763D01*
X53668Y-29967D01*
X53557Y-30234D01*
X53557Y-30524D01*
X53557Y-30552D01*
X53668Y-30820D01*
X53872Y-31025D01*
X54139Y-31136D01*
X54429Y-31136D01*
X54697Y-31025D01*
X54902Y-30821D01*
X55013Y-30554D01*
X55013Y-32525D01*
X53189Y-32525D01*
X53453Y-32261D01*
X53601Y-31905D01*
X53601Y-31520D01*
X53601Y-31482D01*
X53454Y-31126D01*
X53181Y-30853D01*
X52825Y-30705D01*
X52440Y-30705D01*
X52084Y-30852D01*
X51951Y-30985D01*
X51951Y-30599D01*
X51909Y-30444D01*
X51029Y-30444D01*
X51029Y-31318D01*
X51183Y-31360D01*
X51522Y-31226D01*
X51799Y-30955D01*
X51951Y-30599D01*
X51951Y-30985D01*
X51811Y-31125D01*
X51663Y-31481D01*
X51663Y-31866D01*
X51663Y-31904D01*
X51810Y-32260D01*
X52075Y-32525D01*
X43275Y-32525D01*
X43275Y-28522D01*
X43281Y-28537D01*
X43485Y-28742D01*
X43752Y-28853D01*
X44042Y-28853D01*
X44310Y-28742D01*
X44515Y-28538D01*
X44626Y-28271D01*
X44626Y-27981D01*
X44626Y-27953D01*
X44515Y-27685D01*
X44311Y-27480D01*
X44044Y-27369D01*
X43754Y-27369D01*
X43486Y-27480D01*
X43281Y-27684D01*
X43275Y-27698D01*
X43275Y-19309D01*
X43281Y-19324D01*
X43485Y-19529D01*
X43752Y-19640D01*
X44042Y-19640D01*
X44310Y-19529D01*
X44515Y-19325D01*
X44626Y-19058D01*
X44626Y-18768D01*
X44626Y-18740D01*
X44515Y-18472D01*
X44311Y-18267D01*
X44044Y-18156D01*
X43754Y-18156D01*
X43486Y-18267D01*
X43281Y-18471D01*
X43275Y-18485D01*
X43275Y-15875D01*
X43400Y-15875D01*
X61725Y-15875D01*
X61725Y-18398D01*
X61594Y-18267D01*
X61327Y-18156D01*
X61037Y-18156D01*
X60769Y-18267D01*
X60564Y-18471D01*
X60497Y-18632D01*
X60497Y-17181D01*
X60497Y-16796D01*
X60497Y-16758D01*
X60350Y-16402D01*
X60077Y-16129D01*
X59721Y-15981D01*
X59336Y-15981D01*
X58980Y-16128D01*
X58707Y-16401D01*
X58559Y-16757D01*
X58559Y-17142D01*
X58559Y-17180D01*
X58617Y-17322D01*
X57197Y-17322D01*
X57161Y-17234D01*
X57091Y-17164D01*
X57000Y-17126D01*
X56901Y-17126D01*
X56551Y-17126D01*
X56459Y-17164D01*
X56400Y-17223D01*
X56341Y-17164D01*
X56250Y-17126D01*
X56151Y-17126D01*
X55801Y-17126D01*
X55709Y-17164D01*
X55639Y-17234D01*
X55601Y-17325D01*
X55601Y-17424D01*
X55601Y-17974D01*
X55639Y-18066D01*
X55697Y-18124D01*
X55697Y-18362D01*
X55675Y-18415D01*
X55675Y-18584D01*
X55739Y-18740D01*
X55859Y-18860D01*
X56015Y-18925D01*
X56184Y-18925D01*
X56340Y-18861D01*
X56460Y-18741D01*
X56525Y-18585D01*
X56525Y-18416D01*
X56461Y-18260D01*
X56353Y-18152D01*
X56353Y-18124D01*
X56400Y-18077D01*
X56459Y-18136D01*
X56550Y-18174D01*
X56649Y-18174D01*
X56999Y-18174D01*
X57091Y-18136D01*
X57161Y-18066D01*
X57197Y-17978D01*
X57554Y-17978D01*
X57332Y-18066D01*
X57055Y-18337D01*
X56903Y-18693D01*
X56945Y-18848D01*
X57775Y-18848D01*
X57825Y-18848D01*
X57925Y-18848D01*
X57975Y-18848D01*
X58805Y-18848D01*
X58847Y-18693D01*
X58695Y-18337D01*
X58418Y-18066D01*
X58195Y-17978D01*
X58847Y-17978D01*
X58972Y-17953D01*
X58973Y-17953D01*
X59079Y-17882D01*
X59101Y-17859D01*
X59335Y-17957D01*
X59720Y-17957D01*
X60076Y-17810D01*
X60349Y-17537D01*
X60497Y-17181D01*
X60497Y-18632D01*
X60453Y-18738D01*
X60453Y-19028D01*
X60453Y-19056D01*
X60564Y-19324D01*
X60768Y-19529D01*
X61035Y-19640D01*
X61325Y-19640D01*
X61593Y-19529D01*
X61725Y-19397D01*
X61725Y-27610D01*
X61724Y-27609D01*
X61724Y-25000D01*
X61724Y-24901D01*
X61724Y-24551D01*
X61686Y-24459D01*
X61627Y-24400D01*
X61686Y-24341D01*
X61724Y-24250D01*
X61724Y-24151D01*
X61724Y-23801D01*
X61686Y-23709D01*
X61616Y-23639D01*
X61525Y-23601D01*
X61508Y-23601D01*
X61503Y-23575D01*
X61503Y-23574D01*
X61452Y-23499D01*
X61524Y-23499D01*
X61616Y-23461D01*
X61686Y-23391D01*
X61724Y-23300D01*
X61724Y-23201D01*
X61724Y-23001D01*
X61686Y-22909D01*
X61677Y-22900D01*
X61686Y-22891D01*
X61724Y-22800D01*
X61724Y-22701D01*
X61724Y-22501D01*
X61686Y-22409D01*
X61677Y-22400D01*
X61686Y-22391D01*
X61724Y-22300D01*
X61724Y-22201D01*
X61724Y-22001D01*
X61686Y-21909D01*
X61677Y-21900D01*
X61686Y-21891D01*
X61724Y-21800D01*
X61724Y-21701D01*
X61724Y-21501D01*
X61686Y-21409D01*
X61616Y-21339D01*
X61525Y-21301D01*
X61446Y-21301D01*
X61406Y-21274D01*
X61273Y-21247D01*
X60938Y-20912D01*
X60806Y-20824D01*
X60650Y-20793D01*
X60321Y-20793D01*
X60349Y-20765D01*
X60497Y-20409D01*
X60497Y-20024D01*
X60497Y-19986D01*
X60350Y-19630D01*
X60077Y-19357D01*
X59721Y-19209D01*
X59336Y-19209D01*
X58980Y-19356D01*
X58847Y-19489D01*
X58847Y-19103D01*
X58805Y-18948D01*
X57925Y-18948D01*
X57925Y-19822D01*
X58079Y-19864D01*
X58418Y-19730D01*
X58695Y-19459D01*
X58847Y-19103D01*
X58847Y-19489D01*
X58707Y-19629D01*
X58559Y-19985D01*
X58559Y-20370D01*
X58559Y-20408D01*
X58706Y-20764D01*
X58735Y-20793D01*
X58250Y-20793D01*
X58094Y-20824D01*
X57962Y-20912D01*
X57960Y-20914D01*
X57862Y-21012D01*
X57825Y-21067D01*
X57825Y-19822D01*
X57825Y-18948D01*
X56945Y-18948D01*
X56903Y-19103D01*
X57055Y-19459D01*
X57332Y-19730D01*
X57671Y-19864D01*
X57825Y-19822D01*
X57825Y-21067D01*
X57774Y-21144D01*
X57743Y-21300D01*
X57743Y-21413D01*
X57715Y-21413D01*
X57628Y-21413D01*
X57528Y-21393D01*
X57250Y-21393D01*
X57069Y-21393D01*
X56726Y-21050D01*
X56800Y-21050D01*
X56800Y-21038D01*
X56812Y-21050D01*
X57049Y-21049D01*
X57141Y-21011D01*
X57211Y-20941D01*
X57249Y-20850D01*
X57249Y-20751D01*
X57250Y-20512D01*
X57250Y-20288D01*
X57249Y-20049D01*
X57249Y-19950D01*
X57211Y-19859D01*
X57141Y-19789D01*
X57049Y-19751D01*
X56812Y-19750D01*
X56750Y-19812D01*
X56750Y-20350D01*
X57188Y-20350D01*
X57250Y-20288D01*
X57250Y-20512D01*
X57188Y-20450D01*
X56800Y-20450D01*
X56750Y-20450D01*
X56650Y-20450D01*
X56650Y-20350D01*
X56650Y-20300D01*
X56650Y-19812D01*
X56588Y-19750D01*
X56457Y-19750D01*
X56426Y-19594D01*
X56338Y-19462D01*
X55493Y-18617D01*
X55493Y-18423D01*
X55395Y-18187D01*
X55258Y-18049D01*
X55394Y-17915D01*
X55493Y-17679D01*
X55493Y-17423D01*
X55395Y-17187D01*
X55215Y-17006D01*
X54979Y-16907D01*
X54723Y-16907D01*
X54487Y-17005D01*
X54308Y-17182D01*
X54294Y-17177D01*
X54223Y-17248D01*
X54223Y-17106D01*
X54186Y-17002D01*
X53950Y-16915D01*
X53700Y-16925D01*
X53514Y-17002D01*
X53477Y-17106D01*
X53850Y-17479D01*
X54223Y-17106D01*
X54223Y-17248D01*
X53921Y-17550D01*
X54294Y-17923D01*
X54309Y-17917D01*
X54441Y-18050D01*
X54308Y-18182D01*
X54294Y-18177D01*
X54223Y-18248D01*
X54223Y-18106D01*
X54203Y-18050D01*
X54223Y-17994D01*
X53850Y-17621D01*
X53779Y-17692D01*
X53779Y-17550D01*
X53406Y-17177D01*
X53350Y-17196D01*
X53294Y-17177D01*
X53223Y-17248D01*
X53223Y-17106D01*
X53186Y-17002D01*
X52950Y-16915D01*
X52700Y-16925D01*
X52514Y-17002D01*
X52477Y-17106D01*
X52850Y-17479D01*
X53223Y-17106D01*
X53223Y-17248D01*
X52921Y-17550D01*
X53294Y-17923D01*
X53350Y-17903D01*
X53406Y-17923D01*
X53779Y-17550D01*
X53779Y-17692D01*
X53477Y-17994D01*
X53496Y-18050D01*
X53477Y-18106D01*
X53850Y-18479D01*
X54223Y-18106D01*
X54223Y-18248D01*
X53921Y-18550D01*
X54294Y-18923D01*
X54309Y-18917D01*
X54485Y-19094D01*
X54721Y-19193D01*
X54917Y-19193D01*
X55475Y-19751D01*
X55051Y-19751D01*
X54959Y-19789D01*
X54889Y-19859D01*
X54851Y-19950D01*
X54851Y-20049D01*
X54851Y-20849D01*
X54889Y-20941D01*
X54959Y-21011D01*
X54993Y-21025D01*
X54993Y-21081D01*
X54858Y-21025D01*
X54460Y-21025D01*
X54223Y-21122D01*
X54223Y-18994D01*
X53850Y-18621D01*
X53779Y-18692D01*
X53779Y-18550D01*
X53406Y-18177D01*
X53350Y-18196D01*
X53294Y-18177D01*
X53223Y-18248D01*
X53223Y-18106D01*
X53203Y-18050D01*
X53223Y-17994D01*
X52850Y-17621D01*
X52779Y-17692D01*
X52779Y-17550D01*
X52406Y-17177D01*
X52350Y-17196D01*
X52294Y-17177D01*
X52223Y-17248D01*
X52223Y-17106D01*
X52186Y-17002D01*
X51950Y-16915D01*
X51700Y-16925D01*
X51514Y-17002D01*
X51477Y-17106D01*
X51850Y-17479D01*
X52223Y-17106D01*
X52223Y-17248D01*
X51921Y-17550D01*
X52294Y-17923D01*
X52350Y-17903D01*
X52406Y-17923D01*
X52779Y-17550D01*
X52779Y-17692D01*
X52477Y-17994D01*
X52496Y-18050D01*
X52477Y-18106D01*
X52850Y-18479D01*
X53223Y-18106D01*
X53223Y-18248D01*
X52921Y-18550D01*
X53294Y-18923D01*
X53350Y-18903D01*
X53406Y-18923D01*
X53779Y-18550D01*
X53779Y-18692D01*
X53477Y-18994D01*
X53514Y-19098D01*
X53750Y-19185D01*
X54000Y-19175D01*
X54186Y-19098D01*
X54223Y-18994D01*
X54223Y-21122D01*
X54092Y-21177D01*
X53811Y-21458D01*
X53658Y-21825D01*
X53658Y-22182D01*
X53223Y-21747D01*
X53223Y-18994D01*
X52850Y-18621D01*
X52779Y-18692D01*
X52779Y-18550D01*
X52406Y-18177D01*
X52350Y-18196D01*
X52294Y-18177D01*
X52223Y-18248D01*
X52223Y-18106D01*
X52203Y-18050D01*
X52223Y-17994D01*
X51850Y-17621D01*
X51477Y-17994D01*
X51496Y-18050D01*
X51477Y-18106D01*
X51850Y-18479D01*
X52223Y-18106D01*
X52223Y-18248D01*
X51921Y-18550D01*
X52294Y-18923D01*
X52350Y-18903D01*
X52406Y-18923D01*
X52779Y-18550D01*
X52779Y-18692D01*
X52477Y-18994D01*
X52514Y-19098D01*
X52750Y-19185D01*
X53000Y-19175D01*
X53186Y-19098D01*
X53223Y-18994D01*
X53223Y-21747D01*
X52223Y-20747D01*
X52223Y-18994D01*
X51850Y-18621D01*
X51477Y-18994D01*
X51514Y-19098D01*
X51750Y-19185D01*
X52000Y-19175D01*
X52186Y-19098D01*
X52223Y-18994D01*
X52223Y-20747D01*
X51257Y-19781D01*
X51257Y-19051D01*
X51391Y-18917D01*
X51406Y-18923D01*
X51779Y-18550D01*
X51406Y-18177D01*
X51390Y-18182D01*
X51258Y-18049D01*
X51391Y-17917D01*
X51406Y-17923D01*
X51779Y-17550D01*
X51406Y-17177D01*
X51390Y-17182D01*
X51215Y-17006D01*
X50979Y-16907D01*
X50723Y-16907D01*
X50487Y-17005D01*
X50306Y-17185D01*
X50207Y-17421D01*
X50207Y-17677D01*
X50305Y-17913D01*
X50441Y-18050D01*
X50306Y-18185D01*
X50207Y-18421D01*
X50207Y-18677D01*
X50305Y-18913D01*
X50443Y-19051D01*
X50443Y-19950D01*
X50474Y-20106D01*
X50562Y-20238D01*
X53710Y-23385D01*
X53712Y-23388D01*
X53844Y-23476D01*
X53999Y-23507D01*
X53999Y-23506D01*
X54000Y-23507D01*
X54993Y-23507D01*
X54976Y-23550D01*
X54976Y-23649D01*
X54976Y-23849D01*
X55014Y-23941D01*
X55023Y-23950D01*
X55014Y-23959D01*
X54976Y-24050D01*
X54976Y-24149D01*
X54976Y-24349D01*
X55014Y-24441D01*
X55023Y-24450D01*
X55014Y-24459D01*
X54976Y-24551D01*
X54975Y-24588D01*
X55037Y-24650D01*
X55350Y-24650D01*
X55400Y-24650D01*
X55500Y-24650D01*
X55550Y-24650D01*
X55863Y-24650D01*
X55924Y-24588D01*
X56047Y-24711D01*
X56047Y-25826D01*
X56000Y-25873D01*
X55941Y-25814D01*
X55850Y-25776D01*
X55751Y-25776D01*
X55525Y-25776D01*
X55525Y-25616D01*
X55515Y-25593D01*
X55606Y-25576D01*
X55646Y-25549D01*
X55724Y-25549D01*
X55816Y-25511D01*
X55886Y-25441D01*
X55924Y-25350D01*
X55924Y-25251D01*
X55924Y-25051D01*
X55886Y-24959D01*
X55877Y-24950D01*
X55886Y-24941D01*
X55924Y-24849D01*
X55925Y-24812D01*
X55863Y-24750D01*
X55550Y-24750D01*
X55500Y-24750D01*
X55400Y-24750D01*
X55350Y-24750D01*
X55037Y-24750D01*
X54975Y-24812D01*
X54975Y-24817D01*
X54944Y-24824D01*
X54812Y-24912D01*
X54728Y-24996D01*
X54728Y-24450D01*
X54727Y-24449D01*
X54703Y-24324D01*
X54632Y-24218D01*
X54631Y-24217D01*
X54282Y-23868D01*
X54176Y-23797D01*
X54050Y-23772D01*
X53350Y-23772D01*
X53224Y-23797D01*
X53118Y-23868D01*
X53115Y-23871D01*
X52772Y-24214D01*
X52643Y-24214D01*
X52619Y-24214D01*
X52384Y-24311D01*
X52263Y-24431D01*
X52158Y-24319D01*
X51925Y-24212D01*
X51823Y-24258D01*
X51823Y-24752D01*
X51823Y-24802D01*
X51823Y-24902D01*
X51723Y-24902D01*
X51723Y-24802D01*
X51723Y-24258D01*
X51621Y-24212D01*
X51388Y-24319D01*
X51213Y-24507D01*
X51141Y-24701D01*
X51188Y-24802D01*
X51723Y-24802D01*
X51723Y-24902D01*
X51673Y-24902D01*
X51188Y-24902D01*
X51141Y-25003D01*
X51213Y-25197D01*
X51388Y-25385D01*
X51621Y-25492D01*
X51642Y-25482D01*
X51424Y-25700D01*
X51424Y-25651D01*
X51386Y-25559D01*
X51316Y-25489D01*
X51225Y-25451D01*
X51126Y-25451D01*
X50676Y-25451D01*
X50625Y-25472D01*
X49486Y-25472D01*
X49082Y-25068D01*
X48976Y-24997D01*
X48850Y-24972D01*
X47385Y-24972D01*
X47078Y-24665D01*
X47090Y-24661D01*
X47210Y-24541D01*
X47275Y-24385D01*
X47275Y-24216D01*
X47238Y-24128D01*
X48102Y-24128D01*
X48139Y-24216D01*
X48209Y-24286D01*
X48300Y-24324D01*
X48399Y-24324D01*
X48749Y-24324D01*
X48841Y-24286D01*
X48900Y-24227D01*
X48959Y-24286D01*
X49050Y-24324D01*
X49149Y-24324D01*
X49499Y-24324D01*
X49591Y-24286D01*
X49661Y-24216D01*
X49697Y-24128D01*
X52050Y-24128D01*
X52175Y-24103D01*
X52176Y-24103D01*
X52282Y-24032D01*
X52689Y-23625D01*
X52734Y-23625D01*
X52890Y-23561D01*
X53010Y-23441D01*
X53075Y-23285D01*
X53075Y-23116D01*
X53011Y-22960D01*
X52891Y-22840D01*
X52735Y-22775D01*
X52566Y-22775D01*
X52410Y-22839D01*
X52290Y-22959D01*
X52225Y-23115D01*
X52225Y-23161D01*
X51914Y-23472D01*
X51668Y-23472D01*
X51668Y-22225D01*
X51668Y-21827D01*
X51516Y-21459D01*
X51235Y-21178D01*
X50868Y-21025D01*
X50470Y-21025D01*
X50102Y-21177D01*
X49821Y-21458D01*
X49668Y-21825D01*
X49668Y-22223D01*
X49820Y-22591D01*
X50101Y-22872D01*
X50468Y-23025D01*
X50866Y-23025D01*
X51234Y-22873D01*
X51515Y-22592D01*
X51668Y-22225D01*
X51668Y-23472D01*
X49697Y-23472D01*
X49661Y-23384D01*
X49591Y-23314D01*
X49500Y-23276D01*
X49443Y-23276D01*
X49443Y-21329D01*
X49443Y-21073D01*
X49345Y-20837D01*
X49208Y-20699D01*
X49344Y-20565D01*
X49443Y-20329D01*
X49443Y-20073D01*
X49345Y-19837D01*
X49165Y-19656D01*
X48929Y-19557D01*
X48673Y-19557D01*
X48437Y-19655D01*
X48256Y-19835D01*
X48176Y-20025D01*
X48176Y-19103D01*
X48176Y-18693D01*
X48024Y-18337D01*
X47747Y-18066D01*
X47408Y-17932D01*
X47254Y-17974D01*
X47254Y-18848D01*
X48134Y-18848D01*
X48176Y-18693D01*
X48176Y-19103D01*
X48134Y-18948D01*
X47254Y-18948D01*
X47254Y-19822D01*
X47408Y-19864D01*
X47747Y-19730D01*
X48024Y-19459D01*
X48176Y-19103D01*
X48176Y-20025D01*
X48157Y-20071D01*
X48157Y-20327D01*
X48255Y-20563D01*
X48391Y-20700D01*
X48256Y-20835D01*
X48157Y-21071D01*
X48157Y-21327D01*
X48255Y-21563D01*
X48435Y-21744D01*
X48671Y-21843D01*
X48927Y-21843D01*
X49163Y-21745D01*
X49344Y-21565D01*
X49443Y-21329D01*
X49443Y-23276D01*
X49401Y-23276D01*
X49051Y-23276D01*
X48959Y-23314D01*
X48900Y-23373D01*
X48841Y-23314D01*
X48750Y-23276D01*
X48651Y-23276D01*
X48301Y-23276D01*
X48209Y-23314D01*
X48139Y-23384D01*
X48102Y-23472D01*
X47186Y-23472D01*
X47175Y-23461D01*
X47175Y-23416D01*
X47154Y-23364D01*
X47154Y-19822D01*
X47154Y-18948D01*
X47154Y-18848D01*
X47154Y-17974D01*
X47000Y-17932D01*
X46661Y-18066D01*
X46520Y-18203D01*
X46520Y-17811D01*
X46520Y-17426D01*
X46520Y-17388D01*
X46373Y-17032D01*
X46100Y-16759D01*
X45744Y-16611D01*
X45359Y-16611D01*
X45003Y-16758D01*
X44730Y-17031D01*
X44582Y-17387D01*
X44582Y-17772D01*
X44582Y-17810D01*
X44729Y-18166D01*
X45002Y-18439D01*
X45358Y-18587D01*
X45743Y-18587D01*
X46099Y-18440D01*
X46372Y-18167D01*
X46520Y-17811D01*
X46520Y-18203D01*
X46384Y-18337D01*
X46232Y-18693D01*
X46274Y-18848D01*
X47154Y-18848D01*
X47154Y-18948D01*
X46274Y-18948D01*
X46232Y-19103D01*
X46384Y-19459D01*
X46661Y-19730D01*
X47000Y-19864D01*
X47154Y-19822D01*
X47154Y-23364D01*
X47111Y-23260D01*
X46991Y-23140D01*
X46835Y-23075D01*
X46666Y-23075D01*
X46528Y-23131D01*
X46528Y-22859D01*
X46563Y-22845D01*
X46744Y-22665D01*
X46843Y-22429D01*
X46843Y-22173D01*
X46745Y-21937D01*
X46565Y-21756D01*
X46329Y-21657D01*
X46110Y-21657D01*
X46372Y-21395D01*
X46520Y-21039D01*
X46520Y-20654D01*
X46520Y-20616D01*
X46373Y-20260D01*
X46100Y-19987D01*
X45744Y-19839D01*
X45359Y-19839D01*
X45003Y-19986D01*
X44730Y-20259D01*
X44582Y-20615D01*
X44582Y-21000D01*
X44582Y-21038D01*
X44729Y-21394D01*
X45002Y-21667D01*
X45358Y-21815D01*
X45743Y-21815D01*
X45800Y-21791D01*
X45656Y-21935D01*
X45557Y-22171D01*
X45557Y-22427D01*
X45655Y-22663D01*
X45835Y-22844D01*
X45872Y-22859D01*
X45872Y-23458D01*
X44843Y-22429D01*
X44843Y-22173D01*
X44745Y-21937D01*
X44565Y-21756D01*
X44329Y-21657D01*
X44073Y-21657D01*
X43837Y-21755D01*
X43656Y-21935D01*
X43557Y-22171D01*
X43557Y-22427D01*
X43655Y-22663D01*
X43835Y-22844D01*
X44071Y-22943D01*
X44327Y-22943D01*
X44399Y-22913D01*
X46143Y-24657D01*
X46073Y-24657D01*
X45837Y-24755D01*
X45658Y-24932D01*
X45644Y-24927D01*
X45573Y-24998D01*
X45573Y-24856D01*
X45536Y-24752D01*
X45300Y-24665D01*
X45050Y-24675D01*
X44864Y-24752D01*
X44827Y-24856D01*
X45200Y-25229D01*
X45573Y-24856D01*
X45573Y-24998D01*
X45271Y-25300D01*
X45644Y-25673D01*
X45659Y-25667D01*
X45835Y-25844D01*
X46071Y-25943D01*
X46327Y-25943D01*
X46563Y-25845D01*
X46589Y-25818D01*
X46639Y-25940D01*
X46759Y-26060D01*
X46915Y-26125D01*
X47084Y-26125D01*
X47100Y-26128D01*
X47985Y-26128D01*
X47976Y-26150D01*
X47976Y-26249D01*
X47976Y-26449D01*
X48014Y-26541D01*
X48023Y-26550D01*
X48014Y-26559D01*
X47976Y-26650D01*
X47976Y-26749D01*
X47976Y-26949D01*
X48014Y-27041D01*
X48023Y-27050D01*
X48014Y-27059D01*
X47976Y-27150D01*
X47976Y-27249D01*
X47976Y-27449D01*
X48013Y-27539D01*
X47747Y-27279D01*
X47408Y-27145D01*
X47254Y-27187D01*
X47254Y-28061D01*
X48134Y-28061D01*
X48176Y-27906D01*
X48024Y-27551D01*
X48084Y-27611D01*
X48175Y-27649D01*
X48253Y-27649D01*
X48294Y-27676D01*
X48450Y-27707D01*
X48575Y-27707D01*
X48559Y-27714D01*
X48489Y-27784D01*
X48451Y-27875D01*
X48451Y-27974D01*
X48450Y-28088D01*
X48512Y-28150D01*
X48775Y-28150D01*
X48825Y-28150D01*
X48925Y-28150D01*
X48925Y-28250D01*
X48925Y-28300D01*
X48925Y-28663D01*
X48987Y-28725D01*
X49099Y-28724D01*
X49191Y-28686D01*
X49250Y-28627D01*
X49309Y-28686D01*
X49400Y-28724D01*
X49499Y-28724D01*
X49687Y-28724D01*
X49685Y-28726D01*
X49401Y-28726D01*
X49309Y-28764D01*
X49250Y-28823D01*
X49191Y-28764D01*
X49100Y-28726D01*
X49001Y-28726D01*
X48825Y-28726D01*
X48825Y-28663D01*
X48825Y-28250D01*
X48512Y-28250D01*
X48450Y-28312D01*
X48451Y-28426D01*
X48451Y-28525D01*
X48489Y-28616D01*
X48559Y-28686D01*
X48651Y-28724D01*
X48763Y-28725D01*
X48825Y-28663D01*
X48825Y-28726D01*
X48651Y-28726D01*
X48559Y-28764D01*
X48489Y-28834D01*
X48452Y-28922D01*
X47768Y-28922D01*
X48024Y-28672D01*
X48176Y-28316D01*
X48134Y-28161D01*
X47304Y-28161D01*
X47254Y-28161D01*
X47154Y-28161D01*
X47154Y-28061D01*
X47154Y-27187D01*
X47000Y-27145D01*
X46661Y-27279D01*
X46520Y-27416D01*
X46520Y-27024D01*
X46520Y-26639D01*
X46520Y-26601D01*
X46373Y-26245D01*
X46100Y-25972D01*
X45744Y-25824D01*
X45544Y-25824D01*
X45573Y-25744D01*
X45200Y-25371D01*
X45129Y-25442D01*
X45129Y-25300D01*
X44756Y-24927D01*
X44740Y-24932D01*
X44565Y-24756D01*
X44329Y-24657D01*
X44073Y-24657D01*
X43837Y-24755D01*
X43656Y-24935D01*
X43557Y-25171D01*
X43557Y-25427D01*
X43655Y-25663D01*
X43835Y-25844D01*
X44071Y-25943D01*
X44327Y-25943D01*
X44563Y-25845D01*
X44741Y-25667D01*
X44756Y-25673D01*
X45129Y-25300D01*
X45129Y-25442D01*
X44827Y-25744D01*
X44864Y-25848D01*
X45094Y-25933D01*
X45003Y-25971D01*
X44730Y-26244D01*
X44582Y-26600D01*
X44582Y-26985D01*
X44582Y-27023D01*
X44729Y-27379D01*
X45002Y-27652D01*
X45358Y-27800D01*
X45743Y-27800D01*
X46099Y-27653D01*
X46372Y-27380D01*
X46520Y-27024D01*
X46520Y-27416D01*
X46384Y-27550D01*
X46232Y-27906D01*
X46274Y-28061D01*
X47154Y-28061D01*
X47154Y-28161D01*
X47104Y-28161D01*
X46274Y-28161D01*
X46232Y-28316D01*
X46384Y-28672D01*
X46639Y-28922D01*
X46341Y-28922D01*
X46215Y-28947D01*
X46109Y-29018D01*
X45977Y-29149D01*
X45744Y-29052D01*
X45359Y-29052D01*
X45003Y-29199D01*
X44730Y-29472D01*
X44582Y-29828D01*
X44582Y-30213D01*
X44582Y-30251D01*
X44729Y-30607D01*
X45002Y-30880D01*
X45358Y-31028D01*
X45743Y-31028D01*
X46099Y-30881D01*
X46372Y-30608D01*
X46520Y-30252D01*
X46520Y-29867D01*
X46520Y-29829D01*
X46434Y-29620D01*
X46477Y-29578D01*
X48452Y-29578D01*
X48489Y-29666D01*
X48548Y-29725D01*
X48489Y-29784D01*
X48451Y-29875D01*
X48451Y-29974D01*
X48451Y-30524D01*
X48489Y-30616D01*
X48559Y-30686D01*
X48650Y-30724D01*
X48749Y-30724D01*
X49099Y-30724D01*
X49191Y-30686D01*
X49250Y-30627D01*
X49309Y-30686D01*
X49401Y-30724D01*
X49513Y-30725D01*
X49575Y-30663D01*
X49575Y-30300D01*
X49575Y-30250D01*
X49575Y-30150D01*
X49675Y-30150D01*
X49675Y-30250D01*
X49675Y-30300D01*
X49675Y-30663D01*
X49737Y-30725D01*
X49849Y-30724D01*
X49941Y-30686D01*
X50011Y-30616D01*
X50012Y-30612D01*
X50159Y-30955D01*
X50436Y-31226D01*
X50775Y-31360D01*
X50929Y-31318D01*
X50929Y-30494D01*
X50929Y-30444D01*
X50929Y-30344D01*
X50929Y-30294D01*
X50929Y-29470D01*
X50775Y-29428D01*
X50436Y-29562D01*
X50159Y-29833D01*
X50050Y-30088D01*
X50049Y-29974D01*
X50049Y-29875D01*
X50011Y-29784D01*
X49952Y-29725D01*
X50011Y-29666D01*
X50049Y-29575D01*
X50049Y-29476D01*
X50049Y-29289D01*
X50328Y-29009D01*
X50331Y-29007D01*
X50332Y-29007D01*
X50403Y-28901D01*
X50428Y-28776D01*
X50427Y-28775D01*
X50428Y-28775D01*
X50428Y-28625D01*
X50584Y-28625D01*
X50740Y-28561D01*
X50860Y-28441D01*
X50925Y-28285D01*
X50925Y-28116D01*
X50861Y-27960D01*
X50828Y-27927D01*
X50828Y-27649D01*
X50838Y-27650D01*
X50900Y-27588D01*
X50900Y-27400D01*
X50900Y-27350D01*
X50900Y-27250D01*
X51000Y-27250D01*
X51050Y-27250D01*
X51363Y-27250D01*
X51425Y-27188D01*
X51424Y-27151D01*
X51386Y-27059D01*
X51377Y-27050D01*
X51386Y-27041D01*
X51424Y-26950D01*
X51424Y-26851D01*
X51424Y-26702D01*
X51556Y-26676D01*
X51688Y-26588D01*
X51843Y-26431D01*
X51862Y-26450D01*
X52250Y-26450D01*
X52300Y-26450D01*
X52400Y-26450D01*
X52450Y-26450D01*
X52838Y-26450D01*
X52900Y-26388D01*
X52899Y-26149D01*
X52899Y-26050D01*
X52881Y-26007D01*
X53118Y-26007D01*
X53101Y-26050D01*
X53101Y-26149D01*
X53101Y-26949D01*
X53139Y-27041D01*
X53209Y-27111D01*
X53300Y-27149D01*
X53399Y-27149D01*
X53987Y-27149D01*
X53346Y-27790D01*
X53181Y-27625D01*
X52900Y-27508D01*
X52900Y-26612D01*
X52838Y-26550D01*
X52400Y-26550D01*
X52400Y-27088D01*
X52462Y-27150D01*
X52699Y-27149D01*
X52791Y-27111D01*
X52861Y-27041D01*
X52899Y-26950D01*
X52899Y-26851D01*
X52900Y-26612D01*
X52900Y-27508D01*
X52825Y-27477D01*
X52440Y-27477D01*
X52300Y-27534D01*
X52300Y-27088D01*
X52300Y-26550D01*
X51862Y-26550D01*
X51800Y-26612D01*
X51801Y-26851D01*
X51801Y-26950D01*
X51839Y-27041D01*
X51909Y-27111D01*
X52001Y-27149D01*
X52238Y-27150D01*
X52300Y-27088D01*
X52300Y-27534D01*
X52084Y-27624D01*
X51811Y-27897D01*
X51663Y-28253D01*
X51663Y-28638D01*
X51663Y-28676D01*
X51757Y-28905D01*
X51685Y-28875D01*
X51516Y-28875D01*
X51425Y-28912D01*
X51425Y-27412D01*
X51363Y-27350D01*
X51000Y-27350D01*
X51000Y-27588D01*
X51062Y-27650D01*
X51126Y-27649D01*
X51225Y-27649D01*
X51316Y-27611D01*
X51386Y-27541D01*
X51424Y-27449D01*
X51425Y-27412D01*
X51425Y-28912D01*
X51360Y-28939D01*
X51240Y-29059D01*
X51175Y-29215D01*
X51175Y-29384D01*
X51194Y-29432D01*
X51183Y-29428D01*
X51029Y-29470D01*
X51029Y-30344D01*
X51909Y-30344D01*
X51951Y-30189D01*
X51815Y-29871D01*
X51850Y-29878D01*
X53450Y-29878D01*
X53575Y-29853D01*
X53576Y-29853D01*
X53682Y-29782D01*
X54936Y-28528D01*
X55152Y-28528D01*
X55189Y-28616D01*
X55259Y-28686D01*
X55350Y-28724D01*
X55449Y-28724D01*
X55799Y-28724D01*
X55891Y-28686D01*
X55950Y-28627D01*
X56009Y-28686D01*
X56100Y-28724D01*
X56199Y-28724D01*
X56549Y-28724D01*
X56641Y-28686D01*
X56711Y-28616D01*
X56749Y-28525D01*
X56749Y-28426D01*
X56749Y-28315D01*
X56887Y-28177D01*
X56887Y-28210D01*
X56931Y-28210D01*
X56903Y-28315D01*
X57055Y-28671D01*
X57332Y-28942D01*
X57671Y-29076D01*
X57825Y-29034D01*
X57825Y-28210D01*
X57825Y-28160D01*
X57825Y-28060D01*
X57925Y-28060D01*
X57975Y-28060D01*
X58805Y-28060D01*
X58847Y-27905D01*
X58695Y-27549D01*
X58418Y-27278D01*
X58079Y-27144D01*
X57975Y-27172D01*
X57975Y-27122D01*
X57942Y-27122D01*
X58555Y-26509D01*
X58607Y-26509D01*
X58706Y-26748D01*
X58979Y-27021D01*
X59335Y-27169D01*
X59720Y-27169D01*
X60076Y-27022D01*
X60349Y-26749D01*
X60497Y-26393D01*
X60497Y-26008D01*
X60497Y-25970D01*
X60350Y-25614D01*
X60077Y-25341D01*
X59721Y-25193D01*
X59538Y-25193D01*
X59616Y-25161D01*
X59650Y-25127D01*
X59684Y-25161D01*
X59775Y-25199D01*
X59874Y-25199D01*
X60424Y-25199D01*
X60516Y-25161D01*
X60574Y-25103D01*
X60650Y-25103D01*
X60726Y-25103D01*
X60784Y-25161D01*
X60875Y-25199D01*
X60974Y-25199D01*
X61524Y-25199D01*
X61616Y-25161D01*
X61686Y-25091D01*
X61724Y-25000D01*
X61724Y-27609D01*
X61594Y-27479D01*
X61327Y-27368D01*
X61037Y-27368D01*
X60769Y-27479D01*
X60564Y-27683D01*
X60453Y-27950D01*
X60453Y-28240D01*
X60453Y-28268D01*
X60564Y-28536D01*
X60768Y-28741D01*
X61035Y-28852D01*
X61325Y-28852D01*
X61593Y-28741D01*
X61725Y-28609D01*
X61725Y-32525D01*
M02*
