M48
;DRILL file {Pcbnew (2012-apr-16-27)-stable} date Thu 18 Jun 2015 14:48:41 CEST
;FORMAT={-:-/ absolute / inch / decimal}
FMAT,2
INCH,TZ
T1C0.025
T2C0.039
T3C0.040
T4C0.059
T5C0.087
T6C0.098
%
G90
G05
M72
T1
X4.675Y-2.350
X4.685Y-2.430
X4.700Y-2.570
X4.740Y-2.485
X4.910Y-2.675
X4.920Y-2.730
X4.990Y-2.620
X5.050Y-2.820
X5.160Y-2.930
X5.265Y-2.320
X5.510Y-2.570
X5.610Y-1.850
X5.685Y-2.505
X5.850Y-2.375
X5.935Y-2.255
X6.025Y-2.220
T2
X5.177Y-2.485
X5.276Y-2.485
X5.374Y-2.485
T3
X4.420Y-2.230
X4.420Y-2.530
X4.520Y-2.530
X4.620Y-2.230
X4.620Y-2.530
X4.880Y-2.020
X4.880Y-2.120
X5.085Y-1.755
X5.085Y-1.855
X5.185Y-1.755
X5.185Y-1.855
X5.285Y-1.755
X5.285Y-1.855
X5.385Y-1.755
X5.385Y-1.855
X5.485Y-1.755
X5.485Y-1.855
T4
X4.390Y-1.890
X4.390Y-2.811
X5.429Y-3.039
X6.118Y-1.890
X6.118Y-2.811
T5
X5.067Y-2.203
X5.466Y-2.203
T6
X4.555Y-1.760
X4.555Y-2.083
X4.555Y-2.681
X4.555Y-3.004
X4.720Y-1.890
X4.720Y-2.811
X5.098Y-3.039
X5.263Y-2.847
X5.263Y-3.169
X5.788Y-1.890
X5.788Y-2.811
X5.953Y-1.697
X5.953Y-2.020
X5.953Y-2.618
X5.953Y-2.941
T0
M30
