G04 (created by PCBNEW-RS274X (2012-apr-16-27)-stable) date Thu 18 Jun 2015 14:48:37 CEST*
G01*
G70*
G90*
%MOIN*%
G04 Gerber Fmt 3.4, Leading zero omitted, Abs format*
%FSLAX34Y34*%
G04 APERTURE LIST*
%ADD10C,0.006000*%
%ADD11C,0.015000*%
%ADD12O,0.147600X0.147600*%
%ADD13O,0.098400X0.098400*%
%ADD14O,0.080000X0.080000*%
%ADD15C,0.150000*%
%ADD16C,0.078700*%
%ADD17C,0.035000*%
%ADD18C,0.015700*%
%ADD19C,0.031500*%
%ADD20C,0.010000*%
G04 APERTURE END LIST*
G54D10*
G54D11*
X42950Y-15550D02*
X43400Y-15550D01*
X43000Y-15550D02*
X62050Y-15550D01*
X42950Y-32850D02*
X42950Y-15600D01*
X62050Y-32850D02*
X42950Y-32850D01*
X62050Y-15600D02*
X62050Y-32850D01*
G54D12*
X57875Y-18898D03*
X59528Y-16969D03*
X59528Y-20197D03*
G54D13*
X61181Y-18898D03*
G54D12*
X47204Y-18898D03*
X45551Y-20827D03*
X45551Y-17599D03*
G54D13*
X43898Y-18898D03*
G54D14*
X51773Y-24852D03*
X52757Y-24852D03*
X53741Y-24852D03*
G54D15*
X50668Y-22025D03*
X54658Y-22025D03*
G54D16*
X50850Y-18550D03*
X50850Y-17550D03*
X51850Y-18550D03*
X51850Y-17550D03*
X52850Y-18550D03*
X52850Y-17550D03*
X53850Y-18550D03*
X53850Y-17550D03*
X54850Y-18550D03*
X54850Y-17550D03*
X48800Y-20200D03*
X48800Y-21200D03*
X44200Y-25300D03*
X45200Y-25300D03*
X46200Y-25300D03*
X46200Y-22300D03*
X44200Y-22300D03*
G54D12*
X57875Y-28110D03*
X59528Y-26181D03*
X59528Y-29409D03*
G54D13*
X61181Y-28110D03*
G54D12*
X50979Y-30394D03*
X52632Y-28465D03*
X52632Y-31693D03*
G54D13*
X54285Y-30394D03*
G54D12*
X47204Y-28111D03*
X45551Y-30040D03*
X45551Y-26812D03*
G54D13*
X43898Y-28111D03*
G54D17*
X58500Y-23750D03*
X49200Y-27300D03*
X55100Y-25700D03*
X56850Y-25050D03*
X59350Y-22550D03*
X47400Y-24850D03*
X52650Y-23200D03*
X60250Y-22200D03*
X46850Y-24300D03*
X47000Y-25700D03*
X49100Y-26750D03*
X56100Y-18500D03*
X51600Y-29300D03*
X50500Y-28200D03*
X46750Y-23500D03*
X49900Y-26200D03*
G54D18*
X57150Y-16250D02*
X50250Y-16250D01*
X59528Y-18628D02*
X57150Y-16250D01*
X45551Y-17599D02*
X47699Y-17599D01*
X48800Y-18700D02*
X48800Y-20200D01*
X47699Y-17599D02*
X48800Y-18700D01*
X59528Y-20197D02*
X59528Y-18628D01*
X49400Y-21200D02*
X48800Y-21200D01*
X49650Y-20950D02*
X49400Y-21200D01*
X49650Y-16850D02*
X49650Y-20950D01*
X50250Y-16250D02*
X49650Y-16850D01*
G54D19*
X53741Y-24852D02*
X55048Y-24852D01*
X55048Y-24852D02*
X56150Y-23750D01*
X56150Y-23750D02*
X58500Y-23750D01*
X56850Y-25050D02*
X56200Y-25700D01*
X49200Y-27300D02*
X53400Y-27300D01*
X53400Y-27300D02*
X54100Y-26600D01*
X54100Y-26600D02*
X55250Y-26600D01*
X55250Y-26600D02*
X55800Y-26050D01*
X55800Y-26050D02*
X55800Y-25700D01*
X56200Y-25700D02*
X55800Y-25700D01*
X55800Y-25700D02*
X55100Y-25700D01*
X47400Y-24850D02*
X47500Y-24950D01*
X50979Y-30394D02*
X52994Y-30394D01*
X53850Y-17000D02*
X53850Y-17550D01*
X57875Y-18625D02*
X56000Y-16750D01*
X48650Y-30700D02*
X47204Y-29254D01*
X52994Y-30394D02*
X54100Y-31500D01*
X57875Y-18898D02*
X57875Y-18625D01*
X50979Y-30394D02*
X49556Y-30394D01*
X55900Y-31500D02*
X57875Y-29525D01*
X59350Y-22550D02*
X57875Y-21075D01*
X57875Y-21075D02*
X57875Y-18898D01*
X54100Y-31500D02*
X55900Y-31500D01*
X51850Y-17550D02*
X53850Y-17550D01*
X56000Y-16750D02*
X54100Y-16750D01*
X49250Y-30700D02*
X48650Y-30700D01*
X47204Y-29254D02*
X47204Y-28111D01*
X44400Y-26400D02*
X44400Y-27300D01*
X45211Y-28111D02*
X47204Y-28111D01*
X49556Y-30394D02*
X49250Y-30700D01*
X47500Y-27815D02*
X47204Y-28111D01*
X45200Y-25300D02*
X45200Y-25600D01*
X57875Y-29525D02*
X57875Y-28110D01*
X54100Y-16750D02*
X53850Y-17000D01*
X44400Y-27300D02*
X45211Y-28111D01*
X53850Y-18550D02*
X53850Y-17550D01*
X45200Y-25600D02*
X44400Y-26400D01*
X47500Y-24950D02*
X47500Y-27815D01*
X51850Y-18550D02*
X53850Y-18550D01*
G54D18*
X52650Y-23200D02*
X52750Y-23100D01*
X59350Y-23100D02*
X60250Y-22200D01*
X52750Y-23100D02*
X59350Y-23100D01*
X47000Y-24450D02*
X47000Y-25700D01*
X46850Y-24300D02*
X47000Y-24450D01*
X50300Y-26700D02*
X50950Y-26050D01*
X56100Y-18750D02*
X56100Y-18500D01*
X49100Y-26750D02*
X49150Y-26700D01*
X54900Y-20150D02*
X54900Y-19950D01*
X54900Y-19950D02*
X56100Y-18750D01*
X50950Y-26050D02*
X50950Y-24100D01*
X49150Y-26700D02*
X50300Y-26700D01*
X50950Y-24100D02*
X54900Y-20150D01*
X51100Y-29300D02*
X51600Y-29300D01*
X50500Y-28200D02*
X51100Y-29300D01*
X44200Y-25300D02*
X44200Y-24850D01*
X45550Y-23500D02*
X46750Y-23500D01*
X44200Y-24850D02*
X45550Y-23500D01*
X47774Y-23050D02*
X45551Y-20827D01*
X48600Y-23050D02*
X47774Y-23050D01*
X49900Y-23050D02*
X48600Y-23050D01*
X49900Y-23600D02*
X49900Y-23050D01*
X49900Y-24050D02*
X49900Y-23600D01*
X49900Y-24550D02*
X49900Y-24050D01*
X49900Y-26200D02*
X49900Y-24550D01*
G54D10*
G36*
X61725Y-32525D02*
X60497Y-32525D01*
X60497Y-29621D01*
X60497Y-29236D01*
X60497Y-29198D01*
X60350Y-28842D01*
X60077Y-28569D01*
X59721Y-28421D01*
X59336Y-28421D01*
X58980Y-28568D01*
X58847Y-28701D01*
X58847Y-28315D01*
X58847Y-27905D01*
X58695Y-27549D01*
X58418Y-27278D01*
X58079Y-27144D01*
X57925Y-27186D01*
X57925Y-28060D01*
X58805Y-28060D01*
X58847Y-27905D01*
X58847Y-28315D01*
X58805Y-28160D01*
X57925Y-28160D01*
X57925Y-29034D01*
X58079Y-29076D01*
X58418Y-28942D01*
X58695Y-28671D01*
X58847Y-28315D01*
X58847Y-28701D01*
X58707Y-28841D01*
X58559Y-29197D01*
X58559Y-29582D01*
X58559Y-29620D01*
X58706Y-29976D01*
X58979Y-30249D01*
X59335Y-30397D01*
X59720Y-30397D01*
X60076Y-30250D01*
X60349Y-29977D01*
X60497Y-29621D01*
X60497Y-32525D01*
X57825Y-32525D01*
X57825Y-29034D01*
X57825Y-28160D01*
X57825Y-28060D01*
X57825Y-27186D01*
X57671Y-27144D01*
X57332Y-27278D01*
X57055Y-27549D01*
X56903Y-27905D01*
X56945Y-28060D01*
X57825Y-28060D01*
X57825Y-28160D01*
X56945Y-28160D01*
X56903Y-28315D01*
X57055Y-28671D01*
X57332Y-28942D01*
X57671Y-29076D01*
X57825Y-29034D01*
X57825Y-32525D01*
X55013Y-32525D01*
X55013Y-30554D01*
X55013Y-30264D01*
X55013Y-30236D01*
X54902Y-29968D01*
X54698Y-29763D01*
X54431Y-29652D01*
X54141Y-29652D01*
X53873Y-29763D01*
X53668Y-29967D01*
X53557Y-30234D01*
X53557Y-30524D01*
X53557Y-30552D01*
X53668Y-30820D01*
X53872Y-31025D01*
X54139Y-31136D01*
X54429Y-31136D01*
X54697Y-31025D01*
X54902Y-30821D01*
X55013Y-30554D01*
X55013Y-32525D01*
X53189Y-32525D01*
X53453Y-32261D01*
X53601Y-31905D01*
X53601Y-31520D01*
X53601Y-31482D01*
X53454Y-31126D01*
X53181Y-30853D01*
X52825Y-30705D01*
X52440Y-30705D01*
X52084Y-30852D01*
X51951Y-30985D01*
X51951Y-30599D01*
X51909Y-30444D01*
X51029Y-30444D01*
X51029Y-31318D01*
X51183Y-31360D01*
X51522Y-31226D01*
X51799Y-30955D01*
X51951Y-30599D01*
X51951Y-30985D01*
X51811Y-31125D01*
X51663Y-31481D01*
X51663Y-31866D01*
X51663Y-31904D01*
X51810Y-32260D01*
X52075Y-32525D01*
X50929Y-32525D01*
X50929Y-31318D01*
X50929Y-30444D01*
X50049Y-30444D01*
X50007Y-30599D01*
X50159Y-30955D01*
X50436Y-31226D01*
X50775Y-31360D01*
X50929Y-31318D01*
X50929Y-32525D01*
X48176Y-32525D01*
X48176Y-28316D01*
X48176Y-27906D01*
X48024Y-27550D01*
X47747Y-27279D01*
X47425Y-27151D01*
X47425Y-25785D01*
X47425Y-25616D01*
X47361Y-25460D01*
X47328Y-25427D01*
X47328Y-24450D01*
X47303Y-24325D01*
X47303Y-24324D01*
X47275Y-24282D01*
X47275Y-24216D01*
X47211Y-24060D01*
X47091Y-23940D01*
X46945Y-23879D01*
X46990Y-23861D01*
X47110Y-23741D01*
X47175Y-23585D01*
X47175Y-23416D01*
X47111Y-23260D01*
X46991Y-23140D01*
X46835Y-23075D01*
X46666Y-23075D01*
X46510Y-23139D01*
X46477Y-23172D01*
X45550Y-23172D01*
X45424Y-23197D01*
X45318Y-23268D01*
X44843Y-23743D01*
X44843Y-22429D01*
X44843Y-22173D01*
X44745Y-21937D01*
X44565Y-21756D01*
X44329Y-21657D01*
X44073Y-21657D01*
X43837Y-21755D01*
X43656Y-21935D01*
X43557Y-22171D01*
X43557Y-22427D01*
X43655Y-22663D01*
X43835Y-22844D01*
X44071Y-22943D01*
X44327Y-22943D01*
X44563Y-22845D01*
X44744Y-22665D01*
X44843Y-22429D01*
X44843Y-23743D01*
X43968Y-24618D01*
X43897Y-24724D01*
X43895Y-24730D01*
X43837Y-24755D01*
X43656Y-24935D01*
X43557Y-25171D01*
X43557Y-25427D01*
X43655Y-25663D01*
X43835Y-25844D01*
X44071Y-25943D01*
X44327Y-25943D01*
X44563Y-25845D01*
X44741Y-25667D01*
X44756Y-25673D01*
X45129Y-25300D01*
X44756Y-24927D01*
X44740Y-24932D01*
X44661Y-24852D01*
X45686Y-23828D01*
X46477Y-23828D01*
X46509Y-23860D01*
X46654Y-23920D01*
X46610Y-23939D01*
X46490Y-24059D01*
X46425Y-24215D01*
X46425Y-24384D01*
X46489Y-24540D01*
X46609Y-24660D01*
X46672Y-24686D01*
X46672Y-24863D01*
X46565Y-24756D01*
X46329Y-24657D01*
X46073Y-24657D01*
X45837Y-24755D01*
X45658Y-24932D01*
X45644Y-24927D01*
X45573Y-24998D01*
X45573Y-24856D01*
X45536Y-24752D01*
X45300Y-24665D01*
X45050Y-24675D01*
X44864Y-24752D01*
X44827Y-24856D01*
X45200Y-25229D01*
X45573Y-24856D01*
X45573Y-24998D01*
X45271Y-25300D01*
X45644Y-25673D01*
X45659Y-25667D01*
X45835Y-25844D01*
X46071Y-25943D01*
X46327Y-25943D01*
X46563Y-25845D01*
X46589Y-25818D01*
X46639Y-25940D01*
X46759Y-26060D01*
X46915Y-26125D01*
X47084Y-26125D01*
X47240Y-26061D01*
X47360Y-25941D01*
X47425Y-25785D01*
X47425Y-27151D01*
X47408Y-27145D01*
X47254Y-27187D01*
X47254Y-28061D01*
X48134Y-28061D01*
X48176Y-27906D01*
X48176Y-28316D01*
X48134Y-28161D01*
X47254Y-28161D01*
X47254Y-29035D01*
X47408Y-29077D01*
X47747Y-28943D01*
X48024Y-28672D01*
X48176Y-28316D01*
X48176Y-32525D01*
X47154Y-32525D01*
X47154Y-29035D01*
X47154Y-28161D01*
X47154Y-28061D01*
X47154Y-27187D01*
X47000Y-27145D01*
X46661Y-27279D01*
X46520Y-27416D01*
X46520Y-27024D01*
X46520Y-26639D01*
X46520Y-26601D01*
X46373Y-26245D01*
X46100Y-25972D01*
X45744Y-25824D01*
X45544Y-25824D01*
X45573Y-25744D01*
X45200Y-25371D01*
X44827Y-25744D01*
X44864Y-25848D01*
X45094Y-25933D01*
X45003Y-25971D01*
X44730Y-26244D01*
X44582Y-26600D01*
X44582Y-26985D01*
X44582Y-27023D01*
X44729Y-27379D01*
X45002Y-27652D01*
X45358Y-27800D01*
X45743Y-27800D01*
X46099Y-27653D01*
X46372Y-27380D01*
X46520Y-27024D01*
X46520Y-27416D01*
X46384Y-27550D01*
X46232Y-27906D01*
X46274Y-28061D01*
X47154Y-28061D01*
X47154Y-28161D01*
X46274Y-28161D01*
X46232Y-28316D01*
X46384Y-28672D01*
X46661Y-28943D01*
X47000Y-29077D01*
X47154Y-29035D01*
X47154Y-32525D01*
X46520Y-32525D01*
X46520Y-30252D01*
X46520Y-29867D01*
X46520Y-29829D01*
X46373Y-29473D01*
X46100Y-29200D01*
X45744Y-29052D01*
X45359Y-29052D01*
X45003Y-29199D01*
X44730Y-29472D01*
X44582Y-29828D01*
X44582Y-30213D01*
X44582Y-30251D01*
X44729Y-30607D01*
X45002Y-30880D01*
X45358Y-31028D01*
X45743Y-31028D01*
X46099Y-30881D01*
X46372Y-30608D01*
X46520Y-30252D01*
X46520Y-32525D01*
X43275Y-32525D01*
X43275Y-28522D01*
X43281Y-28537D01*
X43485Y-28742D01*
X43752Y-28853D01*
X44042Y-28853D01*
X44310Y-28742D01*
X44515Y-28538D01*
X44626Y-28271D01*
X44626Y-27981D01*
X44626Y-27953D01*
X44515Y-27685D01*
X44311Y-27480D01*
X44044Y-27369D01*
X43754Y-27369D01*
X43486Y-27480D01*
X43281Y-27684D01*
X43275Y-27698D01*
X43275Y-19309D01*
X43281Y-19324D01*
X43485Y-19529D01*
X43752Y-19640D01*
X44042Y-19640D01*
X44310Y-19529D01*
X44515Y-19325D01*
X44626Y-19058D01*
X44626Y-18768D01*
X44626Y-18740D01*
X44515Y-18472D01*
X44311Y-18267D01*
X44044Y-18156D01*
X43754Y-18156D01*
X43486Y-18267D01*
X43281Y-18471D01*
X43275Y-18485D01*
X43275Y-15875D01*
X43400Y-15875D01*
X61725Y-15875D01*
X61725Y-18398D01*
X61594Y-18267D01*
X61327Y-18156D01*
X61037Y-18156D01*
X60769Y-18267D01*
X60564Y-18471D01*
X60453Y-18738D01*
X60453Y-19028D01*
X60453Y-19056D01*
X60564Y-19324D01*
X60768Y-19529D01*
X61035Y-19640D01*
X61325Y-19640D01*
X61593Y-19529D01*
X61725Y-19397D01*
X61725Y-27610D01*
X61594Y-27479D01*
X61327Y-27368D01*
X61037Y-27368D01*
X60769Y-27479D01*
X60675Y-27572D01*
X60675Y-22285D01*
X60675Y-22116D01*
X60611Y-21960D01*
X60497Y-21846D01*
X60497Y-20409D01*
X60497Y-20024D01*
X60497Y-19986D01*
X60350Y-19630D01*
X60077Y-19357D01*
X59856Y-19265D01*
X59856Y-18628D01*
X59855Y-18627D01*
X59831Y-18502D01*
X59760Y-18396D01*
X59759Y-18395D01*
X59311Y-17947D01*
X59335Y-17957D01*
X59720Y-17957D01*
X60076Y-17810D01*
X60349Y-17537D01*
X60497Y-17181D01*
X60497Y-16796D01*
X60497Y-16758D01*
X60350Y-16402D01*
X60077Y-16129D01*
X59721Y-15981D01*
X59336Y-15981D01*
X58980Y-16128D01*
X58707Y-16401D01*
X58559Y-16757D01*
X58559Y-17142D01*
X58559Y-17180D01*
X58569Y-17205D01*
X57382Y-16018D01*
X57276Y-15947D01*
X57150Y-15922D01*
X50250Y-15922D01*
X50124Y-15947D01*
X50018Y-16018D01*
X49418Y-16618D01*
X49347Y-16724D01*
X49322Y-16850D01*
X49322Y-19813D01*
X49165Y-19656D01*
X49128Y-19640D01*
X49128Y-18700D01*
X49103Y-18575D01*
X49103Y-18574D01*
X49032Y-18468D01*
X47931Y-17367D01*
X47825Y-17296D01*
X47699Y-17271D01*
X46471Y-17271D01*
X46373Y-17032D01*
X46100Y-16759D01*
X45744Y-16611D01*
X45359Y-16611D01*
X45003Y-16758D01*
X44730Y-17031D01*
X44582Y-17387D01*
X44582Y-17772D01*
X44582Y-17810D01*
X44729Y-18166D01*
X45002Y-18439D01*
X45358Y-18587D01*
X45743Y-18587D01*
X46099Y-18440D01*
X46372Y-18167D01*
X46471Y-17927D01*
X47104Y-17927D01*
X47104Y-17960D01*
X47000Y-17932D01*
X46661Y-18066D01*
X46384Y-18337D01*
X46232Y-18693D01*
X46274Y-18848D01*
X47104Y-18848D01*
X47154Y-18848D01*
X47254Y-18848D01*
X47304Y-18848D01*
X48134Y-18848D01*
X48176Y-18693D01*
X48062Y-18426D01*
X48472Y-18836D01*
X48472Y-19640D01*
X48437Y-19655D01*
X48256Y-19835D01*
X48176Y-20025D01*
X48176Y-19103D01*
X48134Y-18948D01*
X47254Y-18948D01*
X47254Y-19822D01*
X47408Y-19864D01*
X47747Y-19730D01*
X48024Y-19459D01*
X48176Y-19103D01*
X48176Y-20025D01*
X48157Y-20071D01*
X48157Y-20327D01*
X48255Y-20563D01*
X48391Y-20700D01*
X48256Y-20835D01*
X48157Y-21071D01*
X48157Y-21327D01*
X48255Y-21563D01*
X48435Y-21744D01*
X48671Y-21843D01*
X48927Y-21843D01*
X49163Y-21745D01*
X49344Y-21565D01*
X49359Y-21528D01*
X49400Y-21528D01*
X49525Y-21503D01*
X49526Y-21503D01*
X49632Y-21432D01*
X49882Y-21182D01*
X49953Y-21076D01*
X49978Y-20950D01*
X49978Y-16986D01*
X50386Y-16578D01*
X57014Y-16578D01*
X59200Y-18764D01*
X59200Y-19265D01*
X58980Y-19356D01*
X58847Y-19489D01*
X58847Y-19103D01*
X58847Y-18693D01*
X58695Y-18337D01*
X58418Y-18066D01*
X58079Y-17932D01*
X57925Y-17974D01*
X57925Y-18848D01*
X58805Y-18848D01*
X58847Y-18693D01*
X58847Y-19103D01*
X58805Y-18948D01*
X57925Y-18948D01*
X57925Y-19822D01*
X58079Y-19864D01*
X58418Y-19730D01*
X58695Y-19459D01*
X58847Y-19103D01*
X58847Y-19489D01*
X58707Y-19629D01*
X58559Y-19985D01*
X58559Y-20370D01*
X58559Y-20408D01*
X58706Y-20764D01*
X58979Y-21037D01*
X59335Y-21185D01*
X59720Y-21185D01*
X60076Y-21038D01*
X60349Y-20765D01*
X60497Y-20409D01*
X60497Y-21846D01*
X60491Y-21840D01*
X60335Y-21775D01*
X60166Y-21775D01*
X60010Y-21839D01*
X59890Y-21959D01*
X59825Y-22115D01*
X59825Y-22161D01*
X59214Y-22772D01*
X57825Y-22772D01*
X57825Y-19822D01*
X57825Y-18948D01*
X57825Y-18848D01*
X57825Y-17974D01*
X57671Y-17932D01*
X57332Y-18066D01*
X57055Y-18337D01*
X56903Y-18693D01*
X56945Y-18848D01*
X57825Y-18848D01*
X57825Y-18948D01*
X56945Y-18948D01*
X56903Y-19103D01*
X57055Y-19459D01*
X57332Y-19730D01*
X57671Y-19864D01*
X57825Y-19822D01*
X57825Y-22772D01*
X55325Y-22772D01*
X55505Y-22592D01*
X55658Y-22225D01*
X55658Y-21827D01*
X55506Y-21459D01*
X55225Y-21178D01*
X54858Y-21025D01*
X54489Y-21025D01*
X55132Y-20382D01*
X55203Y-20276D01*
X55203Y-20275D01*
X55228Y-20150D01*
X55228Y-20086D01*
X56332Y-18982D01*
X56403Y-18876D01*
X56403Y-18875D01*
X56422Y-18778D01*
X56460Y-18741D01*
X56525Y-18585D01*
X56525Y-18416D01*
X56461Y-18260D01*
X56341Y-18140D01*
X56185Y-18075D01*
X56016Y-18075D01*
X55860Y-18139D01*
X55740Y-18259D01*
X55675Y-18415D01*
X55675Y-18584D01*
X55711Y-18674D01*
X55493Y-18892D01*
X55493Y-18679D01*
X55493Y-18423D01*
X55395Y-18187D01*
X55258Y-18049D01*
X55394Y-17915D01*
X55493Y-17679D01*
X55493Y-17423D01*
X55395Y-17187D01*
X55215Y-17006D01*
X54979Y-16907D01*
X54723Y-16907D01*
X54487Y-17005D01*
X54308Y-17182D01*
X54294Y-17177D01*
X54223Y-17248D01*
X54223Y-17106D01*
X54186Y-17002D01*
X53950Y-16915D01*
X53700Y-16925D01*
X53514Y-17002D01*
X53477Y-17106D01*
X53850Y-17479D01*
X54223Y-17106D01*
X54223Y-17248D01*
X53921Y-17550D01*
X54294Y-17923D01*
X54309Y-17917D01*
X54441Y-18050D01*
X54308Y-18182D01*
X54294Y-18177D01*
X54223Y-18248D01*
X54223Y-18106D01*
X54203Y-18050D01*
X54223Y-17994D01*
X53850Y-17621D01*
X53779Y-17692D01*
X53779Y-17550D01*
X53406Y-17177D01*
X53350Y-17196D01*
X53294Y-17177D01*
X53223Y-17248D01*
X53223Y-17106D01*
X53186Y-17002D01*
X52950Y-16915D01*
X52700Y-16925D01*
X52514Y-17002D01*
X52477Y-17106D01*
X52850Y-17479D01*
X53223Y-17106D01*
X53223Y-17248D01*
X52921Y-17550D01*
X53294Y-17923D01*
X53350Y-17903D01*
X53406Y-17923D01*
X53779Y-17550D01*
X53779Y-17692D01*
X53477Y-17994D01*
X53496Y-18050D01*
X53477Y-18106D01*
X53850Y-18479D01*
X54223Y-18106D01*
X54223Y-18248D01*
X53921Y-18550D01*
X54294Y-18923D01*
X54309Y-18917D01*
X54485Y-19094D01*
X54721Y-19193D01*
X54977Y-19193D01*
X55213Y-19095D01*
X55394Y-18915D01*
X55493Y-18679D01*
X55493Y-18892D01*
X54668Y-19718D01*
X54597Y-19824D01*
X54572Y-19950D01*
X54572Y-20014D01*
X54223Y-20363D01*
X54223Y-18994D01*
X53850Y-18621D01*
X53779Y-18692D01*
X53779Y-18550D01*
X53406Y-18177D01*
X53350Y-18196D01*
X53294Y-18177D01*
X53223Y-18248D01*
X53223Y-18106D01*
X53203Y-18050D01*
X53223Y-17994D01*
X52850Y-17621D01*
X52779Y-17692D01*
X52779Y-17550D01*
X52406Y-17177D01*
X52350Y-17196D01*
X52294Y-17177D01*
X52223Y-17248D01*
X52223Y-17106D01*
X52186Y-17002D01*
X51950Y-16915D01*
X51700Y-16925D01*
X51514Y-17002D01*
X51477Y-17106D01*
X51850Y-17479D01*
X52223Y-17106D01*
X52223Y-17248D01*
X51921Y-17550D01*
X52294Y-17923D01*
X52350Y-17903D01*
X52406Y-17923D01*
X52779Y-17550D01*
X52779Y-17692D01*
X52477Y-17994D01*
X52496Y-18050D01*
X52477Y-18106D01*
X52850Y-18479D01*
X53223Y-18106D01*
X53223Y-18248D01*
X52921Y-18550D01*
X53294Y-18923D01*
X53350Y-18903D01*
X53406Y-18923D01*
X53779Y-18550D01*
X53779Y-18692D01*
X53477Y-18994D01*
X53514Y-19098D01*
X53750Y-19185D01*
X54000Y-19175D01*
X54186Y-19098D01*
X54223Y-18994D01*
X54223Y-20363D01*
X53223Y-21363D01*
X53223Y-18994D01*
X52850Y-18621D01*
X52779Y-18692D01*
X52779Y-18550D01*
X52406Y-18177D01*
X52350Y-18196D01*
X52294Y-18177D01*
X52223Y-18248D01*
X52223Y-18106D01*
X52203Y-18050D01*
X52223Y-17994D01*
X51850Y-17621D01*
X51477Y-17994D01*
X51496Y-18050D01*
X51477Y-18106D01*
X51850Y-18479D01*
X52223Y-18106D01*
X52223Y-18248D01*
X51921Y-18550D01*
X52294Y-18923D01*
X52350Y-18903D01*
X52406Y-18923D01*
X52779Y-18550D01*
X52779Y-18692D01*
X52477Y-18994D01*
X52514Y-19098D01*
X52750Y-19185D01*
X53000Y-19175D01*
X53186Y-19098D01*
X53223Y-18994D01*
X53223Y-21363D01*
X52223Y-22363D01*
X52223Y-18994D01*
X51850Y-18621D01*
X51779Y-18692D01*
X51779Y-18550D01*
X51406Y-18177D01*
X51390Y-18182D01*
X51258Y-18049D01*
X51391Y-17917D01*
X51406Y-17923D01*
X51779Y-17550D01*
X51406Y-17177D01*
X51390Y-17182D01*
X51215Y-17006D01*
X50979Y-16907D01*
X50723Y-16907D01*
X50487Y-17005D01*
X50306Y-17185D01*
X50207Y-17421D01*
X50207Y-17677D01*
X50305Y-17913D01*
X50441Y-18050D01*
X50306Y-18185D01*
X50207Y-18421D01*
X50207Y-18677D01*
X50305Y-18913D01*
X50485Y-19094D01*
X50721Y-19193D01*
X50977Y-19193D01*
X51213Y-19095D01*
X51391Y-18917D01*
X51406Y-18923D01*
X51779Y-18550D01*
X51779Y-18692D01*
X51477Y-18994D01*
X51514Y-19098D01*
X51750Y-19185D01*
X52000Y-19175D01*
X52186Y-19098D01*
X52223Y-18994D01*
X52223Y-22363D01*
X50718Y-23868D01*
X50647Y-23974D01*
X50622Y-24100D01*
X50622Y-25914D01*
X50325Y-26211D01*
X50325Y-26116D01*
X50261Y-25960D01*
X50228Y-25927D01*
X50228Y-24550D01*
X50228Y-24050D01*
X50228Y-23600D01*
X50228Y-23050D01*
X50203Y-22924D01*
X50194Y-22910D01*
X50468Y-23025D01*
X50866Y-23025D01*
X51234Y-22873D01*
X51515Y-22592D01*
X51668Y-22225D01*
X51668Y-21827D01*
X51516Y-21459D01*
X51235Y-21178D01*
X50868Y-21025D01*
X50470Y-21025D01*
X50102Y-21177D01*
X49821Y-21458D01*
X49668Y-21825D01*
X49668Y-22223D01*
X49820Y-22591D01*
X49963Y-22734D01*
X49900Y-22722D01*
X48600Y-22722D01*
X47909Y-22722D01*
X47154Y-21967D01*
X47154Y-19822D01*
X47154Y-18948D01*
X46274Y-18948D01*
X46232Y-19103D01*
X46384Y-19459D01*
X46661Y-19730D01*
X47000Y-19864D01*
X47154Y-19822D01*
X47154Y-21967D01*
X46433Y-21246D01*
X46520Y-21039D01*
X46520Y-20654D01*
X46520Y-20616D01*
X46373Y-20260D01*
X46100Y-19987D01*
X45744Y-19839D01*
X45359Y-19839D01*
X45003Y-19986D01*
X44730Y-20259D01*
X44582Y-20615D01*
X44582Y-21000D01*
X44582Y-21038D01*
X44729Y-21394D01*
X45002Y-21667D01*
X45358Y-21815D01*
X45743Y-21815D01*
X45800Y-21791D01*
X45656Y-21935D01*
X45557Y-22171D01*
X45557Y-22427D01*
X45655Y-22663D01*
X45835Y-22844D01*
X46071Y-22943D01*
X46327Y-22943D01*
X46563Y-22845D01*
X46744Y-22665D01*
X46797Y-22537D01*
X47539Y-23278D01*
X47542Y-23282D01*
X47648Y-23353D01*
X47773Y-23378D01*
X47773Y-23377D01*
X47774Y-23378D01*
X48600Y-23378D01*
X49572Y-23378D01*
X49572Y-23600D01*
X49572Y-24050D01*
X49572Y-24550D01*
X49572Y-25927D01*
X49540Y-25959D01*
X49475Y-26115D01*
X49475Y-26284D01*
X49511Y-26372D01*
X49297Y-26372D01*
X49185Y-26325D01*
X49016Y-26325D01*
X48860Y-26389D01*
X48740Y-26509D01*
X48675Y-26665D01*
X48675Y-26834D01*
X48739Y-26990D01*
X48830Y-27081D01*
X48775Y-27215D01*
X48775Y-27384D01*
X48839Y-27540D01*
X48959Y-27660D01*
X49115Y-27725D01*
X49284Y-27725D01*
X49327Y-27707D01*
X52001Y-27707D01*
X51811Y-27897D01*
X51663Y-28253D01*
X51663Y-28638D01*
X51663Y-28676D01*
X51757Y-28905D01*
X51685Y-28875D01*
X51516Y-28875D01*
X51360Y-28939D01*
X51327Y-28972D01*
X51294Y-28972D01*
X50922Y-28290D01*
X50925Y-28285D01*
X50925Y-28116D01*
X50861Y-27960D01*
X50741Y-27840D01*
X50585Y-27775D01*
X50416Y-27775D01*
X50260Y-27839D01*
X50140Y-27959D01*
X50075Y-28115D01*
X50075Y-28284D01*
X50139Y-28440D01*
X50259Y-28560D01*
X50341Y-28594D01*
X50799Y-29434D01*
X50775Y-29428D01*
X50436Y-29562D01*
X50159Y-29833D01*
X50007Y-30189D01*
X50049Y-30344D01*
X50879Y-30344D01*
X50929Y-30344D01*
X51029Y-30344D01*
X51079Y-30344D01*
X51909Y-30344D01*
X51951Y-30189D01*
X51799Y-29833D01*
X51687Y-29723D01*
X51840Y-29661D01*
X51960Y-29541D01*
X52025Y-29385D01*
X52025Y-29247D01*
X52083Y-29305D01*
X52439Y-29453D01*
X52824Y-29453D01*
X53180Y-29306D01*
X53453Y-29033D01*
X53601Y-28677D01*
X53601Y-28292D01*
X53601Y-28254D01*
X53454Y-27898D01*
X53263Y-27707D01*
X53400Y-27707D01*
X53556Y-27676D01*
X53688Y-27588D01*
X54268Y-27007D01*
X55250Y-27007D01*
X55406Y-26976D01*
X55538Y-26888D01*
X56085Y-26339D01*
X56087Y-26338D01*
X56088Y-26338D01*
X56176Y-26206D01*
X56195Y-26107D01*
X56200Y-26107D01*
X56356Y-26076D01*
X56488Y-25988D01*
X57047Y-25428D01*
X57090Y-25411D01*
X57210Y-25291D01*
X57275Y-25135D01*
X57275Y-24966D01*
X57211Y-24810D01*
X57091Y-24690D01*
X56935Y-24625D01*
X56766Y-24625D01*
X56610Y-24689D01*
X56490Y-24809D01*
X56472Y-24851D01*
X56031Y-25293D01*
X55800Y-25293D01*
X55228Y-25293D01*
X55185Y-25275D01*
X55016Y-25275D01*
X54860Y-25339D01*
X54740Y-25459D01*
X54675Y-25615D01*
X54675Y-25784D01*
X54739Y-25940D01*
X54859Y-26060D01*
X55015Y-26125D01*
X55149Y-26125D01*
X55081Y-26193D01*
X54100Y-26193D01*
X54099Y-26193D01*
X53944Y-26224D01*
X53812Y-26312D01*
X53810Y-26314D01*
X53231Y-26893D01*
X50571Y-26893D01*
X51182Y-26282D01*
X51253Y-26176D01*
X51253Y-26175D01*
X51278Y-26050D01*
X51278Y-25266D01*
X51388Y-25385D01*
X51621Y-25492D01*
X51723Y-25446D01*
X51723Y-24952D01*
X51723Y-24902D01*
X51723Y-24802D01*
X51723Y-24752D01*
X51723Y-24258D01*
X51621Y-24212D01*
X51388Y-24319D01*
X51278Y-24437D01*
X51278Y-24236D01*
X52226Y-23287D01*
X52289Y-23440D01*
X52409Y-23560D01*
X52565Y-23625D01*
X52734Y-23625D01*
X52890Y-23561D01*
X53010Y-23441D01*
X53015Y-23428D01*
X55913Y-23428D01*
X55862Y-23462D01*
X55860Y-23464D01*
X54879Y-24445D01*
X54248Y-24445D01*
X54115Y-24312D01*
X53881Y-24214D01*
X53627Y-24214D01*
X53603Y-24214D01*
X53368Y-24311D01*
X53249Y-24430D01*
X53131Y-24312D01*
X52897Y-24214D01*
X52643Y-24214D01*
X52619Y-24214D01*
X52384Y-24311D01*
X52263Y-24431D01*
X52158Y-24319D01*
X51925Y-24212D01*
X51823Y-24258D01*
X51823Y-24752D01*
X51823Y-24802D01*
X51823Y-24902D01*
X51823Y-24952D01*
X51823Y-25446D01*
X51925Y-25492D01*
X52158Y-25385D01*
X52263Y-25272D01*
X52383Y-25392D01*
X52617Y-25490D01*
X52871Y-25490D01*
X52895Y-25490D01*
X53130Y-25393D01*
X53249Y-25274D01*
X53367Y-25392D01*
X53601Y-25490D01*
X53855Y-25490D01*
X53879Y-25490D01*
X54114Y-25393D01*
X54248Y-25259D01*
X55048Y-25259D01*
X55204Y-25228D01*
X55336Y-25140D01*
X56318Y-24157D01*
X58371Y-24157D01*
X58415Y-24175D01*
X58584Y-24175D01*
X58740Y-24111D01*
X58860Y-23991D01*
X58925Y-23835D01*
X58925Y-23666D01*
X58861Y-23510D01*
X58779Y-23428D01*
X59350Y-23428D01*
X59475Y-23403D01*
X59476Y-23403D01*
X59582Y-23332D01*
X60288Y-22625D01*
X60334Y-22625D01*
X60490Y-22561D01*
X60610Y-22441D01*
X60675Y-22285D01*
X60675Y-27572D01*
X60564Y-27683D01*
X60497Y-27844D01*
X60497Y-26393D01*
X60497Y-26008D01*
X60497Y-25970D01*
X60350Y-25614D01*
X60077Y-25341D01*
X59721Y-25193D01*
X59336Y-25193D01*
X58980Y-25340D01*
X58707Y-25613D01*
X58559Y-25969D01*
X58559Y-26354D01*
X58559Y-26392D01*
X58706Y-26748D01*
X58979Y-27021D01*
X59335Y-27169D01*
X59720Y-27169D01*
X60076Y-27022D01*
X60349Y-26749D01*
X60497Y-26393D01*
X60497Y-27844D01*
X60453Y-27950D01*
X60453Y-28240D01*
X60453Y-28268D01*
X60564Y-28536D01*
X60768Y-28741D01*
X61035Y-28852D01*
X61325Y-28852D01*
X61593Y-28741D01*
X61725Y-28609D01*
X61725Y-32525D01*
X61725Y-32525D01*
G37*
G54D20*
X61725Y-32525D02*
X60497Y-32525D01*
X60497Y-29621D01*
X60497Y-29236D01*
X60497Y-29198D01*
X60350Y-28842D01*
X60077Y-28569D01*
X59721Y-28421D01*
X59336Y-28421D01*
X58980Y-28568D01*
X58847Y-28701D01*
X58847Y-28315D01*
X58847Y-27905D01*
X58695Y-27549D01*
X58418Y-27278D01*
X58079Y-27144D01*
X57925Y-27186D01*
X57925Y-28060D01*
X58805Y-28060D01*
X58847Y-27905D01*
X58847Y-28315D01*
X58805Y-28160D01*
X57925Y-28160D01*
X57925Y-29034D01*
X58079Y-29076D01*
X58418Y-28942D01*
X58695Y-28671D01*
X58847Y-28315D01*
X58847Y-28701D01*
X58707Y-28841D01*
X58559Y-29197D01*
X58559Y-29582D01*
X58559Y-29620D01*
X58706Y-29976D01*
X58979Y-30249D01*
X59335Y-30397D01*
X59720Y-30397D01*
X60076Y-30250D01*
X60349Y-29977D01*
X60497Y-29621D01*
X60497Y-32525D01*
X57825Y-32525D01*
X57825Y-29034D01*
X57825Y-28160D01*
X57825Y-28060D01*
X57825Y-27186D01*
X57671Y-27144D01*
X57332Y-27278D01*
X57055Y-27549D01*
X56903Y-27905D01*
X56945Y-28060D01*
X57825Y-28060D01*
X57825Y-28160D01*
X56945Y-28160D01*
X56903Y-28315D01*
X57055Y-28671D01*
X57332Y-28942D01*
X57671Y-29076D01*
X57825Y-29034D01*
X57825Y-32525D01*
X55013Y-32525D01*
X55013Y-30554D01*
X55013Y-30264D01*
X55013Y-30236D01*
X54902Y-29968D01*
X54698Y-29763D01*
X54431Y-29652D01*
X54141Y-29652D01*
X53873Y-29763D01*
X53668Y-29967D01*
X53557Y-30234D01*
X53557Y-30524D01*
X53557Y-30552D01*
X53668Y-30820D01*
X53872Y-31025D01*
X54139Y-31136D01*
X54429Y-31136D01*
X54697Y-31025D01*
X54902Y-30821D01*
X55013Y-30554D01*
X55013Y-32525D01*
X53189Y-32525D01*
X53453Y-32261D01*
X53601Y-31905D01*
X53601Y-31520D01*
X53601Y-31482D01*
X53454Y-31126D01*
X53181Y-30853D01*
X52825Y-30705D01*
X52440Y-30705D01*
X52084Y-30852D01*
X51951Y-30985D01*
X51951Y-30599D01*
X51909Y-30444D01*
X51029Y-30444D01*
X51029Y-31318D01*
X51183Y-31360D01*
X51522Y-31226D01*
X51799Y-30955D01*
X51951Y-30599D01*
X51951Y-30985D01*
X51811Y-31125D01*
X51663Y-31481D01*
X51663Y-31866D01*
X51663Y-31904D01*
X51810Y-32260D01*
X52075Y-32525D01*
X50929Y-32525D01*
X50929Y-31318D01*
X50929Y-30444D01*
X50049Y-30444D01*
X50007Y-30599D01*
X50159Y-30955D01*
X50436Y-31226D01*
X50775Y-31360D01*
X50929Y-31318D01*
X50929Y-32525D01*
X48176Y-32525D01*
X48176Y-28316D01*
X48176Y-27906D01*
X48024Y-27550D01*
X47747Y-27279D01*
X47425Y-27151D01*
X47425Y-25785D01*
X47425Y-25616D01*
X47361Y-25460D01*
X47328Y-25427D01*
X47328Y-24450D01*
X47303Y-24325D01*
X47303Y-24324D01*
X47275Y-24282D01*
X47275Y-24216D01*
X47211Y-24060D01*
X47091Y-23940D01*
X46945Y-23879D01*
X46990Y-23861D01*
X47110Y-23741D01*
X47175Y-23585D01*
X47175Y-23416D01*
X47111Y-23260D01*
X46991Y-23140D01*
X46835Y-23075D01*
X46666Y-23075D01*
X46510Y-23139D01*
X46477Y-23172D01*
X45550Y-23172D01*
X45424Y-23197D01*
X45318Y-23268D01*
X44843Y-23743D01*
X44843Y-22429D01*
X44843Y-22173D01*
X44745Y-21937D01*
X44565Y-21756D01*
X44329Y-21657D01*
X44073Y-21657D01*
X43837Y-21755D01*
X43656Y-21935D01*
X43557Y-22171D01*
X43557Y-22427D01*
X43655Y-22663D01*
X43835Y-22844D01*
X44071Y-22943D01*
X44327Y-22943D01*
X44563Y-22845D01*
X44744Y-22665D01*
X44843Y-22429D01*
X44843Y-23743D01*
X43968Y-24618D01*
X43897Y-24724D01*
X43895Y-24730D01*
X43837Y-24755D01*
X43656Y-24935D01*
X43557Y-25171D01*
X43557Y-25427D01*
X43655Y-25663D01*
X43835Y-25844D01*
X44071Y-25943D01*
X44327Y-25943D01*
X44563Y-25845D01*
X44741Y-25667D01*
X44756Y-25673D01*
X45129Y-25300D01*
X44756Y-24927D01*
X44740Y-24932D01*
X44661Y-24852D01*
X45686Y-23828D01*
X46477Y-23828D01*
X46509Y-23860D01*
X46654Y-23920D01*
X46610Y-23939D01*
X46490Y-24059D01*
X46425Y-24215D01*
X46425Y-24384D01*
X46489Y-24540D01*
X46609Y-24660D01*
X46672Y-24686D01*
X46672Y-24863D01*
X46565Y-24756D01*
X46329Y-24657D01*
X46073Y-24657D01*
X45837Y-24755D01*
X45658Y-24932D01*
X45644Y-24927D01*
X45573Y-24998D01*
X45573Y-24856D01*
X45536Y-24752D01*
X45300Y-24665D01*
X45050Y-24675D01*
X44864Y-24752D01*
X44827Y-24856D01*
X45200Y-25229D01*
X45573Y-24856D01*
X45573Y-24998D01*
X45271Y-25300D01*
X45644Y-25673D01*
X45659Y-25667D01*
X45835Y-25844D01*
X46071Y-25943D01*
X46327Y-25943D01*
X46563Y-25845D01*
X46589Y-25818D01*
X46639Y-25940D01*
X46759Y-26060D01*
X46915Y-26125D01*
X47084Y-26125D01*
X47240Y-26061D01*
X47360Y-25941D01*
X47425Y-25785D01*
X47425Y-27151D01*
X47408Y-27145D01*
X47254Y-27187D01*
X47254Y-28061D01*
X48134Y-28061D01*
X48176Y-27906D01*
X48176Y-28316D01*
X48134Y-28161D01*
X47254Y-28161D01*
X47254Y-29035D01*
X47408Y-29077D01*
X47747Y-28943D01*
X48024Y-28672D01*
X48176Y-28316D01*
X48176Y-32525D01*
X47154Y-32525D01*
X47154Y-29035D01*
X47154Y-28161D01*
X47154Y-28061D01*
X47154Y-27187D01*
X47000Y-27145D01*
X46661Y-27279D01*
X46520Y-27416D01*
X46520Y-27024D01*
X46520Y-26639D01*
X46520Y-26601D01*
X46373Y-26245D01*
X46100Y-25972D01*
X45744Y-25824D01*
X45544Y-25824D01*
X45573Y-25744D01*
X45200Y-25371D01*
X44827Y-25744D01*
X44864Y-25848D01*
X45094Y-25933D01*
X45003Y-25971D01*
X44730Y-26244D01*
X44582Y-26600D01*
X44582Y-26985D01*
X44582Y-27023D01*
X44729Y-27379D01*
X45002Y-27652D01*
X45358Y-27800D01*
X45743Y-27800D01*
X46099Y-27653D01*
X46372Y-27380D01*
X46520Y-27024D01*
X46520Y-27416D01*
X46384Y-27550D01*
X46232Y-27906D01*
X46274Y-28061D01*
X47154Y-28061D01*
X47154Y-28161D01*
X46274Y-28161D01*
X46232Y-28316D01*
X46384Y-28672D01*
X46661Y-28943D01*
X47000Y-29077D01*
X47154Y-29035D01*
X47154Y-32525D01*
X46520Y-32525D01*
X46520Y-30252D01*
X46520Y-29867D01*
X46520Y-29829D01*
X46373Y-29473D01*
X46100Y-29200D01*
X45744Y-29052D01*
X45359Y-29052D01*
X45003Y-29199D01*
X44730Y-29472D01*
X44582Y-29828D01*
X44582Y-30213D01*
X44582Y-30251D01*
X44729Y-30607D01*
X45002Y-30880D01*
X45358Y-31028D01*
X45743Y-31028D01*
X46099Y-30881D01*
X46372Y-30608D01*
X46520Y-30252D01*
X46520Y-32525D01*
X43275Y-32525D01*
X43275Y-28522D01*
X43281Y-28537D01*
X43485Y-28742D01*
X43752Y-28853D01*
X44042Y-28853D01*
X44310Y-28742D01*
X44515Y-28538D01*
X44626Y-28271D01*
X44626Y-27981D01*
X44626Y-27953D01*
X44515Y-27685D01*
X44311Y-27480D01*
X44044Y-27369D01*
X43754Y-27369D01*
X43486Y-27480D01*
X43281Y-27684D01*
X43275Y-27698D01*
X43275Y-19309D01*
X43281Y-19324D01*
X43485Y-19529D01*
X43752Y-19640D01*
X44042Y-19640D01*
X44310Y-19529D01*
X44515Y-19325D01*
X44626Y-19058D01*
X44626Y-18768D01*
X44626Y-18740D01*
X44515Y-18472D01*
X44311Y-18267D01*
X44044Y-18156D01*
X43754Y-18156D01*
X43486Y-18267D01*
X43281Y-18471D01*
X43275Y-18485D01*
X43275Y-15875D01*
X43400Y-15875D01*
X61725Y-15875D01*
X61725Y-18398D01*
X61594Y-18267D01*
X61327Y-18156D01*
X61037Y-18156D01*
X60769Y-18267D01*
X60564Y-18471D01*
X60453Y-18738D01*
X60453Y-19028D01*
X60453Y-19056D01*
X60564Y-19324D01*
X60768Y-19529D01*
X61035Y-19640D01*
X61325Y-19640D01*
X61593Y-19529D01*
X61725Y-19397D01*
X61725Y-27610D01*
X61594Y-27479D01*
X61327Y-27368D01*
X61037Y-27368D01*
X60769Y-27479D01*
X60675Y-27572D01*
X60675Y-22285D01*
X60675Y-22116D01*
X60611Y-21960D01*
X60497Y-21846D01*
X60497Y-20409D01*
X60497Y-20024D01*
X60497Y-19986D01*
X60350Y-19630D01*
X60077Y-19357D01*
X59856Y-19265D01*
X59856Y-18628D01*
X59855Y-18627D01*
X59831Y-18502D01*
X59760Y-18396D01*
X59759Y-18395D01*
X59311Y-17947D01*
X59335Y-17957D01*
X59720Y-17957D01*
X60076Y-17810D01*
X60349Y-17537D01*
X60497Y-17181D01*
X60497Y-16796D01*
X60497Y-16758D01*
X60350Y-16402D01*
X60077Y-16129D01*
X59721Y-15981D01*
X59336Y-15981D01*
X58980Y-16128D01*
X58707Y-16401D01*
X58559Y-16757D01*
X58559Y-17142D01*
X58559Y-17180D01*
X58569Y-17205D01*
X57382Y-16018D01*
X57276Y-15947D01*
X57150Y-15922D01*
X50250Y-15922D01*
X50124Y-15947D01*
X50018Y-16018D01*
X49418Y-16618D01*
X49347Y-16724D01*
X49322Y-16850D01*
X49322Y-19813D01*
X49165Y-19656D01*
X49128Y-19640D01*
X49128Y-18700D01*
X49103Y-18575D01*
X49103Y-18574D01*
X49032Y-18468D01*
X47931Y-17367D01*
X47825Y-17296D01*
X47699Y-17271D01*
X46471Y-17271D01*
X46373Y-17032D01*
X46100Y-16759D01*
X45744Y-16611D01*
X45359Y-16611D01*
X45003Y-16758D01*
X44730Y-17031D01*
X44582Y-17387D01*
X44582Y-17772D01*
X44582Y-17810D01*
X44729Y-18166D01*
X45002Y-18439D01*
X45358Y-18587D01*
X45743Y-18587D01*
X46099Y-18440D01*
X46372Y-18167D01*
X46471Y-17927D01*
X47104Y-17927D01*
X47104Y-17960D01*
X47000Y-17932D01*
X46661Y-18066D01*
X46384Y-18337D01*
X46232Y-18693D01*
X46274Y-18848D01*
X47104Y-18848D01*
X47154Y-18848D01*
X47254Y-18848D01*
X47304Y-18848D01*
X48134Y-18848D01*
X48176Y-18693D01*
X48062Y-18426D01*
X48472Y-18836D01*
X48472Y-19640D01*
X48437Y-19655D01*
X48256Y-19835D01*
X48176Y-20025D01*
X48176Y-19103D01*
X48134Y-18948D01*
X47254Y-18948D01*
X47254Y-19822D01*
X47408Y-19864D01*
X47747Y-19730D01*
X48024Y-19459D01*
X48176Y-19103D01*
X48176Y-20025D01*
X48157Y-20071D01*
X48157Y-20327D01*
X48255Y-20563D01*
X48391Y-20700D01*
X48256Y-20835D01*
X48157Y-21071D01*
X48157Y-21327D01*
X48255Y-21563D01*
X48435Y-21744D01*
X48671Y-21843D01*
X48927Y-21843D01*
X49163Y-21745D01*
X49344Y-21565D01*
X49359Y-21528D01*
X49400Y-21528D01*
X49525Y-21503D01*
X49526Y-21503D01*
X49632Y-21432D01*
X49882Y-21182D01*
X49953Y-21076D01*
X49978Y-20950D01*
X49978Y-16986D01*
X50386Y-16578D01*
X57014Y-16578D01*
X59200Y-18764D01*
X59200Y-19265D01*
X58980Y-19356D01*
X58847Y-19489D01*
X58847Y-19103D01*
X58847Y-18693D01*
X58695Y-18337D01*
X58418Y-18066D01*
X58079Y-17932D01*
X57925Y-17974D01*
X57925Y-18848D01*
X58805Y-18848D01*
X58847Y-18693D01*
X58847Y-19103D01*
X58805Y-18948D01*
X57925Y-18948D01*
X57925Y-19822D01*
X58079Y-19864D01*
X58418Y-19730D01*
X58695Y-19459D01*
X58847Y-19103D01*
X58847Y-19489D01*
X58707Y-19629D01*
X58559Y-19985D01*
X58559Y-20370D01*
X58559Y-20408D01*
X58706Y-20764D01*
X58979Y-21037D01*
X59335Y-21185D01*
X59720Y-21185D01*
X60076Y-21038D01*
X60349Y-20765D01*
X60497Y-20409D01*
X60497Y-21846D01*
X60491Y-21840D01*
X60335Y-21775D01*
X60166Y-21775D01*
X60010Y-21839D01*
X59890Y-21959D01*
X59825Y-22115D01*
X59825Y-22161D01*
X59214Y-22772D01*
X57825Y-22772D01*
X57825Y-19822D01*
X57825Y-18948D01*
X57825Y-18848D01*
X57825Y-17974D01*
X57671Y-17932D01*
X57332Y-18066D01*
X57055Y-18337D01*
X56903Y-18693D01*
X56945Y-18848D01*
X57825Y-18848D01*
X57825Y-18948D01*
X56945Y-18948D01*
X56903Y-19103D01*
X57055Y-19459D01*
X57332Y-19730D01*
X57671Y-19864D01*
X57825Y-19822D01*
X57825Y-22772D01*
X55325Y-22772D01*
X55505Y-22592D01*
X55658Y-22225D01*
X55658Y-21827D01*
X55506Y-21459D01*
X55225Y-21178D01*
X54858Y-21025D01*
X54489Y-21025D01*
X55132Y-20382D01*
X55203Y-20276D01*
X55203Y-20275D01*
X55228Y-20150D01*
X55228Y-20086D01*
X56332Y-18982D01*
X56403Y-18876D01*
X56403Y-18875D01*
X56422Y-18778D01*
X56460Y-18741D01*
X56525Y-18585D01*
X56525Y-18416D01*
X56461Y-18260D01*
X56341Y-18140D01*
X56185Y-18075D01*
X56016Y-18075D01*
X55860Y-18139D01*
X55740Y-18259D01*
X55675Y-18415D01*
X55675Y-18584D01*
X55711Y-18674D01*
X55493Y-18892D01*
X55493Y-18679D01*
X55493Y-18423D01*
X55395Y-18187D01*
X55258Y-18049D01*
X55394Y-17915D01*
X55493Y-17679D01*
X55493Y-17423D01*
X55395Y-17187D01*
X55215Y-17006D01*
X54979Y-16907D01*
X54723Y-16907D01*
X54487Y-17005D01*
X54308Y-17182D01*
X54294Y-17177D01*
X54223Y-17248D01*
X54223Y-17106D01*
X54186Y-17002D01*
X53950Y-16915D01*
X53700Y-16925D01*
X53514Y-17002D01*
X53477Y-17106D01*
X53850Y-17479D01*
X54223Y-17106D01*
X54223Y-17248D01*
X53921Y-17550D01*
X54294Y-17923D01*
X54309Y-17917D01*
X54441Y-18050D01*
X54308Y-18182D01*
X54294Y-18177D01*
X54223Y-18248D01*
X54223Y-18106D01*
X54203Y-18050D01*
X54223Y-17994D01*
X53850Y-17621D01*
X53779Y-17692D01*
X53779Y-17550D01*
X53406Y-17177D01*
X53350Y-17196D01*
X53294Y-17177D01*
X53223Y-17248D01*
X53223Y-17106D01*
X53186Y-17002D01*
X52950Y-16915D01*
X52700Y-16925D01*
X52514Y-17002D01*
X52477Y-17106D01*
X52850Y-17479D01*
X53223Y-17106D01*
X53223Y-17248D01*
X52921Y-17550D01*
X53294Y-17923D01*
X53350Y-17903D01*
X53406Y-17923D01*
X53779Y-17550D01*
X53779Y-17692D01*
X53477Y-17994D01*
X53496Y-18050D01*
X53477Y-18106D01*
X53850Y-18479D01*
X54223Y-18106D01*
X54223Y-18248D01*
X53921Y-18550D01*
X54294Y-18923D01*
X54309Y-18917D01*
X54485Y-19094D01*
X54721Y-19193D01*
X54977Y-19193D01*
X55213Y-19095D01*
X55394Y-18915D01*
X55493Y-18679D01*
X55493Y-18892D01*
X54668Y-19718D01*
X54597Y-19824D01*
X54572Y-19950D01*
X54572Y-20014D01*
X54223Y-20363D01*
X54223Y-18994D01*
X53850Y-18621D01*
X53779Y-18692D01*
X53779Y-18550D01*
X53406Y-18177D01*
X53350Y-18196D01*
X53294Y-18177D01*
X53223Y-18248D01*
X53223Y-18106D01*
X53203Y-18050D01*
X53223Y-17994D01*
X52850Y-17621D01*
X52779Y-17692D01*
X52779Y-17550D01*
X52406Y-17177D01*
X52350Y-17196D01*
X52294Y-17177D01*
X52223Y-17248D01*
X52223Y-17106D01*
X52186Y-17002D01*
X51950Y-16915D01*
X51700Y-16925D01*
X51514Y-17002D01*
X51477Y-17106D01*
X51850Y-17479D01*
X52223Y-17106D01*
X52223Y-17248D01*
X51921Y-17550D01*
X52294Y-17923D01*
X52350Y-17903D01*
X52406Y-17923D01*
X52779Y-17550D01*
X52779Y-17692D01*
X52477Y-17994D01*
X52496Y-18050D01*
X52477Y-18106D01*
X52850Y-18479D01*
X53223Y-18106D01*
X53223Y-18248D01*
X52921Y-18550D01*
X53294Y-18923D01*
X53350Y-18903D01*
X53406Y-18923D01*
X53779Y-18550D01*
X53779Y-18692D01*
X53477Y-18994D01*
X53514Y-19098D01*
X53750Y-19185D01*
X54000Y-19175D01*
X54186Y-19098D01*
X54223Y-18994D01*
X54223Y-20363D01*
X53223Y-21363D01*
X53223Y-18994D01*
X52850Y-18621D01*
X52779Y-18692D01*
X52779Y-18550D01*
X52406Y-18177D01*
X52350Y-18196D01*
X52294Y-18177D01*
X52223Y-18248D01*
X52223Y-18106D01*
X52203Y-18050D01*
X52223Y-17994D01*
X51850Y-17621D01*
X51477Y-17994D01*
X51496Y-18050D01*
X51477Y-18106D01*
X51850Y-18479D01*
X52223Y-18106D01*
X52223Y-18248D01*
X51921Y-18550D01*
X52294Y-18923D01*
X52350Y-18903D01*
X52406Y-18923D01*
X52779Y-18550D01*
X52779Y-18692D01*
X52477Y-18994D01*
X52514Y-19098D01*
X52750Y-19185D01*
X53000Y-19175D01*
X53186Y-19098D01*
X53223Y-18994D01*
X53223Y-21363D01*
X52223Y-22363D01*
X52223Y-18994D01*
X51850Y-18621D01*
X51779Y-18692D01*
X51779Y-18550D01*
X51406Y-18177D01*
X51390Y-18182D01*
X51258Y-18049D01*
X51391Y-17917D01*
X51406Y-17923D01*
X51779Y-17550D01*
X51406Y-17177D01*
X51390Y-17182D01*
X51215Y-17006D01*
X50979Y-16907D01*
X50723Y-16907D01*
X50487Y-17005D01*
X50306Y-17185D01*
X50207Y-17421D01*
X50207Y-17677D01*
X50305Y-17913D01*
X50441Y-18050D01*
X50306Y-18185D01*
X50207Y-18421D01*
X50207Y-18677D01*
X50305Y-18913D01*
X50485Y-19094D01*
X50721Y-19193D01*
X50977Y-19193D01*
X51213Y-19095D01*
X51391Y-18917D01*
X51406Y-18923D01*
X51779Y-18550D01*
X51779Y-18692D01*
X51477Y-18994D01*
X51514Y-19098D01*
X51750Y-19185D01*
X52000Y-19175D01*
X52186Y-19098D01*
X52223Y-18994D01*
X52223Y-22363D01*
X50718Y-23868D01*
X50647Y-23974D01*
X50622Y-24100D01*
X50622Y-25914D01*
X50325Y-26211D01*
X50325Y-26116D01*
X50261Y-25960D01*
X50228Y-25927D01*
X50228Y-24550D01*
X50228Y-24050D01*
X50228Y-23600D01*
X50228Y-23050D01*
X50203Y-22924D01*
X50194Y-22910D01*
X50468Y-23025D01*
X50866Y-23025D01*
X51234Y-22873D01*
X51515Y-22592D01*
X51668Y-22225D01*
X51668Y-21827D01*
X51516Y-21459D01*
X51235Y-21178D01*
X50868Y-21025D01*
X50470Y-21025D01*
X50102Y-21177D01*
X49821Y-21458D01*
X49668Y-21825D01*
X49668Y-22223D01*
X49820Y-22591D01*
X49963Y-22734D01*
X49900Y-22722D01*
X48600Y-22722D01*
X47909Y-22722D01*
X47154Y-21967D01*
X47154Y-19822D01*
X47154Y-18948D01*
X46274Y-18948D01*
X46232Y-19103D01*
X46384Y-19459D01*
X46661Y-19730D01*
X47000Y-19864D01*
X47154Y-19822D01*
X47154Y-21967D01*
X46433Y-21246D01*
X46520Y-21039D01*
X46520Y-20654D01*
X46520Y-20616D01*
X46373Y-20260D01*
X46100Y-19987D01*
X45744Y-19839D01*
X45359Y-19839D01*
X45003Y-19986D01*
X44730Y-20259D01*
X44582Y-20615D01*
X44582Y-21000D01*
X44582Y-21038D01*
X44729Y-21394D01*
X45002Y-21667D01*
X45358Y-21815D01*
X45743Y-21815D01*
X45800Y-21791D01*
X45656Y-21935D01*
X45557Y-22171D01*
X45557Y-22427D01*
X45655Y-22663D01*
X45835Y-22844D01*
X46071Y-22943D01*
X46327Y-22943D01*
X46563Y-22845D01*
X46744Y-22665D01*
X46797Y-22537D01*
X47539Y-23278D01*
X47542Y-23282D01*
X47648Y-23353D01*
X47773Y-23378D01*
X47773Y-23377D01*
X47774Y-23378D01*
X48600Y-23378D01*
X49572Y-23378D01*
X49572Y-23600D01*
X49572Y-24050D01*
X49572Y-24550D01*
X49572Y-25927D01*
X49540Y-25959D01*
X49475Y-26115D01*
X49475Y-26284D01*
X49511Y-26372D01*
X49297Y-26372D01*
X49185Y-26325D01*
X49016Y-26325D01*
X48860Y-26389D01*
X48740Y-26509D01*
X48675Y-26665D01*
X48675Y-26834D01*
X48739Y-26990D01*
X48830Y-27081D01*
X48775Y-27215D01*
X48775Y-27384D01*
X48839Y-27540D01*
X48959Y-27660D01*
X49115Y-27725D01*
X49284Y-27725D01*
X49327Y-27707D01*
X52001Y-27707D01*
X51811Y-27897D01*
X51663Y-28253D01*
X51663Y-28638D01*
X51663Y-28676D01*
X51757Y-28905D01*
X51685Y-28875D01*
X51516Y-28875D01*
X51360Y-28939D01*
X51327Y-28972D01*
X51294Y-28972D01*
X50922Y-28290D01*
X50925Y-28285D01*
X50925Y-28116D01*
X50861Y-27960D01*
X50741Y-27840D01*
X50585Y-27775D01*
X50416Y-27775D01*
X50260Y-27839D01*
X50140Y-27959D01*
X50075Y-28115D01*
X50075Y-28284D01*
X50139Y-28440D01*
X50259Y-28560D01*
X50341Y-28594D01*
X50799Y-29434D01*
X50775Y-29428D01*
X50436Y-29562D01*
X50159Y-29833D01*
X50007Y-30189D01*
X50049Y-30344D01*
X50879Y-30344D01*
X50929Y-30344D01*
X51029Y-30344D01*
X51079Y-30344D01*
X51909Y-30344D01*
X51951Y-30189D01*
X51799Y-29833D01*
X51687Y-29723D01*
X51840Y-29661D01*
X51960Y-29541D01*
X52025Y-29385D01*
X52025Y-29247D01*
X52083Y-29305D01*
X52439Y-29453D01*
X52824Y-29453D01*
X53180Y-29306D01*
X53453Y-29033D01*
X53601Y-28677D01*
X53601Y-28292D01*
X53601Y-28254D01*
X53454Y-27898D01*
X53263Y-27707D01*
X53400Y-27707D01*
X53556Y-27676D01*
X53688Y-27588D01*
X54268Y-27007D01*
X55250Y-27007D01*
X55406Y-26976D01*
X55538Y-26888D01*
X56085Y-26339D01*
X56087Y-26338D01*
X56088Y-26338D01*
X56176Y-26206D01*
X56195Y-26107D01*
X56200Y-26107D01*
X56356Y-26076D01*
X56488Y-25988D01*
X57047Y-25428D01*
X57090Y-25411D01*
X57210Y-25291D01*
X57275Y-25135D01*
X57275Y-24966D01*
X57211Y-24810D01*
X57091Y-24690D01*
X56935Y-24625D01*
X56766Y-24625D01*
X56610Y-24689D01*
X56490Y-24809D01*
X56472Y-24851D01*
X56031Y-25293D01*
X55800Y-25293D01*
X55228Y-25293D01*
X55185Y-25275D01*
X55016Y-25275D01*
X54860Y-25339D01*
X54740Y-25459D01*
X54675Y-25615D01*
X54675Y-25784D01*
X54739Y-25940D01*
X54859Y-26060D01*
X55015Y-26125D01*
X55149Y-26125D01*
X55081Y-26193D01*
X54100Y-26193D01*
X54099Y-26193D01*
X53944Y-26224D01*
X53812Y-26312D01*
X53810Y-26314D01*
X53231Y-26893D01*
X50571Y-26893D01*
X51182Y-26282D01*
X51253Y-26176D01*
X51253Y-26175D01*
X51278Y-26050D01*
X51278Y-25266D01*
X51388Y-25385D01*
X51621Y-25492D01*
X51723Y-25446D01*
X51723Y-24952D01*
X51723Y-24902D01*
X51723Y-24802D01*
X51723Y-24752D01*
X51723Y-24258D01*
X51621Y-24212D01*
X51388Y-24319D01*
X51278Y-24437D01*
X51278Y-24236D01*
X52226Y-23287D01*
X52289Y-23440D01*
X52409Y-23560D01*
X52565Y-23625D01*
X52734Y-23625D01*
X52890Y-23561D01*
X53010Y-23441D01*
X53015Y-23428D01*
X55913Y-23428D01*
X55862Y-23462D01*
X55860Y-23464D01*
X54879Y-24445D01*
X54248Y-24445D01*
X54115Y-24312D01*
X53881Y-24214D01*
X53627Y-24214D01*
X53603Y-24214D01*
X53368Y-24311D01*
X53249Y-24430D01*
X53131Y-24312D01*
X52897Y-24214D01*
X52643Y-24214D01*
X52619Y-24214D01*
X52384Y-24311D01*
X52263Y-24431D01*
X52158Y-24319D01*
X51925Y-24212D01*
X51823Y-24258D01*
X51823Y-24752D01*
X51823Y-24802D01*
X51823Y-24902D01*
X51823Y-24952D01*
X51823Y-25446D01*
X51925Y-25492D01*
X52158Y-25385D01*
X52263Y-25272D01*
X52383Y-25392D01*
X52617Y-25490D01*
X52871Y-25490D01*
X52895Y-25490D01*
X53130Y-25393D01*
X53249Y-25274D01*
X53367Y-25392D01*
X53601Y-25490D01*
X53855Y-25490D01*
X53879Y-25490D01*
X54114Y-25393D01*
X54248Y-25259D01*
X55048Y-25259D01*
X55204Y-25228D01*
X55336Y-25140D01*
X56318Y-24157D01*
X58371Y-24157D01*
X58415Y-24175D01*
X58584Y-24175D01*
X58740Y-24111D01*
X58860Y-23991D01*
X58925Y-23835D01*
X58925Y-23666D01*
X58861Y-23510D01*
X58779Y-23428D01*
X59350Y-23428D01*
X59475Y-23403D01*
X59476Y-23403D01*
X59582Y-23332D01*
X60288Y-22625D01*
X60334Y-22625D01*
X60490Y-22561D01*
X60610Y-22441D01*
X60675Y-22285D01*
X60675Y-27572D01*
X60564Y-27683D01*
X60497Y-27844D01*
X60497Y-26393D01*
X60497Y-26008D01*
X60497Y-25970D01*
X60350Y-25614D01*
X60077Y-25341D01*
X59721Y-25193D01*
X59336Y-25193D01*
X58980Y-25340D01*
X58707Y-25613D01*
X58559Y-25969D01*
X58559Y-26354D01*
X58559Y-26392D01*
X58706Y-26748D01*
X58979Y-27021D01*
X59335Y-27169D01*
X59720Y-27169D01*
X60076Y-27022D01*
X60349Y-26749D01*
X60497Y-26393D01*
X60497Y-27844D01*
X60453Y-27950D01*
X60453Y-28240D01*
X60453Y-28268D01*
X60564Y-28536D01*
X60768Y-28741D01*
X61035Y-28852D01*
X61325Y-28852D01*
X61593Y-28741D01*
X61725Y-28609D01*
X61725Y-32525D01*
M02*
