G04 (created by PCBNEW-RS274X (2012-apr-16-27)-stable) date Thu 18 Jun 2015 14:37:37 CEST*
G01*
G70*
G90*
%MOIN*%
G04 Gerber Fmt 3.4, Leading zero omitted, Abs format*
%FSLAX34Y34*%
G04 APERTURE LIST*
%ADD10C,0.006000*%
%ADD11C,0.015000*%
%ADD12R,0.023600X0.055100*%
%ADD13R,0.060000X0.080000*%
%ADD14R,0.055000X0.035000*%
%ADD15R,0.035000X0.055000*%
%ADD16O,0.080000X0.080000*%
%ADD17C,0.150000*%
%ADD18R,0.078700X0.216500*%
%ADD19R,0.060000X0.060000*%
%ADD20C,0.060000*%
%ADD21C,0.070000*%
%ADD22R,0.070000X0.070000*%
%ADD23O,0.147600X0.147600*%
%ADD24O,0.088500X0.088500*%
%ADD25R,0.055000X0.055000*%
%ADD26C,0.055000*%
%ADD27R,0.022000X0.050000*%
%ADD28R,0.050000X0.022000*%
%ADD29R,0.080000X0.060000*%
%ADD30R,0.047200X0.027600*%
%ADD31C,0.035000*%
%ADD32C,0.031500*%
%ADD33C,0.015700*%
%ADD34C,0.010000*%
G04 APERTURE END LIST*
G54D10*
G54D11*
X49460Y-50960D02*
X49460Y-16580D01*
X64520Y-50960D02*
X49460Y-50960D01*
X64520Y-16560D02*
X64520Y-50960D01*
X49320Y-16560D02*
X64520Y-16560D01*
G54D12*
X60070Y-40150D03*
X60070Y-42250D03*
X60570Y-40150D03*
X61070Y-40150D03*
X61570Y-40150D03*
X60570Y-42250D03*
X61070Y-42250D03*
X61570Y-42250D03*
G54D13*
X57350Y-49560D03*
X58650Y-49560D03*
X58830Y-44600D03*
X57530Y-44600D03*
X51090Y-42320D03*
X52390Y-42320D03*
G54D14*
X57980Y-30975D03*
X57980Y-30225D03*
X56000Y-21695D03*
X56000Y-20945D03*
G54D15*
X61975Y-38600D03*
X61225Y-38600D03*
G54D14*
X63200Y-46575D03*
X63200Y-45825D03*
G54D15*
X63175Y-44600D03*
X62425Y-44600D03*
X62425Y-43600D03*
X63175Y-43600D03*
G54D14*
X57060Y-29335D03*
X57060Y-28585D03*
G54D15*
X56065Y-30780D03*
X56815Y-30780D03*
X59225Y-38200D03*
X59975Y-38200D03*
X58375Y-38200D03*
X57625Y-38200D03*
X63555Y-38340D03*
X62805Y-38340D03*
G54D14*
X55660Y-26315D03*
X55660Y-25565D03*
G54D15*
X56105Y-38240D03*
X56855Y-38240D03*
X62425Y-42600D03*
X63175Y-42600D03*
X60425Y-43580D03*
X61175Y-43580D03*
X62805Y-39160D03*
X63555Y-39160D03*
X51175Y-30940D03*
X50425Y-30940D03*
X59305Y-24260D03*
X60055Y-24260D03*
X59305Y-25640D03*
X60055Y-25640D03*
G54D16*
X59968Y-31727D03*
X60952Y-31727D03*
X61936Y-31727D03*
G54D17*
X58863Y-28900D03*
X62853Y-28900D03*
G54D16*
X53859Y-21267D03*
X52875Y-21267D03*
X51891Y-21267D03*
G54D17*
X54964Y-24094D03*
X50974Y-24094D03*
G54D16*
X61679Y-17627D03*
X60695Y-17627D03*
X59711Y-17627D03*
G54D17*
X62784Y-20454D03*
X58794Y-20454D03*
G54D18*
X57480Y-26810D03*
X57480Y-23110D03*
G54D19*
X61640Y-49860D03*
G54D20*
X60640Y-49860D03*
X61640Y-48860D03*
X60640Y-48860D03*
X61640Y-47860D03*
X60640Y-47860D03*
X61640Y-46860D03*
X60640Y-46860D03*
X61640Y-45860D03*
X60640Y-45860D03*
G54D19*
X52000Y-18620D03*
G54D20*
X53000Y-18620D03*
X54000Y-18620D03*
X55000Y-18620D03*
X56000Y-18620D03*
G54D21*
X51300Y-39980D03*
G54D22*
X52300Y-39980D03*
G54D21*
X53300Y-39980D03*
G54D23*
X50512Y-35500D03*
X52165Y-33571D03*
X52165Y-36799D03*
G54D24*
X53818Y-35500D03*
G54D23*
X55434Y-41680D03*
X57087Y-39751D03*
X57087Y-42979D03*
G54D24*
X58740Y-41680D03*
G54D23*
X60394Y-35500D03*
X62047Y-33571D03*
X62047Y-36799D03*
G54D24*
X63700Y-35500D03*
G54D23*
X55447Y-35500D03*
X57100Y-33571D03*
X57100Y-36799D03*
G54D24*
X58753Y-35500D03*
G54D25*
X50860Y-45160D03*
G54D26*
X50860Y-48160D03*
G54D25*
X51920Y-48180D03*
G54D26*
X51920Y-45180D03*
G54D25*
X60820Y-25300D03*
G54D26*
X63820Y-25300D03*
G54D25*
X63800Y-24220D03*
G54D26*
X60800Y-24220D03*
G54D27*
X54242Y-27110D03*
X53927Y-27110D03*
X53612Y-27110D03*
X53297Y-27110D03*
X52983Y-27110D03*
X52668Y-27110D03*
X52353Y-27110D03*
X52038Y-27110D03*
G54D28*
X51450Y-27698D03*
X51450Y-28013D03*
X51450Y-28328D03*
X51450Y-28643D03*
X51450Y-28957D03*
X51450Y-29272D03*
X51450Y-29587D03*
X51450Y-29902D03*
G54D27*
X52038Y-30490D03*
X52353Y-30490D03*
X52668Y-30490D03*
X52983Y-30490D03*
X53297Y-30490D03*
X53612Y-30490D03*
X53927Y-30490D03*
X54242Y-30490D03*
G54D28*
X54830Y-29902D03*
X54830Y-29587D03*
X54830Y-29272D03*
X54830Y-28957D03*
X54830Y-28643D03*
X54830Y-28328D03*
X54830Y-28013D03*
X54830Y-27698D03*
G54D29*
X62920Y-40350D03*
X62920Y-41650D03*
G54D13*
X58650Y-48400D03*
X57350Y-48400D03*
G54D25*
X56260Y-45100D03*
G54D26*
X56260Y-48100D03*
G54D25*
X55100Y-48120D03*
G54D26*
X55100Y-45120D03*
G54D30*
X58728Y-47000D03*
X57272Y-47000D03*
X57312Y-46000D03*
X58768Y-46000D03*
G54D15*
X52885Y-31540D03*
X53635Y-31540D03*
G54D13*
X51810Y-31920D03*
X50510Y-31920D03*
G54D31*
X58260Y-40680D03*
X59340Y-40280D03*
X58640Y-43180D03*
X52580Y-32180D03*
X60420Y-42940D03*
X61640Y-42940D03*
X54860Y-31060D03*
X53380Y-22880D03*
X53740Y-29620D03*
X57880Y-35080D03*
X57260Y-30180D03*
X54140Y-29360D03*
X55820Y-29320D03*
X56700Y-30000D03*
X52660Y-34740D03*
X56280Y-28280D03*
X59980Y-34540D03*
X55580Y-33760D03*
X52220Y-27940D03*
X56300Y-26940D03*
X56140Y-23560D03*
X50140Y-25660D03*
X54480Y-25520D03*
X59860Y-44140D03*
X58780Y-39760D03*
X63720Y-41400D03*
G54D32*
X55120Y-40480D02*
X56120Y-40480D01*
X51090Y-42320D02*
X51090Y-43090D01*
X55160Y-49560D02*
X53960Y-48360D01*
X51090Y-41380D02*
X54220Y-41380D01*
X57350Y-49560D02*
X55160Y-49560D01*
X51090Y-40870D02*
X51300Y-40660D01*
X51300Y-40660D02*
X51300Y-39980D01*
X51090Y-41380D02*
X51090Y-40870D01*
X51090Y-42320D02*
X51090Y-41380D01*
X51090Y-43090D02*
X52920Y-44920D01*
X52920Y-44920D02*
X52920Y-45800D01*
X52920Y-45800D02*
X54120Y-47000D01*
X54120Y-47000D02*
X57272Y-47000D01*
X56120Y-40480D02*
X56540Y-40900D01*
X56540Y-40900D02*
X58040Y-40900D01*
X58040Y-40900D02*
X58260Y-40680D01*
X59340Y-40280D02*
X59470Y-40150D01*
X59470Y-40150D02*
X60070Y-40150D01*
X53960Y-48360D02*
X53960Y-47080D01*
X54220Y-41380D02*
X55120Y-40480D01*
G54D33*
X56000Y-20945D02*
X56393Y-20945D01*
X56393Y-20945D02*
X59711Y-17627D01*
X53208Y-27992D02*
X53297Y-27903D01*
X51810Y-31920D02*
X51810Y-31610D01*
X51810Y-31610D02*
X52353Y-31067D01*
X58830Y-44600D02*
X62425Y-44600D01*
X63800Y-18000D02*
X62640Y-16840D01*
X62640Y-16840D02*
X60498Y-16840D01*
X60498Y-16840D02*
X59711Y-17627D01*
X63800Y-24220D02*
X63800Y-18000D01*
X51175Y-31285D02*
X51810Y-31920D01*
X58830Y-43370D02*
X58830Y-44600D01*
X58640Y-43180D02*
X58830Y-43370D01*
X53297Y-27903D02*
X53297Y-27110D01*
X52320Y-31920D02*
X52580Y-32180D01*
X51175Y-30940D02*
X51175Y-31285D01*
X61936Y-31727D02*
X61936Y-29696D01*
X63800Y-24340D02*
X63800Y-24220D01*
X61580Y-26560D02*
X63800Y-24340D01*
X61580Y-29340D02*
X61580Y-26560D01*
X52668Y-27992D02*
X53208Y-27992D01*
X51810Y-31920D02*
X52320Y-31920D01*
X52668Y-27992D02*
X52668Y-27110D01*
X52353Y-28307D02*
X52668Y-27992D01*
X52353Y-31067D02*
X52353Y-30490D01*
X61936Y-29696D02*
X61580Y-29340D01*
X52353Y-30490D02*
X52353Y-28307D01*
G54D32*
X61570Y-42870D02*
X61570Y-42250D01*
X57312Y-46000D02*
X57312Y-45908D01*
X58360Y-42620D02*
X59440Y-42620D01*
X59760Y-42940D02*
X60420Y-42940D01*
X61640Y-42940D02*
X61570Y-42870D01*
X57312Y-45908D02*
X58160Y-45060D01*
X57350Y-48400D02*
X57440Y-48400D01*
X57980Y-46668D02*
X57312Y-46000D01*
X57980Y-47860D02*
X57980Y-46668D01*
X57440Y-48400D02*
X57980Y-47860D01*
X58160Y-45060D02*
X58160Y-42820D01*
X59440Y-42620D02*
X59760Y-42940D01*
X58160Y-42820D02*
X58360Y-42620D01*
G54D33*
X53927Y-30490D02*
X53927Y-30927D01*
X53927Y-30927D02*
X54060Y-31060D01*
X54060Y-31060D02*
X54860Y-31060D01*
X52875Y-22375D02*
X53380Y-22880D01*
X52875Y-21267D02*
X52875Y-22375D01*
X54242Y-29862D02*
X54242Y-30490D01*
X53740Y-29620D02*
X54242Y-29862D01*
X59700Y-22940D02*
X59700Y-26340D01*
X57840Y-28560D02*
X57420Y-28980D01*
X60695Y-21945D02*
X59700Y-22940D01*
X57420Y-28980D02*
X56680Y-28980D01*
X58300Y-27740D02*
X58300Y-28060D01*
X58300Y-28060D02*
X57840Y-28520D01*
X55758Y-29902D02*
X54830Y-29902D01*
X60695Y-17627D02*
X60695Y-21945D01*
X56680Y-28980D02*
X55758Y-29902D01*
X57840Y-28520D02*
X57840Y-28560D01*
X59700Y-26340D02*
X58300Y-27740D01*
X54367Y-29587D02*
X54140Y-29360D01*
X54830Y-29587D02*
X54367Y-29587D01*
X57260Y-30180D02*
X57305Y-30225D01*
X57305Y-30225D02*
X57980Y-30225D01*
X58680Y-30640D02*
X58680Y-34280D01*
X57980Y-30225D02*
X58265Y-30225D01*
X58265Y-30225D02*
X58680Y-30640D01*
X58680Y-34280D02*
X57880Y-35080D01*
X52660Y-34740D02*
X53300Y-34100D01*
X56815Y-30115D02*
X56815Y-30780D01*
X56815Y-31305D02*
X56815Y-30780D01*
X56700Y-30000D02*
X56815Y-30115D01*
X54830Y-29272D02*
X55692Y-29272D01*
X56760Y-31360D02*
X56815Y-31305D01*
X56360Y-31360D02*
X56760Y-31360D01*
X55692Y-29272D02*
X55820Y-29320D01*
X53620Y-34100D02*
X56360Y-31360D01*
X53300Y-34100D02*
X53620Y-34100D01*
X56570Y-28710D02*
X56695Y-28585D01*
X56323Y-28957D02*
X56570Y-28710D01*
X56570Y-28570D02*
X56570Y-28710D01*
X60820Y-25300D02*
X60820Y-24240D01*
X60820Y-24240D02*
X60800Y-24220D01*
X54830Y-28957D02*
X56323Y-28957D01*
X56280Y-28280D02*
X56570Y-28570D01*
X56695Y-28585D02*
X57060Y-28585D01*
X57100Y-32580D02*
X57980Y-31700D01*
X57100Y-33571D02*
X57100Y-32580D01*
X57980Y-31700D02*
X57980Y-30975D01*
X56065Y-30995D02*
X56065Y-30780D01*
X53489Y-33571D02*
X56065Y-30995D01*
X52165Y-33571D02*
X53489Y-33571D01*
X57060Y-29335D02*
X57955Y-29335D01*
X59180Y-33740D02*
X59980Y-34540D01*
X59180Y-30560D02*
X59180Y-33740D01*
X57955Y-29335D02*
X59180Y-30560D01*
X50580Y-29580D02*
X50580Y-25360D01*
X52240Y-20020D02*
X53620Y-20020D01*
X50580Y-25360D02*
X49920Y-24700D01*
X50902Y-29902D02*
X50580Y-29580D01*
X49920Y-24700D02*
X49920Y-23780D01*
X51280Y-20980D02*
X52240Y-20020D01*
X53620Y-20020D02*
X54000Y-19640D01*
X51280Y-22420D02*
X51280Y-20980D01*
X54000Y-19640D02*
X54000Y-18620D01*
X49920Y-23780D02*
X51280Y-22420D01*
X51450Y-29902D02*
X50902Y-29902D01*
X52040Y-24800D02*
X55000Y-21840D01*
X51047Y-29587D02*
X50900Y-29440D01*
X55000Y-21840D02*
X55000Y-18620D01*
X51450Y-29587D02*
X51047Y-29587D01*
X51940Y-24800D02*
X52040Y-24800D01*
X50900Y-29440D02*
X50900Y-25840D01*
X50900Y-25840D02*
X51940Y-24800D01*
X57585Y-38240D02*
X57625Y-38200D01*
X56855Y-38240D02*
X57585Y-38240D01*
X59225Y-38200D02*
X59225Y-37365D01*
X52220Y-27940D02*
X52147Y-28013D01*
X52147Y-28013D02*
X51450Y-28013D01*
X59225Y-37365D02*
X55620Y-33760D01*
X55620Y-33760D02*
X55580Y-33760D01*
X55520Y-19100D02*
X56000Y-18620D01*
X56000Y-21695D02*
X55695Y-21695D01*
X56300Y-26940D02*
X55675Y-26315D01*
X55695Y-21695D02*
X55520Y-21520D01*
X55675Y-26315D02*
X55660Y-26315D01*
X56000Y-21695D02*
X56000Y-23420D01*
X56000Y-23420D02*
X56140Y-23560D01*
X55520Y-21520D02*
X55520Y-19100D01*
X55457Y-28643D02*
X55660Y-28440D01*
X55660Y-28440D02*
X55660Y-26315D01*
X54830Y-28643D02*
X55457Y-28643D01*
X50140Y-29600D02*
X50140Y-25660D01*
X51380Y-30280D02*
X50820Y-30280D01*
X52038Y-30490D02*
X51590Y-30490D01*
X51590Y-30490D02*
X51380Y-30280D01*
X50820Y-30280D02*
X50140Y-29600D01*
X58650Y-49560D02*
X58650Y-50110D01*
X54794Y-42320D02*
X55434Y-41680D01*
X52640Y-50660D02*
X59780Y-50660D01*
X54525Y-25565D02*
X54480Y-25520D01*
X52390Y-42320D02*
X54794Y-42320D01*
X59780Y-50640D02*
X62400Y-50640D01*
X62520Y-49740D02*
X61640Y-48860D01*
X59180Y-50640D02*
X59780Y-50640D01*
X62400Y-50640D02*
X62520Y-50520D01*
X50860Y-48880D02*
X52640Y-50660D01*
X59780Y-50660D02*
X59780Y-50640D01*
X50860Y-48160D02*
X50860Y-48880D01*
X55660Y-25565D02*
X54525Y-25565D01*
X59860Y-44140D02*
X60420Y-43580D01*
X58650Y-50110D02*
X59180Y-50640D01*
X61640Y-46860D02*
X62915Y-46860D01*
X64120Y-46000D02*
X64120Y-40680D01*
X61640Y-47860D02*
X61640Y-48860D01*
X61640Y-46860D02*
X61640Y-47860D01*
X62915Y-46860D02*
X63200Y-46575D01*
X60640Y-46860D02*
X61640Y-46860D01*
X63555Y-39160D02*
X63860Y-39160D01*
X64040Y-38980D02*
X64040Y-37700D01*
X62520Y-50520D02*
X62520Y-49740D01*
X60420Y-43580D02*
X60425Y-43580D01*
X57530Y-43422D02*
X55788Y-41680D01*
X63740Y-40300D02*
X63680Y-40240D01*
X52300Y-36934D02*
X52165Y-36799D01*
X64120Y-40680D02*
X63740Y-40300D01*
X63200Y-46575D02*
X63545Y-46575D01*
X63545Y-46575D02*
X64120Y-46000D01*
X55788Y-41680D02*
X55434Y-41680D01*
X57530Y-43422D02*
X57087Y-42979D01*
X61640Y-47860D02*
X60640Y-47860D01*
X62920Y-41650D02*
X62920Y-41120D01*
X63555Y-40220D02*
X63660Y-40220D01*
X57100Y-36799D02*
X56746Y-36799D01*
X56746Y-36799D02*
X55447Y-35500D01*
X57530Y-44600D02*
X57530Y-43422D01*
X54087Y-36860D02*
X55447Y-35500D01*
X50866Y-35500D02*
X52226Y-36860D01*
X50512Y-35500D02*
X50866Y-35500D01*
X52300Y-39980D02*
X52300Y-36934D01*
X63660Y-40220D02*
X63740Y-40300D01*
X58650Y-49560D02*
X58650Y-48400D01*
X52226Y-36860D02*
X54087Y-36860D01*
X60640Y-47860D02*
X61640Y-47860D01*
X63860Y-39160D02*
X64040Y-38980D01*
X61640Y-48860D02*
X60640Y-48860D01*
X60055Y-23185D02*
X61679Y-21561D01*
X60055Y-24260D02*
X60055Y-23185D01*
X61679Y-21561D02*
X61679Y-17627D01*
X60640Y-48860D02*
X60640Y-47860D01*
X60640Y-47860D02*
X60640Y-46860D01*
X60055Y-25640D02*
X60055Y-24260D01*
X61640Y-47860D02*
X60640Y-47860D01*
X60394Y-33314D02*
X59968Y-32888D01*
X64040Y-37700D02*
X63139Y-36799D01*
X61640Y-46860D02*
X61640Y-47860D01*
X59968Y-32888D02*
X59968Y-31727D01*
X60394Y-35500D02*
X60394Y-33314D01*
X61693Y-36799D02*
X60394Y-35500D01*
X62047Y-36799D02*
X61693Y-36799D01*
X62920Y-41120D02*
X63100Y-40940D01*
X63100Y-40940D02*
X63540Y-40940D01*
X63540Y-40940D02*
X63555Y-40925D01*
X63555Y-40925D02*
X63555Y-40220D01*
X63555Y-40220D02*
X63555Y-39160D01*
X63139Y-36799D02*
X62047Y-36799D01*
X63540Y-38340D02*
X63160Y-38720D01*
X60480Y-38200D02*
X60860Y-37820D01*
X63160Y-40110D02*
X62920Y-40350D01*
X59975Y-38200D02*
X60480Y-38200D01*
X62680Y-37820D02*
X62780Y-37720D01*
X60860Y-37820D02*
X62680Y-37820D01*
X62780Y-37720D02*
X62935Y-37720D01*
X63555Y-38340D02*
X63540Y-38340D01*
X63160Y-38720D02*
X63160Y-40110D01*
X62935Y-37720D02*
X63555Y-38340D01*
X63175Y-42600D02*
X63175Y-42465D01*
X58600Y-39580D02*
X58375Y-39580D01*
X58375Y-39580D02*
X58375Y-39955D01*
X58375Y-39955D02*
X60100Y-41680D01*
X63175Y-43600D02*
X63175Y-42600D01*
X60100Y-42220D02*
X60070Y-42250D01*
X63760Y-41880D02*
X63720Y-41400D01*
X60100Y-41680D02*
X60100Y-42220D01*
X58375Y-38200D02*
X58375Y-39580D01*
X63175Y-42465D02*
X63760Y-41880D01*
X58780Y-39760D02*
X58600Y-39580D01*
X60570Y-41940D02*
X60570Y-42250D01*
X60570Y-41910D02*
X60570Y-41940D01*
X60840Y-41640D02*
X60570Y-41910D01*
X61800Y-41640D02*
X60840Y-41640D01*
X62425Y-42265D02*
X61800Y-41640D01*
X62425Y-42600D02*
X62425Y-43600D01*
X62425Y-42600D02*
X62425Y-42265D01*
X60570Y-41830D02*
X61560Y-40840D01*
X61560Y-40820D02*
X61980Y-40400D01*
X61560Y-40840D02*
X61560Y-40820D01*
X61980Y-40400D02*
X61980Y-39740D01*
X61980Y-39740D02*
X61225Y-38985D01*
X60570Y-41940D02*
X60570Y-41830D01*
X61225Y-38985D02*
X61225Y-38600D01*
G54D32*
X60640Y-49860D02*
X61640Y-49860D01*
X58740Y-47000D02*
X59700Y-47960D01*
X58728Y-47000D02*
X58740Y-47000D01*
X59700Y-47960D02*
X59700Y-49360D01*
X60200Y-49860D02*
X60640Y-49860D01*
X59700Y-49360D02*
X60200Y-49860D01*
X58768Y-46000D02*
X60500Y-46000D01*
X60500Y-46000D02*
X60640Y-45860D01*
X60640Y-45860D02*
X61640Y-45860D01*
G54D33*
X59305Y-24260D02*
X58630Y-24260D01*
X52038Y-26282D02*
X53240Y-25080D01*
X53240Y-25080D02*
X56240Y-25080D01*
X56240Y-25080D02*
X57480Y-23840D01*
X57480Y-23840D02*
X57480Y-23110D01*
X52038Y-27110D02*
X52038Y-26282D01*
X58630Y-24260D02*
X57480Y-23110D01*
X56040Y-25960D02*
X56890Y-26810D01*
X53000Y-25960D02*
X56040Y-25960D01*
X57480Y-26810D02*
X58135Y-26810D01*
X52353Y-26607D02*
X53000Y-25960D01*
X58135Y-26810D02*
X59305Y-25640D01*
X56890Y-26810D02*
X57480Y-26810D01*
X52353Y-27110D02*
X52353Y-26607D01*
X57031Y-39751D02*
X56105Y-38825D01*
X57087Y-39751D02*
X57031Y-39751D01*
X56105Y-38825D02*
X56105Y-38240D01*
X63200Y-44625D02*
X63175Y-44600D01*
X63175Y-44600D02*
X63175Y-44355D01*
X61400Y-44080D02*
X61175Y-43855D01*
X63175Y-44355D02*
X62900Y-44080D01*
X63200Y-45825D02*
X63200Y-44625D01*
X61175Y-43580D02*
X61175Y-43035D01*
X62900Y-44080D02*
X61400Y-44080D01*
X61175Y-43855D02*
X61175Y-43580D01*
X61070Y-42930D02*
X61070Y-42250D01*
X61175Y-43035D02*
X61070Y-42930D01*
X61975Y-38600D02*
X62545Y-38600D01*
X62545Y-38600D02*
X62805Y-38340D01*
X62805Y-39160D02*
X62805Y-38340D01*
X52983Y-31157D02*
X52983Y-30490D01*
X52885Y-31255D02*
X52983Y-31157D01*
X52885Y-31540D02*
X52885Y-31255D01*
X53612Y-27110D02*
X53612Y-29088D01*
X53612Y-26652D02*
X53612Y-27110D01*
X53400Y-26440D02*
X53612Y-26652D01*
X50510Y-32510D02*
X50640Y-32640D01*
X53297Y-29403D02*
X53297Y-30490D01*
X52983Y-26617D02*
X53160Y-26440D01*
X53160Y-26440D02*
X53400Y-26440D01*
X53612Y-29088D02*
X53297Y-29403D01*
X52983Y-27110D02*
X52983Y-26617D01*
X50510Y-31920D02*
X50510Y-32510D01*
X50425Y-31835D02*
X50510Y-31920D01*
X53280Y-32640D02*
X53635Y-32285D01*
X53635Y-31540D02*
X53635Y-31275D01*
X53297Y-30937D02*
X53297Y-30490D01*
X50640Y-32640D02*
X53280Y-32640D01*
X50425Y-30940D02*
X50425Y-31835D01*
X53635Y-31275D02*
X53297Y-30937D01*
X53635Y-32285D02*
X53635Y-31540D01*
G54D10*
G36*
X54672Y-21704D02*
X54491Y-21884D01*
X54491Y-21418D01*
X54491Y-21116D01*
X54419Y-20922D01*
X54244Y-20734D01*
X54011Y-20627D01*
X53909Y-20673D01*
X53909Y-21217D01*
X54444Y-21217D01*
X54491Y-21116D01*
X54491Y-21418D01*
X54444Y-21317D01*
X53909Y-21317D01*
X53909Y-21861D01*
X54011Y-21907D01*
X54244Y-21800D01*
X54419Y-21612D01*
X54491Y-21418D01*
X54491Y-21884D01*
X53738Y-22637D01*
X53621Y-22520D01*
X53465Y-22455D01*
X53419Y-22455D01*
X53203Y-22239D01*
X53203Y-21826D01*
X53248Y-21808D01*
X53368Y-21687D01*
X53474Y-21800D01*
X53707Y-21907D01*
X53809Y-21861D01*
X53809Y-21367D01*
X53809Y-21317D01*
X53809Y-21217D01*
X53809Y-21167D01*
X53809Y-20673D01*
X53707Y-20627D01*
X53474Y-20734D01*
X53368Y-20846D01*
X53249Y-20727D01*
X53015Y-20629D01*
X52761Y-20629D01*
X52737Y-20629D01*
X52502Y-20726D01*
X52383Y-20845D01*
X52265Y-20727D01*
X52075Y-20647D01*
X52375Y-20348D01*
X53620Y-20348D01*
X53745Y-20323D01*
X53746Y-20323D01*
X53852Y-20252D01*
X54232Y-19872D01*
X54303Y-19766D01*
X54303Y-19765D01*
X54328Y-19640D01*
X54328Y-19068D01*
X54465Y-18931D01*
X54500Y-18846D01*
X54535Y-18931D01*
X54672Y-19068D01*
X54672Y-21704D01*
X54672Y-21704D01*
G37*
G54D34*
X54672Y-21704D02*
X54491Y-21884D01*
X54491Y-21418D01*
X54491Y-21116D01*
X54419Y-20922D01*
X54244Y-20734D01*
X54011Y-20627D01*
X53909Y-20673D01*
X53909Y-21217D01*
X54444Y-21217D01*
X54491Y-21116D01*
X54491Y-21418D01*
X54444Y-21317D01*
X53909Y-21317D01*
X53909Y-21861D01*
X54011Y-21907D01*
X54244Y-21800D01*
X54419Y-21612D01*
X54491Y-21418D01*
X54491Y-21884D01*
X53738Y-22637D01*
X53621Y-22520D01*
X53465Y-22455D01*
X53419Y-22455D01*
X53203Y-22239D01*
X53203Y-21826D01*
X53248Y-21808D01*
X53368Y-21687D01*
X53474Y-21800D01*
X53707Y-21907D01*
X53809Y-21861D01*
X53809Y-21367D01*
X53809Y-21317D01*
X53809Y-21217D01*
X53809Y-21167D01*
X53809Y-20673D01*
X53707Y-20627D01*
X53474Y-20734D01*
X53368Y-20846D01*
X53249Y-20727D01*
X53015Y-20629D01*
X52761Y-20629D01*
X52737Y-20629D01*
X52502Y-20726D01*
X52383Y-20845D01*
X52265Y-20727D01*
X52075Y-20647D01*
X52375Y-20348D01*
X53620Y-20348D01*
X53745Y-20323D01*
X53746Y-20323D01*
X53852Y-20252D01*
X54232Y-19872D01*
X54303Y-19766D01*
X54303Y-19765D01*
X54328Y-19640D01*
X54328Y-19068D01*
X54465Y-18931D01*
X54500Y-18846D01*
X54535Y-18931D01*
X54672Y-19068D01*
X54672Y-21704D01*
G54D10*
G36*
X57573Y-47691D02*
X57513Y-47751D01*
X57001Y-47751D01*
X56909Y-47789D01*
X56839Y-47859D01*
X56801Y-47950D01*
X56801Y-48049D01*
X56801Y-48849D01*
X56839Y-48941D01*
X56878Y-48980D01*
X56839Y-49019D01*
X56801Y-49110D01*
X56801Y-49153D01*
X56779Y-49153D01*
X56779Y-48174D01*
X56768Y-47970D01*
X56712Y-47833D01*
X56621Y-47810D01*
X56550Y-47881D01*
X56550Y-47739D01*
X56527Y-47648D01*
X56334Y-47581D01*
X56130Y-47592D01*
X55993Y-47648D01*
X55970Y-47739D01*
X56260Y-48029D01*
X56550Y-47739D01*
X56550Y-47881D01*
X56331Y-48100D01*
X56621Y-48390D01*
X56712Y-48367D01*
X56779Y-48174D01*
X56779Y-49153D01*
X56550Y-49153D01*
X56550Y-48461D01*
X56260Y-48171D01*
X56189Y-48242D01*
X56189Y-48100D01*
X55899Y-47810D01*
X55808Y-47833D01*
X55741Y-48026D01*
X55752Y-48230D01*
X55808Y-48367D01*
X55899Y-48390D01*
X56189Y-48100D01*
X56189Y-48242D01*
X55970Y-48461D01*
X55993Y-48552D01*
X56186Y-48619D01*
X56390Y-48608D01*
X56527Y-48552D01*
X56550Y-48461D01*
X56550Y-49153D01*
X55329Y-49153D01*
X54820Y-48644D01*
X54874Y-48644D01*
X55424Y-48644D01*
X55516Y-48606D01*
X55586Y-48536D01*
X55624Y-48445D01*
X55624Y-48346D01*
X55624Y-47796D01*
X55586Y-47704D01*
X55516Y-47634D01*
X55425Y-47596D01*
X55326Y-47596D01*
X54776Y-47596D01*
X54684Y-47634D01*
X54614Y-47704D01*
X54576Y-47795D01*
X54576Y-47894D01*
X54576Y-48400D01*
X54367Y-48191D01*
X54367Y-47407D01*
X57272Y-47407D01*
X57372Y-47387D01*
X57557Y-47387D01*
X57573Y-47380D01*
X57573Y-47691D01*
X57573Y-47691D01*
G37*
G54D34*
X57573Y-47691D02*
X57513Y-47751D01*
X57001Y-47751D01*
X56909Y-47789D01*
X56839Y-47859D01*
X56801Y-47950D01*
X56801Y-48049D01*
X56801Y-48849D01*
X56839Y-48941D01*
X56878Y-48980D01*
X56839Y-49019D01*
X56801Y-49110D01*
X56801Y-49153D01*
X56779Y-49153D01*
X56779Y-48174D01*
X56768Y-47970D01*
X56712Y-47833D01*
X56621Y-47810D01*
X56550Y-47881D01*
X56550Y-47739D01*
X56527Y-47648D01*
X56334Y-47581D01*
X56130Y-47592D01*
X55993Y-47648D01*
X55970Y-47739D01*
X56260Y-48029D01*
X56550Y-47739D01*
X56550Y-47881D01*
X56331Y-48100D01*
X56621Y-48390D01*
X56712Y-48367D01*
X56779Y-48174D01*
X56779Y-49153D01*
X56550Y-49153D01*
X56550Y-48461D01*
X56260Y-48171D01*
X56189Y-48242D01*
X56189Y-48100D01*
X55899Y-47810D01*
X55808Y-47833D01*
X55741Y-48026D01*
X55752Y-48230D01*
X55808Y-48367D01*
X55899Y-48390D01*
X56189Y-48100D01*
X56189Y-48242D01*
X55970Y-48461D01*
X55993Y-48552D01*
X56186Y-48619D01*
X56390Y-48608D01*
X56527Y-48552D01*
X56550Y-48461D01*
X56550Y-49153D01*
X55329Y-49153D01*
X54820Y-48644D01*
X54874Y-48644D01*
X55424Y-48644D01*
X55516Y-48606D01*
X55586Y-48536D01*
X55624Y-48445D01*
X55624Y-48346D01*
X55624Y-47796D01*
X55586Y-47704D01*
X55516Y-47634D01*
X55425Y-47596D01*
X55326Y-47596D01*
X54776Y-47596D01*
X54684Y-47634D01*
X54614Y-47704D01*
X54576Y-47795D01*
X54576Y-47894D01*
X54576Y-48400D01*
X54367Y-48191D01*
X54367Y-47407D01*
X57272Y-47407D01*
X57372Y-47387D01*
X57557Y-47387D01*
X57573Y-47380D01*
X57573Y-47691D01*
G54D10*
G36*
X58309Y-42222D02*
X58204Y-42244D01*
X58072Y-42332D01*
X58070Y-42334D01*
X57930Y-42473D01*
X57907Y-42418D01*
X57630Y-42147D01*
X57291Y-42013D01*
X57137Y-42055D01*
X57137Y-42879D01*
X57137Y-42929D01*
X57137Y-43029D01*
X57137Y-43079D01*
X57137Y-43903D01*
X57291Y-43945D01*
X57630Y-43811D01*
X57753Y-43690D01*
X57753Y-43950D01*
X57642Y-43950D01*
X57580Y-44012D01*
X57580Y-44500D01*
X57580Y-44550D01*
X57580Y-44650D01*
X57480Y-44650D01*
X57480Y-44550D01*
X57480Y-44012D01*
X57418Y-43950D01*
X57181Y-43951D01*
X57089Y-43989D01*
X57037Y-44041D01*
X57037Y-43903D01*
X57037Y-43029D01*
X57037Y-42929D01*
X57037Y-42055D01*
X56883Y-42013D01*
X56544Y-42147D01*
X56406Y-42282D01*
X56406Y-41885D01*
X56364Y-41730D01*
X55484Y-41730D01*
X55484Y-42604D01*
X55638Y-42646D01*
X55977Y-42512D01*
X56254Y-42241D01*
X56406Y-41885D01*
X56406Y-42282D01*
X56267Y-42418D01*
X56115Y-42774D01*
X56157Y-42929D01*
X57037Y-42929D01*
X57037Y-43029D01*
X56157Y-43029D01*
X56115Y-43184D01*
X56267Y-43540D01*
X56544Y-43811D01*
X56883Y-43945D01*
X57037Y-43903D01*
X57037Y-44041D01*
X57019Y-44059D01*
X56981Y-44150D01*
X56981Y-44249D01*
X56980Y-44488D01*
X57042Y-44550D01*
X57480Y-44550D01*
X57480Y-44650D01*
X57430Y-44650D01*
X57042Y-44650D01*
X56980Y-44712D01*
X56981Y-44951D01*
X56981Y-45050D01*
X57019Y-45141D01*
X57089Y-45211D01*
X57181Y-45249D01*
X57394Y-45249D01*
X57031Y-45613D01*
X57027Y-45613D01*
X56935Y-45651D01*
X56865Y-45721D01*
X56827Y-45812D01*
X56827Y-45911D01*
X56827Y-46187D01*
X56865Y-46279D01*
X56935Y-46349D01*
X57026Y-46387D01*
X57123Y-46387D01*
X57343Y-46607D01*
X57272Y-46593D01*
X56784Y-46593D01*
X56784Y-45425D01*
X56784Y-45326D01*
X56784Y-44776D01*
X56746Y-44684D01*
X56676Y-44614D01*
X56585Y-44576D01*
X56486Y-44576D01*
X55936Y-44576D01*
X55844Y-44614D01*
X55774Y-44684D01*
X55736Y-44775D01*
X55736Y-44874D01*
X55736Y-45424D01*
X55774Y-45516D01*
X55844Y-45586D01*
X55935Y-45624D01*
X56034Y-45624D01*
X56584Y-45624D01*
X56676Y-45586D01*
X56746Y-45516D01*
X56784Y-45425D01*
X56784Y-46593D01*
X55625Y-46593D01*
X55625Y-45225D01*
X55625Y-45016D01*
X55545Y-44823D01*
X55398Y-44675D01*
X55384Y-44669D01*
X55205Y-44595D01*
X54996Y-44595D01*
X54803Y-44675D01*
X54655Y-44822D01*
X54575Y-45015D01*
X54575Y-45224D01*
X54655Y-45417D01*
X54802Y-45565D01*
X54995Y-45645D01*
X55204Y-45645D01*
X55397Y-45565D01*
X55545Y-45418D01*
X55625Y-45225D01*
X55625Y-46593D01*
X54289Y-46593D01*
X53327Y-45631D01*
X53327Y-44920D01*
X53296Y-44764D01*
X53208Y-44632D01*
X52940Y-44364D01*
X52940Y-42432D01*
X52878Y-42370D01*
X52440Y-42370D01*
X52440Y-42908D01*
X52502Y-42970D01*
X52739Y-42969D01*
X52831Y-42931D01*
X52901Y-42861D01*
X52939Y-42770D01*
X52939Y-42671D01*
X52940Y-42432D01*
X52940Y-44364D01*
X52340Y-43764D01*
X52340Y-42908D01*
X52340Y-42370D01*
X51902Y-42370D01*
X51840Y-42432D01*
X51841Y-42671D01*
X51841Y-42770D01*
X51879Y-42861D01*
X51949Y-42931D01*
X52041Y-42969D01*
X52278Y-42970D01*
X52340Y-42908D01*
X52340Y-43764D01*
X51514Y-42938D01*
X51531Y-42931D01*
X51601Y-42861D01*
X51639Y-42770D01*
X51639Y-42671D01*
X51639Y-41871D01*
X51604Y-41787D01*
X51875Y-41787D01*
X51841Y-41870D01*
X51841Y-41969D01*
X51840Y-42208D01*
X51902Y-42270D01*
X52290Y-42270D01*
X52340Y-42270D01*
X52440Y-42270D01*
X52490Y-42270D01*
X52878Y-42270D01*
X52940Y-42208D01*
X52939Y-41969D01*
X52939Y-41870D01*
X52904Y-41787D01*
X54220Y-41787D01*
X54376Y-41756D01*
X54446Y-41709D01*
X54446Y-41780D01*
X54490Y-41780D01*
X54462Y-41885D01*
X54614Y-42241D01*
X54891Y-42512D01*
X55230Y-42646D01*
X55384Y-42604D01*
X55384Y-41780D01*
X55384Y-41730D01*
X55384Y-41630D01*
X55484Y-41630D01*
X55534Y-41630D01*
X56364Y-41630D01*
X56406Y-41475D01*
X56295Y-41217D01*
X56384Y-41276D01*
X56513Y-41301D01*
X56539Y-41307D01*
X56539Y-41306D01*
X56540Y-41307D01*
X58040Y-41307D01*
X58164Y-41282D01*
X58061Y-41531D01*
X58061Y-41801D01*
X58061Y-41827D01*
X58164Y-42077D01*
X58309Y-42222D01*
X58309Y-42222D01*
G37*
G54D34*
X58309Y-42222D02*
X58204Y-42244D01*
X58072Y-42332D01*
X58070Y-42334D01*
X57930Y-42473D01*
X57907Y-42418D01*
X57630Y-42147D01*
X57291Y-42013D01*
X57137Y-42055D01*
X57137Y-42879D01*
X57137Y-42929D01*
X57137Y-43029D01*
X57137Y-43079D01*
X57137Y-43903D01*
X57291Y-43945D01*
X57630Y-43811D01*
X57753Y-43690D01*
X57753Y-43950D01*
X57642Y-43950D01*
X57580Y-44012D01*
X57580Y-44500D01*
X57580Y-44550D01*
X57580Y-44650D01*
X57480Y-44650D01*
X57480Y-44550D01*
X57480Y-44012D01*
X57418Y-43950D01*
X57181Y-43951D01*
X57089Y-43989D01*
X57037Y-44041D01*
X57037Y-43903D01*
X57037Y-43029D01*
X57037Y-42929D01*
X57037Y-42055D01*
X56883Y-42013D01*
X56544Y-42147D01*
X56406Y-42282D01*
X56406Y-41885D01*
X56364Y-41730D01*
X55484Y-41730D01*
X55484Y-42604D01*
X55638Y-42646D01*
X55977Y-42512D01*
X56254Y-42241D01*
X56406Y-41885D01*
X56406Y-42282D01*
X56267Y-42418D01*
X56115Y-42774D01*
X56157Y-42929D01*
X57037Y-42929D01*
X57037Y-43029D01*
X56157Y-43029D01*
X56115Y-43184D01*
X56267Y-43540D01*
X56544Y-43811D01*
X56883Y-43945D01*
X57037Y-43903D01*
X57037Y-44041D01*
X57019Y-44059D01*
X56981Y-44150D01*
X56981Y-44249D01*
X56980Y-44488D01*
X57042Y-44550D01*
X57480Y-44550D01*
X57480Y-44650D01*
X57430Y-44650D01*
X57042Y-44650D01*
X56980Y-44712D01*
X56981Y-44951D01*
X56981Y-45050D01*
X57019Y-45141D01*
X57089Y-45211D01*
X57181Y-45249D01*
X57394Y-45249D01*
X57031Y-45613D01*
X57027Y-45613D01*
X56935Y-45651D01*
X56865Y-45721D01*
X56827Y-45812D01*
X56827Y-45911D01*
X56827Y-46187D01*
X56865Y-46279D01*
X56935Y-46349D01*
X57026Y-46387D01*
X57123Y-46387D01*
X57343Y-46607D01*
X57272Y-46593D01*
X56784Y-46593D01*
X56784Y-45425D01*
X56784Y-45326D01*
X56784Y-44776D01*
X56746Y-44684D01*
X56676Y-44614D01*
X56585Y-44576D01*
X56486Y-44576D01*
X55936Y-44576D01*
X55844Y-44614D01*
X55774Y-44684D01*
X55736Y-44775D01*
X55736Y-44874D01*
X55736Y-45424D01*
X55774Y-45516D01*
X55844Y-45586D01*
X55935Y-45624D01*
X56034Y-45624D01*
X56584Y-45624D01*
X56676Y-45586D01*
X56746Y-45516D01*
X56784Y-45425D01*
X56784Y-46593D01*
X55625Y-46593D01*
X55625Y-45225D01*
X55625Y-45016D01*
X55545Y-44823D01*
X55398Y-44675D01*
X55384Y-44669D01*
X55205Y-44595D01*
X54996Y-44595D01*
X54803Y-44675D01*
X54655Y-44822D01*
X54575Y-45015D01*
X54575Y-45224D01*
X54655Y-45417D01*
X54802Y-45565D01*
X54995Y-45645D01*
X55204Y-45645D01*
X55397Y-45565D01*
X55545Y-45418D01*
X55625Y-45225D01*
X55625Y-46593D01*
X54289Y-46593D01*
X53327Y-45631D01*
X53327Y-44920D01*
X53296Y-44764D01*
X53208Y-44632D01*
X52940Y-44364D01*
X52940Y-42432D01*
X52878Y-42370D01*
X52440Y-42370D01*
X52440Y-42908D01*
X52502Y-42970D01*
X52739Y-42969D01*
X52831Y-42931D01*
X52901Y-42861D01*
X52939Y-42770D01*
X52939Y-42671D01*
X52940Y-42432D01*
X52940Y-44364D01*
X52340Y-43764D01*
X52340Y-42908D01*
X52340Y-42370D01*
X51902Y-42370D01*
X51840Y-42432D01*
X51841Y-42671D01*
X51841Y-42770D01*
X51879Y-42861D01*
X51949Y-42931D01*
X52041Y-42969D01*
X52278Y-42970D01*
X52340Y-42908D01*
X52340Y-43764D01*
X51514Y-42938D01*
X51531Y-42931D01*
X51601Y-42861D01*
X51639Y-42770D01*
X51639Y-42671D01*
X51639Y-41871D01*
X51604Y-41787D01*
X51875Y-41787D01*
X51841Y-41870D01*
X51841Y-41969D01*
X51840Y-42208D01*
X51902Y-42270D01*
X52290Y-42270D01*
X52340Y-42270D01*
X52440Y-42270D01*
X52490Y-42270D01*
X52878Y-42270D01*
X52940Y-42208D01*
X52939Y-41969D01*
X52939Y-41870D01*
X52904Y-41787D01*
X54220Y-41787D01*
X54376Y-41756D01*
X54446Y-41709D01*
X54446Y-41780D01*
X54490Y-41780D01*
X54462Y-41885D01*
X54614Y-42241D01*
X54891Y-42512D01*
X55230Y-42646D01*
X55384Y-42604D01*
X55384Y-41780D01*
X55384Y-41730D01*
X55384Y-41630D01*
X55484Y-41630D01*
X55534Y-41630D01*
X56364Y-41630D01*
X56406Y-41475D01*
X56295Y-41217D01*
X56384Y-41276D01*
X56513Y-41301D01*
X56539Y-41307D01*
X56539Y-41306D01*
X56540Y-41307D01*
X58040Y-41307D01*
X58164Y-41282D01*
X58061Y-41531D01*
X58061Y-41801D01*
X58061Y-41827D01*
X58164Y-42077D01*
X58309Y-42222D01*
G54D10*
G36*
X59372Y-25116D02*
X59081Y-25116D01*
X58989Y-25154D01*
X58919Y-25224D01*
X58881Y-25315D01*
X58881Y-25414D01*
X58881Y-25600D01*
X58122Y-26359D01*
X58122Y-25679D01*
X58084Y-25587D01*
X58014Y-25517D01*
X57923Y-25479D01*
X57824Y-25479D01*
X57038Y-25479D01*
X56946Y-25517D01*
X56876Y-25587D01*
X56838Y-25678D01*
X56838Y-25777D01*
X56838Y-26294D01*
X56272Y-25728D01*
X56166Y-25657D01*
X56164Y-25656D01*
X56123Y-25615D01*
X55760Y-25615D01*
X55710Y-25615D01*
X55610Y-25615D01*
X55560Y-25615D01*
X55197Y-25615D01*
X55180Y-25632D01*
X53152Y-25632D01*
X53376Y-25408D01*
X55135Y-25408D01*
X55135Y-25453D01*
X55197Y-25515D01*
X55560Y-25515D01*
X55610Y-25515D01*
X55710Y-25515D01*
X55760Y-25515D01*
X56123Y-25515D01*
X56185Y-25453D01*
X56184Y-25408D01*
X56240Y-25408D01*
X56365Y-25383D01*
X56366Y-25383D01*
X56472Y-25312D01*
X57342Y-24441D01*
X57922Y-24441D01*
X58014Y-24403D01*
X58084Y-24333D01*
X58122Y-24242D01*
X58122Y-24216D01*
X58398Y-24492D01*
X58504Y-24563D01*
X58505Y-24563D01*
X58630Y-24588D01*
X58882Y-24588D01*
X58919Y-24676D01*
X58989Y-24746D01*
X59080Y-24784D01*
X59179Y-24784D01*
X59372Y-24784D01*
X59372Y-25116D01*
X59372Y-25116D01*
G37*
G54D34*
X59372Y-25116D02*
X59081Y-25116D01*
X58989Y-25154D01*
X58919Y-25224D01*
X58881Y-25315D01*
X58881Y-25414D01*
X58881Y-25600D01*
X58122Y-26359D01*
X58122Y-25679D01*
X58084Y-25587D01*
X58014Y-25517D01*
X57923Y-25479D01*
X57824Y-25479D01*
X57038Y-25479D01*
X56946Y-25517D01*
X56876Y-25587D01*
X56838Y-25678D01*
X56838Y-25777D01*
X56838Y-26294D01*
X56272Y-25728D01*
X56166Y-25657D01*
X56164Y-25656D01*
X56123Y-25615D01*
X55760Y-25615D01*
X55710Y-25615D01*
X55610Y-25615D01*
X55560Y-25615D01*
X55197Y-25615D01*
X55180Y-25632D01*
X53152Y-25632D01*
X53376Y-25408D01*
X55135Y-25408D01*
X55135Y-25453D01*
X55197Y-25515D01*
X55560Y-25515D01*
X55610Y-25515D01*
X55710Y-25515D01*
X55760Y-25515D01*
X56123Y-25515D01*
X56185Y-25453D01*
X56184Y-25408D01*
X56240Y-25408D01*
X56365Y-25383D01*
X56366Y-25383D01*
X56472Y-25312D01*
X57342Y-24441D01*
X57922Y-24441D01*
X58014Y-24403D01*
X58084Y-24333D01*
X58122Y-24242D01*
X58122Y-24216D01*
X58398Y-24492D01*
X58504Y-24563D01*
X58505Y-24563D01*
X58630Y-24588D01*
X58882Y-24588D01*
X58919Y-24676D01*
X58989Y-24746D01*
X59080Y-24784D01*
X59179Y-24784D01*
X59372Y-24784D01*
X59372Y-25116D01*
G54D10*
G36*
X59989Y-16885D02*
X59874Y-16999D01*
X59851Y-16989D01*
X59597Y-16989D01*
X59573Y-16989D01*
X59338Y-17086D01*
X59159Y-17265D01*
X59061Y-17499D01*
X59061Y-17753D01*
X59078Y-17795D01*
X56344Y-20529D01*
X56325Y-20521D01*
X56226Y-20521D01*
X55848Y-20521D01*
X55848Y-19236D01*
X55915Y-19169D01*
X56109Y-19169D01*
X56311Y-19085D01*
X56465Y-18931D01*
X56549Y-18729D01*
X56549Y-18511D01*
X56465Y-18309D01*
X56311Y-18155D01*
X56109Y-18071D01*
X55891Y-18071D01*
X55689Y-18155D01*
X55535Y-18309D01*
X55500Y-18393D01*
X55465Y-18309D01*
X55311Y-18155D01*
X55109Y-18071D01*
X54891Y-18071D01*
X54689Y-18155D01*
X54535Y-18309D01*
X54500Y-18393D01*
X54465Y-18309D01*
X54311Y-18155D01*
X54109Y-18071D01*
X53891Y-18071D01*
X53689Y-18155D01*
X53535Y-18309D01*
X53500Y-18393D01*
X53465Y-18309D01*
X53311Y-18155D01*
X53109Y-18071D01*
X52891Y-18071D01*
X52689Y-18155D01*
X52549Y-18295D01*
X52549Y-18270D01*
X52511Y-18179D01*
X52441Y-18109D01*
X52349Y-18071D01*
X52112Y-18070D01*
X52050Y-18132D01*
X52050Y-18520D01*
X52050Y-18570D01*
X52050Y-18670D01*
X52050Y-18720D01*
X52050Y-19108D01*
X52112Y-19170D01*
X52349Y-19169D01*
X52441Y-19131D01*
X52511Y-19061D01*
X52549Y-18970D01*
X52549Y-18945D01*
X52689Y-19085D01*
X52891Y-19169D01*
X53109Y-19169D01*
X53311Y-19085D01*
X53465Y-18931D01*
X53500Y-18846D01*
X53535Y-18931D01*
X53672Y-19068D01*
X53672Y-19504D01*
X53484Y-19692D01*
X52240Y-19692D01*
X52114Y-19717D01*
X52008Y-19788D01*
X52005Y-19791D01*
X51950Y-19846D01*
X51950Y-19108D01*
X51950Y-18670D01*
X51950Y-18570D01*
X51950Y-18132D01*
X51888Y-18070D01*
X51651Y-18071D01*
X51559Y-18109D01*
X51489Y-18179D01*
X51451Y-18270D01*
X51451Y-18369D01*
X51450Y-18508D01*
X51512Y-18570D01*
X51950Y-18570D01*
X51950Y-18670D01*
X51512Y-18670D01*
X51450Y-18732D01*
X51451Y-18871D01*
X51451Y-18970D01*
X51489Y-19061D01*
X51559Y-19131D01*
X51651Y-19169D01*
X51888Y-19170D01*
X51950Y-19108D01*
X51950Y-19846D01*
X51048Y-20748D01*
X50977Y-20854D01*
X50952Y-20980D01*
X50952Y-22284D01*
X49785Y-23451D01*
X49785Y-16885D01*
X59989Y-16885D01*
X59989Y-16885D01*
G37*
G54D34*
X59989Y-16885D02*
X59874Y-16999D01*
X59851Y-16989D01*
X59597Y-16989D01*
X59573Y-16989D01*
X59338Y-17086D01*
X59159Y-17265D01*
X59061Y-17499D01*
X59061Y-17753D01*
X59078Y-17795D01*
X56344Y-20529D01*
X56325Y-20521D01*
X56226Y-20521D01*
X55848Y-20521D01*
X55848Y-19236D01*
X55915Y-19169D01*
X56109Y-19169D01*
X56311Y-19085D01*
X56465Y-18931D01*
X56549Y-18729D01*
X56549Y-18511D01*
X56465Y-18309D01*
X56311Y-18155D01*
X56109Y-18071D01*
X55891Y-18071D01*
X55689Y-18155D01*
X55535Y-18309D01*
X55500Y-18393D01*
X55465Y-18309D01*
X55311Y-18155D01*
X55109Y-18071D01*
X54891Y-18071D01*
X54689Y-18155D01*
X54535Y-18309D01*
X54500Y-18393D01*
X54465Y-18309D01*
X54311Y-18155D01*
X54109Y-18071D01*
X53891Y-18071D01*
X53689Y-18155D01*
X53535Y-18309D01*
X53500Y-18393D01*
X53465Y-18309D01*
X53311Y-18155D01*
X53109Y-18071D01*
X52891Y-18071D01*
X52689Y-18155D01*
X52549Y-18295D01*
X52549Y-18270D01*
X52511Y-18179D01*
X52441Y-18109D01*
X52349Y-18071D01*
X52112Y-18070D01*
X52050Y-18132D01*
X52050Y-18520D01*
X52050Y-18570D01*
X52050Y-18670D01*
X52050Y-18720D01*
X52050Y-19108D01*
X52112Y-19170D01*
X52349Y-19169D01*
X52441Y-19131D01*
X52511Y-19061D01*
X52549Y-18970D01*
X52549Y-18945D01*
X52689Y-19085D01*
X52891Y-19169D01*
X53109Y-19169D01*
X53311Y-19085D01*
X53465Y-18931D01*
X53500Y-18846D01*
X53535Y-18931D01*
X53672Y-19068D01*
X53672Y-19504D01*
X53484Y-19692D01*
X52240Y-19692D01*
X52114Y-19717D01*
X52008Y-19788D01*
X52005Y-19791D01*
X51950Y-19846D01*
X51950Y-19108D01*
X51950Y-18670D01*
X51950Y-18570D01*
X51950Y-18132D01*
X51888Y-18070D01*
X51651Y-18071D01*
X51559Y-18109D01*
X51489Y-18179D01*
X51451Y-18270D01*
X51451Y-18369D01*
X51450Y-18508D01*
X51512Y-18570D01*
X51950Y-18570D01*
X51950Y-18670D01*
X51512Y-18670D01*
X51450Y-18732D01*
X51451Y-18871D01*
X51451Y-18970D01*
X51489Y-19061D01*
X51559Y-19131D01*
X51651Y-19169D01*
X51888Y-19170D01*
X51950Y-19108D01*
X51950Y-19846D01*
X51048Y-20748D01*
X50977Y-20854D01*
X50952Y-20980D01*
X50952Y-22284D01*
X49785Y-23451D01*
X49785Y-16885D01*
X59989Y-16885D01*
G54D10*
G36*
X61128Y-44272D02*
X60375Y-44272D01*
X60375Y-44043D01*
X60375Y-43630D01*
X60062Y-43630D01*
X60000Y-43692D01*
X60001Y-43806D01*
X60001Y-43905D01*
X60039Y-43996D01*
X60109Y-44066D01*
X60201Y-44104D01*
X60313Y-44105D01*
X60375Y-44043D01*
X60375Y-44272D01*
X59379Y-44272D01*
X59379Y-44151D01*
X59341Y-44059D01*
X59271Y-43989D01*
X59180Y-43951D01*
X59158Y-43951D01*
X59158Y-43370D01*
X59133Y-43244D01*
X59065Y-43143D01*
X59065Y-43142D01*
X59065Y-43096D01*
X59036Y-43027D01*
X59271Y-43027D01*
X59470Y-43225D01*
X59472Y-43228D01*
X59604Y-43316D01*
X59760Y-43347D01*
X60001Y-43347D01*
X60001Y-43354D01*
X60000Y-43468D01*
X60062Y-43530D01*
X60325Y-43530D01*
X60375Y-43530D01*
X60475Y-43530D01*
X60475Y-43630D01*
X60475Y-43680D01*
X60475Y-44043D01*
X60537Y-44105D01*
X60649Y-44104D01*
X60741Y-44066D01*
X60800Y-44007D01*
X60859Y-44066D01*
X60950Y-44104D01*
X60960Y-44104D01*
X61128Y-44272D01*
X61128Y-44272D01*
G37*
G54D34*
X61128Y-44272D02*
X60375Y-44272D01*
X60375Y-44043D01*
X60375Y-43630D01*
X60062Y-43630D01*
X60000Y-43692D01*
X60001Y-43806D01*
X60001Y-43905D01*
X60039Y-43996D01*
X60109Y-44066D01*
X60201Y-44104D01*
X60313Y-44105D01*
X60375Y-44043D01*
X60375Y-44272D01*
X59379Y-44272D01*
X59379Y-44151D01*
X59341Y-44059D01*
X59271Y-43989D01*
X59180Y-43951D01*
X59158Y-43951D01*
X59158Y-43370D01*
X59133Y-43244D01*
X59065Y-43143D01*
X59065Y-43142D01*
X59065Y-43096D01*
X59036Y-43027D01*
X59271Y-43027D01*
X59470Y-43225D01*
X59472Y-43228D01*
X59604Y-43316D01*
X59760Y-43347D01*
X60001Y-43347D01*
X60001Y-43354D01*
X60000Y-43468D01*
X60062Y-43530D01*
X60325Y-43530D01*
X60375Y-43530D01*
X60475Y-43530D01*
X60475Y-43630D01*
X60475Y-43680D01*
X60475Y-44043D01*
X60537Y-44105D01*
X60649Y-44104D01*
X60741Y-44066D01*
X60800Y-44007D01*
X60859Y-44066D01*
X60950Y-44104D01*
X60960Y-44104D01*
X61128Y-44272D01*
G54D10*
G36*
X64195Y-50635D02*
X63725Y-50635D01*
X63725Y-46687D01*
X63663Y-46625D01*
X63250Y-46625D01*
X63250Y-46938D01*
X63312Y-47000D01*
X63426Y-46999D01*
X63525Y-46999D01*
X63616Y-46961D01*
X63686Y-46891D01*
X63724Y-46799D01*
X63725Y-46687D01*
X63725Y-50635D01*
X63150Y-50635D01*
X63150Y-46938D01*
X63150Y-46625D01*
X62737Y-46625D01*
X62675Y-46687D01*
X62676Y-46799D01*
X62714Y-46891D01*
X62784Y-46961D01*
X62875Y-46999D01*
X62974Y-46999D01*
X63088Y-47000D01*
X63150Y-46938D01*
X63150Y-50635D01*
X59200Y-50635D01*
X59200Y-49672D01*
X59200Y-49448D01*
X59199Y-49209D01*
X59199Y-49110D01*
X59161Y-49019D01*
X59122Y-48980D01*
X59161Y-48941D01*
X59199Y-48850D01*
X59199Y-48751D01*
X59200Y-48512D01*
X59138Y-48450D01*
X58700Y-48450D01*
X58700Y-48972D01*
X58700Y-48988D01*
X58700Y-49510D01*
X59138Y-49510D01*
X59200Y-49448D01*
X59200Y-49672D01*
X59138Y-49610D01*
X58700Y-49610D01*
X58700Y-50148D01*
X58762Y-50210D01*
X58999Y-50209D01*
X59091Y-50171D01*
X59161Y-50101D01*
X59199Y-50010D01*
X59199Y-49911D01*
X59200Y-49672D01*
X59200Y-50635D01*
X58600Y-50635D01*
X58600Y-50148D01*
X58600Y-49610D01*
X58600Y-49510D01*
X58600Y-48988D01*
X58600Y-48972D01*
X58600Y-48450D01*
X58162Y-48450D01*
X58100Y-48512D01*
X58101Y-48751D01*
X58101Y-48850D01*
X58139Y-48941D01*
X58178Y-48980D01*
X58139Y-49019D01*
X58101Y-49110D01*
X58101Y-49209D01*
X58100Y-49448D01*
X58162Y-49510D01*
X58600Y-49510D01*
X58600Y-49610D01*
X58162Y-49610D01*
X58100Y-49672D01*
X58101Y-49911D01*
X58101Y-50010D01*
X58139Y-50101D01*
X58209Y-50171D01*
X58301Y-50209D01*
X58538Y-50210D01*
X58600Y-50148D01*
X58600Y-50635D01*
X52444Y-50635D01*
X52444Y-48505D01*
X52444Y-48406D01*
X52444Y-47856D01*
X52406Y-47764D01*
X52336Y-47694D01*
X52245Y-47656D01*
X52146Y-47656D01*
X51596Y-47656D01*
X51504Y-47694D01*
X51434Y-47764D01*
X51396Y-47855D01*
X51396Y-47954D01*
X51396Y-48504D01*
X51434Y-48596D01*
X51504Y-48666D01*
X51595Y-48704D01*
X51694Y-48704D01*
X52244Y-48704D01*
X52336Y-48666D01*
X52406Y-48596D01*
X52444Y-48505D01*
X52444Y-50635D01*
X51384Y-50635D01*
X51384Y-45485D01*
X51384Y-45386D01*
X51384Y-44836D01*
X51346Y-44744D01*
X51276Y-44674D01*
X51185Y-44636D01*
X51086Y-44636D01*
X50536Y-44636D01*
X50444Y-44674D01*
X50374Y-44744D01*
X50336Y-44835D01*
X50336Y-44934D01*
X50336Y-45484D01*
X50374Y-45576D01*
X50444Y-45646D01*
X50535Y-45684D01*
X50634Y-45684D01*
X51184Y-45684D01*
X51276Y-45646D01*
X51346Y-45576D01*
X51384Y-45485D01*
X51384Y-50635D01*
X51379Y-50635D01*
X51379Y-48234D01*
X51368Y-48030D01*
X51312Y-47893D01*
X51221Y-47870D01*
X51150Y-47941D01*
X51150Y-47799D01*
X51127Y-47708D01*
X50934Y-47641D01*
X50730Y-47652D01*
X50593Y-47708D01*
X50570Y-47799D01*
X50860Y-48089D01*
X51150Y-47799D01*
X51150Y-47941D01*
X50931Y-48160D01*
X51221Y-48450D01*
X51312Y-48427D01*
X51379Y-48234D01*
X51379Y-50635D01*
X51150Y-50635D01*
X51150Y-48521D01*
X50860Y-48231D01*
X50789Y-48302D01*
X50789Y-48160D01*
X50499Y-47870D01*
X50408Y-47893D01*
X50341Y-48086D01*
X50352Y-48290D01*
X50408Y-48427D01*
X50499Y-48450D01*
X50789Y-48160D01*
X50789Y-48302D01*
X50570Y-48521D01*
X50593Y-48612D01*
X50786Y-48679D01*
X50990Y-48668D01*
X51127Y-48612D01*
X51150Y-48521D01*
X51150Y-50635D01*
X49785Y-50635D01*
X49785Y-36151D01*
X49969Y-36332D01*
X50308Y-36466D01*
X50462Y-36424D01*
X50462Y-35600D01*
X50462Y-35550D01*
X50462Y-35450D01*
X50462Y-35400D01*
X50462Y-34576D01*
X50308Y-34534D01*
X49969Y-34668D01*
X49785Y-34848D01*
X49785Y-25906D01*
X49812Y-25933D01*
X49812Y-29600D01*
X49837Y-29726D01*
X49908Y-29832D01*
X50492Y-30416D01*
X50201Y-30416D01*
X50109Y-30454D01*
X50039Y-30524D01*
X50001Y-30615D01*
X50001Y-30714D01*
X50001Y-31264D01*
X50034Y-31343D01*
X49999Y-31379D01*
X49961Y-31470D01*
X49961Y-31569D01*
X49961Y-32369D01*
X49999Y-32461D01*
X50069Y-32531D01*
X50160Y-32569D01*
X50193Y-32569D01*
X50207Y-32636D01*
X50278Y-32742D01*
X50407Y-32871D01*
X50408Y-32872D01*
X50514Y-32943D01*
X50639Y-32967D01*
X50640Y-32968D01*
X51379Y-32968D01*
X51344Y-33003D01*
X51196Y-33359D01*
X51196Y-33744D01*
X51196Y-33782D01*
X51343Y-34138D01*
X51616Y-34411D01*
X51972Y-34559D01*
X52275Y-34559D01*
X52235Y-34655D01*
X52235Y-34824D01*
X52299Y-34980D01*
X52419Y-35100D01*
X52575Y-35165D01*
X52744Y-35165D01*
X52900Y-35101D01*
X53020Y-34981D01*
X53085Y-34825D01*
X53085Y-34779D01*
X53436Y-34428D01*
X53620Y-34428D01*
X53745Y-34403D01*
X53746Y-34403D01*
X53852Y-34332D01*
X56496Y-31688D01*
X56760Y-31688D01*
X56885Y-31663D01*
X56886Y-31663D01*
X56992Y-31592D01*
X57044Y-31538D01*
X57046Y-31537D01*
X57047Y-31537D01*
X57118Y-31431D01*
X57143Y-31306D01*
X57142Y-31305D01*
X57143Y-31305D01*
X57143Y-31254D01*
X57201Y-31196D01*
X57239Y-31105D01*
X57239Y-31006D01*
X57239Y-30605D01*
X57344Y-30605D01*
X57470Y-30553D01*
X57506Y-30553D01*
X57553Y-30600D01*
X57494Y-30659D01*
X57456Y-30750D01*
X57456Y-30849D01*
X57456Y-31199D01*
X57494Y-31291D01*
X57564Y-31361D01*
X57652Y-31397D01*
X57652Y-31564D01*
X56868Y-32348D01*
X56797Y-32454D01*
X56772Y-32580D01*
X56772Y-32639D01*
X56552Y-32730D01*
X56279Y-33003D01*
X56131Y-33359D01*
X56131Y-33744D01*
X56131Y-33782D01*
X56148Y-33824D01*
X56005Y-33681D01*
X56005Y-33676D01*
X55941Y-33520D01*
X55821Y-33400D01*
X55665Y-33335D01*
X55496Y-33335D01*
X55340Y-33399D01*
X55220Y-33519D01*
X55155Y-33675D01*
X55155Y-33844D01*
X55219Y-34000D01*
X55339Y-34120D01*
X55495Y-34185D01*
X55581Y-34185D01*
X57245Y-35849D01*
X57150Y-35875D01*
X57150Y-36749D01*
X58030Y-36749D01*
X58054Y-36658D01*
X58897Y-37501D01*
X58897Y-37726D01*
X58839Y-37784D01*
X58801Y-37875D01*
X58801Y-37974D01*
X58801Y-38524D01*
X58839Y-38616D01*
X58909Y-38686D01*
X59000Y-38724D01*
X59099Y-38724D01*
X59449Y-38724D01*
X59541Y-38686D01*
X59600Y-38627D01*
X59659Y-38686D01*
X59750Y-38724D01*
X59849Y-38724D01*
X60199Y-38724D01*
X60291Y-38686D01*
X60361Y-38616D01*
X60397Y-38528D01*
X60480Y-38528D01*
X60605Y-38503D01*
X60606Y-38503D01*
X60712Y-38432D01*
X60801Y-38343D01*
X60801Y-38374D01*
X60801Y-38924D01*
X60839Y-39016D01*
X60909Y-39086D01*
X60917Y-39089D01*
X60922Y-39111D01*
X60993Y-39217D01*
X61402Y-39626D01*
X61320Y-39660D01*
X61238Y-39626D01*
X61139Y-39626D01*
X60903Y-39626D01*
X60820Y-39660D01*
X60738Y-39626D01*
X60639Y-39626D01*
X60403Y-39626D01*
X60320Y-39660D01*
X60238Y-39626D01*
X60139Y-39626D01*
X59903Y-39626D01*
X59811Y-39664D01*
X59741Y-39734D01*
X59737Y-39743D01*
X59470Y-39743D01*
X59469Y-39743D01*
X59314Y-39774D01*
X59205Y-39845D01*
X59205Y-39676D01*
X59141Y-39520D01*
X59021Y-39400D01*
X58865Y-39335D01*
X58812Y-39335D01*
X58726Y-39277D01*
X58703Y-39272D01*
X58703Y-38674D01*
X58761Y-38616D01*
X58799Y-38525D01*
X58799Y-38426D01*
X58799Y-37876D01*
X58761Y-37784D01*
X58691Y-37714D01*
X58600Y-37676D01*
X58501Y-37676D01*
X58151Y-37676D01*
X58059Y-37714D01*
X58000Y-37773D01*
X57941Y-37714D01*
X57850Y-37676D01*
X57751Y-37676D01*
X57529Y-37676D01*
X57643Y-37631D01*
X57920Y-37360D01*
X58072Y-37004D01*
X58030Y-36849D01*
X57200Y-36849D01*
X57150Y-36849D01*
X57050Y-36849D01*
X57050Y-36749D01*
X57050Y-35875D01*
X56896Y-35833D01*
X56557Y-35967D01*
X56419Y-36102D01*
X56419Y-35705D01*
X56419Y-35295D01*
X56267Y-34939D01*
X55990Y-34668D01*
X55651Y-34534D01*
X55497Y-34576D01*
X55497Y-35450D01*
X56377Y-35450D01*
X56419Y-35295D01*
X56419Y-35705D01*
X56377Y-35550D01*
X55497Y-35550D01*
X55497Y-36424D01*
X55651Y-36466D01*
X55990Y-36332D01*
X56267Y-36061D01*
X56419Y-35705D01*
X56419Y-36102D01*
X56280Y-36238D01*
X56128Y-36594D01*
X56170Y-36749D01*
X57050Y-36749D01*
X57050Y-36849D01*
X57000Y-36849D01*
X56170Y-36849D01*
X56128Y-37004D01*
X56280Y-37360D01*
X56557Y-37631D01*
X56772Y-37716D01*
X56631Y-37716D01*
X56539Y-37754D01*
X56480Y-37813D01*
X56421Y-37754D01*
X56330Y-37716D01*
X56231Y-37716D01*
X55881Y-37716D01*
X55789Y-37754D01*
X55719Y-37824D01*
X55681Y-37915D01*
X55681Y-38014D01*
X55681Y-38564D01*
X55719Y-38656D01*
X55777Y-38714D01*
X55777Y-38825D01*
X55802Y-38951D01*
X55873Y-39057D01*
X56187Y-39371D01*
X56118Y-39539D01*
X56118Y-39924D01*
X56118Y-39962D01*
X56167Y-40082D01*
X56120Y-40073D01*
X55397Y-40073D01*
X55397Y-36424D01*
X55397Y-35600D01*
X55397Y-35550D01*
X55397Y-35450D01*
X55397Y-35400D01*
X55397Y-34576D01*
X55243Y-34534D01*
X54904Y-34668D01*
X54627Y-34939D01*
X54475Y-35295D01*
X54478Y-35308D01*
X54394Y-35103D01*
X54203Y-34912D01*
X53954Y-34808D01*
X53684Y-34808D01*
X53434Y-34911D01*
X53243Y-35102D01*
X53139Y-35351D01*
X53139Y-35621D01*
X53139Y-35647D01*
X53242Y-35897D01*
X53433Y-36088D01*
X53682Y-36192D01*
X53952Y-36192D01*
X54202Y-36089D01*
X54393Y-35898D01*
X54477Y-35695D01*
X54475Y-35705D01*
X54627Y-36061D01*
X54904Y-36332D01*
X55243Y-36466D01*
X55397Y-36424D01*
X55397Y-40073D01*
X55120Y-40073D01*
X55119Y-40073D01*
X54964Y-40104D01*
X54832Y-40192D01*
X54830Y-40194D01*
X54051Y-40973D01*
X53899Y-40973D01*
X53899Y-40099D01*
X53899Y-39861D01*
X53808Y-39641D01*
X53639Y-39472D01*
X53419Y-39381D01*
X53181Y-39381D01*
X53137Y-39399D01*
X53137Y-37004D01*
X53137Y-36594D01*
X52985Y-36238D01*
X52708Y-35967D01*
X52369Y-35833D01*
X52215Y-35875D01*
X52215Y-36749D01*
X53095Y-36749D01*
X53137Y-36594D01*
X53137Y-37004D01*
X53095Y-36849D01*
X52215Y-36849D01*
X52215Y-37723D01*
X52369Y-37765D01*
X52708Y-37631D01*
X52985Y-37360D01*
X53137Y-37004D01*
X53137Y-39399D01*
X52961Y-39472D01*
X52885Y-39547D01*
X52861Y-39489D01*
X52791Y-39419D01*
X52700Y-39381D01*
X52601Y-39381D01*
X52412Y-39380D01*
X52350Y-39442D01*
X52350Y-39880D01*
X52350Y-39930D01*
X52350Y-40030D01*
X52350Y-40080D01*
X52350Y-40518D01*
X52412Y-40580D01*
X52601Y-40579D01*
X52700Y-40579D01*
X52791Y-40541D01*
X52861Y-40471D01*
X52885Y-40412D01*
X52961Y-40488D01*
X53181Y-40579D01*
X53419Y-40579D01*
X53639Y-40488D01*
X53808Y-40319D01*
X53899Y-40099D01*
X53899Y-40973D01*
X51562Y-40973D01*
X51585Y-40949D01*
X51587Y-40948D01*
X51588Y-40948D01*
X51675Y-40816D01*
X51676Y-40816D01*
X51701Y-40686D01*
X51707Y-40661D01*
X51706Y-40660D01*
X51707Y-40660D01*
X51707Y-40420D01*
X51714Y-40412D01*
X51739Y-40471D01*
X51809Y-40541D01*
X51900Y-40579D01*
X51999Y-40579D01*
X52188Y-40580D01*
X52250Y-40518D01*
X52250Y-40080D01*
X52250Y-40030D01*
X52250Y-39930D01*
X52250Y-39880D01*
X52250Y-39442D01*
X52188Y-39380D01*
X52115Y-39380D01*
X52115Y-37723D01*
X52115Y-36849D01*
X52115Y-36749D01*
X52115Y-35875D01*
X51961Y-35833D01*
X51622Y-35967D01*
X51484Y-36102D01*
X51484Y-35705D01*
X51484Y-35295D01*
X51332Y-34939D01*
X51055Y-34668D01*
X50716Y-34534D01*
X50562Y-34576D01*
X50562Y-35450D01*
X51442Y-35450D01*
X51484Y-35295D01*
X51484Y-35705D01*
X51442Y-35550D01*
X50562Y-35550D01*
X50562Y-36424D01*
X50716Y-36466D01*
X51055Y-36332D01*
X51332Y-36061D01*
X51484Y-35705D01*
X51484Y-36102D01*
X51345Y-36238D01*
X51193Y-36594D01*
X51235Y-36749D01*
X52115Y-36749D01*
X52115Y-36849D01*
X51235Y-36849D01*
X51193Y-37004D01*
X51345Y-37360D01*
X51622Y-37631D01*
X51961Y-37765D01*
X52115Y-37723D01*
X52115Y-39380D01*
X51999Y-39381D01*
X51900Y-39381D01*
X51809Y-39419D01*
X51739Y-39489D01*
X51714Y-39547D01*
X51639Y-39472D01*
X51419Y-39381D01*
X51181Y-39381D01*
X50961Y-39472D01*
X50792Y-39641D01*
X50701Y-39861D01*
X50701Y-40099D01*
X50792Y-40319D01*
X50893Y-40420D01*
X50893Y-40491D01*
X50802Y-40582D01*
X50714Y-40714D01*
X50683Y-40870D01*
X50683Y-41380D01*
X50683Y-41694D01*
X50649Y-41709D01*
X50579Y-41779D01*
X50541Y-41870D01*
X50541Y-41969D01*
X50541Y-42769D01*
X50579Y-42861D01*
X50649Y-42931D01*
X50683Y-42945D01*
X50683Y-43090D01*
X50714Y-43246D01*
X50802Y-43378D01*
X52117Y-44693D01*
X52025Y-44655D01*
X51816Y-44655D01*
X51623Y-44735D01*
X51475Y-44882D01*
X51395Y-45075D01*
X51395Y-45284D01*
X51475Y-45477D01*
X51622Y-45625D01*
X51815Y-45705D01*
X52024Y-45705D01*
X52217Y-45625D01*
X52365Y-45478D01*
X52445Y-45285D01*
X52445Y-45076D01*
X52406Y-44982D01*
X52513Y-45089D01*
X52513Y-45800D01*
X52544Y-45956D01*
X52632Y-46088D01*
X53564Y-47020D01*
X53553Y-47080D01*
X53553Y-48360D01*
X53584Y-48516D01*
X53672Y-48648D01*
X54872Y-49848D01*
X55004Y-49936D01*
X55160Y-49967D01*
X56801Y-49967D01*
X56801Y-50009D01*
X56839Y-50101D01*
X56909Y-50171D01*
X57000Y-50209D01*
X57099Y-50209D01*
X57699Y-50209D01*
X57791Y-50171D01*
X57861Y-50101D01*
X57899Y-50010D01*
X57899Y-49911D01*
X57899Y-49111D01*
X57861Y-49019D01*
X57822Y-48980D01*
X57861Y-48941D01*
X57899Y-48850D01*
X57899Y-48751D01*
X57899Y-48516D01*
X58113Y-48301D01*
X58162Y-48350D01*
X58600Y-48350D01*
X58600Y-47812D01*
X58538Y-47750D01*
X58387Y-47750D01*
X58387Y-47364D01*
X58442Y-47387D01*
X58541Y-47387D01*
X58551Y-47387D01*
X58915Y-47750D01*
X58762Y-47750D01*
X58700Y-47812D01*
X58700Y-48350D01*
X59138Y-48350D01*
X59200Y-48288D01*
X59199Y-48049D01*
X59199Y-48034D01*
X59293Y-48128D01*
X59293Y-49360D01*
X59324Y-49516D01*
X59412Y-49648D01*
X59912Y-50148D01*
X60044Y-50236D01*
X60200Y-50267D01*
X60271Y-50267D01*
X60329Y-50325D01*
X60531Y-50409D01*
X60749Y-50409D01*
X60951Y-50325D01*
X61009Y-50267D01*
X61114Y-50267D01*
X61129Y-50301D01*
X61199Y-50371D01*
X61290Y-50409D01*
X61389Y-50409D01*
X61989Y-50409D01*
X62081Y-50371D01*
X62151Y-50301D01*
X62189Y-50210D01*
X62189Y-50111D01*
X62189Y-49511D01*
X62189Y-45969D01*
X62189Y-45751D01*
X62105Y-45549D01*
X61951Y-45395D01*
X61749Y-45311D01*
X61531Y-45311D01*
X61329Y-45395D01*
X61271Y-45453D01*
X61009Y-45453D01*
X60951Y-45395D01*
X60749Y-45311D01*
X60531Y-45311D01*
X60329Y-45395D01*
X60175Y-45549D01*
X60156Y-45593D01*
X58768Y-45593D01*
X58667Y-45613D01*
X58483Y-45613D01*
X58391Y-45651D01*
X58321Y-45721D01*
X58283Y-45812D01*
X58283Y-45911D01*
X58283Y-46187D01*
X58321Y-46279D01*
X58391Y-46349D01*
X58482Y-46387D01*
X58581Y-46387D01*
X58667Y-46387D01*
X58768Y-46407D01*
X60353Y-46407D01*
X60332Y-46482D01*
X60640Y-46789D01*
X60948Y-46482D01*
X60921Y-46388D01*
X60855Y-46364D01*
X60951Y-46325D01*
X61009Y-46267D01*
X61271Y-46267D01*
X61329Y-46325D01*
X61420Y-46362D01*
X61359Y-46388D01*
X61332Y-46482D01*
X61640Y-46789D01*
X61948Y-46482D01*
X61921Y-46388D01*
X61855Y-46364D01*
X61951Y-46325D01*
X62105Y-46171D01*
X62189Y-45969D01*
X62189Y-49511D01*
X62183Y-49496D01*
X62183Y-48939D01*
X62183Y-47939D01*
X62183Y-46939D01*
X62172Y-46726D01*
X62112Y-46579D01*
X62018Y-46552D01*
X61711Y-46860D01*
X62018Y-47168D01*
X62112Y-47141D01*
X62183Y-46939D01*
X62183Y-47939D01*
X62172Y-47726D01*
X62112Y-47579D01*
X62018Y-47552D01*
X61948Y-47622D01*
X61948Y-47482D01*
X61921Y-47388D01*
X61847Y-47362D01*
X61921Y-47332D01*
X61948Y-47238D01*
X61640Y-46931D01*
X61569Y-47001D01*
X61569Y-46860D01*
X61262Y-46552D01*
X61168Y-46579D01*
X61142Y-46652D01*
X61112Y-46579D01*
X61018Y-46552D01*
X60711Y-46860D01*
X61018Y-47168D01*
X61112Y-47141D01*
X61137Y-47067D01*
X61168Y-47141D01*
X61262Y-47168D01*
X61569Y-46860D01*
X61569Y-47001D01*
X61332Y-47238D01*
X61359Y-47332D01*
X61432Y-47357D01*
X61359Y-47388D01*
X61332Y-47482D01*
X61640Y-47789D01*
X61948Y-47482D01*
X61948Y-47622D01*
X61711Y-47860D01*
X62018Y-48168D01*
X62112Y-48141D01*
X62183Y-47939D01*
X62183Y-48939D01*
X62172Y-48726D01*
X62112Y-48579D01*
X62018Y-48552D01*
X61948Y-48622D01*
X61948Y-48482D01*
X61921Y-48388D01*
X61847Y-48362D01*
X61921Y-48332D01*
X61948Y-48238D01*
X61640Y-47931D01*
X61569Y-48001D01*
X61569Y-47860D01*
X61262Y-47552D01*
X61168Y-47579D01*
X61142Y-47652D01*
X61112Y-47579D01*
X61018Y-47552D01*
X60948Y-47622D01*
X60948Y-47482D01*
X60921Y-47388D01*
X60847Y-47362D01*
X60921Y-47332D01*
X60948Y-47238D01*
X60640Y-46931D01*
X60569Y-47001D01*
X60569Y-46860D01*
X60262Y-46552D01*
X60168Y-46579D01*
X60097Y-46781D01*
X60108Y-46994D01*
X60168Y-47141D01*
X60262Y-47168D01*
X60569Y-46860D01*
X60569Y-47001D01*
X60332Y-47238D01*
X60359Y-47332D01*
X60432Y-47357D01*
X60359Y-47388D01*
X60332Y-47482D01*
X60640Y-47789D01*
X60948Y-47482D01*
X60948Y-47622D01*
X60711Y-47860D01*
X61018Y-48168D01*
X61112Y-48141D01*
X61137Y-48067D01*
X61168Y-48141D01*
X61262Y-48168D01*
X61569Y-47860D01*
X61569Y-48001D01*
X61332Y-48238D01*
X61359Y-48332D01*
X61432Y-48357D01*
X61359Y-48388D01*
X61332Y-48482D01*
X61640Y-48789D01*
X61948Y-48482D01*
X61948Y-48622D01*
X61711Y-48860D01*
X62018Y-49168D01*
X62112Y-49141D01*
X62183Y-48939D01*
X62183Y-49496D01*
X62151Y-49419D01*
X62081Y-49349D01*
X61990Y-49311D01*
X61927Y-49311D01*
X61948Y-49238D01*
X61640Y-48931D01*
X61569Y-49001D01*
X61569Y-48860D01*
X61262Y-48552D01*
X61168Y-48579D01*
X61142Y-48652D01*
X61112Y-48579D01*
X61018Y-48552D01*
X60948Y-48622D01*
X60948Y-48482D01*
X60921Y-48388D01*
X60847Y-48362D01*
X60921Y-48332D01*
X60948Y-48238D01*
X60640Y-47931D01*
X60332Y-48238D01*
X60359Y-48332D01*
X60432Y-48357D01*
X60359Y-48388D01*
X60332Y-48482D01*
X60640Y-48789D01*
X60948Y-48482D01*
X60948Y-48622D01*
X60711Y-48860D01*
X61018Y-49168D01*
X61112Y-49141D01*
X61137Y-49067D01*
X61168Y-49141D01*
X61262Y-49168D01*
X61569Y-48860D01*
X61569Y-49001D01*
X61332Y-49238D01*
X61352Y-49311D01*
X61291Y-49311D01*
X61199Y-49349D01*
X61129Y-49419D01*
X61114Y-49453D01*
X61009Y-49453D01*
X60951Y-49395D01*
X60859Y-49357D01*
X60921Y-49332D01*
X60948Y-49238D01*
X60640Y-48931D01*
X60332Y-49238D01*
X60359Y-49332D01*
X60424Y-49355D01*
X60329Y-49395D01*
X60320Y-49404D01*
X60107Y-49191D01*
X60107Y-48974D01*
X60108Y-48994D01*
X60168Y-49141D01*
X60262Y-49168D01*
X60569Y-48860D01*
X60262Y-48552D01*
X60168Y-48579D01*
X60107Y-48752D01*
X60107Y-47974D01*
X60108Y-47994D01*
X60168Y-48141D01*
X60262Y-48168D01*
X60569Y-47860D01*
X60262Y-47552D01*
X60168Y-47579D01*
X60097Y-47781D01*
X60105Y-47954D01*
X60076Y-47804D01*
X59988Y-47672D01*
X59985Y-47670D01*
X59213Y-46897D01*
X59213Y-46813D01*
X59175Y-46721D01*
X59105Y-46651D01*
X59014Y-46613D01*
X58915Y-46613D01*
X58840Y-46613D01*
X58740Y-46593D01*
X58728Y-46593D01*
X58627Y-46613D01*
X58443Y-46613D01*
X58381Y-46638D01*
X58356Y-46512D01*
X58268Y-46380D01*
X58265Y-46378D01*
X57841Y-45954D01*
X58448Y-45348D01*
X58514Y-45249D01*
X58579Y-45249D01*
X59179Y-45249D01*
X59271Y-45211D01*
X59341Y-45141D01*
X59379Y-45050D01*
X59379Y-44951D01*
X59379Y-44928D01*
X62002Y-44928D01*
X62039Y-45016D01*
X62109Y-45086D01*
X62200Y-45124D01*
X62299Y-45124D01*
X62649Y-45124D01*
X62741Y-45086D01*
X62800Y-45027D01*
X62859Y-45086D01*
X62872Y-45091D01*
X62872Y-45402D01*
X62784Y-45439D01*
X62714Y-45509D01*
X62676Y-45600D01*
X62676Y-45699D01*
X62676Y-46049D01*
X62714Y-46141D01*
X62773Y-46200D01*
X62714Y-46259D01*
X62676Y-46351D01*
X62675Y-46463D01*
X62737Y-46525D01*
X63100Y-46525D01*
X63150Y-46525D01*
X63250Y-46525D01*
X63300Y-46525D01*
X63663Y-46525D01*
X63725Y-46463D01*
X63724Y-46351D01*
X63686Y-46259D01*
X63627Y-46200D01*
X63686Y-46141D01*
X63724Y-46050D01*
X63724Y-45951D01*
X63724Y-45601D01*
X63686Y-45509D01*
X63616Y-45439D01*
X63528Y-45402D01*
X63528Y-45049D01*
X63561Y-45016D01*
X63599Y-44925D01*
X63599Y-44826D01*
X63599Y-44276D01*
X63561Y-44184D01*
X63491Y-44114D01*
X63457Y-44099D01*
X63491Y-44086D01*
X63561Y-44016D01*
X63599Y-43925D01*
X63599Y-43826D01*
X63599Y-43276D01*
X63561Y-43184D01*
X63503Y-43126D01*
X63503Y-43074D01*
X63561Y-43016D01*
X63599Y-42925D01*
X63599Y-42826D01*
X63599Y-42505D01*
X63992Y-42112D01*
X64000Y-42099D01*
X64011Y-42091D01*
X64037Y-42042D01*
X64063Y-42005D01*
X64065Y-41993D01*
X64073Y-41980D01*
X64079Y-41924D01*
X64088Y-41880D01*
X64085Y-41866D01*
X64087Y-41852D01*
X64070Y-41650D01*
X64080Y-41641D01*
X64145Y-41485D01*
X64145Y-41316D01*
X64081Y-41160D01*
X63980Y-41059D01*
X63980Y-39272D01*
X63918Y-39210D01*
X63605Y-39210D01*
X63605Y-39623D01*
X63667Y-39685D01*
X63779Y-39684D01*
X63871Y-39646D01*
X63941Y-39576D01*
X63979Y-39485D01*
X63979Y-39386D01*
X63980Y-39272D01*
X63980Y-41059D01*
X63961Y-41040D01*
X63805Y-40975D01*
X63636Y-40975D01*
X63480Y-41039D01*
X63403Y-41115D01*
X63370Y-41101D01*
X63271Y-41101D01*
X63032Y-41100D01*
X62970Y-41162D01*
X62970Y-41550D01*
X62970Y-41600D01*
X62970Y-41700D01*
X62870Y-41700D01*
X62870Y-41600D01*
X62870Y-41550D01*
X62870Y-41162D01*
X62808Y-41100D01*
X62569Y-41101D01*
X62470Y-41101D01*
X62379Y-41139D01*
X62309Y-41209D01*
X62271Y-41301D01*
X62270Y-41538D01*
X62282Y-41550D01*
X62270Y-41550D01*
X62270Y-41646D01*
X62032Y-41408D01*
X61926Y-41337D01*
X61800Y-41312D01*
X61552Y-41312D01*
X61792Y-41072D01*
X61831Y-41012D01*
X61832Y-41011D01*
X62211Y-40633D01*
X62211Y-40632D01*
X62212Y-40632D01*
X62271Y-40543D01*
X62271Y-40699D01*
X62309Y-40791D01*
X62379Y-40861D01*
X62470Y-40899D01*
X62569Y-40899D01*
X63369Y-40899D01*
X63461Y-40861D01*
X63531Y-40791D01*
X63569Y-40700D01*
X63569Y-40601D01*
X63569Y-40001D01*
X63531Y-39909D01*
X63488Y-39866D01*
X63488Y-39640D01*
X63505Y-39623D01*
X63505Y-39260D01*
X63505Y-39210D01*
X63505Y-39110D01*
X63605Y-39110D01*
X63655Y-39110D01*
X63918Y-39110D01*
X63980Y-39048D01*
X63979Y-38934D01*
X63979Y-38835D01*
X63943Y-38750D01*
X63979Y-38665D01*
X63979Y-38566D01*
X63979Y-38016D01*
X63941Y-37924D01*
X63871Y-37854D01*
X63780Y-37816D01*
X63681Y-37816D01*
X63495Y-37816D01*
X63167Y-37488D01*
X63061Y-37417D01*
X62935Y-37392D01*
X62834Y-37392D01*
X62867Y-37360D01*
X63019Y-37004D01*
X63019Y-36594D01*
X63016Y-36586D01*
X63016Y-33783D01*
X63016Y-33398D01*
X63016Y-33360D01*
X62869Y-33004D01*
X62596Y-32731D01*
X62240Y-32583D01*
X61855Y-32583D01*
X61499Y-32730D01*
X61226Y-33003D01*
X61078Y-33359D01*
X61078Y-33744D01*
X61078Y-33782D01*
X61225Y-34138D01*
X61498Y-34411D01*
X61854Y-34559D01*
X62239Y-34559D01*
X62595Y-34412D01*
X62868Y-34139D01*
X63016Y-33783D01*
X63016Y-36586D01*
X62867Y-36238D01*
X62590Y-35967D01*
X62251Y-35833D01*
X62097Y-35875D01*
X62097Y-36749D01*
X62977Y-36749D01*
X63019Y-36594D01*
X63019Y-37004D01*
X62977Y-36849D01*
X62147Y-36849D01*
X62097Y-36849D01*
X61997Y-36849D01*
X61997Y-36749D01*
X61997Y-35875D01*
X61843Y-35833D01*
X61504Y-35967D01*
X61366Y-36102D01*
X61366Y-35705D01*
X61324Y-35550D01*
X60444Y-35550D01*
X60444Y-36424D01*
X60598Y-36466D01*
X60937Y-36332D01*
X61214Y-36061D01*
X61366Y-35705D01*
X61366Y-36102D01*
X61227Y-36238D01*
X61075Y-36594D01*
X61117Y-36749D01*
X61997Y-36749D01*
X61997Y-36849D01*
X61947Y-36849D01*
X61117Y-36849D01*
X61075Y-37004D01*
X61227Y-37360D01*
X61361Y-37492D01*
X60860Y-37492D01*
X60734Y-37517D01*
X60628Y-37588D01*
X60381Y-37834D01*
X60361Y-37784D01*
X60344Y-37767D01*
X60291Y-37714D01*
X60200Y-37676D01*
X60101Y-37676D01*
X59751Y-37676D01*
X59659Y-37714D01*
X59600Y-37773D01*
X59553Y-37726D01*
X59553Y-37365D01*
X59528Y-37240D01*
X59528Y-37239D01*
X59457Y-37133D01*
X58443Y-36119D01*
X58617Y-36192D01*
X58887Y-36192D01*
X59137Y-36089D01*
X59328Y-35898D01*
X59432Y-35649D01*
X59432Y-35600D01*
X59450Y-35600D01*
X59422Y-35705D01*
X59574Y-36061D01*
X59851Y-36332D01*
X60190Y-36466D01*
X60344Y-36424D01*
X60344Y-35600D01*
X60344Y-35550D01*
X60344Y-35450D01*
X60444Y-35450D01*
X60494Y-35450D01*
X61324Y-35450D01*
X61366Y-35295D01*
X61214Y-34939D01*
X60937Y-34668D01*
X60598Y-34534D01*
X60494Y-34562D01*
X60494Y-34512D01*
X60405Y-34512D01*
X60405Y-34456D01*
X60341Y-34300D01*
X60221Y-34180D01*
X60065Y-34115D01*
X60019Y-34115D01*
X59508Y-33604D01*
X59508Y-32179D01*
X59583Y-32260D01*
X59816Y-32367D01*
X59918Y-32321D01*
X59918Y-31827D01*
X59918Y-31777D01*
X59918Y-31677D01*
X59918Y-31627D01*
X59918Y-31133D01*
X59816Y-31087D01*
X59583Y-31194D01*
X59508Y-31274D01*
X59508Y-30560D01*
X59483Y-30435D01*
X59483Y-30434D01*
X59412Y-30328D01*
X58984Y-29900D01*
X59061Y-29900D01*
X59429Y-29748D01*
X59710Y-29467D01*
X59863Y-29100D01*
X59863Y-28702D01*
X59711Y-28334D01*
X59430Y-28053D01*
X59063Y-27900D01*
X58665Y-27900D01*
X58628Y-27915D01*
X58628Y-27876D01*
X59931Y-26573D01*
X59931Y-26572D01*
X59932Y-26572D01*
X60003Y-26466D01*
X60027Y-26341D01*
X60028Y-26340D01*
X60028Y-23076D01*
X60927Y-22177D01*
X60998Y-22071D01*
X60998Y-22070D01*
X61023Y-21945D01*
X61023Y-18186D01*
X61068Y-18168D01*
X61188Y-18047D01*
X61294Y-18160D01*
X61527Y-18267D01*
X61629Y-18221D01*
X61629Y-17727D01*
X61629Y-17677D01*
X61629Y-17577D01*
X61729Y-17577D01*
X61779Y-17577D01*
X62264Y-17577D01*
X62311Y-17476D01*
X62239Y-17282D01*
X62132Y-17168D01*
X62504Y-17168D01*
X63472Y-18136D01*
X63472Y-19728D01*
X63351Y-19607D01*
X62984Y-19454D01*
X62586Y-19454D01*
X62311Y-19567D01*
X62311Y-17778D01*
X62264Y-17677D01*
X61729Y-17677D01*
X61729Y-18221D01*
X61831Y-18267D01*
X62064Y-18160D01*
X62239Y-17972D01*
X62311Y-17778D01*
X62311Y-19567D01*
X62218Y-19606D01*
X61937Y-19887D01*
X61784Y-20254D01*
X61784Y-20652D01*
X61936Y-21020D01*
X62217Y-21301D01*
X62584Y-21454D01*
X62982Y-21454D01*
X63350Y-21302D01*
X63472Y-21180D01*
X63472Y-23697D01*
X63384Y-23734D01*
X63314Y-23804D01*
X63276Y-23895D01*
X63276Y-23994D01*
X63276Y-24400D01*
X61348Y-26328D01*
X61344Y-26333D01*
X61344Y-25625D01*
X61344Y-25526D01*
X61344Y-24976D01*
X61306Y-24884D01*
X61236Y-24814D01*
X61148Y-24777D01*
X61148Y-24614D01*
X61245Y-24518D01*
X61325Y-24325D01*
X61325Y-24116D01*
X61245Y-23923D01*
X61098Y-23775D01*
X60905Y-23695D01*
X60696Y-23695D01*
X60503Y-23775D01*
X60437Y-23840D01*
X60371Y-23774D01*
X60279Y-23736D01*
X60167Y-23735D01*
X60105Y-23797D01*
X60105Y-24160D01*
X60105Y-24210D01*
X60105Y-24310D01*
X60105Y-24360D01*
X60105Y-24723D01*
X60167Y-24785D01*
X60279Y-24784D01*
X60371Y-24746D01*
X60441Y-24676D01*
X60462Y-24625D01*
X60492Y-24654D01*
X60492Y-24777D01*
X60404Y-24814D01*
X60334Y-24884D01*
X60296Y-24975D01*
X60296Y-25074D01*
X60296Y-25123D01*
X60279Y-25116D01*
X60167Y-25115D01*
X60105Y-25177D01*
X60105Y-25540D01*
X60105Y-25590D01*
X60105Y-25690D01*
X60105Y-25740D01*
X60105Y-26103D01*
X60167Y-26165D01*
X60279Y-26164D01*
X60371Y-26126D01*
X60441Y-26056D01*
X60479Y-25965D01*
X60479Y-25866D01*
X60479Y-25817D01*
X60495Y-25824D01*
X60594Y-25824D01*
X61144Y-25824D01*
X61236Y-25786D01*
X61306Y-25716D01*
X61344Y-25625D01*
X61344Y-26333D01*
X61277Y-26434D01*
X61252Y-26560D01*
X61252Y-29340D01*
X61277Y-29466D01*
X61348Y-29572D01*
X61608Y-29832D01*
X61608Y-31167D01*
X61563Y-31186D01*
X61444Y-31305D01*
X61326Y-31187D01*
X61092Y-31089D01*
X60838Y-31089D01*
X60814Y-31089D01*
X60579Y-31186D01*
X60458Y-31306D01*
X60353Y-31194D01*
X60120Y-31087D01*
X60018Y-31133D01*
X60018Y-31627D01*
X60018Y-31677D01*
X60018Y-31777D01*
X60018Y-31827D01*
X60018Y-32321D01*
X60120Y-32367D01*
X60353Y-32260D01*
X60458Y-32147D01*
X60578Y-32267D01*
X60812Y-32365D01*
X61066Y-32365D01*
X61090Y-32365D01*
X61325Y-32268D01*
X61444Y-32149D01*
X61562Y-32267D01*
X61796Y-32365D01*
X62050Y-32365D01*
X62074Y-32365D01*
X62309Y-32268D01*
X62488Y-32089D01*
X62586Y-31855D01*
X62586Y-31601D01*
X62489Y-31366D01*
X62310Y-31187D01*
X62264Y-31167D01*
X62264Y-29725D01*
X62286Y-29747D01*
X62653Y-29900D01*
X63051Y-29900D01*
X63419Y-29748D01*
X63700Y-29467D01*
X63853Y-29100D01*
X63853Y-28702D01*
X63701Y-28334D01*
X63420Y-28053D01*
X63053Y-27900D01*
X62655Y-27900D01*
X62287Y-28052D01*
X62006Y-28333D01*
X61908Y-28568D01*
X61908Y-26696D01*
X63304Y-25299D01*
X63312Y-25430D01*
X63368Y-25567D01*
X63459Y-25590D01*
X63714Y-25335D01*
X63749Y-25300D01*
X63820Y-25229D01*
X63891Y-25300D01*
X63820Y-25371D01*
X63785Y-25406D01*
X63530Y-25661D01*
X63553Y-25752D01*
X63746Y-25819D01*
X63950Y-25808D01*
X64087Y-25752D01*
X64095Y-25716D01*
X64110Y-25731D01*
X64127Y-25748D01*
X64195Y-25680D01*
X64195Y-35022D01*
X64110Y-34937D01*
X64085Y-34912D01*
X63836Y-34808D01*
X63566Y-34808D01*
X63316Y-34911D01*
X63125Y-35102D01*
X63021Y-35351D01*
X63021Y-35621D01*
X63021Y-35647D01*
X63124Y-35897D01*
X63315Y-36088D01*
X63564Y-36192D01*
X63834Y-36192D01*
X64084Y-36089D01*
X64195Y-35978D01*
X64195Y-50635D01*
X64195Y-50635D01*
G37*
G54D34*
X64195Y-50635D02*
X63725Y-50635D01*
X63725Y-46687D01*
X63663Y-46625D01*
X63250Y-46625D01*
X63250Y-46938D01*
X63312Y-47000D01*
X63426Y-46999D01*
X63525Y-46999D01*
X63616Y-46961D01*
X63686Y-46891D01*
X63724Y-46799D01*
X63725Y-46687D01*
X63725Y-50635D01*
X63150Y-50635D01*
X63150Y-46938D01*
X63150Y-46625D01*
X62737Y-46625D01*
X62675Y-46687D01*
X62676Y-46799D01*
X62714Y-46891D01*
X62784Y-46961D01*
X62875Y-46999D01*
X62974Y-46999D01*
X63088Y-47000D01*
X63150Y-46938D01*
X63150Y-50635D01*
X59200Y-50635D01*
X59200Y-49672D01*
X59200Y-49448D01*
X59199Y-49209D01*
X59199Y-49110D01*
X59161Y-49019D01*
X59122Y-48980D01*
X59161Y-48941D01*
X59199Y-48850D01*
X59199Y-48751D01*
X59200Y-48512D01*
X59138Y-48450D01*
X58700Y-48450D01*
X58700Y-48972D01*
X58700Y-48988D01*
X58700Y-49510D01*
X59138Y-49510D01*
X59200Y-49448D01*
X59200Y-49672D01*
X59138Y-49610D01*
X58700Y-49610D01*
X58700Y-50148D01*
X58762Y-50210D01*
X58999Y-50209D01*
X59091Y-50171D01*
X59161Y-50101D01*
X59199Y-50010D01*
X59199Y-49911D01*
X59200Y-49672D01*
X59200Y-50635D01*
X58600Y-50635D01*
X58600Y-50148D01*
X58600Y-49610D01*
X58600Y-49510D01*
X58600Y-48988D01*
X58600Y-48972D01*
X58600Y-48450D01*
X58162Y-48450D01*
X58100Y-48512D01*
X58101Y-48751D01*
X58101Y-48850D01*
X58139Y-48941D01*
X58178Y-48980D01*
X58139Y-49019D01*
X58101Y-49110D01*
X58101Y-49209D01*
X58100Y-49448D01*
X58162Y-49510D01*
X58600Y-49510D01*
X58600Y-49610D01*
X58162Y-49610D01*
X58100Y-49672D01*
X58101Y-49911D01*
X58101Y-50010D01*
X58139Y-50101D01*
X58209Y-50171D01*
X58301Y-50209D01*
X58538Y-50210D01*
X58600Y-50148D01*
X58600Y-50635D01*
X52444Y-50635D01*
X52444Y-48505D01*
X52444Y-48406D01*
X52444Y-47856D01*
X52406Y-47764D01*
X52336Y-47694D01*
X52245Y-47656D01*
X52146Y-47656D01*
X51596Y-47656D01*
X51504Y-47694D01*
X51434Y-47764D01*
X51396Y-47855D01*
X51396Y-47954D01*
X51396Y-48504D01*
X51434Y-48596D01*
X51504Y-48666D01*
X51595Y-48704D01*
X51694Y-48704D01*
X52244Y-48704D01*
X52336Y-48666D01*
X52406Y-48596D01*
X52444Y-48505D01*
X52444Y-50635D01*
X51384Y-50635D01*
X51384Y-45485D01*
X51384Y-45386D01*
X51384Y-44836D01*
X51346Y-44744D01*
X51276Y-44674D01*
X51185Y-44636D01*
X51086Y-44636D01*
X50536Y-44636D01*
X50444Y-44674D01*
X50374Y-44744D01*
X50336Y-44835D01*
X50336Y-44934D01*
X50336Y-45484D01*
X50374Y-45576D01*
X50444Y-45646D01*
X50535Y-45684D01*
X50634Y-45684D01*
X51184Y-45684D01*
X51276Y-45646D01*
X51346Y-45576D01*
X51384Y-45485D01*
X51384Y-50635D01*
X51379Y-50635D01*
X51379Y-48234D01*
X51368Y-48030D01*
X51312Y-47893D01*
X51221Y-47870D01*
X51150Y-47941D01*
X51150Y-47799D01*
X51127Y-47708D01*
X50934Y-47641D01*
X50730Y-47652D01*
X50593Y-47708D01*
X50570Y-47799D01*
X50860Y-48089D01*
X51150Y-47799D01*
X51150Y-47941D01*
X50931Y-48160D01*
X51221Y-48450D01*
X51312Y-48427D01*
X51379Y-48234D01*
X51379Y-50635D01*
X51150Y-50635D01*
X51150Y-48521D01*
X50860Y-48231D01*
X50789Y-48302D01*
X50789Y-48160D01*
X50499Y-47870D01*
X50408Y-47893D01*
X50341Y-48086D01*
X50352Y-48290D01*
X50408Y-48427D01*
X50499Y-48450D01*
X50789Y-48160D01*
X50789Y-48302D01*
X50570Y-48521D01*
X50593Y-48612D01*
X50786Y-48679D01*
X50990Y-48668D01*
X51127Y-48612D01*
X51150Y-48521D01*
X51150Y-50635D01*
X49785Y-50635D01*
X49785Y-36151D01*
X49969Y-36332D01*
X50308Y-36466D01*
X50462Y-36424D01*
X50462Y-35600D01*
X50462Y-35550D01*
X50462Y-35450D01*
X50462Y-35400D01*
X50462Y-34576D01*
X50308Y-34534D01*
X49969Y-34668D01*
X49785Y-34848D01*
X49785Y-25906D01*
X49812Y-25933D01*
X49812Y-29600D01*
X49837Y-29726D01*
X49908Y-29832D01*
X50492Y-30416D01*
X50201Y-30416D01*
X50109Y-30454D01*
X50039Y-30524D01*
X50001Y-30615D01*
X50001Y-30714D01*
X50001Y-31264D01*
X50034Y-31343D01*
X49999Y-31379D01*
X49961Y-31470D01*
X49961Y-31569D01*
X49961Y-32369D01*
X49999Y-32461D01*
X50069Y-32531D01*
X50160Y-32569D01*
X50193Y-32569D01*
X50207Y-32636D01*
X50278Y-32742D01*
X50407Y-32871D01*
X50408Y-32872D01*
X50514Y-32943D01*
X50639Y-32967D01*
X50640Y-32968D01*
X51379Y-32968D01*
X51344Y-33003D01*
X51196Y-33359D01*
X51196Y-33744D01*
X51196Y-33782D01*
X51343Y-34138D01*
X51616Y-34411D01*
X51972Y-34559D01*
X52275Y-34559D01*
X52235Y-34655D01*
X52235Y-34824D01*
X52299Y-34980D01*
X52419Y-35100D01*
X52575Y-35165D01*
X52744Y-35165D01*
X52900Y-35101D01*
X53020Y-34981D01*
X53085Y-34825D01*
X53085Y-34779D01*
X53436Y-34428D01*
X53620Y-34428D01*
X53745Y-34403D01*
X53746Y-34403D01*
X53852Y-34332D01*
X56496Y-31688D01*
X56760Y-31688D01*
X56885Y-31663D01*
X56886Y-31663D01*
X56992Y-31592D01*
X57044Y-31538D01*
X57046Y-31537D01*
X57047Y-31537D01*
X57118Y-31431D01*
X57143Y-31306D01*
X57142Y-31305D01*
X57143Y-31305D01*
X57143Y-31254D01*
X57201Y-31196D01*
X57239Y-31105D01*
X57239Y-31006D01*
X57239Y-30605D01*
X57344Y-30605D01*
X57470Y-30553D01*
X57506Y-30553D01*
X57553Y-30600D01*
X57494Y-30659D01*
X57456Y-30750D01*
X57456Y-30849D01*
X57456Y-31199D01*
X57494Y-31291D01*
X57564Y-31361D01*
X57652Y-31397D01*
X57652Y-31564D01*
X56868Y-32348D01*
X56797Y-32454D01*
X56772Y-32580D01*
X56772Y-32639D01*
X56552Y-32730D01*
X56279Y-33003D01*
X56131Y-33359D01*
X56131Y-33744D01*
X56131Y-33782D01*
X56148Y-33824D01*
X56005Y-33681D01*
X56005Y-33676D01*
X55941Y-33520D01*
X55821Y-33400D01*
X55665Y-33335D01*
X55496Y-33335D01*
X55340Y-33399D01*
X55220Y-33519D01*
X55155Y-33675D01*
X55155Y-33844D01*
X55219Y-34000D01*
X55339Y-34120D01*
X55495Y-34185D01*
X55581Y-34185D01*
X57245Y-35849D01*
X57150Y-35875D01*
X57150Y-36749D01*
X58030Y-36749D01*
X58054Y-36658D01*
X58897Y-37501D01*
X58897Y-37726D01*
X58839Y-37784D01*
X58801Y-37875D01*
X58801Y-37974D01*
X58801Y-38524D01*
X58839Y-38616D01*
X58909Y-38686D01*
X59000Y-38724D01*
X59099Y-38724D01*
X59449Y-38724D01*
X59541Y-38686D01*
X59600Y-38627D01*
X59659Y-38686D01*
X59750Y-38724D01*
X59849Y-38724D01*
X60199Y-38724D01*
X60291Y-38686D01*
X60361Y-38616D01*
X60397Y-38528D01*
X60480Y-38528D01*
X60605Y-38503D01*
X60606Y-38503D01*
X60712Y-38432D01*
X60801Y-38343D01*
X60801Y-38374D01*
X60801Y-38924D01*
X60839Y-39016D01*
X60909Y-39086D01*
X60917Y-39089D01*
X60922Y-39111D01*
X60993Y-39217D01*
X61402Y-39626D01*
X61320Y-39660D01*
X61238Y-39626D01*
X61139Y-39626D01*
X60903Y-39626D01*
X60820Y-39660D01*
X60738Y-39626D01*
X60639Y-39626D01*
X60403Y-39626D01*
X60320Y-39660D01*
X60238Y-39626D01*
X60139Y-39626D01*
X59903Y-39626D01*
X59811Y-39664D01*
X59741Y-39734D01*
X59737Y-39743D01*
X59470Y-39743D01*
X59469Y-39743D01*
X59314Y-39774D01*
X59205Y-39845D01*
X59205Y-39676D01*
X59141Y-39520D01*
X59021Y-39400D01*
X58865Y-39335D01*
X58812Y-39335D01*
X58726Y-39277D01*
X58703Y-39272D01*
X58703Y-38674D01*
X58761Y-38616D01*
X58799Y-38525D01*
X58799Y-38426D01*
X58799Y-37876D01*
X58761Y-37784D01*
X58691Y-37714D01*
X58600Y-37676D01*
X58501Y-37676D01*
X58151Y-37676D01*
X58059Y-37714D01*
X58000Y-37773D01*
X57941Y-37714D01*
X57850Y-37676D01*
X57751Y-37676D01*
X57529Y-37676D01*
X57643Y-37631D01*
X57920Y-37360D01*
X58072Y-37004D01*
X58030Y-36849D01*
X57200Y-36849D01*
X57150Y-36849D01*
X57050Y-36849D01*
X57050Y-36749D01*
X57050Y-35875D01*
X56896Y-35833D01*
X56557Y-35967D01*
X56419Y-36102D01*
X56419Y-35705D01*
X56419Y-35295D01*
X56267Y-34939D01*
X55990Y-34668D01*
X55651Y-34534D01*
X55497Y-34576D01*
X55497Y-35450D01*
X56377Y-35450D01*
X56419Y-35295D01*
X56419Y-35705D01*
X56377Y-35550D01*
X55497Y-35550D01*
X55497Y-36424D01*
X55651Y-36466D01*
X55990Y-36332D01*
X56267Y-36061D01*
X56419Y-35705D01*
X56419Y-36102D01*
X56280Y-36238D01*
X56128Y-36594D01*
X56170Y-36749D01*
X57050Y-36749D01*
X57050Y-36849D01*
X57000Y-36849D01*
X56170Y-36849D01*
X56128Y-37004D01*
X56280Y-37360D01*
X56557Y-37631D01*
X56772Y-37716D01*
X56631Y-37716D01*
X56539Y-37754D01*
X56480Y-37813D01*
X56421Y-37754D01*
X56330Y-37716D01*
X56231Y-37716D01*
X55881Y-37716D01*
X55789Y-37754D01*
X55719Y-37824D01*
X55681Y-37915D01*
X55681Y-38014D01*
X55681Y-38564D01*
X55719Y-38656D01*
X55777Y-38714D01*
X55777Y-38825D01*
X55802Y-38951D01*
X55873Y-39057D01*
X56187Y-39371D01*
X56118Y-39539D01*
X56118Y-39924D01*
X56118Y-39962D01*
X56167Y-40082D01*
X56120Y-40073D01*
X55397Y-40073D01*
X55397Y-36424D01*
X55397Y-35600D01*
X55397Y-35550D01*
X55397Y-35450D01*
X55397Y-35400D01*
X55397Y-34576D01*
X55243Y-34534D01*
X54904Y-34668D01*
X54627Y-34939D01*
X54475Y-35295D01*
X54478Y-35308D01*
X54394Y-35103D01*
X54203Y-34912D01*
X53954Y-34808D01*
X53684Y-34808D01*
X53434Y-34911D01*
X53243Y-35102D01*
X53139Y-35351D01*
X53139Y-35621D01*
X53139Y-35647D01*
X53242Y-35897D01*
X53433Y-36088D01*
X53682Y-36192D01*
X53952Y-36192D01*
X54202Y-36089D01*
X54393Y-35898D01*
X54477Y-35695D01*
X54475Y-35705D01*
X54627Y-36061D01*
X54904Y-36332D01*
X55243Y-36466D01*
X55397Y-36424D01*
X55397Y-40073D01*
X55120Y-40073D01*
X55119Y-40073D01*
X54964Y-40104D01*
X54832Y-40192D01*
X54830Y-40194D01*
X54051Y-40973D01*
X53899Y-40973D01*
X53899Y-40099D01*
X53899Y-39861D01*
X53808Y-39641D01*
X53639Y-39472D01*
X53419Y-39381D01*
X53181Y-39381D01*
X53137Y-39399D01*
X53137Y-37004D01*
X53137Y-36594D01*
X52985Y-36238D01*
X52708Y-35967D01*
X52369Y-35833D01*
X52215Y-35875D01*
X52215Y-36749D01*
X53095Y-36749D01*
X53137Y-36594D01*
X53137Y-37004D01*
X53095Y-36849D01*
X52215Y-36849D01*
X52215Y-37723D01*
X52369Y-37765D01*
X52708Y-37631D01*
X52985Y-37360D01*
X53137Y-37004D01*
X53137Y-39399D01*
X52961Y-39472D01*
X52885Y-39547D01*
X52861Y-39489D01*
X52791Y-39419D01*
X52700Y-39381D01*
X52601Y-39381D01*
X52412Y-39380D01*
X52350Y-39442D01*
X52350Y-39880D01*
X52350Y-39930D01*
X52350Y-40030D01*
X52350Y-40080D01*
X52350Y-40518D01*
X52412Y-40580D01*
X52601Y-40579D01*
X52700Y-40579D01*
X52791Y-40541D01*
X52861Y-40471D01*
X52885Y-40412D01*
X52961Y-40488D01*
X53181Y-40579D01*
X53419Y-40579D01*
X53639Y-40488D01*
X53808Y-40319D01*
X53899Y-40099D01*
X53899Y-40973D01*
X51562Y-40973D01*
X51585Y-40949D01*
X51587Y-40948D01*
X51588Y-40948D01*
X51675Y-40816D01*
X51676Y-40816D01*
X51701Y-40686D01*
X51707Y-40661D01*
X51706Y-40660D01*
X51707Y-40660D01*
X51707Y-40420D01*
X51714Y-40412D01*
X51739Y-40471D01*
X51809Y-40541D01*
X51900Y-40579D01*
X51999Y-40579D01*
X52188Y-40580D01*
X52250Y-40518D01*
X52250Y-40080D01*
X52250Y-40030D01*
X52250Y-39930D01*
X52250Y-39880D01*
X52250Y-39442D01*
X52188Y-39380D01*
X52115Y-39380D01*
X52115Y-37723D01*
X52115Y-36849D01*
X52115Y-36749D01*
X52115Y-35875D01*
X51961Y-35833D01*
X51622Y-35967D01*
X51484Y-36102D01*
X51484Y-35705D01*
X51484Y-35295D01*
X51332Y-34939D01*
X51055Y-34668D01*
X50716Y-34534D01*
X50562Y-34576D01*
X50562Y-35450D01*
X51442Y-35450D01*
X51484Y-35295D01*
X51484Y-35705D01*
X51442Y-35550D01*
X50562Y-35550D01*
X50562Y-36424D01*
X50716Y-36466D01*
X51055Y-36332D01*
X51332Y-36061D01*
X51484Y-35705D01*
X51484Y-36102D01*
X51345Y-36238D01*
X51193Y-36594D01*
X51235Y-36749D01*
X52115Y-36749D01*
X52115Y-36849D01*
X51235Y-36849D01*
X51193Y-37004D01*
X51345Y-37360D01*
X51622Y-37631D01*
X51961Y-37765D01*
X52115Y-37723D01*
X52115Y-39380D01*
X51999Y-39381D01*
X51900Y-39381D01*
X51809Y-39419D01*
X51739Y-39489D01*
X51714Y-39547D01*
X51639Y-39472D01*
X51419Y-39381D01*
X51181Y-39381D01*
X50961Y-39472D01*
X50792Y-39641D01*
X50701Y-39861D01*
X50701Y-40099D01*
X50792Y-40319D01*
X50893Y-40420D01*
X50893Y-40491D01*
X50802Y-40582D01*
X50714Y-40714D01*
X50683Y-40870D01*
X50683Y-41380D01*
X50683Y-41694D01*
X50649Y-41709D01*
X50579Y-41779D01*
X50541Y-41870D01*
X50541Y-41969D01*
X50541Y-42769D01*
X50579Y-42861D01*
X50649Y-42931D01*
X50683Y-42945D01*
X50683Y-43090D01*
X50714Y-43246D01*
X50802Y-43378D01*
X52117Y-44693D01*
X52025Y-44655D01*
X51816Y-44655D01*
X51623Y-44735D01*
X51475Y-44882D01*
X51395Y-45075D01*
X51395Y-45284D01*
X51475Y-45477D01*
X51622Y-45625D01*
X51815Y-45705D01*
X52024Y-45705D01*
X52217Y-45625D01*
X52365Y-45478D01*
X52445Y-45285D01*
X52445Y-45076D01*
X52406Y-44982D01*
X52513Y-45089D01*
X52513Y-45800D01*
X52544Y-45956D01*
X52632Y-46088D01*
X53564Y-47020D01*
X53553Y-47080D01*
X53553Y-48360D01*
X53584Y-48516D01*
X53672Y-48648D01*
X54872Y-49848D01*
X55004Y-49936D01*
X55160Y-49967D01*
X56801Y-49967D01*
X56801Y-50009D01*
X56839Y-50101D01*
X56909Y-50171D01*
X57000Y-50209D01*
X57099Y-50209D01*
X57699Y-50209D01*
X57791Y-50171D01*
X57861Y-50101D01*
X57899Y-50010D01*
X57899Y-49911D01*
X57899Y-49111D01*
X57861Y-49019D01*
X57822Y-48980D01*
X57861Y-48941D01*
X57899Y-48850D01*
X57899Y-48751D01*
X57899Y-48516D01*
X58113Y-48301D01*
X58162Y-48350D01*
X58600Y-48350D01*
X58600Y-47812D01*
X58538Y-47750D01*
X58387Y-47750D01*
X58387Y-47364D01*
X58442Y-47387D01*
X58541Y-47387D01*
X58551Y-47387D01*
X58915Y-47750D01*
X58762Y-47750D01*
X58700Y-47812D01*
X58700Y-48350D01*
X59138Y-48350D01*
X59200Y-48288D01*
X59199Y-48049D01*
X59199Y-48034D01*
X59293Y-48128D01*
X59293Y-49360D01*
X59324Y-49516D01*
X59412Y-49648D01*
X59912Y-50148D01*
X60044Y-50236D01*
X60200Y-50267D01*
X60271Y-50267D01*
X60329Y-50325D01*
X60531Y-50409D01*
X60749Y-50409D01*
X60951Y-50325D01*
X61009Y-50267D01*
X61114Y-50267D01*
X61129Y-50301D01*
X61199Y-50371D01*
X61290Y-50409D01*
X61389Y-50409D01*
X61989Y-50409D01*
X62081Y-50371D01*
X62151Y-50301D01*
X62189Y-50210D01*
X62189Y-50111D01*
X62189Y-49511D01*
X62189Y-45969D01*
X62189Y-45751D01*
X62105Y-45549D01*
X61951Y-45395D01*
X61749Y-45311D01*
X61531Y-45311D01*
X61329Y-45395D01*
X61271Y-45453D01*
X61009Y-45453D01*
X60951Y-45395D01*
X60749Y-45311D01*
X60531Y-45311D01*
X60329Y-45395D01*
X60175Y-45549D01*
X60156Y-45593D01*
X58768Y-45593D01*
X58667Y-45613D01*
X58483Y-45613D01*
X58391Y-45651D01*
X58321Y-45721D01*
X58283Y-45812D01*
X58283Y-45911D01*
X58283Y-46187D01*
X58321Y-46279D01*
X58391Y-46349D01*
X58482Y-46387D01*
X58581Y-46387D01*
X58667Y-46387D01*
X58768Y-46407D01*
X60353Y-46407D01*
X60332Y-46482D01*
X60640Y-46789D01*
X60948Y-46482D01*
X60921Y-46388D01*
X60855Y-46364D01*
X60951Y-46325D01*
X61009Y-46267D01*
X61271Y-46267D01*
X61329Y-46325D01*
X61420Y-46362D01*
X61359Y-46388D01*
X61332Y-46482D01*
X61640Y-46789D01*
X61948Y-46482D01*
X61921Y-46388D01*
X61855Y-46364D01*
X61951Y-46325D01*
X62105Y-46171D01*
X62189Y-45969D01*
X62189Y-49511D01*
X62183Y-49496D01*
X62183Y-48939D01*
X62183Y-47939D01*
X62183Y-46939D01*
X62172Y-46726D01*
X62112Y-46579D01*
X62018Y-46552D01*
X61711Y-46860D01*
X62018Y-47168D01*
X62112Y-47141D01*
X62183Y-46939D01*
X62183Y-47939D01*
X62172Y-47726D01*
X62112Y-47579D01*
X62018Y-47552D01*
X61948Y-47622D01*
X61948Y-47482D01*
X61921Y-47388D01*
X61847Y-47362D01*
X61921Y-47332D01*
X61948Y-47238D01*
X61640Y-46931D01*
X61569Y-47001D01*
X61569Y-46860D01*
X61262Y-46552D01*
X61168Y-46579D01*
X61142Y-46652D01*
X61112Y-46579D01*
X61018Y-46552D01*
X60711Y-46860D01*
X61018Y-47168D01*
X61112Y-47141D01*
X61137Y-47067D01*
X61168Y-47141D01*
X61262Y-47168D01*
X61569Y-46860D01*
X61569Y-47001D01*
X61332Y-47238D01*
X61359Y-47332D01*
X61432Y-47357D01*
X61359Y-47388D01*
X61332Y-47482D01*
X61640Y-47789D01*
X61948Y-47482D01*
X61948Y-47622D01*
X61711Y-47860D01*
X62018Y-48168D01*
X62112Y-48141D01*
X62183Y-47939D01*
X62183Y-48939D01*
X62172Y-48726D01*
X62112Y-48579D01*
X62018Y-48552D01*
X61948Y-48622D01*
X61948Y-48482D01*
X61921Y-48388D01*
X61847Y-48362D01*
X61921Y-48332D01*
X61948Y-48238D01*
X61640Y-47931D01*
X61569Y-48001D01*
X61569Y-47860D01*
X61262Y-47552D01*
X61168Y-47579D01*
X61142Y-47652D01*
X61112Y-47579D01*
X61018Y-47552D01*
X60948Y-47622D01*
X60948Y-47482D01*
X60921Y-47388D01*
X60847Y-47362D01*
X60921Y-47332D01*
X60948Y-47238D01*
X60640Y-46931D01*
X60569Y-47001D01*
X60569Y-46860D01*
X60262Y-46552D01*
X60168Y-46579D01*
X60097Y-46781D01*
X60108Y-46994D01*
X60168Y-47141D01*
X60262Y-47168D01*
X60569Y-46860D01*
X60569Y-47001D01*
X60332Y-47238D01*
X60359Y-47332D01*
X60432Y-47357D01*
X60359Y-47388D01*
X60332Y-47482D01*
X60640Y-47789D01*
X60948Y-47482D01*
X60948Y-47622D01*
X60711Y-47860D01*
X61018Y-48168D01*
X61112Y-48141D01*
X61137Y-48067D01*
X61168Y-48141D01*
X61262Y-48168D01*
X61569Y-47860D01*
X61569Y-48001D01*
X61332Y-48238D01*
X61359Y-48332D01*
X61432Y-48357D01*
X61359Y-48388D01*
X61332Y-48482D01*
X61640Y-48789D01*
X61948Y-48482D01*
X61948Y-48622D01*
X61711Y-48860D01*
X62018Y-49168D01*
X62112Y-49141D01*
X62183Y-48939D01*
X62183Y-49496D01*
X62151Y-49419D01*
X62081Y-49349D01*
X61990Y-49311D01*
X61927Y-49311D01*
X61948Y-49238D01*
X61640Y-48931D01*
X61569Y-49001D01*
X61569Y-48860D01*
X61262Y-48552D01*
X61168Y-48579D01*
X61142Y-48652D01*
X61112Y-48579D01*
X61018Y-48552D01*
X60948Y-48622D01*
X60948Y-48482D01*
X60921Y-48388D01*
X60847Y-48362D01*
X60921Y-48332D01*
X60948Y-48238D01*
X60640Y-47931D01*
X60332Y-48238D01*
X60359Y-48332D01*
X60432Y-48357D01*
X60359Y-48388D01*
X60332Y-48482D01*
X60640Y-48789D01*
X60948Y-48482D01*
X60948Y-48622D01*
X60711Y-48860D01*
X61018Y-49168D01*
X61112Y-49141D01*
X61137Y-49067D01*
X61168Y-49141D01*
X61262Y-49168D01*
X61569Y-48860D01*
X61569Y-49001D01*
X61332Y-49238D01*
X61352Y-49311D01*
X61291Y-49311D01*
X61199Y-49349D01*
X61129Y-49419D01*
X61114Y-49453D01*
X61009Y-49453D01*
X60951Y-49395D01*
X60859Y-49357D01*
X60921Y-49332D01*
X60948Y-49238D01*
X60640Y-48931D01*
X60332Y-49238D01*
X60359Y-49332D01*
X60424Y-49355D01*
X60329Y-49395D01*
X60320Y-49404D01*
X60107Y-49191D01*
X60107Y-48974D01*
X60108Y-48994D01*
X60168Y-49141D01*
X60262Y-49168D01*
X60569Y-48860D01*
X60262Y-48552D01*
X60168Y-48579D01*
X60107Y-48752D01*
X60107Y-47974D01*
X60108Y-47994D01*
X60168Y-48141D01*
X60262Y-48168D01*
X60569Y-47860D01*
X60262Y-47552D01*
X60168Y-47579D01*
X60097Y-47781D01*
X60105Y-47954D01*
X60076Y-47804D01*
X59988Y-47672D01*
X59985Y-47670D01*
X59213Y-46897D01*
X59213Y-46813D01*
X59175Y-46721D01*
X59105Y-46651D01*
X59014Y-46613D01*
X58915Y-46613D01*
X58840Y-46613D01*
X58740Y-46593D01*
X58728Y-46593D01*
X58627Y-46613D01*
X58443Y-46613D01*
X58381Y-46638D01*
X58356Y-46512D01*
X58268Y-46380D01*
X58265Y-46378D01*
X57841Y-45954D01*
X58448Y-45348D01*
X58514Y-45249D01*
X58579Y-45249D01*
X59179Y-45249D01*
X59271Y-45211D01*
X59341Y-45141D01*
X59379Y-45050D01*
X59379Y-44951D01*
X59379Y-44928D01*
X62002Y-44928D01*
X62039Y-45016D01*
X62109Y-45086D01*
X62200Y-45124D01*
X62299Y-45124D01*
X62649Y-45124D01*
X62741Y-45086D01*
X62800Y-45027D01*
X62859Y-45086D01*
X62872Y-45091D01*
X62872Y-45402D01*
X62784Y-45439D01*
X62714Y-45509D01*
X62676Y-45600D01*
X62676Y-45699D01*
X62676Y-46049D01*
X62714Y-46141D01*
X62773Y-46200D01*
X62714Y-46259D01*
X62676Y-46351D01*
X62675Y-46463D01*
X62737Y-46525D01*
X63100Y-46525D01*
X63150Y-46525D01*
X63250Y-46525D01*
X63300Y-46525D01*
X63663Y-46525D01*
X63725Y-46463D01*
X63724Y-46351D01*
X63686Y-46259D01*
X63627Y-46200D01*
X63686Y-46141D01*
X63724Y-46050D01*
X63724Y-45951D01*
X63724Y-45601D01*
X63686Y-45509D01*
X63616Y-45439D01*
X63528Y-45402D01*
X63528Y-45049D01*
X63561Y-45016D01*
X63599Y-44925D01*
X63599Y-44826D01*
X63599Y-44276D01*
X63561Y-44184D01*
X63491Y-44114D01*
X63457Y-44099D01*
X63491Y-44086D01*
X63561Y-44016D01*
X63599Y-43925D01*
X63599Y-43826D01*
X63599Y-43276D01*
X63561Y-43184D01*
X63503Y-43126D01*
X63503Y-43074D01*
X63561Y-43016D01*
X63599Y-42925D01*
X63599Y-42826D01*
X63599Y-42505D01*
X63992Y-42112D01*
X64000Y-42099D01*
X64011Y-42091D01*
X64037Y-42042D01*
X64063Y-42005D01*
X64065Y-41993D01*
X64073Y-41980D01*
X64079Y-41924D01*
X64088Y-41880D01*
X64085Y-41866D01*
X64087Y-41852D01*
X64070Y-41650D01*
X64080Y-41641D01*
X64145Y-41485D01*
X64145Y-41316D01*
X64081Y-41160D01*
X63980Y-41059D01*
X63980Y-39272D01*
X63918Y-39210D01*
X63605Y-39210D01*
X63605Y-39623D01*
X63667Y-39685D01*
X63779Y-39684D01*
X63871Y-39646D01*
X63941Y-39576D01*
X63979Y-39485D01*
X63979Y-39386D01*
X63980Y-39272D01*
X63980Y-41059D01*
X63961Y-41040D01*
X63805Y-40975D01*
X63636Y-40975D01*
X63480Y-41039D01*
X63403Y-41115D01*
X63370Y-41101D01*
X63271Y-41101D01*
X63032Y-41100D01*
X62970Y-41162D01*
X62970Y-41550D01*
X62970Y-41600D01*
X62970Y-41700D01*
X62870Y-41700D01*
X62870Y-41600D01*
X62870Y-41550D01*
X62870Y-41162D01*
X62808Y-41100D01*
X62569Y-41101D01*
X62470Y-41101D01*
X62379Y-41139D01*
X62309Y-41209D01*
X62271Y-41301D01*
X62270Y-41538D01*
X62282Y-41550D01*
X62270Y-41550D01*
X62270Y-41646D01*
X62032Y-41408D01*
X61926Y-41337D01*
X61800Y-41312D01*
X61552Y-41312D01*
X61792Y-41072D01*
X61831Y-41012D01*
X61832Y-41011D01*
X62211Y-40633D01*
X62211Y-40632D01*
X62212Y-40632D01*
X62271Y-40543D01*
X62271Y-40699D01*
X62309Y-40791D01*
X62379Y-40861D01*
X62470Y-40899D01*
X62569Y-40899D01*
X63369Y-40899D01*
X63461Y-40861D01*
X63531Y-40791D01*
X63569Y-40700D01*
X63569Y-40601D01*
X63569Y-40001D01*
X63531Y-39909D01*
X63488Y-39866D01*
X63488Y-39640D01*
X63505Y-39623D01*
X63505Y-39260D01*
X63505Y-39210D01*
X63505Y-39110D01*
X63605Y-39110D01*
X63655Y-39110D01*
X63918Y-39110D01*
X63980Y-39048D01*
X63979Y-38934D01*
X63979Y-38835D01*
X63943Y-38750D01*
X63979Y-38665D01*
X63979Y-38566D01*
X63979Y-38016D01*
X63941Y-37924D01*
X63871Y-37854D01*
X63780Y-37816D01*
X63681Y-37816D01*
X63495Y-37816D01*
X63167Y-37488D01*
X63061Y-37417D01*
X62935Y-37392D01*
X62834Y-37392D01*
X62867Y-37360D01*
X63019Y-37004D01*
X63019Y-36594D01*
X63016Y-36586D01*
X63016Y-33783D01*
X63016Y-33398D01*
X63016Y-33360D01*
X62869Y-33004D01*
X62596Y-32731D01*
X62240Y-32583D01*
X61855Y-32583D01*
X61499Y-32730D01*
X61226Y-33003D01*
X61078Y-33359D01*
X61078Y-33744D01*
X61078Y-33782D01*
X61225Y-34138D01*
X61498Y-34411D01*
X61854Y-34559D01*
X62239Y-34559D01*
X62595Y-34412D01*
X62868Y-34139D01*
X63016Y-33783D01*
X63016Y-36586D01*
X62867Y-36238D01*
X62590Y-35967D01*
X62251Y-35833D01*
X62097Y-35875D01*
X62097Y-36749D01*
X62977Y-36749D01*
X63019Y-36594D01*
X63019Y-37004D01*
X62977Y-36849D01*
X62147Y-36849D01*
X62097Y-36849D01*
X61997Y-36849D01*
X61997Y-36749D01*
X61997Y-35875D01*
X61843Y-35833D01*
X61504Y-35967D01*
X61366Y-36102D01*
X61366Y-35705D01*
X61324Y-35550D01*
X60444Y-35550D01*
X60444Y-36424D01*
X60598Y-36466D01*
X60937Y-36332D01*
X61214Y-36061D01*
X61366Y-35705D01*
X61366Y-36102D01*
X61227Y-36238D01*
X61075Y-36594D01*
X61117Y-36749D01*
X61997Y-36749D01*
X61997Y-36849D01*
X61947Y-36849D01*
X61117Y-36849D01*
X61075Y-37004D01*
X61227Y-37360D01*
X61361Y-37492D01*
X60860Y-37492D01*
X60734Y-37517D01*
X60628Y-37588D01*
X60381Y-37834D01*
X60361Y-37784D01*
X60344Y-37767D01*
X60291Y-37714D01*
X60200Y-37676D01*
X60101Y-37676D01*
X59751Y-37676D01*
X59659Y-37714D01*
X59600Y-37773D01*
X59553Y-37726D01*
X59553Y-37365D01*
X59528Y-37240D01*
X59528Y-37239D01*
X59457Y-37133D01*
X58443Y-36119D01*
X58617Y-36192D01*
X58887Y-36192D01*
X59137Y-36089D01*
X59328Y-35898D01*
X59432Y-35649D01*
X59432Y-35600D01*
X59450Y-35600D01*
X59422Y-35705D01*
X59574Y-36061D01*
X59851Y-36332D01*
X60190Y-36466D01*
X60344Y-36424D01*
X60344Y-35600D01*
X60344Y-35550D01*
X60344Y-35450D01*
X60444Y-35450D01*
X60494Y-35450D01*
X61324Y-35450D01*
X61366Y-35295D01*
X61214Y-34939D01*
X60937Y-34668D01*
X60598Y-34534D01*
X60494Y-34562D01*
X60494Y-34512D01*
X60405Y-34512D01*
X60405Y-34456D01*
X60341Y-34300D01*
X60221Y-34180D01*
X60065Y-34115D01*
X60019Y-34115D01*
X59508Y-33604D01*
X59508Y-32179D01*
X59583Y-32260D01*
X59816Y-32367D01*
X59918Y-32321D01*
X59918Y-31827D01*
X59918Y-31777D01*
X59918Y-31677D01*
X59918Y-31627D01*
X59918Y-31133D01*
X59816Y-31087D01*
X59583Y-31194D01*
X59508Y-31274D01*
X59508Y-30560D01*
X59483Y-30435D01*
X59483Y-30434D01*
X59412Y-30328D01*
X58984Y-29900D01*
X59061Y-29900D01*
X59429Y-29748D01*
X59710Y-29467D01*
X59863Y-29100D01*
X59863Y-28702D01*
X59711Y-28334D01*
X59430Y-28053D01*
X59063Y-27900D01*
X58665Y-27900D01*
X58628Y-27915D01*
X58628Y-27876D01*
X59931Y-26573D01*
X59931Y-26572D01*
X59932Y-26572D01*
X60003Y-26466D01*
X60027Y-26341D01*
X60028Y-26340D01*
X60028Y-23076D01*
X60927Y-22177D01*
X60998Y-22071D01*
X60998Y-22070D01*
X61023Y-21945D01*
X61023Y-18186D01*
X61068Y-18168D01*
X61188Y-18047D01*
X61294Y-18160D01*
X61527Y-18267D01*
X61629Y-18221D01*
X61629Y-17727D01*
X61629Y-17677D01*
X61629Y-17577D01*
X61729Y-17577D01*
X61779Y-17577D01*
X62264Y-17577D01*
X62311Y-17476D01*
X62239Y-17282D01*
X62132Y-17168D01*
X62504Y-17168D01*
X63472Y-18136D01*
X63472Y-19728D01*
X63351Y-19607D01*
X62984Y-19454D01*
X62586Y-19454D01*
X62311Y-19567D01*
X62311Y-17778D01*
X62264Y-17677D01*
X61729Y-17677D01*
X61729Y-18221D01*
X61831Y-18267D01*
X62064Y-18160D01*
X62239Y-17972D01*
X62311Y-17778D01*
X62311Y-19567D01*
X62218Y-19606D01*
X61937Y-19887D01*
X61784Y-20254D01*
X61784Y-20652D01*
X61936Y-21020D01*
X62217Y-21301D01*
X62584Y-21454D01*
X62982Y-21454D01*
X63350Y-21302D01*
X63472Y-21180D01*
X63472Y-23697D01*
X63384Y-23734D01*
X63314Y-23804D01*
X63276Y-23895D01*
X63276Y-23994D01*
X63276Y-24400D01*
X61348Y-26328D01*
X61344Y-26333D01*
X61344Y-25625D01*
X61344Y-25526D01*
X61344Y-24976D01*
X61306Y-24884D01*
X61236Y-24814D01*
X61148Y-24777D01*
X61148Y-24614D01*
X61245Y-24518D01*
X61325Y-24325D01*
X61325Y-24116D01*
X61245Y-23923D01*
X61098Y-23775D01*
X60905Y-23695D01*
X60696Y-23695D01*
X60503Y-23775D01*
X60437Y-23840D01*
X60371Y-23774D01*
X60279Y-23736D01*
X60167Y-23735D01*
X60105Y-23797D01*
X60105Y-24160D01*
X60105Y-24210D01*
X60105Y-24310D01*
X60105Y-24360D01*
X60105Y-24723D01*
X60167Y-24785D01*
X60279Y-24784D01*
X60371Y-24746D01*
X60441Y-24676D01*
X60462Y-24625D01*
X60492Y-24654D01*
X60492Y-24777D01*
X60404Y-24814D01*
X60334Y-24884D01*
X60296Y-24975D01*
X60296Y-25074D01*
X60296Y-25123D01*
X60279Y-25116D01*
X60167Y-25115D01*
X60105Y-25177D01*
X60105Y-25540D01*
X60105Y-25590D01*
X60105Y-25690D01*
X60105Y-25740D01*
X60105Y-26103D01*
X60167Y-26165D01*
X60279Y-26164D01*
X60371Y-26126D01*
X60441Y-26056D01*
X60479Y-25965D01*
X60479Y-25866D01*
X60479Y-25817D01*
X60495Y-25824D01*
X60594Y-25824D01*
X61144Y-25824D01*
X61236Y-25786D01*
X61306Y-25716D01*
X61344Y-25625D01*
X61344Y-26333D01*
X61277Y-26434D01*
X61252Y-26560D01*
X61252Y-29340D01*
X61277Y-29466D01*
X61348Y-29572D01*
X61608Y-29832D01*
X61608Y-31167D01*
X61563Y-31186D01*
X61444Y-31305D01*
X61326Y-31187D01*
X61092Y-31089D01*
X60838Y-31089D01*
X60814Y-31089D01*
X60579Y-31186D01*
X60458Y-31306D01*
X60353Y-31194D01*
X60120Y-31087D01*
X60018Y-31133D01*
X60018Y-31627D01*
X60018Y-31677D01*
X60018Y-31777D01*
X60018Y-31827D01*
X60018Y-32321D01*
X60120Y-32367D01*
X60353Y-32260D01*
X60458Y-32147D01*
X60578Y-32267D01*
X60812Y-32365D01*
X61066Y-32365D01*
X61090Y-32365D01*
X61325Y-32268D01*
X61444Y-32149D01*
X61562Y-32267D01*
X61796Y-32365D01*
X62050Y-32365D01*
X62074Y-32365D01*
X62309Y-32268D01*
X62488Y-32089D01*
X62586Y-31855D01*
X62586Y-31601D01*
X62489Y-31366D01*
X62310Y-31187D01*
X62264Y-31167D01*
X62264Y-29725D01*
X62286Y-29747D01*
X62653Y-29900D01*
X63051Y-29900D01*
X63419Y-29748D01*
X63700Y-29467D01*
X63853Y-29100D01*
X63853Y-28702D01*
X63701Y-28334D01*
X63420Y-28053D01*
X63053Y-27900D01*
X62655Y-27900D01*
X62287Y-28052D01*
X62006Y-28333D01*
X61908Y-28568D01*
X61908Y-26696D01*
X63304Y-25299D01*
X63312Y-25430D01*
X63368Y-25567D01*
X63459Y-25590D01*
X63714Y-25335D01*
X63749Y-25300D01*
X63820Y-25229D01*
X63891Y-25300D01*
X63820Y-25371D01*
X63785Y-25406D01*
X63530Y-25661D01*
X63553Y-25752D01*
X63746Y-25819D01*
X63950Y-25808D01*
X64087Y-25752D01*
X64095Y-25716D01*
X64110Y-25731D01*
X64127Y-25748D01*
X64195Y-25680D01*
X64195Y-35022D01*
X64110Y-34937D01*
X64085Y-34912D01*
X63836Y-34808D01*
X63566Y-34808D01*
X63316Y-34911D01*
X63125Y-35102D01*
X63021Y-35351D01*
X63021Y-35621D01*
X63021Y-35647D01*
X63124Y-35897D01*
X63315Y-36088D01*
X63564Y-36192D01*
X63834Y-36192D01*
X64084Y-36089D01*
X64195Y-35978D01*
X64195Y-50635D01*
M02*
