G04 (created by PCBNEW-RS274X (2012-apr-16-27)-stable) date Thu 18 Jun 2015 14:37:37 CEST*
G01*
G70*
G90*
%MOIN*%
G04 Gerber Fmt 3.4, Leading zero omitted, Abs format*
%FSLAX34Y34*%
G04 APERTURE LIST*
%ADD10C,0.006000*%
%ADD11C,0.015000*%
%ADD12O,0.080000X0.080000*%
%ADD13C,0.150000*%
%ADD14R,0.060000X0.060000*%
%ADD15C,0.060000*%
%ADD16C,0.070000*%
%ADD17R,0.070000X0.070000*%
%ADD18O,0.147600X0.147600*%
%ADD19O,0.088500X0.088500*%
%ADD20R,0.055000X0.055000*%
%ADD21C,0.055000*%
%ADD22C,0.035000*%
%ADD23C,0.031500*%
%ADD24C,0.015700*%
%ADD25C,0.010000*%
G04 APERTURE END LIST*
G54D10*
G54D11*
X49460Y-50960D02*
X49460Y-16580D01*
X64520Y-50960D02*
X49460Y-50960D01*
X64520Y-16560D02*
X64520Y-50960D01*
X49320Y-16560D02*
X64520Y-16560D01*
G54D12*
X59968Y-31727D03*
X60952Y-31727D03*
X61936Y-31727D03*
G54D13*
X58863Y-28900D03*
X62853Y-28900D03*
G54D12*
X53859Y-21267D03*
X52875Y-21267D03*
X51891Y-21267D03*
G54D13*
X54964Y-24094D03*
X50974Y-24094D03*
G54D12*
X61679Y-17627D03*
X60695Y-17627D03*
X59711Y-17627D03*
G54D13*
X62784Y-20454D03*
X58794Y-20454D03*
G54D14*
X61640Y-49860D03*
G54D15*
X60640Y-49860D03*
X61640Y-48860D03*
X60640Y-48860D03*
X61640Y-47860D03*
X60640Y-47860D03*
X61640Y-46860D03*
X60640Y-46860D03*
X61640Y-45860D03*
X60640Y-45860D03*
G54D14*
X52000Y-18620D03*
G54D15*
X53000Y-18620D03*
X54000Y-18620D03*
X55000Y-18620D03*
X56000Y-18620D03*
G54D16*
X51300Y-39980D03*
G54D17*
X52300Y-39980D03*
G54D16*
X53300Y-39980D03*
G54D18*
X50512Y-35500D03*
X52165Y-33571D03*
X52165Y-36799D03*
G54D19*
X53818Y-35500D03*
G54D18*
X55434Y-41680D03*
X57087Y-39751D03*
X57087Y-42979D03*
G54D19*
X58740Y-41680D03*
G54D18*
X60394Y-35500D03*
X62047Y-33571D03*
X62047Y-36799D03*
G54D19*
X63700Y-35500D03*
G54D18*
X55447Y-35500D03*
X57100Y-33571D03*
X57100Y-36799D03*
G54D19*
X58753Y-35500D03*
G54D20*
X50860Y-45160D03*
G54D21*
X50860Y-48160D03*
G54D20*
X51920Y-48180D03*
G54D21*
X51920Y-45180D03*
G54D20*
X60820Y-25300D03*
G54D21*
X63820Y-25300D03*
G54D20*
X63800Y-24220D03*
G54D21*
X60800Y-24220D03*
G54D20*
X56260Y-45100D03*
G54D21*
X56260Y-48100D03*
G54D20*
X55100Y-48120D03*
G54D21*
X55100Y-45120D03*
G54D22*
X58260Y-40680D03*
X59340Y-40280D03*
X58640Y-43180D03*
X52580Y-32180D03*
X60420Y-42940D03*
X61640Y-42940D03*
X54860Y-31060D03*
X53380Y-22880D03*
X53740Y-29620D03*
X57880Y-35080D03*
X57260Y-30180D03*
X54140Y-29360D03*
X55820Y-29320D03*
X56700Y-30000D03*
X52660Y-34740D03*
X56280Y-28280D03*
X59980Y-34540D03*
X55580Y-33760D03*
X52220Y-27940D03*
X56300Y-26940D03*
X56140Y-23560D03*
X50140Y-25660D03*
X54480Y-25520D03*
X59860Y-44140D03*
X58780Y-39760D03*
X63720Y-41400D03*
G54D23*
X58260Y-40680D02*
X58660Y-40280D01*
X58660Y-40280D02*
X59340Y-40280D01*
G54D24*
X51920Y-48180D02*
X51920Y-46640D01*
X54480Y-34540D02*
X54660Y-34360D01*
X59440Y-34580D02*
X61936Y-32084D01*
X56360Y-34580D02*
X59440Y-34580D01*
X56140Y-34360D02*
X56360Y-34580D01*
X58100Y-43720D02*
X58640Y-43180D01*
X51920Y-46640D02*
X53300Y-45260D01*
X53360Y-34540D02*
X54480Y-34540D01*
X55100Y-48120D02*
X55100Y-47540D01*
X53300Y-45260D02*
X53300Y-39980D01*
X54660Y-34360D02*
X56140Y-34360D01*
X55100Y-47540D02*
X58100Y-44540D01*
X58100Y-44540D02*
X58100Y-43720D01*
X53360Y-32960D02*
X53360Y-34540D01*
X61936Y-32084D02*
X61936Y-31727D01*
X51920Y-48180D02*
X55040Y-48180D01*
X52804Y-22180D02*
X51891Y-21267D01*
X53940Y-22180D02*
X52804Y-22180D01*
X53360Y-34640D02*
X53080Y-34920D01*
X53300Y-36060D02*
X53300Y-39980D01*
X53360Y-34540D02*
X53360Y-34640D01*
X54940Y-21180D02*
X53940Y-22180D01*
X58473Y-17627D02*
X54940Y-21160D01*
X53080Y-34920D02*
X53080Y-35840D01*
X59711Y-17627D02*
X58473Y-17627D01*
X54940Y-21160D02*
X54940Y-21180D01*
X55040Y-48180D02*
X55100Y-48120D01*
X53080Y-35840D02*
X53300Y-36060D01*
X52580Y-32180D02*
X53360Y-32960D01*
G54D23*
X60420Y-42940D02*
X61640Y-42940D01*
G54D24*
X54860Y-31060D02*
X55220Y-31420D01*
X57200Y-31420D02*
X58460Y-32680D01*
X60952Y-32188D02*
X60952Y-31727D01*
X58460Y-32680D02*
X60460Y-32680D01*
X60460Y-32680D02*
X60952Y-32188D01*
X55220Y-31420D02*
X57200Y-31420D01*
X53380Y-22880D02*
X53920Y-23420D01*
X53920Y-23420D02*
X53740Y-29620D01*
X56000Y-42600D02*
X56000Y-44840D01*
X54140Y-29360D02*
X55300Y-30520D01*
X57220Y-35740D02*
X56660Y-35740D01*
X56400Y-40720D02*
X56400Y-42200D01*
X56240Y-45120D02*
X56260Y-45100D01*
X55760Y-36640D02*
X55760Y-40080D01*
X57880Y-35080D02*
X57220Y-35740D01*
X56400Y-42200D02*
X56000Y-42600D01*
X55300Y-30520D02*
X56920Y-30520D01*
X56920Y-30520D02*
X57260Y-30180D01*
X56660Y-35740D02*
X55760Y-36640D01*
X55100Y-45120D02*
X56240Y-45120D01*
X56000Y-44840D02*
X56260Y-45100D01*
X55760Y-40080D02*
X56400Y-40720D01*
X52660Y-34920D02*
X52660Y-34740D01*
X50640Y-40620D02*
X50640Y-36940D01*
X50860Y-45160D02*
X51900Y-45160D01*
X51900Y-45160D02*
X51920Y-45180D01*
X51920Y-41900D02*
X50640Y-40620D01*
X50640Y-36940D02*
X52660Y-34920D01*
X56420Y-30000D02*
X56700Y-30000D01*
X55820Y-29320D02*
X56420Y-30000D01*
X51920Y-45180D02*
X51920Y-41900D01*
X58780Y-27940D02*
X56620Y-27940D01*
X56620Y-27940D02*
X56280Y-28280D01*
X60820Y-25900D02*
X58780Y-27940D01*
X60820Y-25300D02*
X60820Y-25900D01*
X60949Y-33571D02*
X62047Y-33571D01*
X59980Y-34540D02*
X60949Y-33571D01*
X54100Y-30740D02*
X52060Y-28700D01*
X52060Y-28100D02*
X52220Y-27940D01*
X55580Y-33760D02*
X54100Y-32280D01*
X54100Y-32280D02*
X54100Y-30740D01*
X52060Y-28700D02*
X52060Y-28100D01*
X56140Y-23560D02*
X56300Y-23720D01*
X56300Y-23720D02*
X56300Y-26940D01*
X52020Y-23060D02*
X51040Y-22080D01*
X50140Y-25660D02*
X50480Y-25320D01*
X51320Y-25320D02*
X52020Y-24620D01*
X51640Y-17640D02*
X52020Y-17640D01*
X51040Y-18240D02*
X51640Y-17640D01*
X52020Y-17640D02*
X53000Y-18620D01*
X52020Y-24620D02*
X52020Y-23060D01*
X50480Y-25320D02*
X51320Y-25320D01*
X51040Y-22080D02*
X51040Y-18240D01*
X55080Y-27880D02*
X56940Y-29740D01*
X56940Y-29740D02*
X58060Y-29740D01*
X58060Y-29740D02*
X58640Y-30320D01*
X59620Y-30320D02*
X59800Y-30320D01*
X58640Y-30320D02*
X59620Y-30320D01*
X60520Y-16800D02*
X60600Y-16880D01*
X54480Y-25520D02*
X55080Y-26120D01*
X61679Y-23839D02*
X61679Y-17627D01*
X55080Y-26120D02*
X55080Y-27880D01*
X59916Y-30320D02*
X59968Y-30268D01*
X63140Y-25300D02*
X61679Y-23839D01*
X63820Y-25300D02*
X63140Y-25300D01*
X60640Y-46800D02*
X61140Y-46300D01*
X56260Y-48600D02*
X56260Y-48100D01*
X55800Y-49060D02*
X56260Y-48600D01*
X51660Y-49060D02*
X55800Y-49060D01*
X50860Y-48260D02*
X51660Y-49060D01*
X61140Y-46300D02*
X61140Y-45420D01*
X50860Y-48160D02*
X50860Y-48260D01*
X59620Y-30320D02*
X59916Y-30320D01*
X61140Y-45420D02*
X59860Y-44140D01*
X60640Y-46860D02*
X60640Y-46800D01*
X55020Y-40420D02*
X55020Y-35927D01*
X59968Y-30268D02*
X59968Y-29572D01*
X59968Y-29572D02*
X63100Y-26440D01*
X59968Y-31727D02*
X59968Y-30268D01*
X60932Y-16880D02*
X61679Y-17627D01*
X53859Y-21267D02*
X54333Y-21267D01*
X54333Y-21267D02*
X58800Y-16800D01*
X63100Y-26020D02*
X63820Y-25300D01*
X55434Y-40834D02*
X55020Y-40420D01*
X59095Y-36799D02*
X60394Y-35500D01*
X55434Y-41680D02*
X55434Y-40834D01*
X55020Y-35927D02*
X55447Y-35500D01*
X63100Y-26440D02*
X63100Y-26020D01*
X57100Y-36799D02*
X59095Y-36799D01*
X52000Y-18620D02*
X52000Y-18980D01*
X60600Y-16880D02*
X60932Y-16880D01*
X53859Y-20839D02*
X53859Y-21267D01*
X58800Y-16800D02*
X60520Y-16800D01*
X52000Y-18980D02*
X53859Y-20839D01*
X63720Y-41400D02*
X62680Y-39760D01*
X62680Y-39760D02*
X58780Y-39760D01*
G54D10*
G36*
X57491Y-34908D02*
X57455Y-34995D01*
X57455Y-35041D01*
X57084Y-35412D01*
X56660Y-35412D01*
X56659Y-35412D01*
X56534Y-35437D01*
X56428Y-35508D01*
X56425Y-35511D01*
X56379Y-35557D01*
X56377Y-35550D01*
X55497Y-35550D01*
X55497Y-36424D01*
X55514Y-36428D01*
X55457Y-36514D01*
X55432Y-36640D01*
X55432Y-40080D01*
X55457Y-40206D01*
X55528Y-40312D01*
X56072Y-40856D01*
X56072Y-40940D01*
X55977Y-40848D01*
X55638Y-40714D01*
X55484Y-40756D01*
X55484Y-41580D01*
X55484Y-41630D01*
X55484Y-41730D01*
X55484Y-41780D01*
X55484Y-42604D01*
X55638Y-42646D01*
X55672Y-42632D01*
X55672Y-44792D01*
X55514Y-44792D01*
X55398Y-44675D01*
X55384Y-44669D01*
X55384Y-42604D01*
X55384Y-41730D01*
X55384Y-41630D01*
X55384Y-40756D01*
X55230Y-40714D01*
X54891Y-40848D01*
X54614Y-41119D01*
X54462Y-41475D01*
X54504Y-41630D01*
X55384Y-41630D01*
X55384Y-41730D01*
X54504Y-41730D01*
X54462Y-41885D01*
X54614Y-42241D01*
X54891Y-42512D01*
X55230Y-42646D01*
X55384Y-42604D01*
X55384Y-44669D01*
X55205Y-44595D01*
X54996Y-44595D01*
X54803Y-44675D01*
X54655Y-44822D01*
X54575Y-45015D01*
X54575Y-45224D01*
X54655Y-45417D01*
X54802Y-45565D01*
X54995Y-45645D01*
X55204Y-45645D01*
X55397Y-45565D01*
X55514Y-45448D01*
X55745Y-45448D01*
X55774Y-45516D01*
X55844Y-45586D01*
X55935Y-45624D01*
X56034Y-45624D01*
X56552Y-45624D01*
X54868Y-47308D01*
X54797Y-47414D01*
X54772Y-47540D01*
X54772Y-47597D01*
X54684Y-47634D01*
X54614Y-47704D01*
X54576Y-47795D01*
X54576Y-47852D01*
X52442Y-47852D01*
X52406Y-47764D01*
X52336Y-47694D01*
X52248Y-47657D01*
X52248Y-46775D01*
X53528Y-45494D01*
X53531Y-45492D01*
X53532Y-45492D01*
X53603Y-45386D01*
X53628Y-45260D01*
X53628Y-40492D01*
X53639Y-40488D01*
X53808Y-40319D01*
X53899Y-40099D01*
X53899Y-39861D01*
X53808Y-39641D01*
X53639Y-39472D01*
X53628Y-39467D01*
X53628Y-36169D01*
X53682Y-36192D01*
X53952Y-36192D01*
X54202Y-36089D01*
X54393Y-35898D01*
X54477Y-35695D01*
X54475Y-35705D01*
X54627Y-36061D01*
X54904Y-36332D01*
X55243Y-36466D01*
X55397Y-36424D01*
X55397Y-35600D01*
X55397Y-35550D01*
X55397Y-35450D01*
X55497Y-35450D01*
X55547Y-35450D01*
X56377Y-35450D01*
X56419Y-35295D01*
X56267Y-34939D01*
X56157Y-34831D01*
X56234Y-34883D01*
X56235Y-34883D01*
X56360Y-34908D01*
X57491Y-34908D01*
X57491Y-34908D01*
G37*
G54D25*
X57491Y-34908D02*
X57455Y-34995D01*
X57455Y-35041D01*
X57084Y-35412D01*
X56660Y-35412D01*
X56659Y-35412D01*
X56534Y-35437D01*
X56428Y-35508D01*
X56425Y-35511D01*
X56379Y-35557D01*
X56377Y-35550D01*
X55497Y-35550D01*
X55497Y-36424D01*
X55514Y-36428D01*
X55457Y-36514D01*
X55432Y-36640D01*
X55432Y-40080D01*
X55457Y-40206D01*
X55528Y-40312D01*
X56072Y-40856D01*
X56072Y-40940D01*
X55977Y-40848D01*
X55638Y-40714D01*
X55484Y-40756D01*
X55484Y-41580D01*
X55484Y-41630D01*
X55484Y-41730D01*
X55484Y-41780D01*
X55484Y-42604D01*
X55638Y-42646D01*
X55672Y-42632D01*
X55672Y-44792D01*
X55514Y-44792D01*
X55398Y-44675D01*
X55384Y-44669D01*
X55384Y-42604D01*
X55384Y-41730D01*
X55384Y-41630D01*
X55384Y-40756D01*
X55230Y-40714D01*
X54891Y-40848D01*
X54614Y-41119D01*
X54462Y-41475D01*
X54504Y-41630D01*
X55384Y-41630D01*
X55384Y-41730D01*
X54504Y-41730D01*
X54462Y-41885D01*
X54614Y-42241D01*
X54891Y-42512D01*
X55230Y-42646D01*
X55384Y-42604D01*
X55384Y-44669D01*
X55205Y-44595D01*
X54996Y-44595D01*
X54803Y-44675D01*
X54655Y-44822D01*
X54575Y-45015D01*
X54575Y-45224D01*
X54655Y-45417D01*
X54802Y-45565D01*
X54995Y-45645D01*
X55204Y-45645D01*
X55397Y-45565D01*
X55514Y-45448D01*
X55745Y-45448D01*
X55774Y-45516D01*
X55844Y-45586D01*
X55935Y-45624D01*
X56034Y-45624D01*
X56552Y-45624D01*
X54868Y-47308D01*
X54797Y-47414D01*
X54772Y-47540D01*
X54772Y-47597D01*
X54684Y-47634D01*
X54614Y-47704D01*
X54576Y-47795D01*
X54576Y-47852D01*
X52442Y-47852D01*
X52406Y-47764D01*
X52336Y-47694D01*
X52248Y-47657D01*
X52248Y-46775D01*
X53528Y-45494D01*
X53531Y-45492D01*
X53532Y-45492D01*
X53603Y-45386D01*
X53628Y-45260D01*
X53628Y-40492D01*
X53639Y-40488D01*
X53808Y-40319D01*
X53899Y-40099D01*
X53899Y-39861D01*
X53808Y-39641D01*
X53639Y-39472D01*
X53628Y-39467D01*
X53628Y-36169D01*
X53682Y-36192D01*
X53952Y-36192D01*
X54202Y-36089D01*
X54393Y-35898D01*
X54477Y-35695D01*
X54475Y-35705D01*
X54627Y-36061D01*
X54904Y-36332D01*
X55243Y-36466D01*
X55397Y-36424D01*
X55397Y-35600D01*
X55397Y-35550D01*
X55397Y-35450D01*
X55497Y-35450D01*
X55547Y-35450D01*
X56377Y-35450D01*
X56419Y-35295D01*
X56267Y-34939D01*
X56157Y-34831D01*
X56234Y-34883D01*
X56235Y-34883D01*
X56360Y-34908D01*
X57491Y-34908D01*
G54D10*
G36*
X64195Y-50635D02*
X64145Y-50635D01*
X64145Y-41485D01*
X64145Y-41316D01*
X64081Y-41160D01*
X63961Y-41040D01*
X63852Y-40994D01*
X63019Y-39681D01*
X63019Y-37004D01*
X63019Y-36594D01*
X62867Y-36238D01*
X62590Y-35967D01*
X62251Y-35833D01*
X62097Y-35875D01*
X62097Y-36749D01*
X62977Y-36749D01*
X63019Y-36594D01*
X63019Y-37004D01*
X62977Y-36849D01*
X62097Y-36849D01*
X62097Y-37723D01*
X62251Y-37765D01*
X62590Y-37631D01*
X62867Y-37360D01*
X63019Y-37004D01*
X63019Y-39681D01*
X62957Y-39584D01*
X62932Y-39557D01*
X62912Y-39528D01*
X62888Y-39511D01*
X62868Y-39491D01*
X62835Y-39476D01*
X62806Y-39457D01*
X62778Y-39451D01*
X62752Y-39440D01*
X62716Y-39439D01*
X62680Y-39432D01*
X61997Y-39432D01*
X61997Y-37723D01*
X61997Y-36849D01*
X61997Y-36749D01*
X61997Y-35875D01*
X61843Y-35833D01*
X61504Y-35967D01*
X61366Y-36102D01*
X61366Y-35705D01*
X61324Y-35550D01*
X60444Y-35550D01*
X60444Y-36424D01*
X60598Y-36466D01*
X60937Y-36332D01*
X61214Y-36061D01*
X61366Y-35705D01*
X61366Y-36102D01*
X61227Y-36238D01*
X61075Y-36594D01*
X61117Y-36749D01*
X61997Y-36749D01*
X61997Y-36849D01*
X61117Y-36849D01*
X61075Y-37004D01*
X61227Y-37360D01*
X61504Y-37631D01*
X61843Y-37765D01*
X61997Y-37723D01*
X61997Y-39432D01*
X60344Y-39432D01*
X59053Y-39432D01*
X59021Y-39400D01*
X58865Y-39335D01*
X58696Y-39335D01*
X58540Y-39399D01*
X58420Y-39519D01*
X58355Y-39675D01*
X58355Y-39844D01*
X58406Y-39969D01*
X58372Y-39992D01*
X58370Y-39994D01*
X58072Y-40291D01*
X58072Y-37004D01*
X58030Y-36849D01*
X57150Y-36849D01*
X57150Y-37723D01*
X57304Y-37765D01*
X57643Y-37631D01*
X57920Y-37360D01*
X58072Y-37004D01*
X58072Y-40291D01*
X58062Y-40301D01*
X58020Y-40319D01*
X57900Y-40439D01*
X57835Y-40595D01*
X57835Y-40764D01*
X57899Y-40920D01*
X58019Y-41040D01*
X58175Y-41105D01*
X58342Y-41105D01*
X58165Y-41282D01*
X58061Y-41531D01*
X58061Y-41801D01*
X58061Y-41827D01*
X58164Y-42077D01*
X58355Y-42268D01*
X58604Y-42372D01*
X58874Y-42372D01*
X59124Y-42269D01*
X59315Y-42078D01*
X59419Y-41829D01*
X59419Y-41559D01*
X59419Y-41533D01*
X59316Y-41283D01*
X59125Y-41092D01*
X58876Y-40988D01*
X58606Y-40988D01*
X58515Y-41025D01*
X58620Y-40921D01*
X58638Y-40877D01*
X58828Y-40687D01*
X59211Y-40687D01*
X59255Y-40705D01*
X59424Y-40705D01*
X59580Y-40641D01*
X59700Y-40521D01*
X59765Y-40365D01*
X59765Y-40196D01*
X59720Y-40088D01*
X62499Y-40088D01*
X63295Y-41341D01*
X63295Y-41484D01*
X63359Y-41640D01*
X63479Y-41760D01*
X63635Y-41825D01*
X63804Y-41825D01*
X63960Y-41761D01*
X64080Y-41641D01*
X64145Y-41485D01*
X64145Y-50635D01*
X62189Y-50635D01*
X62189Y-50210D01*
X62189Y-50111D01*
X62189Y-49511D01*
X62189Y-45969D01*
X62189Y-45751D01*
X62105Y-45549D01*
X62065Y-45509D01*
X62065Y-43025D01*
X62065Y-42856D01*
X62001Y-42700D01*
X61881Y-42580D01*
X61725Y-42515D01*
X61556Y-42515D01*
X61512Y-42533D01*
X60548Y-42533D01*
X60505Y-42515D01*
X60336Y-42515D01*
X60180Y-42579D01*
X60060Y-42699D01*
X59995Y-42855D01*
X59995Y-43024D01*
X60059Y-43180D01*
X60179Y-43300D01*
X60335Y-43365D01*
X60504Y-43365D01*
X60547Y-43347D01*
X61511Y-43347D01*
X61555Y-43365D01*
X61724Y-43365D01*
X61880Y-43301D01*
X62000Y-43181D01*
X62065Y-43025D01*
X62065Y-45509D01*
X61951Y-45395D01*
X61749Y-45311D01*
X61531Y-45311D01*
X61329Y-45395D01*
X61175Y-45549D01*
X61140Y-45633D01*
X61105Y-45549D01*
X60951Y-45395D01*
X60749Y-45311D01*
X60531Y-45311D01*
X60329Y-45395D01*
X60175Y-45549D01*
X60091Y-45751D01*
X60091Y-45969D01*
X60175Y-46171D01*
X60329Y-46325D01*
X60420Y-46362D01*
X60359Y-46388D01*
X60332Y-46482D01*
X60640Y-46789D01*
X60948Y-46482D01*
X60921Y-46388D01*
X60855Y-46364D01*
X60951Y-46325D01*
X61105Y-46171D01*
X61140Y-46086D01*
X61175Y-46171D01*
X61329Y-46325D01*
X61420Y-46362D01*
X61359Y-46388D01*
X61332Y-46482D01*
X61640Y-46789D01*
X61948Y-46482D01*
X61921Y-46388D01*
X61855Y-46364D01*
X61951Y-46325D01*
X62105Y-46171D01*
X62189Y-45969D01*
X62189Y-49511D01*
X62183Y-49496D01*
X62183Y-48939D01*
X62183Y-47939D01*
X62183Y-46939D01*
X62172Y-46726D01*
X62112Y-46579D01*
X62018Y-46552D01*
X61711Y-46860D01*
X62018Y-47168D01*
X62112Y-47141D01*
X62183Y-46939D01*
X62183Y-47939D01*
X62172Y-47726D01*
X62112Y-47579D01*
X62018Y-47552D01*
X61948Y-47622D01*
X61948Y-47482D01*
X61921Y-47388D01*
X61847Y-47362D01*
X61921Y-47332D01*
X61948Y-47238D01*
X61640Y-46931D01*
X61569Y-47001D01*
X61569Y-46860D01*
X61262Y-46552D01*
X61168Y-46579D01*
X61142Y-46652D01*
X61112Y-46579D01*
X61018Y-46552D01*
X60711Y-46860D01*
X61018Y-47168D01*
X61112Y-47141D01*
X61137Y-47067D01*
X61168Y-47141D01*
X61262Y-47168D01*
X61569Y-46860D01*
X61569Y-47001D01*
X61332Y-47238D01*
X61359Y-47332D01*
X61432Y-47357D01*
X61359Y-47388D01*
X61332Y-47482D01*
X61640Y-47789D01*
X61948Y-47482D01*
X61948Y-47622D01*
X61711Y-47860D01*
X62018Y-48168D01*
X62112Y-48141D01*
X62183Y-47939D01*
X62183Y-48939D01*
X62172Y-48726D01*
X62112Y-48579D01*
X62018Y-48552D01*
X61948Y-48622D01*
X61948Y-48482D01*
X61921Y-48388D01*
X61847Y-48362D01*
X61921Y-48332D01*
X61948Y-48238D01*
X61640Y-47931D01*
X61569Y-48001D01*
X61569Y-47860D01*
X61262Y-47552D01*
X61168Y-47579D01*
X61142Y-47652D01*
X61112Y-47579D01*
X61018Y-47552D01*
X60948Y-47622D01*
X60948Y-47482D01*
X60921Y-47388D01*
X60847Y-47362D01*
X60921Y-47332D01*
X60948Y-47238D01*
X60640Y-46931D01*
X60569Y-47001D01*
X60569Y-46860D01*
X60262Y-46552D01*
X60168Y-46579D01*
X60097Y-46781D01*
X60108Y-46994D01*
X60168Y-47141D01*
X60262Y-47168D01*
X60569Y-46860D01*
X60569Y-47001D01*
X60332Y-47238D01*
X60359Y-47332D01*
X60432Y-47357D01*
X60359Y-47388D01*
X60332Y-47482D01*
X60640Y-47789D01*
X60948Y-47482D01*
X60948Y-47622D01*
X60711Y-47860D01*
X61018Y-48168D01*
X61112Y-48141D01*
X61137Y-48067D01*
X61168Y-48141D01*
X61262Y-48168D01*
X61569Y-47860D01*
X61569Y-48001D01*
X61332Y-48238D01*
X61359Y-48332D01*
X61432Y-48357D01*
X61359Y-48388D01*
X61332Y-48482D01*
X61640Y-48789D01*
X61948Y-48482D01*
X61948Y-48622D01*
X61711Y-48860D01*
X62018Y-49168D01*
X62112Y-49141D01*
X62183Y-48939D01*
X62183Y-49496D01*
X62151Y-49419D01*
X62081Y-49349D01*
X61990Y-49311D01*
X61927Y-49311D01*
X61948Y-49238D01*
X61640Y-48931D01*
X61569Y-49001D01*
X61569Y-48860D01*
X61262Y-48552D01*
X61168Y-48579D01*
X61142Y-48652D01*
X61112Y-48579D01*
X61018Y-48552D01*
X60948Y-48622D01*
X60948Y-48482D01*
X60921Y-48388D01*
X60847Y-48362D01*
X60921Y-48332D01*
X60948Y-48238D01*
X60640Y-47931D01*
X60569Y-48001D01*
X60569Y-47860D01*
X60262Y-47552D01*
X60168Y-47579D01*
X60097Y-47781D01*
X60108Y-47994D01*
X60168Y-48141D01*
X60262Y-48168D01*
X60569Y-47860D01*
X60569Y-48001D01*
X60332Y-48238D01*
X60359Y-48332D01*
X60432Y-48357D01*
X60359Y-48388D01*
X60332Y-48482D01*
X60640Y-48789D01*
X60948Y-48482D01*
X60948Y-48622D01*
X60711Y-48860D01*
X61018Y-49168D01*
X61112Y-49141D01*
X61137Y-49067D01*
X61168Y-49141D01*
X61262Y-49168D01*
X61569Y-48860D01*
X61569Y-49001D01*
X61332Y-49238D01*
X61352Y-49311D01*
X61291Y-49311D01*
X61199Y-49349D01*
X61129Y-49419D01*
X61091Y-49510D01*
X61091Y-49535D01*
X60951Y-49395D01*
X60859Y-49357D01*
X60921Y-49332D01*
X60948Y-49238D01*
X60640Y-48931D01*
X60569Y-49001D01*
X60569Y-48860D01*
X60262Y-48552D01*
X60168Y-48579D01*
X60097Y-48781D01*
X60108Y-48994D01*
X60168Y-49141D01*
X60262Y-49168D01*
X60569Y-48860D01*
X60569Y-49001D01*
X60332Y-49238D01*
X60359Y-49332D01*
X60424Y-49355D01*
X60329Y-49395D01*
X60175Y-49549D01*
X60091Y-49751D01*
X60091Y-49969D01*
X60175Y-50171D01*
X60329Y-50325D01*
X60531Y-50409D01*
X60749Y-50409D01*
X60951Y-50325D01*
X61091Y-50185D01*
X61091Y-50209D01*
X61129Y-50301D01*
X61199Y-50371D01*
X61290Y-50409D01*
X61389Y-50409D01*
X61989Y-50409D01*
X62081Y-50371D01*
X62151Y-50301D01*
X62189Y-50210D01*
X62189Y-50635D01*
X56779Y-50635D01*
X56779Y-48174D01*
X56768Y-47970D01*
X56712Y-47833D01*
X56621Y-47810D01*
X56550Y-47881D01*
X56550Y-47739D01*
X56527Y-47648D01*
X56334Y-47581D01*
X56130Y-47592D01*
X55993Y-47648D01*
X55970Y-47739D01*
X56260Y-48029D01*
X56550Y-47739D01*
X56550Y-47881D01*
X56331Y-48100D01*
X56621Y-48390D01*
X56712Y-48367D01*
X56779Y-48174D01*
X56779Y-50635D01*
X56550Y-50635D01*
X56550Y-48461D01*
X56260Y-48171D01*
X56189Y-48242D01*
X56189Y-48100D01*
X55899Y-47810D01*
X55808Y-47833D01*
X55741Y-48026D01*
X55752Y-48230D01*
X55808Y-48367D01*
X55899Y-48390D01*
X56189Y-48100D01*
X56189Y-48242D01*
X55970Y-48461D01*
X55993Y-48552D01*
X56186Y-48619D01*
X56390Y-48608D01*
X56527Y-48552D01*
X56550Y-48461D01*
X56550Y-50635D01*
X51379Y-50635D01*
X51379Y-48234D01*
X51368Y-48030D01*
X51312Y-47893D01*
X51221Y-47870D01*
X51150Y-47941D01*
X51150Y-47799D01*
X51127Y-47708D01*
X50934Y-47641D01*
X50730Y-47652D01*
X50593Y-47708D01*
X50570Y-47799D01*
X50860Y-48089D01*
X51150Y-47799D01*
X51150Y-47941D01*
X50931Y-48160D01*
X51221Y-48450D01*
X51312Y-48427D01*
X51379Y-48234D01*
X51379Y-50635D01*
X51150Y-50635D01*
X51150Y-48521D01*
X50860Y-48231D01*
X50789Y-48302D01*
X50789Y-48160D01*
X50499Y-47870D01*
X50408Y-47893D01*
X50341Y-48086D01*
X50352Y-48290D01*
X50408Y-48427D01*
X50499Y-48450D01*
X50789Y-48160D01*
X50789Y-48302D01*
X50570Y-48521D01*
X50593Y-48612D01*
X50786Y-48679D01*
X50990Y-48668D01*
X51127Y-48612D01*
X51150Y-48521D01*
X51150Y-50635D01*
X49785Y-50635D01*
X49785Y-36151D01*
X49969Y-36332D01*
X50308Y-36466D01*
X50462Y-36424D01*
X50462Y-35600D01*
X50462Y-35550D01*
X50462Y-35450D01*
X50462Y-35400D01*
X50462Y-34576D01*
X50308Y-34534D01*
X49969Y-34668D01*
X49785Y-34848D01*
X49785Y-25906D01*
X49899Y-26020D01*
X50055Y-26085D01*
X50224Y-26085D01*
X50380Y-26021D01*
X50500Y-25901D01*
X50565Y-25745D01*
X50565Y-25699D01*
X50616Y-25648D01*
X51320Y-25648D01*
X51445Y-25623D01*
X51446Y-25623D01*
X51552Y-25552D01*
X52251Y-24853D01*
X52251Y-24852D01*
X52252Y-24852D01*
X52323Y-24746D01*
X52347Y-24621D01*
X52348Y-24620D01*
X52348Y-23060D01*
X52347Y-23059D01*
X52323Y-22934D01*
X52252Y-22828D01*
X52251Y-22827D01*
X51368Y-21944D01*
X51368Y-21658D01*
X51517Y-21807D01*
X51751Y-21905D01*
X52005Y-21905D01*
X52029Y-21905D01*
X52054Y-21894D01*
X52572Y-22412D01*
X52678Y-22483D01*
X52679Y-22483D01*
X52804Y-22508D01*
X53166Y-22508D01*
X53140Y-22519D01*
X53020Y-22639D01*
X52955Y-22795D01*
X52955Y-22964D01*
X53019Y-23120D01*
X53139Y-23240D01*
X53295Y-23305D01*
X53341Y-23305D01*
X53591Y-23554D01*
X53420Y-29338D01*
X53380Y-29379D01*
X53327Y-29503D01*
X52388Y-28564D01*
X52388Y-28330D01*
X52460Y-28301D01*
X52580Y-28181D01*
X52645Y-28025D01*
X52645Y-27856D01*
X52581Y-27700D01*
X52461Y-27580D01*
X52305Y-27515D01*
X52136Y-27515D01*
X51980Y-27579D01*
X51860Y-27699D01*
X51795Y-27855D01*
X51795Y-27917D01*
X51757Y-27974D01*
X51732Y-28100D01*
X51732Y-28700D01*
X51757Y-28826D01*
X51828Y-28932D01*
X53772Y-30876D01*
X53772Y-32280D01*
X53797Y-32406D01*
X53868Y-32512D01*
X55155Y-33799D01*
X55155Y-33844D01*
X55219Y-34000D01*
X55251Y-34032D01*
X54660Y-34032D01*
X54534Y-34057D01*
X54428Y-34128D01*
X54344Y-34212D01*
X53688Y-34212D01*
X53688Y-32960D01*
X53663Y-32835D01*
X53663Y-32834D01*
X53592Y-32728D01*
X53005Y-32141D01*
X53005Y-32096D01*
X52941Y-31940D01*
X52821Y-31820D01*
X52665Y-31755D01*
X52496Y-31755D01*
X52340Y-31819D01*
X52220Y-31939D01*
X52155Y-32095D01*
X52155Y-32264D01*
X52219Y-32420D01*
X52339Y-32540D01*
X52495Y-32605D01*
X52541Y-32605D01*
X52633Y-32697D01*
X52358Y-32583D01*
X51973Y-32583D01*
X51617Y-32730D01*
X51344Y-33003D01*
X51196Y-33359D01*
X51196Y-33744D01*
X51196Y-33782D01*
X51343Y-34138D01*
X51616Y-34411D01*
X51972Y-34559D01*
X52275Y-34559D01*
X52235Y-34655D01*
X52235Y-34824D01*
X52251Y-34865D01*
X51484Y-35631D01*
X51484Y-35295D01*
X51332Y-34939D01*
X51055Y-34668D01*
X50716Y-34534D01*
X50562Y-34576D01*
X50562Y-35450D01*
X51442Y-35450D01*
X51484Y-35295D01*
X51484Y-35631D01*
X51468Y-35647D01*
X51442Y-35550D01*
X50562Y-35550D01*
X50562Y-36424D01*
X50664Y-36451D01*
X50408Y-36708D01*
X50337Y-36814D01*
X50312Y-36940D01*
X50312Y-40620D01*
X50337Y-40746D01*
X50408Y-40852D01*
X51592Y-42036D01*
X51592Y-44765D01*
X51525Y-44832D01*
X51382Y-44832D01*
X51346Y-44744D01*
X51276Y-44674D01*
X51185Y-44636D01*
X51086Y-44636D01*
X50536Y-44636D01*
X50444Y-44674D01*
X50374Y-44744D01*
X50336Y-44835D01*
X50336Y-44934D01*
X50336Y-45484D01*
X50374Y-45576D01*
X50444Y-45646D01*
X50535Y-45684D01*
X50634Y-45684D01*
X51184Y-45684D01*
X51276Y-45646D01*
X51346Y-45576D01*
X51382Y-45488D01*
X51485Y-45488D01*
X51622Y-45625D01*
X51815Y-45705D01*
X52024Y-45705D01*
X52217Y-45625D01*
X52365Y-45478D01*
X52445Y-45285D01*
X52445Y-45076D01*
X52365Y-44883D01*
X52248Y-44765D01*
X52248Y-41900D01*
X52223Y-41775D01*
X52223Y-41774D01*
X52152Y-41668D01*
X50979Y-40495D01*
X51181Y-40579D01*
X51419Y-40579D01*
X51639Y-40488D01*
X51714Y-40412D01*
X51739Y-40471D01*
X51809Y-40541D01*
X51900Y-40579D01*
X51999Y-40579D01*
X52188Y-40580D01*
X52250Y-40518D01*
X52250Y-40080D01*
X52250Y-40030D01*
X52250Y-39930D01*
X52250Y-39880D01*
X52250Y-39442D01*
X52188Y-39380D01*
X52115Y-39380D01*
X51999Y-39381D01*
X51900Y-39381D01*
X51809Y-39419D01*
X51739Y-39489D01*
X51714Y-39547D01*
X51639Y-39472D01*
X51419Y-39381D01*
X51181Y-39381D01*
X50968Y-39469D01*
X50968Y-37075D01*
X51177Y-36866D01*
X51177Y-36899D01*
X51221Y-36899D01*
X51193Y-37004D01*
X51345Y-37360D01*
X51622Y-37631D01*
X51961Y-37765D01*
X52115Y-37723D01*
X52115Y-36899D01*
X52115Y-36849D01*
X52115Y-36749D01*
X52215Y-36749D01*
X52215Y-36849D01*
X52215Y-36899D01*
X52215Y-37723D01*
X52369Y-37765D01*
X52708Y-37631D01*
X52972Y-37372D01*
X52972Y-39467D01*
X52961Y-39472D01*
X52885Y-39547D01*
X52861Y-39489D01*
X52791Y-39419D01*
X52700Y-39381D01*
X52601Y-39381D01*
X52412Y-39380D01*
X52350Y-39442D01*
X52350Y-39880D01*
X52350Y-39930D01*
X52350Y-40030D01*
X52350Y-40080D01*
X52350Y-40518D01*
X52412Y-40580D01*
X52601Y-40579D01*
X52700Y-40579D01*
X52791Y-40541D01*
X52861Y-40471D01*
X52885Y-40412D01*
X52961Y-40488D01*
X52972Y-40492D01*
X52972Y-45124D01*
X51688Y-46408D01*
X51617Y-46514D01*
X51592Y-46640D01*
X51592Y-47657D01*
X51504Y-47694D01*
X51434Y-47764D01*
X51396Y-47855D01*
X51396Y-47954D01*
X51396Y-48504D01*
X51434Y-48596D01*
X51504Y-48666D01*
X51595Y-48704D01*
X51694Y-48704D01*
X52244Y-48704D01*
X52336Y-48666D01*
X52406Y-48596D01*
X52442Y-48508D01*
X54602Y-48508D01*
X54614Y-48536D01*
X54684Y-48606D01*
X54775Y-48644D01*
X54874Y-48644D01*
X55424Y-48644D01*
X55516Y-48606D01*
X55586Y-48536D01*
X55624Y-48445D01*
X55624Y-48346D01*
X55624Y-47796D01*
X55586Y-47704D01*
X55516Y-47634D01*
X55483Y-47620D01*
X58328Y-44774D01*
X58331Y-44772D01*
X58332Y-44772D01*
X58403Y-44666D01*
X58428Y-44540D01*
X58428Y-43855D01*
X58678Y-43605D01*
X58724Y-43605D01*
X58880Y-43541D01*
X59000Y-43421D01*
X59065Y-43265D01*
X59065Y-43096D01*
X59001Y-42940D01*
X58881Y-42820D01*
X58725Y-42755D01*
X58556Y-42755D01*
X58400Y-42819D01*
X58280Y-42939D01*
X58215Y-43095D01*
X58215Y-43141D01*
X57974Y-43381D01*
X58059Y-43184D01*
X58059Y-42774D01*
X57907Y-42418D01*
X57630Y-42147D01*
X57291Y-42013D01*
X57137Y-42055D01*
X57137Y-42929D01*
X58017Y-42929D01*
X58059Y-42774D01*
X58059Y-43184D01*
X58017Y-43029D01*
X57137Y-43029D01*
X57137Y-43903D01*
X57291Y-43945D01*
X57630Y-43811D01*
X57783Y-43660D01*
X57772Y-43720D01*
X57772Y-44404D01*
X56784Y-45392D01*
X56784Y-45326D01*
X56784Y-44776D01*
X56746Y-44684D01*
X56676Y-44614D01*
X56585Y-44576D01*
X56486Y-44576D01*
X56328Y-44576D01*
X56328Y-43599D01*
X56544Y-43811D01*
X56883Y-43945D01*
X57037Y-43903D01*
X57037Y-43079D01*
X57037Y-43029D01*
X57037Y-42929D01*
X57037Y-42879D01*
X57037Y-42055D01*
X56883Y-42013D01*
X56728Y-42074D01*
X56728Y-40720D01*
X56717Y-40665D01*
X56894Y-40739D01*
X57279Y-40739D01*
X57635Y-40592D01*
X57908Y-40319D01*
X58056Y-39963D01*
X58056Y-39578D01*
X58056Y-39540D01*
X57909Y-39184D01*
X57636Y-38911D01*
X57280Y-38763D01*
X57050Y-38763D01*
X57050Y-37723D01*
X57050Y-36849D01*
X56170Y-36849D01*
X56128Y-37004D01*
X56280Y-37360D01*
X56557Y-37631D01*
X56896Y-37765D01*
X57050Y-37723D01*
X57050Y-38763D01*
X56895Y-38763D01*
X56539Y-38910D01*
X56266Y-39183D01*
X56118Y-39539D01*
X56118Y-39924D01*
X56118Y-39962D01*
X56126Y-39982D01*
X56088Y-39944D01*
X56088Y-36775D01*
X56158Y-36705D01*
X56170Y-36749D01*
X57000Y-36749D01*
X57050Y-36749D01*
X57150Y-36749D01*
X57200Y-36749D01*
X58030Y-36749D01*
X58072Y-36594D01*
X57920Y-36238D01*
X57643Y-35967D01*
X57509Y-35914D01*
X57919Y-35505D01*
X57964Y-35505D01*
X58074Y-35459D01*
X58074Y-35621D01*
X58074Y-35647D01*
X58177Y-35897D01*
X58368Y-36088D01*
X58617Y-36192D01*
X58887Y-36192D01*
X59137Y-36089D01*
X59328Y-35898D01*
X59432Y-35649D01*
X59432Y-35600D01*
X59450Y-35600D01*
X59422Y-35705D01*
X59574Y-36061D01*
X59851Y-36332D01*
X60190Y-36466D01*
X60344Y-36424D01*
X60344Y-35600D01*
X60344Y-35550D01*
X60344Y-35450D01*
X60444Y-35450D01*
X60494Y-35450D01*
X61324Y-35450D01*
X61366Y-35295D01*
X61214Y-34939D01*
X60937Y-34668D01*
X60598Y-34534D01*
X60494Y-34562D01*
X60494Y-34512D01*
X60472Y-34512D01*
X61085Y-33899D01*
X61126Y-33899D01*
X61225Y-34138D01*
X61498Y-34411D01*
X61854Y-34559D01*
X62239Y-34559D01*
X62595Y-34412D01*
X62868Y-34139D01*
X63016Y-33783D01*
X63016Y-33398D01*
X63016Y-33360D01*
X62869Y-33004D01*
X62596Y-32731D01*
X62240Y-32583D01*
X61901Y-32583D01*
X62150Y-32333D01*
X62309Y-32268D01*
X62488Y-32089D01*
X62586Y-31855D01*
X62586Y-31601D01*
X62489Y-31366D01*
X62310Y-31187D01*
X62076Y-31089D01*
X61822Y-31089D01*
X61798Y-31089D01*
X61563Y-31186D01*
X61444Y-31305D01*
X61344Y-31205D01*
X61344Y-25625D01*
X61344Y-25526D01*
X61344Y-24976D01*
X61325Y-24930D01*
X61325Y-24325D01*
X61325Y-24116D01*
X61245Y-23923D01*
X61098Y-23775D01*
X60905Y-23695D01*
X60696Y-23695D01*
X60503Y-23775D01*
X60355Y-23922D01*
X60275Y-24115D01*
X60275Y-24324D01*
X60355Y-24517D01*
X60502Y-24665D01*
X60695Y-24745D01*
X60904Y-24745D01*
X61097Y-24665D01*
X61245Y-24518D01*
X61325Y-24325D01*
X61325Y-24930D01*
X61306Y-24884D01*
X61236Y-24814D01*
X61145Y-24776D01*
X61046Y-24776D01*
X60496Y-24776D01*
X60404Y-24814D01*
X60334Y-24884D01*
X60296Y-24975D01*
X60296Y-25074D01*
X60296Y-25624D01*
X60334Y-25716D01*
X60404Y-25786D01*
X60450Y-25805D01*
X59794Y-26461D01*
X59794Y-20654D01*
X59794Y-20256D01*
X59642Y-19888D01*
X59361Y-19607D01*
X58994Y-19454D01*
X58596Y-19454D01*
X58228Y-19606D01*
X57947Y-19887D01*
X57794Y-20254D01*
X57794Y-20652D01*
X57946Y-21020D01*
X58227Y-21301D01*
X58594Y-21454D01*
X58992Y-21454D01*
X59360Y-21302D01*
X59641Y-21021D01*
X59794Y-20654D01*
X59794Y-26461D01*
X58644Y-27612D01*
X56620Y-27612D01*
X56619Y-27612D01*
X56494Y-27637D01*
X56388Y-27708D01*
X56387Y-27708D01*
X56387Y-27709D01*
X56241Y-27855D01*
X56196Y-27855D01*
X56040Y-27919D01*
X55920Y-28039D01*
X55855Y-28195D01*
X55855Y-28364D01*
X55919Y-28520D01*
X56039Y-28640D01*
X56195Y-28705D01*
X56364Y-28705D01*
X56520Y-28641D01*
X56640Y-28521D01*
X56705Y-28365D01*
X56705Y-28319D01*
X56756Y-28268D01*
X58081Y-28268D01*
X58016Y-28333D01*
X57863Y-28700D01*
X57863Y-29098D01*
X58015Y-29466D01*
X58296Y-29747D01*
X58663Y-29900D01*
X59061Y-29900D01*
X59429Y-29748D01*
X59710Y-29467D01*
X59863Y-29100D01*
X59863Y-28702D01*
X59711Y-28334D01*
X59430Y-28053D01*
X59218Y-27965D01*
X61051Y-26133D01*
X61051Y-26132D01*
X61052Y-26132D01*
X61123Y-26026D01*
X61147Y-25901D01*
X61148Y-25900D01*
X61148Y-25822D01*
X61236Y-25786D01*
X61306Y-25716D01*
X61344Y-25625D01*
X61344Y-31205D01*
X61326Y-31187D01*
X61092Y-31089D01*
X60838Y-31089D01*
X60814Y-31089D01*
X60579Y-31186D01*
X60458Y-31306D01*
X60353Y-31194D01*
X60120Y-31087D01*
X60018Y-31133D01*
X60018Y-31627D01*
X60018Y-31677D01*
X60018Y-31777D01*
X59918Y-31777D01*
X59918Y-31677D01*
X59918Y-31133D01*
X59816Y-31087D01*
X59583Y-31194D01*
X59408Y-31382D01*
X59336Y-31576D01*
X59383Y-31677D01*
X59918Y-31677D01*
X59918Y-31777D01*
X59868Y-31777D01*
X59383Y-31777D01*
X59336Y-31878D01*
X59408Y-32072D01*
X59583Y-32260D01*
X59783Y-32352D01*
X58596Y-32352D01*
X57432Y-31188D01*
X57326Y-31117D01*
X57200Y-31092D01*
X55356Y-31092D01*
X55285Y-31021D01*
X55285Y-30976D01*
X55226Y-30833D01*
X55300Y-30848D01*
X56920Y-30848D01*
X57045Y-30823D01*
X57046Y-30823D01*
X57152Y-30752D01*
X57299Y-30605D01*
X57344Y-30605D01*
X57500Y-30541D01*
X57620Y-30421D01*
X57685Y-30265D01*
X57685Y-30096D01*
X57621Y-29940D01*
X57501Y-29820D01*
X57345Y-29755D01*
X57176Y-29755D01*
X57075Y-29796D01*
X57061Y-29760D01*
X56941Y-29640D01*
X56785Y-29575D01*
X56616Y-29575D01*
X56517Y-29615D01*
X56245Y-29306D01*
X56245Y-29236D01*
X56181Y-29080D01*
X56061Y-28960D01*
X55905Y-28895D01*
X55736Y-28895D01*
X55580Y-28959D01*
X55460Y-29079D01*
X55395Y-29235D01*
X55395Y-29404D01*
X55459Y-29560D01*
X55579Y-29680D01*
X55735Y-29745D01*
X55757Y-29745D01*
X56150Y-30192D01*
X55436Y-30192D01*
X54565Y-29321D01*
X54565Y-29276D01*
X54501Y-29120D01*
X54381Y-29000D01*
X54225Y-28935D01*
X54088Y-28935D01*
X54212Y-24756D01*
X54397Y-24941D01*
X54764Y-25094D01*
X55162Y-25094D01*
X55530Y-24942D01*
X55811Y-24661D01*
X55964Y-24294D01*
X55964Y-23947D01*
X55972Y-23950D01*
X55972Y-26667D01*
X55940Y-26699D01*
X55875Y-26855D01*
X55875Y-27024D01*
X55939Y-27180D01*
X56059Y-27300D01*
X56215Y-27365D01*
X56384Y-27365D01*
X56540Y-27301D01*
X56660Y-27181D01*
X56725Y-27025D01*
X56725Y-26856D01*
X56661Y-26700D01*
X56628Y-26667D01*
X56628Y-23720D01*
X56603Y-23595D01*
X56603Y-23594D01*
X56565Y-23537D01*
X56565Y-23476D01*
X56501Y-23320D01*
X56381Y-23200D01*
X56225Y-23135D01*
X56056Y-23135D01*
X55900Y-23199D01*
X55780Y-23319D01*
X55727Y-23443D01*
X55531Y-23247D01*
X55164Y-23094D01*
X54766Y-23094D01*
X54398Y-23246D01*
X54246Y-23397D01*
X54231Y-23304D01*
X54163Y-23196D01*
X54151Y-23188D01*
X54149Y-23186D01*
X53805Y-22841D01*
X53805Y-22796D01*
X53741Y-22640D01*
X53621Y-22520D01*
X53592Y-22508D01*
X53940Y-22508D01*
X54065Y-22483D01*
X54066Y-22483D01*
X54172Y-22412D01*
X55172Y-21412D01*
X55211Y-21352D01*
X55212Y-21351D01*
X58609Y-17955D01*
X59144Y-17955D01*
X59158Y-17988D01*
X59337Y-18167D01*
X59571Y-18265D01*
X59825Y-18265D01*
X59849Y-18265D01*
X60084Y-18168D01*
X60203Y-18049D01*
X60321Y-18167D01*
X60555Y-18265D01*
X60809Y-18265D01*
X60833Y-18265D01*
X61068Y-18168D01*
X61188Y-18047D01*
X61294Y-18160D01*
X61527Y-18267D01*
X61629Y-18221D01*
X61629Y-17727D01*
X61629Y-17677D01*
X61629Y-17577D01*
X61629Y-17527D01*
X61629Y-17033D01*
X61527Y-16987D01*
X61294Y-17094D01*
X61188Y-17206D01*
X61069Y-17087D01*
X60835Y-16989D01*
X60581Y-16989D01*
X60557Y-16989D01*
X60322Y-17086D01*
X60203Y-17205D01*
X60085Y-17087D01*
X59851Y-16989D01*
X59597Y-16989D01*
X59573Y-16989D01*
X59338Y-17086D01*
X59159Y-17265D01*
X59144Y-17299D01*
X58473Y-17299D01*
X58347Y-17324D01*
X58241Y-17395D01*
X54708Y-20928D01*
X54668Y-20987D01*
X54667Y-20988D01*
X54488Y-21167D01*
X54466Y-21167D01*
X54491Y-21116D01*
X54419Y-20922D01*
X54244Y-20734D01*
X54011Y-20627D01*
X53909Y-20673D01*
X53909Y-21167D01*
X53909Y-21217D01*
X53909Y-21317D01*
X53809Y-21317D01*
X53809Y-21217D01*
X53809Y-21167D01*
X53809Y-20673D01*
X53707Y-20627D01*
X53474Y-20734D01*
X53368Y-20846D01*
X53249Y-20727D01*
X53015Y-20629D01*
X52761Y-20629D01*
X52737Y-20629D01*
X52502Y-20726D01*
X52383Y-20845D01*
X52265Y-20727D01*
X52031Y-20629D01*
X51950Y-20629D01*
X51950Y-19108D01*
X51950Y-18670D01*
X51512Y-18670D01*
X51450Y-18732D01*
X51451Y-18871D01*
X51451Y-18970D01*
X51489Y-19061D01*
X51559Y-19131D01*
X51651Y-19169D01*
X51888Y-19170D01*
X51950Y-19108D01*
X51950Y-20629D01*
X51777Y-20629D01*
X51753Y-20629D01*
X51518Y-20726D01*
X51368Y-20876D01*
X51368Y-18376D01*
X51451Y-18293D01*
X51451Y-18369D01*
X51450Y-18508D01*
X51512Y-18570D01*
X51900Y-18570D01*
X51950Y-18570D01*
X52050Y-18570D01*
X52050Y-18670D01*
X52050Y-18720D01*
X52050Y-19108D01*
X52112Y-19170D01*
X52349Y-19169D01*
X52441Y-19131D01*
X52511Y-19061D01*
X52549Y-18970D01*
X52549Y-18945D01*
X52689Y-19085D01*
X52891Y-19169D01*
X53109Y-19169D01*
X53311Y-19085D01*
X53465Y-18931D01*
X53500Y-18846D01*
X53535Y-18931D01*
X53689Y-19085D01*
X53891Y-19169D01*
X54109Y-19169D01*
X54311Y-19085D01*
X54465Y-18931D01*
X54500Y-18846D01*
X54535Y-18931D01*
X54689Y-19085D01*
X54891Y-19169D01*
X55109Y-19169D01*
X55311Y-19085D01*
X55465Y-18931D01*
X55500Y-18846D01*
X55535Y-18931D01*
X55689Y-19085D01*
X55891Y-19169D01*
X56109Y-19169D01*
X56311Y-19085D01*
X56465Y-18931D01*
X56549Y-18729D01*
X56549Y-18511D01*
X56465Y-18309D01*
X56311Y-18155D01*
X56109Y-18071D01*
X55891Y-18071D01*
X55689Y-18155D01*
X55535Y-18309D01*
X55500Y-18393D01*
X55465Y-18309D01*
X55311Y-18155D01*
X55109Y-18071D01*
X54891Y-18071D01*
X54689Y-18155D01*
X54535Y-18309D01*
X54500Y-18393D01*
X54465Y-18309D01*
X54311Y-18155D01*
X54109Y-18071D01*
X53891Y-18071D01*
X53689Y-18155D01*
X53535Y-18309D01*
X53500Y-18393D01*
X53465Y-18309D01*
X53311Y-18155D01*
X53109Y-18071D01*
X52915Y-18071D01*
X52252Y-17408D01*
X52146Y-17337D01*
X52020Y-17312D01*
X51640Y-17312D01*
X51514Y-17337D01*
X51408Y-17408D01*
X50808Y-18008D01*
X50737Y-18114D01*
X50712Y-18240D01*
X50712Y-22080D01*
X50737Y-22206D01*
X50808Y-22312D01*
X51692Y-23196D01*
X51692Y-23398D01*
X51541Y-23247D01*
X51174Y-23094D01*
X50776Y-23094D01*
X50408Y-23246D01*
X50127Y-23527D01*
X49974Y-23894D01*
X49974Y-24292D01*
X50126Y-24660D01*
X50407Y-24941D01*
X50529Y-24992D01*
X50480Y-24992D01*
X50479Y-24992D01*
X50354Y-25017D01*
X50248Y-25088D01*
X50247Y-25088D01*
X50247Y-25089D01*
X50101Y-25235D01*
X50056Y-25235D01*
X49900Y-25299D01*
X49785Y-25414D01*
X49785Y-16885D01*
X64195Y-16885D01*
X64195Y-23725D01*
X64125Y-23696D01*
X64026Y-23696D01*
X63784Y-23696D01*
X63784Y-20654D01*
X63784Y-20256D01*
X63632Y-19888D01*
X63351Y-19607D01*
X62984Y-19454D01*
X62586Y-19454D01*
X62311Y-19567D01*
X62311Y-17778D01*
X62311Y-17476D01*
X62239Y-17282D01*
X62064Y-17094D01*
X61831Y-16987D01*
X61729Y-17033D01*
X61729Y-17577D01*
X62264Y-17577D01*
X62311Y-17476D01*
X62311Y-17778D01*
X62264Y-17677D01*
X61729Y-17677D01*
X61729Y-18221D01*
X61831Y-18267D01*
X62064Y-18160D01*
X62239Y-17972D01*
X62311Y-17778D01*
X62311Y-19567D01*
X62218Y-19606D01*
X61937Y-19887D01*
X61784Y-20254D01*
X61784Y-20652D01*
X61936Y-21020D01*
X62217Y-21301D01*
X62584Y-21454D01*
X62982Y-21454D01*
X63350Y-21302D01*
X63631Y-21021D01*
X63784Y-20654D01*
X63784Y-23696D01*
X63476Y-23696D01*
X63384Y-23734D01*
X63314Y-23804D01*
X63276Y-23895D01*
X63276Y-23994D01*
X63276Y-24544D01*
X63314Y-24636D01*
X63384Y-24706D01*
X63475Y-24744D01*
X63574Y-24744D01*
X64124Y-24744D01*
X64195Y-24714D01*
X64195Y-24920D01*
X64127Y-24852D01*
X64095Y-24883D01*
X64087Y-24848D01*
X63894Y-24781D01*
X63690Y-24792D01*
X63553Y-24848D01*
X63530Y-24939D01*
X63785Y-25194D01*
X63820Y-25229D01*
X63891Y-25300D01*
X63820Y-25371D01*
X63785Y-25406D01*
X63749Y-25442D01*
X63749Y-25300D01*
X63459Y-25010D01*
X63368Y-25033D01*
X63301Y-25226D01*
X63312Y-25430D01*
X63368Y-25567D01*
X63459Y-25590D01*
X63749Y-25300D01*
X63749Y-25442D01*
X63530Y-25661D01*
X63553Y-25752D01*
X63746Y-25819D01*
X63950Y-25808D01*
X64087Y-25752D01*
X64095Y-25716D01*
X64110Y-25731D01*
X64127Y-25748D01*
X64195Y-25680D01*
X64195Y-35022D01*
X64110Y-34937D01*
X64085Y-34912D01*
X63853Y-34815D01*
X63853Y-29100D01*
X63853Y-28702D01*
X63701Y-28334D01*
X63420Y-28053D01*
X63053Y-27900D01*
X62655Y-27900D01*
X62287Y-28052D01*
X62006Y-28333D01*
X61853Y-28700D01*
X61853Y-29098D01*
X62005Y-29466D01*
X62286Y-29747D01*
X62653Y-29900D01*
X63051Y-29900D01*
X63419Y-29748D01*
X63700Y-29467D01*
X63853Y-29100D01*
X63853Y-34815D01*
X63836Y-34808D01*
X63566Y-34808D01*
X63316Y-34911D01*
X63125Y-35102D01*
X63021Y-35351D01*
X63021Y-35621D01*
X63021Y-35647D01*
X63124Y-35897D01*
X63315Y-36088D01*
X63564Y-36192D01*
X63834Y-36192D01*
X64084Y-36089D01*
X64195Y-35978D01*
X64195Y-50635D01*
X64195Y-50635D01*
G37*
G54D25*
X64195Y-50635D02*
X64145Y-50635D01*
X64145Y-41485D01*
X64145Y-41316D01*
X64081Y-41160D01*
X63961Y-41040D01*
X63852Y-40994D01*
X63019Y-39681D01*
X63019Y-37004D01*
X63019Y-36594D01*
X62867Y-36238D01*
X62590Y-35967D01*
X62251Y-35833D01*
X62097Y-35875D01*
X62097Y-36749D01*
X62977Y-36749D01*
X63019Y-36594D01*
X63019Y-37004D01*
X62977Y-36849D01*
X62097Y-36849D01*
X62097Y-37723D01*
X62251Y-37765D01*
X62590Y-37631D01*
X62867Y-37360D01*
X63019Y-37004D01*
X63019Y-39681D01*
X62957Y-39584D01*
X62932Y-39557D01*
X62912Y-39528D01*
X62888Y-39511D01*
X62868Y-39491D01*
X62835Y-39476D01*
X62806Y-39457D01*
X62778Y-39451D01*
X62752Y-39440D01*
X62716Y-39439D01*
X62680Y-39432D01*
X61997Y-39432D01*
X61997Y-37723D01*
X61997Y-36849D01*
X61997Y-36749D01*
X61997Y-35875D01*
X61843Y-35833D01*
X61504Y-35967D01*
X61366Y-36102D01*
X61366Y-35705D01*
X61324Y-35550D01*
X60444Y-35550D01*
X60444Y-36424D01*
X60598Y-36466D01*
X60937Y-36332D01*
X61214Y-36061D01*
X61366Y-35705D01*
X61366Y-36102D01*
X61227Y-36238D01*
X61075Y-36594D01*
X61117Y-36749D01*
X61997Y-36749D01*
X61997Y-36849D01*
X61117Y-36849D01*
X61075Y-37004D01*
X61227Y-37360D01*
X61504Y-37631D01*
X61843Y-37765D01*
X61997Y-37723D01*
X61997Y-39432D01*
X60344Y-39432D01*
X59053Y-39432D01*
X59021Y-39400D01*
X58865Y-39335D01*
X58696Y-39335D01*
X58540Y-39399D01*
X58420Y-39519D01*
X58355Y-39675D01*
X58355Y-39844D01*
X58406Y-39969D01*
X58372Y-39992D01*
X58370Y-39994D01*
X58072Y-40291D01*
X58072Y-37004D01*
X58030Y-36849D01*
X57150Y-36849D01*
X57150Y-37723D01*
X57304Y-37765D01*
X57643Y-37631D01*
X57920Y-37360D01*
X58072Y-37004D01*
X58072Y-40291D01*
X58062Y-40301D01*
X58020Y-40319D01*
X57900Y-40439D01*
X57835Y-40595D01*
X57835Y-40764D01*
X57899Y-40920D01*
X58019Y-41040D01*
X58175Y-41105D01*
X58342Y-41105D01*
X58165Y-41282D01*
X58061Y-41531D01*
X58061Y-41801D01*
X58061Y-41827D01*
X58164Y-42077D01*
X58355Y-42268D01*
X58604Y-42372D01*
X58874Y-42372D01*
X59124Y-42269D01*
X59315Y-42078D01*
X59419Y-41829D01*
X59419Y-41559D01*
X59419Y-41533D01*
X59316Y-41283D01*
X59125Y-41092D01*
X58876Y-40988D01*
X58606Y-40988D01*
X58515Y-41025D01*
X58620Y-40921D01*
X58638Y-40877D01*
X58828Y-40687D01*
X59211Y-40687D01*
X59255Y-40705D01*
X59424Y-40705D01*
X59580Y-40641D01*
X59700Y-40521D01*
X59765Y-40365D01*
X59765Y-40196D01*
X59720Y-40088D01*
X62499Y-40088D01*
X63295Y-41341D01*
X63295Y-41484D01*
X63359Y-41640D01*
X63479Y-41760D01*
X63635Y-41825D01*
X63804Y-41825D01*
X63960Y-41761D01*
X64080Y-41641D01*
X64145Y-41485D01*
X64145Y-50635D01*
X62189Y-50635D01*
X62189Y-50210D01*
X62189Y-50111D01*
X62189Y-49511D01*
X62189Y-45969D01*
X62189Y-45751D01*
X62105Y-45549D01*
X62065Y-45509D01*
X62065Y-43025D01*
X62065Y-42856D01*
X62001Y-42700D01*
X61881Y-42580D01*
X61725Y-42515D01*
X61556Y-42515D01*
X61512Y-42533D01*
X60548Y-42533D01*
X60505Y-42515D01*
X60336Y-42515D01*
X60180Y-42579D01*
X60060Y-42699D01*
X59995Y-42855D01*
X59995Y-43024D01*
X60059Y-43180D01*
X60179Y-43300D01*
X60335Y-43365D01*
X60504Y-43365D01*
X60547Y-43347D01*
X61511Y-43347D01*
X61555Y-43365D01*
X61724Y-43365D01*
X61880Y-43301D01*
X62000Y-43181D01*
X62065Y-43025D01*
X62065Y-45509D01*
X61951Y-45395D01*
X61749Y-45311D01*
X61531Y-45311D01*
X61329Y-45395D01*
X61175Y-45549D01*
X61140Y-45633D01*
X61105Y-45549D01*
X60951Y-45395D01*
X60749Y-45311D01*
X60531Y-45311D01*
X60329Y-45395D01*
X60175Y-45549D01*
X60091Y-45751D01*
X60091Y-45969D01*
X60175Y-46171D01*
X60329Y-46325D01*
X60420Y-46362D01*
X60359Y-46388D01*
X60332Y-46482D01*
X60640Y-46789D01*
X60948Y-46482D01*
X60921Y-46388D01*
X60855Y-46364D01*
X60951Y-46325D01*
X61105Y-46171D01*
X61140Y-46086D01*
X61175Y-46171D01*
X61329Y-46325D01*
X61420Y-46362D01*
X61359Y-46388D01*
X61332Y-46482D01*
X61640Y-46789D01*
X61948Y-46482D01*
X61921Y-46388D01*
X61855Y-46364D01*
X61951Y-46325D01*
X62105Y-46171D01*
X62189Y-45969D01*
X62189Y-49511D01*
X62183Y-49496D01*
X62183Y-48939D01*
X62183Y-47939D01*
X62183Y-46939D01*
X62172Y-46726D01*
X62112Y-46579D01*
X62018Y-46552D01*
X61711Y-46860D01*
X62018Y-47168D01*
X62112Y-47141D01*
X62183Y-46939D01*
X62183Y-47939D01*
X62172Y-47726D01*
X62112Y-47579D01*
X62018Y-47552D01*
X61948Y-47622D01*
X61948Y-47482D01*
X61921Y-47388D01*
X61847Y-47362D01*
X61921Y-47332D01*
X61948Y-47238D01*
X61640Y-46931D01*
X61569Y-47001D01*
X61569Y-46860D01*
X61262Y-46552D01*
X61168Y-46579D01*
X61142Y-46652D01*
X61112Y-46579D01*
X61018Y-46552D01*
X60711Y-46860D01*
X61018Y-47168D01*
X61112Y-47141D01*
X61137Y-47067D01*
X61168Y-47141D01*
X61262Y-47168D01*
X61569Y-46860D01*
X61569Y-47001D01*
X61332Y-47238D01*
X61359Y-47332D01*
X61432Y-47357D01*
X61359Y-47388D01*
X61332Y-47482D01*
X61640Y-47789D01*
X61948Y-47482D01*
X61948Y-47622D01*
X61711Y-47860D01*
X62018Y-48168D01*
X62112Y-48141D01*
X62183Y-47939D01*
X62183Y-48939D01*
X62172Y-48726D01*
X62112Y-48579D01*
X62018Y-48552D01*
X61948Y-48622D01*
X61948Y-48482D01*
X61921Y-48388D01*
X61847Y-48362D01*
X61921Y-48332D01*
X61948Y-48238D01*
X61640Y-47931D01*
X61569Y-48001D01*
X61569Y-47860D01*
X61262Y-47552D01*
X61168Y-47579D01*
X61142Y-47652D01*
X61112Y-47579D01*
X61018Y-47552D01*
X60948Y-47622D01*
X60948Y-47482D01*
X60921Y-47388D01*
X60847Y-47362D01*
X60921Y-47332D01*
X60948Y-47238D01*
X60640Y-46931D01*
X60569Y-47001D01*
X60569Y-46860D01*
X60262Y-46552D01*
X60168Y-46579D01*
X60097Y-46781D01*
X60108Y-46994D01*
X60168Y-47141D01*
X60262Y-47168D01*
X60569Y-46860D01*
X60569Y-47001D01*
X60332Y-47238D01*
X60359Y-47332D01*
X60432Y-47357D01*
X60359Y-47388D01*
X60332Y-47482D01*
X60640Y-47789D01*
X60948Y-47482D01*
X60948Y-47622D01*
X60711Y-47860D01*
X61018Y-48168D01*
X61112Y-48141D01*
X61137Y-48067D01*
X61168Y-48141D01*
X61262Y-48168D01*
X61569Y-47860D01*
X61569Y-48001D01*
X61332Y-48238D01*
X61359Y-48332D01*
X61432Y-48357D01*
X61359Y-48388D01*
X61332Y-48482D01*
X61640Y-48789D01*
X61948Y-48482D01*
X61948Y-48622D01*
X61711Y-48860D01*
X62018Y-49168D01*
X62112Y-49141D01*
X62183Y-48939D01*
X62183Y-49496D01*
X62151Y-49419D01*
X62081Y-49349D01*
X61990Y-49311D01*
X61927Y-49311D01*
X61948Y-49238D01*
X61640Y-48931D01*
X61569Y-49001D01*
X61569Y-48860D01*
X61262Y-48552D01*
X61168Y-48579D01*
X61142Y-48652D01*
X61112Y-48579D01*
X61018Y-48552D01*
X60948Y-48622D01*
X60948Y-48482D01*
X60921Y-48388D01*
X60847Y-48362D01*
X60921Y-48332D01*
X60948Y-48238D01*
X60640Y-47931D01*
X60569Y-48001D01*
X60569Y-47860D01*
X60262Y-47552D01*
X60168Y-47579D01*
X60097Y-47781D01*
X60108Y-47994D01*
X60168Y-48141D01*
X60262Y-48168D01*
X60569Y-47860D01*
X60569Y-48001D01*
X60332Y-48238D01*
X60359Y-48332D01*
X60432Y-48357D01*
X60359Y-48388D01*
X60332Y-48482D01*
X60640Y-48789D01*
X60948Y-48482D01*
X60948Y-48622D01*
X60711Y-48860D01*
X61018Y-49168D01*
X61112Y-49141D01*
X61137Y-49067D01*
X61168Y-49141D01*
X61262Y-49168D01*
X61569Y-48860D01*
X61569Y-49001D01*
X61332Y-49238D01*
X61352Y-49311D01*
X61291Y-49311D01*
X61199Y-49349D01*
X61129Y-49419D01*
X61091Y-49510D01*
X61091Y-49535D01*
X60951Y-49395D01*
X60859Y-49357D01*
X60921Y-49332D01*
X60948Y-49238D01*
X60640Y-48931D01*
X60569Y-49001D01*
X60569Y-48860D01*
X60262Y-48552D01*
X60168Y-48579D01*
X60097Y-48781D01*
X60108Y-48994D01*
X60168Y-49141D01*
X60262Y-49168D01*
X60569Y-48860D01*
X60569Y-49001D01*
X60332Y-49238D01*
X60359Y-49332D01*
X60424Y-49355D01*
X60329Y-49395D01*
X60175Y-49549D01*
X60091Y-49751D01*
X60091Y-49969D01*
X60175Y-50171D01*
X60329Y-50325D01*
X60531Y-50409D01*
X60749Y-50409D01*
X60951Y-50325D01*
X61091Y-50185D01*
X61091Y-50209D01*
X61129Y-50301D01*
X61199Y-50371D01*
X61290Y-50409D01*
X61389Y-50409D01*
X61989Y-50409D01*
X62081Y-50371D01*
X62151Y-50301D01*
X62189Y-50210D01*
X62189Y-50635D01*
X56779Y-50635D01*
X56779Y-48174D01*
X56768Y-47970D01*
X56712Y-47833D01*
X56621Y-47810D01*
X56550Y-47881D01*
X56550Y-47739D01*
X56527Y-47648D01*
X56334Y-47581D01*
X56130Y-47592D01*
X55993Y-47648D01*
X55970Y-47739D01*
X56260Y-48029D01*
X56550Y-47739D01*
X56550Y-47881D01*
X56331Y-48100D01*
X56621Y-48390D01*
X56712Y-48367D01*
X56779Y-48174D01*
X56779Y-50635D01*
X56550Y-50635D01*
X56550Y-48461D01*
X56260Y-48171D01*
X56189Y-48242D01*
X56189Y-48100D01*
X55899Y-47810D01*
X55808Y-47833D01*
X55741Y-48026D01*
X55752Y-48230D01*
X55808Y-48367D01*
X55899Y-48390D01*
X56189Y-48100D01*
X56189Y-48242D01*
X55970Y-48461D01*
X55993Y-48552D01*
X56186Y-48619D01*
X56390Y-48608D01*
X56527Y-48552D01*
X56550Y-48461D01*
X56550Y-50635D01*
X51379Y-50635D01*
X51379Y-48234D01*
X51368Y-48030D01*
X51312Y-47893D01*
X51221Y-47870D01*
X51150Y-47941D01*
X51150Y-47799D01*
X51127Y-47708D01*
X50934Y-47641D01*
X50730Y-47652D01*
X50593Y-47708D01*
X50570Y-47799D01*
X50860Y-48089D01*
X51150Y-47799D01*
X51150Y-47941D01*
X50931Y-48160D01*
X51221Y-48450D01*
X51312Y-48427D01*
X51379Y-48234D01*
X51379Y-50635D01*
X51150Y-50635D01*
X51150Y-48521D01*
X50860Y-48231D01*
X50789Y-48302D01*
X50789Y-48160D01*
X50499Y-47870D01*
X50408Y-47893D01*
X50341Y-48086D01*
X50352Y-48290D01*
X50408Y-48427D01*
X50499Y-48450D01*
X50789Y-48160D01*
X50789Y-48302D01*
X50570Y-48521D01*
X50593Y-48612D01*
X50786Y-48679D01*
X50990Y-48668D01*
X51127Y-48612D01*
X51150Y-48521D01*
X51150Y-50635D01*
X49785Y-50635D01*
X49785Y-36151D01*
X49969Y-36332D01*
X50308Y-36466D01*
X50462Y-36424D01*
X50462Y-35600D01*
X50462Y-35550D01*
X50462Y-35450D01*
X50462Y-35400D01*
X50462Y-34576D01*
X50308Y-34534D01*
X49969Y-34668D01*
X49785Y-34848D01*
X49785Y-25906D01*
X49899Y-26020D01*
X50055Y-26085D01*
X50224Y-26085D01*
X50380Y-26021D01*
X50500Y-25901D01*
X50565Y-25745D01*
X50565Y-25699D01*
X50616Y-25648D01*
X51320Y-25648D01*
X51445Y-25623D01*
X51446Y-25623D01*
X51552Y-25552D01*
X52251Y-24853D01*
X52251Y-24852D01*
X52252Y-24852D01*
X52323Y-24746D01*
X52347Y-24621D01*
X52348Y-24620D01*
X52348Y-23060D01*
X52347Y-23059D01*
X52323Y-22934D01*
X52252Y-22828D01*
X52251Y-22827D01*
X51368Y-21944D01*
X51368Y-21658D01*
X51517Y-21807D01*
X51751Y-21905D01*
X52005Y-21905D01*
X52029Y-21905D01*
X52054Y-21894D01*
X52572Y-22412D01*
X52678Y-22483D01*
X52679Y-22483D01*
X52804Y-22508D01*
X53166Y-22508D01*
X53140Y-22519D01*
X53020Y-22639D01*
X52955Y-22795D01*
X52955Y-22964D01*
X53019Y-23120D01*
X53139Y-23240D01*
X53295Y-23305D01*
X53341Y-23305D01*
X53591Y-23554D01*
X53420Y-29338D01*
X53380Y-29379D01*
X53327Y-29503D01*
X52388Y-28564D01*
X52388Y-28330D01*
X52460Y-28301D01*
X52580Y-28181D01*
X52645Y-28025D01*
X52645Y-27856D01*
X52581Y-27700D01*
X52461Y-27580D01*
X52305Y-27515D01*
X52136Y-27515D01*
X51980Y-27579D01*
X51860Y-27699D01*
X51795Y-27855D01*
X51795Y-27917D01*
X51757Y-27974D01*
X51732Y-28100D01*
X51732Y-28700D01*
X51757Y-28826D01*
X51828Y-28932D01*
X53772Y-30876D01*
X53772Y-32280D01*
X53797Y-32406D01*
X53868Y-32512D01*
X55155Y-33799D01*
X55155Y-33844D01*
X55219Y-34000D01*
X55251Y-34032D01*
X54660Y-34032D01*
X54534Y-34057D01*
X54428Y-34128D01*
X54344Y-34212D01*
X53688Y-34212D01*
X53688Y-32960D01*
X53663Y-32835D01*
X53663Y-32834D01*
X53592Y-32728D01*
X53005Y-32141D01*
X53005Y-32096D01*
X52941Y-31940D01*
X52821Y-31820D01*
X52665Y-31755D01*
X52496Y-31755D01*
X52340Y-31819D01*
X52220Y-31939D01*
X52155Y-32095D01*
X52155Y-32264D01*
X52219Y-32420D01*
X52339Y-32540D01*
X52495Y-32605D01*
X52541Y-32605D01*
X52633Y-32697D01*
X52358Y-32583D01*
X51973Y-32583D01*
X51617Y-32730D01*
X51344Y-33003D01*
X51196Y-33359D01*
X51196Y-33744D01*
X51196Y-33782D01*
X51343Y-34138D01*
X51616Y-34411D01*
X51972Y-34559D01*
X52275Y-34559D01*
X52235Y-34655D01*
X52235Y-34824D01*
X52251Y-34865D01*
X51484Y-35631D01*
X51484Y-35295D01*
X51332Y-34939D01*
X51055Y-34668D01*
X50716Y-34534D01*
X50562Y-34576D01*
X50562Y-35450D01*
X51442Y-35450D01*
X51484Y-35295D01*
X51484Y-35631D01*
X51468Y-35647D01*
X51442Y-35550D01*
X50562Y-35550D01*
X50562Y-36424D01*
X50664Y-36451D01*
X50408Y-36708D01*
X50337Y-36814D01*
X50312Y-36940D01*
X50312Y-40620D01*
X50337Y-40746D01*
X50408Y-40852D01*
X51592Y-42036D01*
X51592Y-44765D01*
X51525Y-44832D01*
X51382Y-44832D01*
X51346Y-44744D01*
X51276Y-44674D01*
X51185Y-44636D01*
X51086Y-44636D01*
X50536Y-44636D01*
X50444Y-44674D01*
X50374Y-44744D01*
X50336Y-44835D01*
X50336Y-44934D01*
X50336Y-45484D01*
X50374Y-45576D01*
X50444Y-45646D01*
X50535Y-45684D01*
X50634Y-45684D01*
X51184Y-45684D01*
X51276Y-45646D01*
X51346Y-45576D01*
X51382Y-45488D01*
X51485Y-45488D01*
X51622Y-45625D01*
X51815Y-45705D01*
X52024Y-45705D01*
X52217Y-45625D01*
X52365Y-45478D01*
X52445Y-45285D01*
X52445Y-45076D01*
X52365Y-44883D01*
X52248Y-44765D01*
X52248Y-41900D01*
X52223Y-41775D01*
X52223Y-41774D01*
X52152Y-41668D01*
X50979Y-40495D01*
X51181Y-40579D01*
X51419Y-40579D01*
X51639Y-40488D01*
X51714Y-40412D01*
X51739Y-40471D01*
X51809Y-40541D01*
X51900Y-40579D01*
X51999Y-40579D01*
X52188Y-40580D01*
X52250Y-40518D01*
X52250Y-40080D01*
X52250Y-40030D01*
X52250Y-39930D01*
X52250Y-39880D01*
X52250Y-39442D01*
X52188Y-39380D01*
X52115Y-39380D01*
X51999Y-39381D01*
X51900Y-39381D01*
X51809Y-39419D01*
X51739Y-39489D01*
X51714Y-39547D01*
X51639Y-39472D01*
X51419Y-39381D01*
X51181Y-39381D01*
X50968Y-39469D01*
X50968Y-37075D01*
X51177Y-36866D01*
X51177Y-36899D01*
X51221Y-36899D01*
X51193Y-37004D01*
X51345Y-37360D01*
X51622Y-37631D01*
X51961Y-37765D01*
X52115Y-37723D01*
X52115Y-36899D01*
X52115Y-36849D01*
X52115Y-36749D01*
X52215Y-36749D01*
X52215Y-36849D01*
X52215Y-36899D01*
X52215Y-37723D01*
X52369Y-37765D01*
X52708Y-37631D01*
X52972Y-37372D01*
X52972Y-39467D01*
X52961Y-39472D01*
X52885Y-39547D01*
X52861Y-39489D01*
X52791Y-39419D01*
X52700Y-39381D01*
X52601Y-39381D01*
X52412Y-39380D01*
X52350Y-39442D01*
X52350Y-39880D01*
X52350Y-39930D01*
X52350Y-40030D01*
X52350Y-40080D01*
X52350Y-40518D01*
X52412Y-40580D01*
X52601Y-40579D01*
X52700Y-40579D01*
X52791Y-40541D01*
X52861Y-40471D01*
X52885Y-40412D01*
X52961Y-40488D01*
X52972Y-40492D01*
X52972Y-45124D01*
X51688Y-46408D01*
X51617Y-46514D01*
X51592Y-46640D01*
X51592Y-47657D01*
X51504Y-47694D01*
X51434Y-47764D01*
X51396Y-47855D01*
X51396Y-47954D01*
X51396Y-48504D01*
X51434Y-48596D01*
X51504Y-48666D01*
X51595Y-48704D01*
X51694Y-48704D01*
X52244Y-48704D01*
X52336Y-48666D01*
X52406Y-48596D01*
X52442Y-48508D01*
X54602Y-48508D01*
X54614Y-48536D01*
X54684Y-48606D01*
X54775Y-48644D01*
X54874Y-48644D01*
X55424Y-48644D01*
X55516Y-48606D01*
X55586Y-48536D01*
X55624Y-48445D01*
X55624Y-48346D01*
X55624Y-47796D01*
X55586Y-47704D01*
X55516Y-47634D01*
X55483Y-47620D01*
X58328Y-44774D01*
X58331Y-44772D01*
X58332Y-44772D01*
X58403Y-44666D01*
X58428Y-44540D01*
X58428Y-43855D01*
X58678Y-43605D01*
X58724Y-43605D01*
X58880Y-43541D01*
X59000Y-43421D01*
X59065Y-43265D01*
X59065Y-43096D01*
X59001Y-42940D01*
X58881Y-42820D01*
X58725Y-42755D01*
X58556Y-42755D01*
X58400Y-42819D01*
X58280Y-42939D01*
X58215Y-43095D01*
X58215Y-43141D01*
X57974Y-43381D01*
X58059Y-43184D01*
X58059Y-42774D01*
X57907Y-42418D01*
X57630Y-42147D01*
X57291Y-42013D01*
X57137Y-42055D01*
X57137Y-42929D01*
X58017Y-42929D01*
X58059Y-42774D01*
X58059Y-43184D01*
X58017Y-43029D01*
X57137Y-43029D01*
X57137Y-43903D01*
X57291Y-43945D01*
X57630Y-43811D01*
X57783Y-43660D01*
X57772Y-43720D01*
X57772Y-44404D01*
X56784Y-45392D01*
X56784Y-45326D01*
X56784Y-44776D01*
X56746Y-44684D01*
X56676Y-44614D01*
X56585Y-44576D01*
X56486Y-44576D01*
X56328Y-44576D01*
X56328Y-43599D01*
X56544Y-43811D01*
X56883Y-43945D01*
X57037Y-43903D01*
X57037Y-43079D01*
X57037Y-43029D01*
X57037Y-42929D01*
X57037Y-42879D01*
X57037Y-42055D01*
X56883Y-42013D01*
X56728Y-42074D01*
X56728Y-40720D01*
X56717Y-40665D01*
X56894Y-40739D01*
X57279Y-40739D01*
X57635Y-40592D01*
X57908Y-40319D01*
X58056Y-39963D01*
X58056Y-39578D01*
X58056Y-39540D01*
X57909Y-39184D01*
X57636Y-38911D01*
X57280Y-38763D01*
X57050Y-38763D01*
X57050Y-37723D01*
X57050Y-36849D01*
X56170Y-36849D01*
X56128Y-37004D01*
X56280Y-37360D01*
X56557Y-37631D01*
X56896Y-37765D01*
X57050Y-37723D01*
X57050Y-38763D01*
X56895Y-38763D01*
X56539Y-38910D01*
X56266Y-39183D01*
X56118Y-39539D01*
X56118Y-39924D01*
X56118Y-39962D01*
X56126Y-39982D01*
X56088Y-39944D01*
X56088Y-36775D01*
X56158Y-36705D01*
X56170Y-36749D01*
X57000Y-36749D01*
X57050Y-36749D01*
X57150Y-36749D01*
X57200Y-36749D01*
X58030Y-36749D01*
X58072Y-36594D01*
X57920Y-36238D01*
X57643Y-35967D01*
X57509Y-35914D01*
X57919Y-35505D01*
X57964Y-35505D01*
X58074Y-35459D01*
X58074Y-35621D01*
X58074Y-35647D01*
X58177Y-35897D01*
X58368Y-36088D01*
X58617Y-36192D01*
X58887Y-36192D01*
X59137Y-36089D01*
X59328Y-35898D01*
X59432Y-35649D01*
X59432Y-35600D01*
X59450Y-35600D01*
X59422Y-35705D01*
X59574Y-36061D01*
X59851Y-36332D01*
X60190Y-36466D01*
X60344Y-36424D01*
X60344Y-35600D01*
X60344Y-35550D01*
X60344Y-35450D01*
X60444Y-35450D01*
X60494Y-35450D01*
X61324Y-35450D01*
X61366Y-35295D01*
X61214Y-34939D01*
X60937Y-34668D01*
X60598Y-34534D01*
X60494Y-34562D01*
X60494Y-34512D01*
X60472Y-34512D01*
X61085Y-33899D01*
X61126Y-33899D01*
X61225Y-34138D01*
X61498Y-34411D01*
X61854Y-34559D01*
X62239Y-34559D01*
X62595Y-34412D01*
X62868Y-34139D01*
X63016Y-33783D01*
X63016Y-33398D01*
X63016Y-33360D01*
X62869Y-33004D01*
X62596Y-32731D01*
X62240Y-32583D01*
X61901Y-32583D01*
X62150Y-32333D01*
X62309Y-32268D01*
X62488Y-32089D01*
X62586Y-31855D01*
X62586Y-31601D01*
X62489Y-31366D01*
X62310Y-31187D01*
X62076Y-31089D01*
X61822Y-31089D01*
X61798Y-31089D01*
X61563Y-31186D01*
X61444Y-31305D01*
X61344Y-31205D01*
X61344Y-25625D01*
X61344Y-25526D01*
X61344Y-24976D01*
X61325Y-24930D01*
X61325Y-24325D01*
X61325Y-24116D01*
X61245Y-23923D01*
X61098Y-23775D01*
X60905Y-23695D01*
X60696Y-23695D01*
X60503Y-23775D01*
X60355Y-23922D01*
X60275Y-24115D01*
X60275Y-24324D01*
X60355Y-24517D01*
X60502Y-24665D01*
X60695Y-24745D01*
X60904Y-24745D01*
X61097Y-24665D01*
X61245Y-24518D01*
X61325Y-24325D01*
X61325Y-24930D01*
X61306Y-24884D01*
X61236Y-24814D01*
X61145Y-24776D01*
X61046Y-24776D01*
X60496Y-24776D01*
X60404Y-24814D01*
X60334Y-24884D01*
X60296Y-24975D01*
X60296Y-25074D01*
X60296Y-25624D01*
X60334Y-25716D01*
X60404Y-25786D01*
X60450Y-25805D01*
X59794Y-26461D01*
X59794Y-20654D01*
X59794Y-20256D01*
X59642Y-19888D01*
X59361Y-19607D01*
X58994Y-19454D01*
X58596Y-19454D01*
X58228Y-19606D01*
X57947Y-19887D01*
X57794Y-20254D01*
X57794Y-20652D01*
X57946Y-21020D01*
X58227Y-21301D01*
X58594Y-21454D01*
X58992Y-21454D01*
X59360Y-21302D01*
X59641Y-21021D01*
X59794Y-20654D01*
X59794Y-26461D01*
X58644Y-27612D01*
X56620Y-27612D01*
X56619Y-27612D01*
X56494Y-27637D01*
X56388Y-27708D01*
X56387Y-27708D01*
X56387Y-27709D01*
X56241Y-27855D01*
X56196Y-27855D01*
X56040Y-27919D01*
X55920Y-28039D01*
X55855Y-28195D01*
X55855Y-28364D01*
X55919Y-28520D01*
X56039Y-28640D01*
X56195Y-28705D01*
X56364Y-28705D01*
X56520Y-28641D01*
X56640Y-28521D01*
X56705Y-28365D01*
X56705Y-28319D01*
X56756Y-28268D01*
X58081Y-28268D01*
X58016Y-28333D01*
X57863Y-28700D01*
X57863Y-29098D01*
X58015Y-29466D01*
X58296Y-29747D01*
X58663Y-29900D01*
X59061Y-29900D01*
X59429Y-29748D01*
X59710Y-29467D01*
X59863Y-29100D01*
X59863Y-28702D01*
X59711Y-28334D01*
X59430Y-28053D01*
X59218Y-27965D01*
X61051Y-26133D01*
X61051Y-26132D01*
X61052Y-26132D01*
X61123Y-26026D01*
X61147Y-25901D01*
X61148Y-25900D01*
X61148Y-25822D01*
X61236Y-25786D01*
X61306Y-25716D01*
X61344Y-25625D01*
X61344Y-31205D01*
X61326Y-31187D01*
X61092Y-31089D01*
X60838Y-31089D01*
X60814Y-31089D01*
X60579Y-31186D01*
X60458Y-31306D01*
X60353Y-31194D01*
X60120Y-31087D01*
X60018Y-31133D01*
X60018Y-31627D01*
X60018Y-31677D01*
X60018Y-31777D01*
X59918Y-31777D01*
X59918Y-31677D01*
X59918Y-31133D01*
X59816Y-31087D01*
X59583Y-31194D01*
X59408Y-31382D01*
X59336Y-31576D01*
X59383Y-31677D01*
X59918Y-31677D01*
X59918Y-31777D01*
X59868Y-31777D01*
X59383Y-31777D01*
X59336Y-31878D01*
X59408Y-32072D01*
X59583Y-32260D01*
X59783Y-32352D01*
X58596Y-32352D01*
X57432Y-31188D01*
X57326Y-31117D01*
X57200Y-31092D01*
X55356Y-31092D01*
X55285Y-31021D01*
X55285Y-30976D01*
X55226Y-30833D01*
X55300Y-30848D01*
X56920Y-30848D01*
X57045Y-30823D01*
X57046Y-30823D01*
X57152Y-30752D01*
X57299Y-30605D01*
X57344Y-30605D01*
X57500Y-30541D01*
X57620Y-30421D01*
X57685Y-30265D01*
X57685Y-30096D01*
X57621Y-29940D01*
X57501Y-29820D01*
X57345Y-29755D01*
X57176Y-29755D01*
X57075Y-29796D01*
X57061Y-29760D01*
X56941Y-29640D01*
X56785Y-29575D01*
X56616Y-29575D01*
X56517Y-29615D01*
X56245Y-29306D01*
X56245Y-29236D01*
X56181Y-29080D01*
X56061Y-28960D01*
X55905Y-28895D01*
X55736Y-28895D01*
X55580Y-28959D01*
X55460Y-29079D01*
X55395Y-29235D01*
X55395Y-29404D01*
X55459Y-29560D01*
X55579Y-29680D01*
X55735Y-29745D01*
X55757Y-29745D01*
X56150Y-30192D01*
X55436Y-30192D01*
X54565Y-29321D01*
X54565Y-29276D01*
X54501Y-29120D01*
X54381Y-29000D01*
X54225Y-28935D01*
X54088Y-28935D01*
X54212Y-24756D01*
X54397Y-24941D01*
X54764Y-25094D01*
X55162Y-25094D01*
X55530Y-24942D01*
X55811Y-24661D01*
X55964Y-24294D01*
X55964Y-23947D01*
X55972Y-23950D01*
X55972Y-26667D01*
X55940Y-26699D01*
X55875Y-26855D01*
X55875Y-27024D01*
X55939Y-27180D01*
X56059Y-27300D01*
X56215Y-27365D01*
X56384Y-27365D01*
X56540Y-27301D01*
X56660Y-27181D01*
X56725Y-27025D01*
X56725Y-26856D01*
X56661Y-26700D01*
X56628Y-26667D01*
X56628Y-23720D01*
X56603Y-23595D01*
X56603Y-23594D01*
X56565Y-23537D01*
X56565Y-23476D01*
X56501Y-23320D01*
X56381Y-23200D01*
X56225Y-23135D01*
X56056Y-23135D01*
X55900Y-23199D01*
X55780Y-23319D01*
X55727Y-23443D01*
X55531Y-23247D01*
X55164Y-23094D01*
X54766Y-23094D01*
X54398Y-23246D01*
X54246Y-23397D01*
X54231Y-23304D01*
X54163Y-23196D01*
X54151Y-23188D01*
X54149Y-23186D01*
X53805Y-22841D01*
X53805Y-22796D01*
X53741Y-22640D01*
X53621Y-22520D01*
X53592Y-22508D01*
X53940Y-22508D01*
X54065Y-22483D01*
X54066Y-22483D01*
X54172Y-22412D01*
X55172Y-21412D01*
X55211Y-21352D01*
X55212Y-21351D01*
X58609Y-17955D01*
X59144Y-17955D01*
X59158Y-17988D01*
X59337Y-18167D01*
X59571Y-18265D01*
X59825Y-18265D01*
X59849Y-18265D01*
X60084Y-18168D01*
X60203Y-18049D01*
X60321Y-18167D01*
X60555Y-18265D01*
X60809Y-18265D01*
X60833Y-18265D01*
X61068Y-18168D01*
X61188Y-18047D01*
X61294Y-18160D01*
X61527Y-18267D01*
X61629Y-18221D01*
X61629Y-17727D01*
X61629Y-17677D01*
X61629Y-17577D01*
X61629Y-17527D01*
X61629Y-17033D01*
X61527Y-16987D01*
X61294Y-17094D01*
X61188Y-17206D01*
X61069Y-17087D01*
X60835Y-16989D01*
X60581Y-16989D01*
X60557Y-16989D01*
X60322Y-17086D01*
X60203Y-17205D01*
X60085Y-17087D01*
X59851Y-16989D01*
X59597Y-16989D01*
X59573Y-16989D01*
X59338Y-17086D01*
X59159Y-17265D01*
X59144Y-17299D01*
X58473Y-17299D01*
X58347Y-17324D01*
X58241Y-17395D01*
X54708Y-20928D01*
X54668Y-20987D01*
X54667Y-20988D01*
X54488Y-21167D01*
X54466Y-21167D01*
X54491Y-21116D01*
X54419Y-20922D01*
X54244Y-20734D01*
X54011Y-20627D01*
X53909Y-20673D01*
X53909Y-21167D01*
X53909Y-21217D01*
X53909Y-21317D01*
X53809Y-21317D01*
X53809Y-21217D01*
X53809Y-21167D01*
X53809Y-20673D01*
X53707Y-20627D01*
X53474Y-20734D01*
X53368Y-20846D01*
X53249Y-20727D01*
X53015Y-20629D01*
X52761Y-20629D01*
X52737Y-20629D01*
X52502Y-20726D01*
X52383Y-20845D01*
X52265Y-20727D01*
X52031Y-20629D01*
X51950Y-20629D01*
X51950Y-19108D01*
X51950Y-18670D01*
X51512Y-18670D01*
X51450Y-18732D01*
X51451Y-18871D01*
X51451Y-18970D01*
X51489Y-19061D01*
X51559Y-19131D01*
X51651Y-19169D01*
X51888Y-19170D01*
X51950Y-19108D01*
X51950Y-20629D01*
X51777Y-20629D01*
X51753Y-20629D01*
X51518Y-20726D01*
X51368Y-20876D01*
X51368Y-18376D01*
X51451Y-18293D01*
X51451Y-18369D01*
X51450Y-18508D01*
X51512Y-18570D01*
X51900Y-18570D01*
X51950Y-18570D01*
X52050Y-18570D01*
X52050Y-18670D01*
X52050Y-18720D01*
X52050Y-19108D01*
X52112Y-19170D01*
X52349Y-19169D01*
X52441Y-19131D01*
X52511Y-19061D01*
X52549Y-18970D01*
X52549Y-18945D01*
X52689Y-19085D01*
X52891Y-19169D01*
X53109Y-19169D01*
X53311Y-19085D01*
X53465Y-18931D01*
X53500Y-18846D01*
X53535Y-18931D01*
X53689Y-19085D01*
X53891Y-19169D01*
X54109Y-19169D01*
X54311Y-19085D01*
X54465Y-18931D01*
X54500Y-18846D01*
X54535Y-18931D01*
X54689Y-19085D01*
X54891Y-19169D01*
X55109Y-19169D01*
X55311Y-19085D01*
X55465Y-18931D01*
X55500Y-18846D01*
X55535Y-18931D01*
X55689Y-19085D01*
X55891Y-19169D01*
X56109Y-19169D01*
X56311Y-19085D01*
X56465Y-18931D01*
X56549Y-18729D01*
X56549Y-18511D01*
X56465Y-18309D01*
X56311Y-18155D01*
X56109Y-18071D01*
X55891Y-18071D01*
X55689Y-18155D01*
X55535Y-18309D01*
X55500Y-18393D01*
X55465Y-18309D01*
X55311Y-18155D01*
X55109Y-18071D01*
X54891Y-18071D01*
X54689Y-18155D01*
X54535Y-18309D01*
X54500Y-18393D01*
X54465Y-18309D01*
X54311Y-18155D01*
X54109Y-18071D01*
X53891Y-18071D01*
X53689Y-18155D01*
X53535Y-18309D01*
X53500Y-18393D01*
X53465Y-18309D01*
X53311Y-18155D01*
X53109Y-18071D01*
X52915Y-18071D01*
X52252Y-17408D01*
X52146Y-17337D01*
X52020Y-17312D01*
X51640Y-17312D01*
X51514Y-17337D01*
X51408Y-17408D01*
X50808Y-18008D01*
X50737Y-18114D01*
X50712Y-18240D01*
X50712Y-22080D01*
X50737Y-22206D01*
X50808Y-22312D01*
X51692Y-23196D01*
X51692Y-23398D01*
X51541Y-23247D01*
X51174Y-23094D01*
X50776Y-23094D01*
X50408Y-23246D01*
X50127Y-23527D01*
X49974Y-23894D01*
X49974Y-24292D01*
X50126Y-24660D01*
X50407Y-24941D01*
X50529Y-24992D01*
X50480Y-24992D01*
X50479Y-24992D01*
X50354Y-25017D01*
X50248Y-25088D01*
X50247Y-25088D01*
X50247Y-25089D01*
X50101Y-25235D01*
X50056Y-25235D01*
X49900Y-25299D01*
X49785Y-25414D01*
X49785Y-16885D01*
X64195Y-16885D01*
X64195Y-23725D01*
X64125Y-23696D01*
X64026Y-23696D01*
X63784Y-23696D01*
X63784Y-20654D01*
X63784Y-20256D01*
X63632Y-19888D01*
X63351Y-19607D01*
X62984Y-19454D01*
X62586Y-19454D01*
X62311Y-19567D01*
X62311Y-17778D01*
X62311Y-17476D01*
X62239Y-17282D01*
X62064Y-17094D01*
X61831Y-16987D01*
X61729Y-17033D01*
X61729Y-17577D01*
X62264Y-17577D01*
X62311Y-17476D01*
X62311Y-17778D01*
X62264Y-17677D01*
X61729Y-17677D01*
X61729Y-18221D01*
X61831Y-18267D01*
X62064Y-18160D01*
X62239Y-17972D01*
X62311Y-17778D01*
X62311Y-19567D01*
X62218Y-19606D01*
X61937Y-19887D01*
X61784Y-20254D01*
X61784Y-20652D01*
X61936Y-21020D01*
X62217Y-21301D01*
X62584Y-21454D01*
X62982Y-21454D01*
X63350Y-21302D01*
X63631Y-21021D01*
X63784Y-20654D01*
X63784Y-23696D01*
X63476Y-23696D01*
X63384Y-23734D01*
X63314Y-23804D01*
X63276Y-23895D01*
X63276Y-23994D01*
X63276Y-24544D01*
X63314Y-24636D01*
X63384Y-24706D01*
X63475Y-24744D01*
X63574Y-24744D01*
X64124Y-24744D01*
X64195Y-24714D01*
X64195Y-24920D01*
X64127Y-24852D01*
X64095Y-24883D01*
X64087Y-24848D01*
X63894Y-24781D01*
X63690Y-24792D01*
X63553Y-24848D01*
X63530Y-24939D01*
X63785Y-25194D01*
X63820Y-25229D01*
X63891Y-25300D01*
X63820Y-25371D01*
X63785Y-25406D01*
X63749Y-25442D01*
X63749Y-25300D01*
X63459Y-25010D01*
X63368Y-25033D01*
X63301Y-25226D01*
X63312Y-25430D01*
X63368Y-25567D01*
X63459Y-25590D01*
X63749Y-25300D01*
X63749Y-25442D01*
X63530Y-25661D01*
X63553Y-25752D01*
X63746Y-25819D01*
X63950Y-25808D01*
X64087Y-25752D01*
X64095Y-25716D01*
X64110Y-25731D01*
X64127Y-25748D01*
X64195Y-25680D01*
X64195Y-35022D01*
X64110Y-34937D01*
X64085Y-34912D01*
X63853Y-34815D01*
X63853Y-29100D01*
X63853Y-28702D01*
X63701Y-28334D01*
X63420Y-28053D01*
X63053Y-27900D01*
X62655Y-27900D01*
X62287Y-28052D01*
X62006Y-28333D01*
X61853Y-28700D01*
X61853Y-29098D01*
X62005Y-29466D01*
X62286Y-29747D01*
X62653Y-29900D01*
X63051Y-29900D01*
X63419Y-29748D01*
X63700Y-29467D01*
X63853Y-29100D01*
X63853Y-34815D01*
X63836Y-34808D01*
X63566Y-34808D01*
X63316Y-34911D01*
X63125Y-35102D01*
X63021Y-35351D01*
X63021Y-35621D01*
X63021Y-35647D01*
X63124Y-35897D01*
X63315Y-36088D01*
X63564Y-36192D01*
X63834Y-36192D01*
X64084Y-36089D01*
X64195Y-35978D01*
X64195Y-50635D01*
M02*
