G04 (created by PCBNEW-RS274X (2012-apr-16-27)-stable) date Thu 18 Jun 2015 14:37:37 CEST*
G01*
G70*
G90*
%MOIN*%
G04 Gerber Fmt 3.4, Leading zero omitted, Abs format*
%FSLAX34Y34*%
G04 APERTURE LIST*
%ADD10C,0.006000*%
%ADD11C,0.015000*%
%ADD12O,0.100000X0.100000*%
%ADD13C,0.170000*%
%ADD14R,0.080000X0.080000*%
%ADD15C,0.080000*%
%ADD16C,0.090000*%
%ADD17R,0.090000X0.090000*%
%ADD18O,0.167600X0.167600*%
%ADD19O,0.108500X0.108500*%
%ADD20R,0.075000X0.075000*%
%ADD21C,0.075000*%
G04 APERTURE END LIST*
G54D10*
G54D11*
X49460Y-50960D02*
X49460Y-16580D01*
X64520Y-50960D02*
X49460Y-50960D01*
X64520Y-16560D02*
X64520Y-50960D01*
X49320Y-16560D02*
X64520Y-16560D01*
G54D12*
X59968Y-31727D03*
X60952Y-31727D03*
X61936Y-31727D03*
G54D13*
X58863Y-28900D03*
X62853Y-28900D03*
G54D12*
X53859Y-21267D03*
X52875Y-21267D03*
X51891Y-21267D03*
G54D13*
X54964Y-24094D03*
X50974Y-24094D03*
G54D12*
X61679Y-17627D03*
X60695Y-17627D03*
X59711Y-17627D03*
G54D13*
X62784Y-20454D03*
X58794Y-20454D03*
G54D14*
X61640Y-49860D03*
G54D15*
X60640Y-49860D03*
X61640Y-48860D03*
X60640Y-48860D03*
X61640Y-47860D03*
X60640Y-47860D03*
X61640Y-46860D03*
X60640Y-46860D03*
X61640Y-45860D03*
X60640Y-45860D03*
G54D14*
X52000Y-18620D03*
G54D15*
X53000Y-18620D03*
X54000Y-18620D03*
X55000Y-18620D03*
X56000Y-18620D03*
G54D16*
X51300Y-39980D03*
G54D17*
X52300Y-39980D03*
G54D16*
X53300Y-39980D03*
G54D18*
X50512Y-35500D03*
X52165Y-33571D03*
X52165Y-36799D03*
G54D19*
X53818Y-35500D03*
G54D18*
X55434Y-41680D03*
X57087Y-39751D03*
X57087Y-42979D03*
G54D19*
X58740Y-41680D03*
G54D18*
X60394Y-35500D03*
X62047Y-33571D03*
X62047Y-36799D03*
G54D19*
X63700Y-35500D03*
G54D18*
X55447Y-35500D03*
X57100Y-33571D03*
X57100Y-36799D03*
G54D19*
X58753Y-35500D03*
G54D20*
X50860Y-45160D03*
G54D21*
X50860Y-48160D03*
G54D20*
X51920Y-48180D03*
G54D21*
X51920Y-45180D03*
G54D20*
X60820Y-25300D03*
G54D21*
X63820Y-25300D03*
G54D20*
X63800Y-24220D03*
G54D21*
X60800Y-24220D03*
G54D20*
X56260Y-45100D03*
G54D21*
X56260Y-48100D03*
G54D20*
X55100Y-48120D03*
G54D21*
X55100Y-45120D03*
M02*
