G04 (created by PCBNEW-RS274X (2012-apr-16-27)-stable) date Thu 18 Jun 2015 14:37:37 CEST*
G01*
G70*
G90*
%MOIN*%
G04 Gerber Fmt 3.4, Leading zero omitted, Abs format*
%FSLAX34Y34*%
G04 APERTURE LIST*
%ADD10C,0.006000*%
%ADD11C,0.015000*%
%ADD12R,0.043600X0.075100*%
%ADD13R,0.080000X0.100000*%
%ADD14R,0.075000X0.055000*%
%ADD15R,0.055000X0.075000*%
%ADD16O,0.100000X0.100000*%
%ADD17C,0.170000*%
%ADD18R,0.098700X0.236500*%
%ADD19R,0.080000X0.080000*%
%ADD20C,0.080000*%
%ADD21C,0.090000*%
%ADD22R,0.090000X0.090000*%
%ADD23O,0.167600X0.167600*%
%ADD24O,0.108500X0.108500*%
%ADD25R,0.075000X0.075000*%
%ADD26C,0.075000*%
%ADD27R,0.042000X0.070000*%
%ADD28R,0.070000X0.042000*%
%ADD29R,0.100000X0.080000*%
%ADD30R,0.067200X0.047600*%
G04 APERTURE END LIST*
G54D10*
G54D11*
X49460Y-50960D02*
X49460Y-16580D01*
X64520Y-50960D02*
X49460Y-50960D01*
X64520Y-16560D02*
X64520Y-50960D01*
X49320Y-16560D02*
X64520Y-16560D01*
G54D12*
X60070Y-40150D03*
X60070Y-42250D03*
X60570Y-40150D03*
X61070Y-40150D03*
X61570Y-40150D03*
X60570Y-42250D03*
X61070Y-42250D03*
X61570Y-42250D03*
G54D13*
X57350Y-49560D03*
X58650Y-49560D03*
X58830Y-44600D03*
X57530Y-44600D03*
X51090Y-42320D03*
X52390Y-42320D03*
G54D14*
X57980Y-30975D03*
X57980Y-30225D03*
X56000Y-21695D03*
X56000Y-20945D03*
G54D15*
X61975Y-38600D03*
X61225Y-38600D03*
G54D14*
X63200Y-46575D03*
X63200Y-45825D03*
G54D15*
X63175Y-44600D03*
X62425Y-44600D03*
X62425Y-43600D03*
X63175Y-43600D03*
G54D14*
X57060Y-29335D03*
X57060Y-28585D03*
G54D15*
X56065Y-30780D03*
X56815Y-30780D03*
X59225Y-38200D03*
X59975Y-38200D03*
X58375Y-38200D03*
X57625Y-38200D03*
X63555Y-38340D03*
X62805Y-38340D03*
G54D14*
X55660Y-26315D03*
X55660Y-25565D03*
G54D15*
X56105Y-38240D03*
X56855Y-38240D03*
X62425Y-42600D03*
X63175Y-42600D03*
X60425Y-43580D03*
X61175Y-43580D03*
X62805Y-39160D03*
X63555Y-39160D03*
X51175Y-30940D03*
X50425Y-30940D03*
X59305Y-24260D03*
X60055Y-24260D03*
X59305Y-25640D03*
X60055Y-25640D03*
G54D16*
X59968Y-31727D03*
X60952Y-31727D03*
X61936Y-31727D03*
G54D17*
X58863Y-28900D03*
X62853Y-28900D03*
G54D16*
X53859Y-21267D03*
X52875Y-21267D03*
X51891Y-21267D03*
G54D17*
X54964Y-24094D03*
X50974Y-24094D03*
G54D16*
X61679Y-17627D03*
X60695Y-17627D03*
X59711Y-17627D03*
G54D17*
X62784Y-20454D03*
X58794Y-20454D03*
G54D18*
X57480Y-26810D03*
X57480Y-23110D03*
G54D19*
X61640Y-49860D03*
G54D20*
X60640Y-49860D03*
X61640Y-48860D03*
X60640Y-48860D03*
X61640Y-47860D03*
X60640Y-47860D03*
X61640Y-46860D03*
X60640Y-46860D03*
X61640Y-45860D03*
X60640Y-45860D03*
G54D19*
X52000Y-18620D03*
G54D20*
X53000Y-18620D03*
X54000Y-18620D03*
X55000Y-18620D03*
X56000Y-18620D03*
G54D21*
X51300Y-39980D03*
G54D22*
X52300Y-39980D03*
G54D21*
X53300Y-39980D03*
G54D23*
X50512Y-35500D03*
X52165Y-33571D03*
X52165Y-36799D03*
G54D24*
X53818Y-35500D03*
G54D23*
X55434Y-41680D03*
X57087Y-39751D03*
X57087Y-42979D03*
G54D24*
X58740Y-41680D03*
G54D23*
X60394Y-35500D03*
X62047Y-33571D03*
X62047Y-36799D03*
G54D24*
X63700Y-35500D03*
G54D23*
X55447Y-35500D03*
X57100Y-33571D03*
X57100Y-36799D03*
G54D24*
X58753Y-35500D03*
G54D25*
X50860Y-45160D03*
G54D26*
X50860Y-48160D03*
G54D25*
X51920Y-48180D03*
G54D26*
X51920Y-45180D03*
G54D25*
X60820Y-25300D03*
G54D26*
X63820Y-25300D03*
G54D25*
X63800Y-24220D03*
G54D26*
X60800Y-24220D03*
G54D27*
X54242Y-27110D03*
X53927Y-27110D03*
X53612Y-27110D03*
X53297Y-27110D03*
X52983Y-27110D03*
X52668Y-27110D03*
X52353Y-27110D03*
X52038Y-27110D03*
G54D28*
X51450Y-27698D03*
X51450Y-28013D03*
X51450Y-28328D03*
X51450Y-28643D03*
X51450Y-28957D03*
X51450Y-29272D03*
X51450Y-29587D03*
X51450Y-29902D03*
G54D27*
X52038Y-30490D03*
X52353Y-30490D03*
X52668Y-30490D03*
X52983Y-30490D03*
X53297Y-30490D03*
X53612Y-30490D03*
X53927Y-30490D03*
X54242Y-30490D03*
G54D28*
X54830Y-29902D03*
X54830Y-29587D03*
X54830Y-29272D03*
X54830Y-28957D03*
X54830Y-28643D03*
X54830Y-28328D03*
X54830Y-28013D03*
X54830Y-27698D03*
G54D29*
X62920Y-40350D03*
X62920Y-41650D03*
G54D13*
X58650Y-48400D03*
X57350Y-48400D03*
G54D25*
X56260Y-45100D03*
G54D26*
X56260Y-48100D03*
G54D25*
X55100Y-48120D03*
G54D26*
X55100Y-45120D03*
G54D30*
X58728Y-47000D03*
X57272Y-47000D03*
X57312Y-46000D03*
X58768Y-46000D03*
G54D15*
X52885Y-31540D03*
X53635Y-31540D03*
G54D13*
X51810Y-31920D03*
X50510Y-31920D03*
M02*
