G04 (created by PCBNEW-RS274X (2012-apr-16-27)-stable) date Thu 18 Jun 2015 01:41:52 CEST*
G01*
G70*
G90*
%MOIN*%
G04 Gerber Fmt 3.4, Leading zero omitted, Abs format*
%FSLAX34Y34*%
G04 APERTURE LIST*
%ADD10C,0.006000*%
%ADD11C,0.000100*%
%ADD12C,0.161700*%
%ADD13C,0.350700*%
%ADD14C,0.492400*%
G04 APERTURE END LIST*
G54D10*
G54D11*
G36*
X51504Y-66413D02*
X51490Y-66435D01*
X51479Y-66438D01*
X51456Y-66425D01*
X51454Y-66413D01*
X51467Y-66391D01*
X51479Y-66388D01*
X51501Y-66402D01*
X51504Y-66413D01*
X51504Y-66413D01*
X51504Y-66413D01*
G37*
G36*
X54395Y-62656D02*
X54389Y-62737D01*
X54386Y-62755D01*
X54362Y-62845D01*
X54325Y-62939D01*
X54278Y-63028D01*
X54233Y-63096D01*
X54233Y-62125D01*
X54231Y-62118D01*
X54225Y-62115D01*
X54223Y-62138D01*
X54225Y-62162D01*
X54231Y-62159D01*
X54233Y-62125D01*
X54233Y-63096D01*
X54228Y-63105D01*
X54218Y-63116D01*
X54218Y-62212D01*
X54215Y-62202D01*
X54207Y-62196D01*
X54205Y-62212D01*
X54208Y-62234D01*
X54214Y-62234D01*
X54218Y-62212D01*
X54218Y-63116D01*
X54178Y-63161D01*
X54166Y-63169D01*
X54166Y-62523D01*
X54164Y-62522D01*
X54149Y-62533D01*
X54145Y-62538D01*
X54141Y-62554D01*
X54143Y-62555D01*
X54158Y-62543D01*
X54162Y-62538D01*
X54166Y-62523D01*
X54166Y-63169D01*
X54154Y-63179D01*
X54126Y-63201D01*
X54120Y-63206D01*
X54120Y-62101D01*
X54111Y-62070D01*
X54088Y-62021D01*
X54055Y-61963D01*
X54050Y-61954D01*
X54050Y-61527D01*
X54047Y-61484D01*
X54046Y-61480D01*
X54037Y-61443D01*
X54022Y-61432D01*
X54004Y-61436D01*
X54004Y-60864D01*
X53995Y-60856D01*
X53987Y-60864D01*
X53995Y-60872D01*
X54004Y-60864D01*
X54004Y-61436D01*
X53993Y-61439D01*
X53984Y-61441D01*
X53984Y-60929D01*
X53982Y-60919D01*
X53974Y-60913D01*
X53971Y-60929D01*
X53975Y-60951D01*
X53980Y-60951D01*
X53984Y-60929D01*
X53984Y-61441D01*
X53942Y-61452D01*
X53937Y-61453D01*
X53937Y-61061D01*
X53932Y-61042D01*
X53917Y-61052D01*
X53901Y-61060D01*
X53901Y-60849D01*
X53898Y-60844D01*
X53878Y-60842D01*
X53876Y-60844D01*
X53878Y-60854D01*
X53887Y-60856D01*
X53901Y-60849D01*
X53901Y-61060D01*
X53886Y-61067D01*
X53868Y-61070D01*
X53868Y-60643D01*
X53863Y-60606D01*
X53854Y-60564D01*
X53846Y-60538D01*
X53842Y-60538D01*
X53840Y-60567D01*
X53839Y-60593D01*
X53841Y-60639D01*
X53848Y-60668D01*
X53854Y-60672D01*
X53867Y-60659D01*
X53868Y-60643D01*
X53868Y-61070D01*
X53850Y-61072D01*
X53814Y-61077D01*
X53805Y-61097D01*
X53815Y-61132D01*
X53825Y-61150D01*
X53839Y-61143D01*
X53855Y-61125D01*
X53885Y-61098D01*
X53910Y-61089D01*
X53933Y-61075D01*
X53937Y-61061D01*
X53937Y-61453D01*
X53907Y-61456D01*
X53862Y-61456D01*
X53920Y-61512D01*
X53973Y-61555D01*
X54015Y-61570D01*
X54043Y-61558D01*
X54046Y-61554D01*
X54050Y-61527D01*
X54050Y-61954D01*
X54018Y-61903D01*
X53983Y-61851D01*
X53953Y-61815D01*
X53947Y-61810D01*
X53928Y-61795D01*
X53930Y-61803D01*
X53931Y-61805D01*
X53985Y-61893D01*
X54030Y-61994D01*
X54058Y-62094D01*
X54063Y-62122D01*
X54070Y-62171D01*
X54078Y-62198D01*
X54083Y-62198D01*
X54083Y-62197D01*
X54096Y-62161D01*
X54105Y-62148D01*
X54118Y-62118D01*
X54120Y-62101D01*
X54120Y-63206D01*
X54090Y-63235D01*
X54084Y-63241D01*
X54051Y-63272D01*
X54026Y-63288D01*
X54022Y-63288D01*
X54020Y-63289D01*
X54020Y-62763D01*
X54012Y-62755D01*
X54004Y-62763D01*
X54012Y-62772D01*
X54020Y-62763D01*
X54020Y-63289D01*
X54005Y-63300D01*
X54011Y-63335D01*
X54020Y-63355D01*
X54042Y-63399D01*
X54054Y-63422D01*
X54071Y-63479D01*
X54080Y-63558D01*
X54082Y-63651D01*
X54077Y-63748D01*
X54066Y-63840D01*
X54048Y-63917D01*
X54027Y-63966D01*
X53987Y-64016D01*
X53987Y-62713D01*
X53983Y-62691D01*
X53981Y-62689D01*
X53981Y-62261D01*
X53967Y-62205D01*
X53943Y-62136D01*
X53911Y-62063D01*
X53875Y-61994D01*
X53838Y-61936D01*
X53807Y-61900D01*
X53792Y-61889D01*
X53792Y-61198D01*
X53792Y-61174D01*
X53782Y-61171D01*
X53782Y-60434D01*
X53782Y-60429D01*
X53760Y-60425D01*
X53750Y-60427D01*
X53744Y-60435D01*
X53760Y-60438D01*
X53782Y-60434D01*
X53782Y-61171D01*
X53772Y-61169D01*
X53742Y-61182D01*
X53736Y-61188D01*
X53712Y-61208D01*
X53712Y-60639D01*
X53696Y-60600D01*
X53694Y-60596D01*
X53694Y-60392D01*
X53692Y-60372D01*
X53672Y-60337D01*
X53633Y-60292D01*
X53583Y-60245D01*
X53531Y-60203D01*
X53484Y-60176D01*
X53433Y-60159D01*
X53385Y-60154D01*
X53383Y-60154D01*
X53346Y-60148D01*
X53337Y-60131D01*
X53325Y-60110D01*
X53300Y-60107D01*
X53278Y-60124D01*
X53254Y-60135D01*
X53235Y-60134D01*
X53209Y-60133D01*
X53204Y-60140D01*
X53192Y-60154D01*
X53168Y-60152D01*
X53149Y-60137D01*
X53148Y-60135D01*
X53141Y-60132D01*
X53138Y-60151D01*
X53131Y-60177D01*
X53107Y-60188D01*
X53081Y-60189D01*
X53031Y-60193D01*
X52983Y-60204D01*
X52947Y-60219D01*
X52930Y-60234D01*
X52932Y-60241D01*
X52957Y-60244D01*
X52998Y-60231D01*
X53003Y-60228D01*
X53038Y-60215D01*
X53082Y-60208D01*
X53143Y-60207D01*
X53210Y-60210D01*
X53283Y-60216D01*
X53347Y-60224D01*
X53393Y-60233D01*
X53404Y-60237D01*
X53447Y-60252D01*
X53502Y-60269D01*
X53513Y-60272D01*
X53568Y-60292D01*
X53619Y-60322D01*
X53656Y-60355D01*
X53670Y-60385D01*
X53680Y-60404D01*
X53685Y-60406D01*
X53694Y-60392D01*
X53694Y-60596D01*
X53666Y-60547D01*
X53629Y-60493D01*
X53590Y-60444D01*
X53558Y-60412D01*
X53520Y-60390D01*
X53467Y-60370D01*
X53426Y-60358D01*
X53346Y-60336D01*
X53279Y-60326D01*
X53210Y-60325D01*
X53170Y-60328D01*
X53101Y-60336D01*
X53038Y-60348D01*
X52994Y-60363D01*
X52993Y-60363D01*
X52952Y-60391D01*
X52900Y-60437D01*
X52846Y-60490D01*
X52801Y-60542D01*
X52775Y-60582D01*
X52761Y-60619D01*
X52747Y-60673D01*
X52736Y-60733D01*
X52729Y-60789D01*
X52727Y-60832D01*
X52731Y-60853D01*
X52754Y-60882D01*
X52777Y-60930D01*
X52795Y-60984D01*
X52803Y-61033D01*
X52804Y-61037D01*
X52798Y-61076D01*
X52778Y-61089D01*
X52776Y-61089D01*
X52757Y-61094D01*
X52758Y-61099D01*
X52778Y-61104D01*
X52825Y-61108D01*
X52891Y-61112D01*
X52971Y-61115D01*
X52982Y-61116D01*
X53131Y-61121D01*
X53251Y-61129D01*
X53344Y-61140D01*
X53414Y-61155D01*
X53464Y-61173D01*
X53495Y-61193D01*
X53512Y-61191D01*
X53522Y-61176D01*
X53542Y-61148D01*
X53579Y-61115D01*
X53593Y-61105D01*
X53632Y-61073D01*
X53645Y-61046D01*
X53643Y-61031D01*
X53625Y-60997D01*
X53611Y-60985D01*
X53598Y-60961D01*
X53590Y-60914D01*
X53589Y-60891D01*
X53591Y-60840D01*
X53601Y-60811D01*
X53623Y-60794D01*
X53629Y-60792D01*
X53681Y-60753D01*
X53710Y-60698D01*
X53712Y-60639D01*
X53712Y-61208D01*
X53700Y-61218D01*
X53669Y-61243D01*
X53630Y-61272D01*
X53667Y-61272D01*
X53697Y-61263D01*
X53704Y-61247D01*
X53718Y-61227D01*
X53743Y-61222D01*
X53778Y-61213D01*
X53792Y-61198D01*
X53792Y-61889D01*
X53791Y-61888D01*
X53774Y-61887D01*
X53750Y-61901D01*
X53714Y-61933D01*
X53676Y-61968D01*
X53572Y-62052D01*
X53572Y-61742D01*
X53487Y-61724D01*
X53433Y-61715D01*
X53358Y-61706D01*
X53274Y-61699D01*
X53227Y-61696D01*
X53149Y-61692D01*
X53099Y-61690D01*
X53073Y-61692D01*
X53064Y-61699D01*
X53067Y-61711D01*
X53073Y-61721D01*
X53086Y-61762D01*
X53069Y-61793D01*
X53025Y-61810D01*
X52988Y-61813D01*
X52935Y-61820D01*
X52905Y-61837D01*
X52904Y-61838D01*
X52890Y-61851D01*
X52868Y-61849D01*
X52864Y-61847D01*
X52864Y-61309D01*
X52863Y-61308D01*
X52841Y-61292D01*
X52816Y-61283D01*
X52790Y-61278D01*
X52794Y-61285D01*
X52811Y-61298D01*
X52843Y-61317D01*
X52863Y-61321D01*
X52864Y-61309D01*
X52864Y-61847D01*
X52828Y-61830D01*
X52822Y-61827D01*
X52804Y-61817D01*
X52804Y-61696D01*
X52795Y-61679D01*
X52787Y-61681D01*
X52771Y-61702D01*
X52770Y-61706D01*
X52783Y-61722D01*
X52787Y-61722D01*
X52801Y-61709D01*
X52804Y-61696D01*
X52804Y-61817D01*
X52780Y-61806D01*
X52758Y-61803D01*
X52747Y-61814D01*
X52746Y-61816D01*
X52738Y-61870D01*
X52759Y-61920D01*
X52780Y-61944D01*
X52835Y-61982D01*
X52911Y-62006D01*
X53011Y-62015D01*
X53097Y-62014D01*
X53174Y-62008D01*
X53232Y-61996D01*
X53285Y-61976D01*
X53332Y-61952D01*
X53417Y-61902D01*
X53478Y-61858D01*
X53521Y-61815D01*
X53543Y-61786D01*
X53572Y-61742D01*
X53572Y-62052D01*
X53568Y-62055D01*
X53441Y-62130D01*
X53308Y-62185D01*
X53302Y-62186D01*
X53235Y-62199D01*
X53146Y-62206D01*
X53047Y-62205D01*
X52950Y-62198D01*
X52865Y-62185D01*
X52816Y-62172D01*
X52763Y-62153D01*
X52719Y-62141D01*
X52702Y-62138D01*
X52680Y-62132D01*
X52680Y-60317D01*
X52674Y-60301D01*
X52655Y-60267D01*
X52651Y-60252D01*
X52638Y-60233D01*
X52625Y-60236D01*
X52611Y-60260D01*
X52617Y-60292D01*
X52639Y-60317D01*
X52657Y-60322D01*
X52680Y-60317D01*
X52680Y-62132D01*
X52675Y-62131D01*
X52670Y-62129D01*
X52670Y-61116D01*
X52658Y-61103D01*
X52629Y-61082D01*
X52599Y-61065D01*
X52588Y-61068D01*
X52587Y-61088D01*
X52596Y-61115D01*
X52629Y-61122D01*
X52660Y-61120D01*
X52670Y-61116D01*
X52670Y-62129D01*
X52662Y-62125D01*
X52662Y-61679D01*
X52660Y-61669D01*
X52639Y-61658D01*
X52612Y-61656D01*
X52612Y-61476D01*
X52596Y-61457D01*
X52585Y-61449D01*
X52576Y-61445D01*
X52576Y-60370D01*
X52575Y-60358D01*
X52563Y-60346D01*
X52547Y-60317D01*
X52544Y-60271D01*
X52547Y-60242D01*
X52556Y-60164D01*
X52496Y-60229D01*
X52463Y-60271D01*
X52445Y-60305D01*
X52444Y-60318D01*
X52452Y-60353D01*
X52454Y-60382D01*
X52461Y-60414D01*
X52479Y-60421D01*
X52497Y-60399D01*
X52497Y-60397D01*
X52520Y-60378D01*
X52548Y-60372D01*
X52576Y-60370D01*
X52576Y-61445D01*
X52549Y-61435D01*
X52526Y-61443D01*
X52526Y-61093D01*
X52522Y-61091D01*
X52517Y-61089D01*
X52517Y-60683D01*
X52515Y-60678D01*
X52495Y-60676D01*
X52492Y-60678D01*
X52495Y-60688D01*
X52504Y-60689D01*
X52517Y-60683D01*
X52517Y-61089D01*
X52496Y-61084D01*
X52484Y-61084D01*
X52484Y-60633D01*
X52481Y-60628D01*
X52461Y-60626D01*
X52459Y-60628D01*
X52461Y-60638D01*
X52470Y-60639D01*
X52484Y-60633D01*
X52484Y-61084D01*
X52463Y-61085D01*
X52453Y-61089D01*
X52453Y-60740D01*
X52441Y-60728D01*
X52399Y-60719D01*
X52369Y-60716D01*
X52335Y-60714D01*
X52329Y-60715D01*
X52341Y-60717D01*
X52374Y-60730D01*
X52387Y-60748D01*
X52395Y-60770D01*
X52421Y-60765D01*
X52436Y-60756D01*
X52453Y-60740D01*
X52453Y-61089D01*
X52440Y-61094D01*
X52437Y-61099D01*
X52451Y-61103D01*
X52487Y-61105D01*
X52491Y-61105D01*
X52525Y-61102D01*
X52526Y-61093D01*
X52526Y-61443D01*
X52526Y-61443D01*
X52523Y-61472D01*
X52526Y-61479D01*
X52549Y-61503D01*
X52586Y-61499D01*
X52601Y-61491D01*
X52612Y-61476D01*
X52612Y-61656D01*
X52607Y-61656D01*
X52579Y-61662D01*
X52570Y-61672D01*
X52584Y-61686D01*
X52604Y-61689D01*
X52631Y-61698D01*
X52637Y-61710D01*
X52642Y-61719D01*
X52653Y-61706D01*
X52662Y-61679D01*
X52662Y-62125D01*
X52653Y-62122D01*
X52653Y-61851D01*
X52642Y-61826D01*
X52629Y-61822D01*
X52606Y-61813D01*
X52604Y-61805D01*
X52589Y-61792D01*
X52566Y-61788D01*
X52524Y-61779D01*
X52484Y-61758D01*
X52457Y-61730D01*
X52453Y-61717D01*
X52438Y-61676D01*
X52397Y-61652D01*
X52387Y-61651D01*
X52387Y-61422D01*
X52373Y-61408D01*
X52358Y-61406D01*
X52338Y-61409D01*
X52350Y-61420D01*
X52354Y-61422D01*
X52379Y-61437D01*
X52386Y-61432D01*
X52387Y-61422D01*
X52387Y-61651D01*
X52375Y-61649D01*
X52326Y-61646D01*
X52351Y-61696D01*
X52375Y-61736D01*
X52399Y-61761D01*
X52400Y-61761D01*
X52429Y-61785D01*
X52451Y-61807D01*
X52480Y-61831D01*
X52499Y-61838D01*
X52524Y-61852D01*
X52530Y-61862D01*
X52551Y-61880D01*
X52587Y-61885D01*
X52625Y-61878D01*
X52650Y-61862D01*
X52653Y-61851D01*
X52653Y-62122D01*
X52629Y-62112D01*
X52573Y-62084D01*
X52514Y-62054D01*
X52461Y-62024D01*
X52422Y-62000D01*
X52406Y-61985D01*
X52387Y-61968D01*
X52360Y-61954D01*
X52333Y-61934D01*
X52304Y-61901D01*
X52304Y-60814D01*
X52295Y-60806D01*
X52287Y-60814D01*
X52295Y-60822D01*
X52304Y-60814D01*
X52304Y-61901D01*
X52297Y-61894D01*
X52258Y-61843D01*
X52251Y-61831D01*
X52251Y-61599D01*
X52248Y-61594D01*
X52228Y-61592D01*
X52226Y-61594D01*
X52228Y-61604D01*
X52237Y-61606D01*
X52251Y-61599D01*
X52251Y-61831D01*
X52223Y-61789D01*
X52197Y-61744D01*
X52187Y-61714D01*
X52172Y-61702D01*
X52151Y-61692D01*
X52151Y-60879D01*
X52148Y-60869D01*
X52141Y-60863D01*
X52138Y-60879D01*
X52141Y-60901D01*
X52147Y-60901D01*
X52151Y-60879D01*
X52151Y-61692D01*
X52135Y-61686D01*
X52085Y-61669D01*
X52033Y-61655D01*
X51988Y-61646D01*
X51961Y-61644D01*
X51958Y-61646D01*
X51954Y-61669D01*
X51970Y-61702D01*
X51998Y-61731D01*
X52017Y-61743D01*
X52068Y-61772D01*
X52113Y-61809D01*
X52145Y-61848D01*
X52154Y-61874D01*
X52169Y-61902D01*
X52199Y-61915D01*
X52256Y-61944D01*
X52308Y-61998D01*
X52348Y-62069D01*
X52371Y-62148D01*
X52374Y-62174D01*
X52375Y-62219D01*
X52368Y-62240D01*
X52349Y-62246D01*
X52342Y-62245D01*
X52317Y-62250D01*
X52314Y-62258D01*
X52334Y-62266D01*
X52376Y-62271D01*
X52409Y-62272D01*
X52476Y-62278D01*
X52551Y-62295D01*
X52587Y-62306D01*
X52646Y-62329D01*
X52700Y-62349D01*
X52724Y-62358D01*
X52757Y-62374D01*
X52770Y-62388D01*
X52782Y-62408D01*
X52811Y-62408D01*
X52849Y-62390D01*
X52872Y-62373D01*
X52918Y-62340D01*
X52967Y-62318D01*
X52976Y-62316D01*
X53025Y-62307D01*
X53086Y-62294D01*
X53109Y-62288D01*
X53165Y-62278D01*
X53214Y-62277D01*
X53229Y-62279D01*
X53263Y-62299D01*
X53270Y-62332D01*
X53252Y-62370D01*
X53223Y-62395D01*
X53190Y-62424D01*
X53182Y-62459D01*
X53184Y-62474D01*
X53183Y-62512D01*
X53168Y-62523D01*
X53164Y-62528D01*
X53187Y-62537D01*
X53212Y-62548D01*
X53223Y-62567D01*
X53225Y-62606D01*
X53224Y-62628D01*
X53218Y-62683D01*
X53207Y-62729D01*
X53202Y-62740D01*
X53194Y-62779D01*
X53201Y-62794D01*
X53213Y-62818D01*
X53231Y-62866D01*
X53250Y-62926D01*
X53254Y-62938D01*
X53274Y-63001D01*
X53293Y-63051D01*
X53308Y-63081D01*
X53310Y-63083D01*
X53344Y-63110D01*
X53389Y-63133D01*
X53430Y-63147D01*
X53451Y-63147D01*
X53480Y-63139D01*
X53486Y-63138D01*
X53500Y-63124D01*
X53510Y-63097D01*
X53529Y-63063D01*
X53562Y-63055D01*
X53596Y-63064D01*
X53604Y-63081D01*
X53612Y-63099D01*
X53641Y-63096D01*
X53680Y-63080D01*
X53696Y-63065D01*
X53687Y-63056D01*
X53674Y-63055D01*
X53654Y-63048D01*
X53654Y-62830D01*
X53645Y-62822D01*
X53637Y-62830D01*
X53645Y-62838D01*
X53654Y-62830D01*
X53654Y-63048D01*
X53644Y-63045D01*
X53637Y-63030D01*
X53623Y-63008D01*
X53612Y-63005D01*
X53590Y-62996D01*
X53587Y-62988D01*
X53572Y-62978D01*
X53535Y-62972D01*
X53521Y-62972D01*
X53470Y-62966D01*
X53441Y-62946D01*
X53437Y-62939D01*
X53422Y-62901D01*
X53430Y-62875D01*
X53465Y-62851D01*
X53483Y-62842D01*
X53527Y-62818D01*
X53560Y-62793D01*
X53565Y-62788D01*
X53574Y-62768D01*
X53555Y-62756D01*
X53548Y-62754D01*
X53513Y-62734D01*
X53506Y-62698D01*
X53526Y-62650D01*
X53570Y-62597D01*
X53607Y-62557D01*
X53624Y-62535D01*
X53621Y-62523D01*
X53605Y-62517D01*
X53578Y-62497D01*
X53571Y-62466D01*
X53585Y-62438D01*
X53597Y-62432D01*
X53633Y-62424D01*
X53669Y-62422D01*
X53700Y-62418D01*
X53710Y-62400D01*
X53707Y-62372D01*
X53700Y-62322D01*
X53835Y-62322D01*
X53908Y-62320D01*
X53952Y-62315D01*
X53975Y-62305D01*
X53981Y-62297D01*
X53981Y-62261D01*
X53981Y-62689D01*
X53980Y-62688D01*
X53970Y-62701D01*
X53964Y-62713D01*
X53964Y-62735D01*
X53971Y-62738D01*
X53985Y-62725D01*
X53987Y-62713D01*
X53987Y-64016D01*
X53980Y-64025D01*
X53934Y-64067D01*
X53934Y-63520D01*
X53925Y-63487D01*
X53921Y-63481D01*
X53920Y-63480D01*
X53920Y-63413D01*
X53912Y-63405D01*
X53904Y-63413D01*
X53912Y-63422D01*
X53920Y-63413D01*
X53920Y-63480D01*
X53901Y-63467D01*
X53901Y-62502D01*
X53897Y-62493D01*
X53881Y-62488D01*
X53876Y-62507D01*
X53882Y-62532D01*
X53892Y-62554D01*
X53898Y-62545D01*
X53900Y-62533D01*
X53901Y-62502D01*
X53901Y-63467D01*
X53891Y-63461D01*
X53870Y-63454D01*
X53870Y-62880D01*
X53867Y-62858D01*
X53864Y-62855D01*
X53849Y-62866D01*
X53837Y-62880D01*
X53825Y-62900D01*
X53841Y-62905D01*
X53843Y-62905D01*
X53867Y-62893D01*
X53870Y-62880D01*
X53870Y-63454D01*
X53860Y-63451D01*
X53831Y-63449D01*
X53826Y-63463D01*
X53828Y-63467D01*
X53836Y-63504D01*
X53837Y-63515D01*
X53850Y-63536D01*
X53862Y-63538D01*
X53884Y-63551D01*
X53887Y-63562D01*
X53899Y-63588D01*
X53908Y-63593D01*
X53924Y-63585D01*
X53933Y-63556D01*
X53934Y-63520D01*
X53934Y-64067D01*
X53918Y-64082D01*
X53849Y-64129D01*
X53817Y-64144D01*
X53817Y-63644D01*
X53817Y-63605D01*
X53812Y-63600D01*
X53812Y-62789D01*
X53808Y-62774D01*
X53802Y-62770D01*
X53767Y-62758D01*
X53739Y-62755D01*
X53711Y-62760D01*
X53707Y-62782D01*
X53710Y-62793D01*
X53718Y-62836D01*
X53720Y-62860D01*
X53727Y-62880D01*
X53737Y-62880D01*
X53753Y-62856D01*
X53754Y-62850D01*
X53766Y-62826D01*
X53789Y-62807D01*
X53812Y-62789D01*
X53812Y-63600D01*
X53801Y-63589D01*
X53795Y-63588D01*
X53771Y-63574D01*
X53754Y-63547D01*
X53738Y-63512D01*
X53737Y-63511D01*
X53737Y-63247D01*
X53737Y-63030D01*
X53729Y-63022D01*
X53720Y-63030D01*
X53729Y-63038D01*
X53737Y-63030D01*
X53737Y-63247D01*
X53729Y-63238D01*
X53720Y-63247D01*
X53729Y-63255D01*
X53737Y-63247D01*
X53737Y-63511D01*
X53731Y-63509D01*
X53732Y-63537D01*
X53738Y-63576D01*
X53744Y-63629D01*
X53744Y-63675D01*
X53742Y-63684D01*
X53723Y-63715D01*
X53704Y-63717D01*
X53704Y-62623D01*
X53692Y-62613D01*
X53667Y-62619D01*
X53638Y-62636D01*
X53619Y-62657D01*
X53611Y-62683D01*
X53620Y-62688D01*
X53641Y-62675D01*
X53647Y-62663D01*
X53668Y-62641D01*
X53680Y-62638D01*
X53701Y-62630D01*
X53704Y-62623D01*
X53704Y-63717D01*
X53691Y-63719D01*
X53675Y-63709D01*
X53675Y-63597D01*
X53664Y-63540D01*
X53657Y-63495D01*
X53654Y-63462D01*
X53654Y-63461D01*
X53642Y-63445D01*
X53616Y-63447D01*
X53580Y-63448D01*
X53525Y-63442D01*
X53476Y-63433D01*
X53374Y-63409D01*
X53364Y-63469D01*
X53357Y-63527D01*
X53353Y-63592D01*
X53353Y-63605D01*
X53350Y-63658D01*
X53339Y-63725D01*
X53321Y-63813D01*
X53294Y-63926D01*
X53292Y-63934D01*
X53290Y-63959D01*
X53305Y-63970D01*
X53343Y-63972D01*
X53384Y-63968D01*
X53401Y-63955D01*
X53404Y-63938D01*
X53415Y-63910D01*
X53437Y-63905D01*
X53461Y-63897D01*
X53470Y-63867D01*
X53470Y-63856D01*
X53477Y-63818D01*
X53502Y-63802D01*
X53504Y-63802D01*
X53537Y-63797D01*
X53504Y-63734D01*
X53479Y-63678D01*
X53471Y-63634D01*
X53480Y-63609D01*
X53491Y-63605D01*
X53502Y-63600D01*
X53489Y-63590D01*
X53473Y-63564D01*
X53473Y-63545D01*
X53492Y-63522D01*
X53530Y-63515D01*
X53576Y-63525D01*
X53622Y-63549D01*
X53632Y-63558D01*
X53675Y-63597D01*
X53675Y-63709D01*
X53657Y-63699D01*
X53648Y-63688D01*
X53631Y-63666D01*
X53622Y-63671D01*
X53615Y-63704D01*
X53612Y-63749D01*
X53616Y-63810D01*
X53621Y-63846D01*
X53630Y-63917D01*
X53624Y-63965D01*
X53620Y-63975D01*
X53618Y-63987D01*
X53635Y-63975D01*
X53661Y-63948D01*
X53695Y-63906D01*
X53716Y-63868D01*
X53720Y-63854D01*
X53728Y-63805D01*
X53748Y-63776D01*
X53763Y-63772D01*
X53781Y-63757D01*
X53799Y-63721D01*
X53803Y-63709D01*
X53817Y-63644D01*
X53817Y-64144D01*
X53784Y-64161D01*
X53733Y-64172D01*
X53696Y-64177D01*
X53642Y-64191D01*
X53600Y-64205D01*
X53582Y-64208D01*
X53582Y-64027D01*
X53566Y-64022D01*
X53564Y-64022D01*
X53540Y-64034D01*
X53537Y-64047D01*
X53540Y-64069D01*
X53543Y-64072D01*
X53558Y-64061D01*
X53570Y-64047D01*
X53582Y-64027D01*
X53582Y-64208D01*
X53520Y-64222D01*
X53520Y-64080D01*
X53512Y-64072D01*
X53504Y-64080D01*
X53512Y-64088D01*
X53520Y-64080D01*
X53520Y-64222D01*
X53500Y-64226D01*
X53388Y-64229D01*
X53278Y-64212D01*
X53250Y-64205D01*
X53219Y-64199D01*
X53201Y-64211D01*
X53186Y-64248D01*
X53183Y-64256D01*
X53183Y-63390D01*
X53172Y-63249D01*
X53147Y-63126D01*
X53107Y-63013D01*
X53096Y-62987D01*
X53073Y-62936D01*
X53058Y-62896D01*
X53054Y-62880D01*
X53042Y-62851D01*
X53011Y-62806D01*
X52965Y-62752D01*
X52912Y-62692D01*
X52855Y-62634D01*
X52800Y-62583D01*
X52753Y-62544D01*
X52719Y-62523D01*
X52711Y-62522D01*
X52692Y-62513D01*
X52658Y-62491D01*
X52650Y-62486D01*
X52614Y-62468D01*
X52557Y-62446D01*
X52489Y-62424D01*
X52420Y-62405D01*
X52362Y-62392D01*
X52334Y-62389D01*
X52321Y-62402D01*
X52311Y-62426D01*
X52279Y-62490D01*
X52229Y-62554D01*
X52170Y-62605D01*
X52115Y-62634D01*
X52052Y-62647D01*
X51981Y-62653D01*
X51928Y-62653D01*
X51928Y-60083D01*
X51918Y-60075D01*
X51889Y-60093D01*
X51871Y-60107D01*
X51845Y-60133D01*
X51845Y-60148D01*
X51854Y-60156D01*
X51888Y-60167D01*
X51910Y-60148D01*
X51922Y-60117D01*
X51928Y-60083D01*
X51928Y-62653D01*
X51920Y-62653D01*
X51920Y-61810D01*
X51914Y-61777D01*
X51907Y-61764D01*
X51885Y-61740D01*
X51867Y-61725D01*
X51848Y-61713D01*
X51843Y-61724D01*
X51847Y-61758D01*
X51847Y-61806D01*
X51839Y-61868D01*
X51831Y-61904D01*
X51816Y-61975D01*
X51817Y-62020D01*
X51833Y-62038D01*
X51836Y-62038D01*
X51848Y-62024D01*
X51863Y-61988D01*
X51868Y-61974D01*
X51880Y-61926D01*
X51887Y-61888D01*
X51887Y-61882D01*
X51895Y-61859D01*
X51904Y-61855D01*
X51916Y-61841D01*
X51920Y-61810D01*
X51920Y-62653D01*
X51912Y-62653D01*
X51858Y-62646D01*
X51843Y-62641D01*
X51843Y-62543D01*
X51830Y-62513D01*
X51823Y-62501D01*
X51792Y-62460D01*
X51770Y-62443D01*
X51770Y-59581D01*
X51769Y-59520D01*
X51763Y-59486D01*
X51751Y-59473D01*
X51745Y-59472D01*
X51717Y-59459D01*
X51710Y-59447D01*
X51689Y-59425D01*
X51677Y-59422D01*
X51661Y-59435D01*
X51654Y-59476D01*
X51654Y-59397D01*
X51645Y-59389D01*
X51637Y-59397D01*
X51645Y-59406D01*
X51654Y-59397D01*
X51654Y-59476D01*
X51654Y-59493D01*
X51661Y-59552D01*
X51686Y-59603D01*
X51705Y-59627D01*
X51736Y-59663D01*
X51758Y-59685D01*
X51763Y-59689D01*
X51767Y-59674D01*
X51769Y-59634D01*
X51770Y-59581D01*
X51770Y-62443D01*
X51768Y-62441D01*
X51760Y-62444D01*
X51760Y-60248D01*
X51740Y-60237D01*
X51711Y-60213D01*
X51704Y-60191D01*
X51698Y-60148D01*
X51693Y-60131D01*
X51683Y-60117D01*
X51670Y-60130D01*
X51660Y-60148D01*
X51643Y-60188D01*
X51637Y-60216D01*
X51622Y-60234D01*
X51591Y-60240D01*
X51580Y-60241D01*
X51580Y-59266D01*
X51566Y-59256D01*
X51565Y-59256D01*
X51543Y-59242D01*
X51517Y-59209D01*
X51511Y-59197D01*
X51481Y-59156D01*
X51452Y-59139D01*
X51429Y-59147D01*
X51420Y-59180D01*
X51420Y-59181D01*
X51430Y-59247D01*
X51456Y-59302D01*
X51493Y-59336D01*
X51515Y-59342D01*
X51549Y-59346D01*
X51564Y-59348D01*
X51568Y-59333D01*
X51576Y-59301D01*
X51580Y-59266D01*
X51580Y-60241D01*
X51545Y-60242D01*
X51587Y-60255D01*
X51628Y-60258D01*
X51651Y-60250D01*
X51682Y-60242D01*
X51706Y-60253D01*
X51739Y-60264D01*
X51757Y-60262D01*
X51760Y-60248D01*
X51760Y-62444D01*
X51755Y-62447D01*
X51754Y-62457D01*
X51765Y-62483D01*
X51790Y-62517D01*
X51820Y-62545D01*
X51841Y-62555D01*
X51843Y-62543D01*
X51843Y-62641D01*
X51841Y-62640D01*
X51805Y-62623D01*
X51762Y-62603D01*
X51715Y-62576D01*
X51676Y-62544D01*
X51655Y-62515D01*
X51654Y-62508D01*
X51638Y-62473D01*
X51620Y-62458D01*
X51620Y-61541D01*
X51613Y-61528D01*
X51596Y-61539D01*
X51574Y-61566D01*
X51552Y-61603D01*
X51535Y-61643D01*
X51528Y-61668D01*
X51514Y-61740D01*
X51496Y-61785D01*
X51469Y-61811D01*
X51437Y-61822D01*
X51437Y-61714D01*
X51428Y-61692D01*
X51400Y-61695D01*
X51399Y-61696D01*
X51399Y-60494D01*
X51385Y-60455D01*
X51361Y-60428D01*
X51346Y-60422D01*
X51334Y-60427D01*
X51334Y-59145D01*
X51332Y-59136D01*
X51324Y-59129D01*
X51321Y-59146D01*
X51325Y-59167D01*
X51330Y-59168D01*
X51334Y-59145D01*
X51334Y-60427D01*
X51323Y-60432D01*
X51325Y-60453D01*
X51337Y-60464D01*
X51350Y-60487D01*
X51354Y-60515D01*
X51361Y-60547D01*
X51379Y-60554D01*
X51397Y-60531D01*
X51398Y-60529D01*
X51399Y-60494D01*
X51399Y-61696D01*
X51387Y-61703D01*
X51387Y-61471D01*
X51381Y-61448D01*
X51371Y-61447D01*
X51362Y-61468D01*
X51364Y-61481D01*
X51377Y-61504D01*
X51385Y-61494D01*
X51387Y-61471D01*
X51387Y-61703D01*
X51369Y-61714D01*
X51369Y-61532D01*
X51355Y-61538D01*
X51339Y-61560D01*
X51324Y-61585D01*
X51330Y-61584D01*
X51346Y-61568D01*
X51366Y-61544D01*
X51369Y-61532D01*
X51369Y-61714D01*
X51353Y-61724D01*
X51322Y-61747D01*
X51317Y-61751D01*
X51317Y-60668D01*
X51310Y-60658D01*
X51310Y-59667D01*
X51303Y-59655D01*
X51273Y-59644D01*
X51223Y-59639D01*
X51212Y-59639D01*
X51209Y-59638D01*
X51209Y-59015D01*
X51156Y-59069D01*
X51151Y-59075D01*
X51151Y-58899D01*
X51136Y-58861D01*
X51130Y-58851D01*
X51112Y-58809D01*
X51098Y-58760D01*
X51092Y-58713D01*
X51096Y-58681D01*
X51101Y-58674D01*
X51115Y-58658D01*
X51121Y-58627D01*
X51120Y-58576D01*
X51112Y-58511D01*
X51104Y-58453D01*
X51094Y-58421D01*
X51078Y-58405D01*
X51052Y-58397D01*
X51001Y-58395D01*
X50962Y-58410D01*
X50941Y-58436D01*
X50942Y-58466D01*
X50968Y-58494D01*
X50990Y-58504D01*
X51036Y-58517D01*
X51073Y-58522D01*
X51098Y-58530D01*
X51104Y-58539D01*
X51094Y-58570D01*
X51070Y-58605D01*
X51044Y-58632D01*
X51028Y-58639D01*
X51012Y-58654D01*
X51002Y-58690D01*
X51001Y-58697D01*
X51000Y-58739D01*
X51013Y-58760D01*
X51025Y-58765D01*
X51047Y-58780D01*
X51050Y-58810D01*
X51047Y-58826D01*
X51040Y-58872D01*
X51037Y-58906D01*
X51023Y-58933D01*
X51004Y-58944D01*
X50976Y-58966D01*
X50971Y-58991D01*
X50973Y-59017D01*
X50982Y-59013D01*
X50989Y-59001D01*
X51017Y-58977D01*
X51038Y-58972D01*
X51065Y-58984D01*
X51071Y-59001D01*
X51076Y-59015D01*
X51092Y-59003D01*
X51112Y-58981D01*
X51144Y-58935D01*
X51151Y-58899D01*
X51151Y-59075D01*
X51124Y-59107D01*
X51105Y-59138D01*
X51104Y-59147D01*
X51091Y-59174D01*
X51070Y-59194D01*
X51048Y-59218D01*
X51058Y-59234D01*
X51088Y-59239D01*
X51122Y-59251D01*
X51137Y-59264D01*
X51163Y-59286D01*
X51179Y-59278D01*
X51186Y-59239D01*
X51187Y-59218D01*
X51190Y-59153D01*
X51197Y-59088D01*
X51198Y-59081D01*
X51209Y-59015D01*
X51209Y-59638D01*
X51163Y-59634D01*
X51131Y-59614D01*
X51108Y-59584D01*
X51083Y-59539D01*
X51071Y-59498D01*
X51070Y-59492D01*
X51064Y-59467D01*
X51041Y-59457D01*
X51014Y-59456D01*
X50971Y-59457D01*
X50971Y-59179D01*
X50959Y-59153D01*
X50946Y-59139D01*
X50924Y-59106D01*
X50921Y-59088D01*
X50913Y-59055D01*
X50897Y-59050D01*
X50882Y-59074D01*
X50881Y-59079D01*
X50861Y-59113D01*
X50838Y-59127D01*
X50808Y-59143D01*
X50811Y-59167D01*
X50845Y-59197D01*
X50856Y-59204D01*
X50897Y-59224D01*
X50926Y-59224D01*
X50940Y-59217D01*
X50965Y-59194D01*
X50971Y-59179D01*
X50971Y-59457D01*
X50951Y-59458D01*
X50951Y-59299D01*
X50948Y-59294D01*
X50929Y-59292D01*
X50926Y-59294D01*
X50929Y-59304D01*
X50937Y-59306D01*
X50951Y-59299D01*
X50951Y-59458D01*
X50940Y-59459D01*
X50892Y-59471D01*
X50862Y-59495D01*
X50844Y-59535D01*
X50842Y-59541D01*
X50825Y-59607D01*
X50910Y-59602D01*
X50995Y-59597D01*
X51008Y-59689D01*
X51018Y-59740D01*
X51029Y-59776D01*
X51037Y-59786D01*
X51050Y-59805D01*
X51054Y-59828D01*
X51056Y-59852D01*
X51065Y-59845D01*
X51072Y-59835D01*
X51098Y-59810D01*
X51115Y-59806D01*
X51142Y-59794D01*
X51179Y-59766D01*
X51197Y-59748D01*
X51238Y-59711D01*
X51277Y-59685D01*
X51289Y-59680D01*
X51310Y-59667D01*
X51310Y-60658D01*
X51301Y-60645D01*
X51296Y-60639D01*
X51287Y-60622D01*
X51287Y-60117D01*
X51275Y-60087D01*
X51267Y-60079D01*
X51267Y-59967D01*
X51258Y-59961D01*
X51239Y-59939D01*
X51237Y-59929D01*
X51223Y-59908D01*
X51212Y-59906D01*
X51190Y-59918D01*
X51187Y-59929D01*
X51202Y-59957D01*
X51242Y-59969D01*
X51254Y-59970D01*
X51267Y-59967D01*
X51267Y-60079D01*
X51251Y-60062D01*
X51234Y-60056D01*
X51221Y-60067D01*
X51224Y-60094D01*
X51240Y-60119D01*
X51268Y-60137D01*
X51285Y-60129D01*
X51287Y-60117D01*
X51287Y-60622D01*
X51275Y-60600D01*
X51275Y-60573D01*
X51277Y-60546D01*
X51271Y-60539D01*
X51258Y-60553D01*
X51249Y-60581D01*
X51253Y-60623D01*
X51276Y-60648D01*
X51309Y-60669D01*
X51317Y-60668D01*
X51317Y-61751D01*
X51290Y-61774D01*
X51290Y-61614D01*
X51287Y-61596D01*
X51269Y-61585D01*
X51243Y-61566D01*
X51237Y-61550D01*
X51223Y-61527D01*
X51205Y-61518D01*
X51182Y-61518D01*
X51169Y-61541D01*
X51162Y-61569D01*
X51158Y-61615D01*
X51169Y-61636D01*
X51183Y-61655D01*
X51187Y-61676D01*
X51188Y-61698D01*
X51198Y-61699D01*
X51223Y-61679D01*
X51233Y-61671D01*
X51266Y-61640D01*
X51289Y-61616D01*
X51290Y-61614D01*
X51290Y-61774D01*
X51287Y-61778D01*
X51271Y-61799D01*
X51274Y-61805D01*
X51306Y-61793D01*
X51318Y-61782D01*
X51348Y-61763D01*
X51387Y-61750D01*
X51424Y-61735D01*
X51437Y-61714D01*
X51437Y-61822D01*
X51428Y-61825D01*
X51398Y-61830D01*
X51352Y-61837D01*
X51322Y-61849D01*
X51300Y-61872D01*
X51276Y-61914D01*
X51262Y-61942D01*
X51232Y-62001D01*
X51232Y-61817D01*
X51232Y-61812D01*
X51210Y-61808D01*
X51200Y-61810D01*
X51194Y-61818D01*
X51210Y-61820D01*
X51232Y-61817D01*
X51232Y-62001D01*
X51231Y-62005D01*
X51213Y-62043D01*
X51207Y-62061D01*
X51212Y-62066D01*
X51225Y-62062D01*
X51228Y-62061D01*
X51251Y-62041D01*
X51279Y-62001D01*
X51289Y-61982D01*
X51340Y-61900D01*
X51394Y-61852D01*
X51451Y-61836D01*
X51511Y-61853D01*
X51521Y-61859D01*
X51554Y-61868D01*
X51573Y-61851D01*
X51575Y-61814D01*
X51569Y-61793D01*
X51554Y-61732D01*
X51561Y-61683D01*
X51583Y-61657D01*
X51598Y-61643D01*
X51591Y-61639D01*
X51573Y-61627D01*
X51573Y-61603D01*
X51589Y-61581D01*
X51595Y-61578D01*
X51617Y-61555D01*
X51620Y-61541D01*
X51620Y-62458D01*
X51599Y-62442D01*
X51549Y-62423D01*
X51509Y-62415D01*
X51491Y-62420D01*
X51487Y-62442D01*
X51487Y-62448D01*
X51477Y-62479D01*
X51454Y-62489D01*
X51432Y-62476D01*
X51428Y-62468D01*
X51405Y-62454D01*
X51351Y-62452D01*
X51341Y-62452D01*
X51274Y-62450D01*
X51206Y-62438D01*
X51190Y-62433D01*
X51144Y-62419D01*
X51133Y-62418D01*
X51133Y-60658D01*
X51133Y-60632D01*
X51130Y-60627D01*
X51120Y-60624D01*
X51120Y-60299D01*
X51110Y-60259D01*
X51094Y-60238D01*
X51070Y-60226D01*
X51046Y-60240D01*
X51040Y-60246D01*
X51023Y-60268D01*
X51027Y-60285D01*
X51051Y-60307D01*
X51090Y-60333D01*
X51112Y-60334D01*
X51120Y-60307D01*
X51120Y-60299D01*
X51120Y-60624D01*
X51114Y-60623D01*
X51108Y-60639D01*
X51113Y-60658D01*
X51126Y-60670D01*
X51133Y-60658D01*
X51133Y-62418D01*
X51117Y-62418D01*
X51098Y-62430D01*
X51095Y-62433D01*
X51083Y-62438D01*
X51083Y-60597D01*
X51081Y-60594D01*
X51071Y-60597D01*
X51070Y-60606D01*
X51076Y-60619D01*
X51081Y-60617D01*
X51083Y-60597D01*
X51083Y-62438D01*
X51070Y-62444D01*
X51070Y-61364D01*
X51062Y-61356D01*
X51054Y-61364D01*
X51062Y-61372D01*
X51070Y-61364D01*
X51070Y-62444D01*
X51059Y-62450D01*
X51014Y-62453D01*
X51014Y-61653D01*
X51007Y-61615D01*
X51005Y-61611D01*
X51005Y-61231D01*
X50994Y-61231D01*
X50994Y-60620D01*
X50991Y-60602D01*
X50969Y-60577D01*
X50946Y-60572D01*
X50946Y-60289D01*
X50944Y-60273D01*
X50938Y-60272D01*
X50921Y-60284D01*
X50921Y-60289D01*
X50926Y-60305D01*
X50928Y-60306D01*
X50942Y-60294D01*
X50946Y-60289D01*
X50946Y-60572D01*
X50944Y-60572D01*
X50913Y-60565D01*
X50903Y-60551D01*
X50899Y-60539D01*
X50893Y-60551D01*
X50882Y-60562D01*
X50882Y-60065D01*
X50871Y-60056D01*
X50840Y-60041D01*
X50829Y-60039D01*
X50826Y-60046D01*
X50837Y-60056D01*
X50868Y-60070D01*
X50879Y-60072D01*
X50882Y-60065D01*
X50882Y-60562D01*
X50873Y-60571D01*
X50842Y-60560D01*
X50825Y-60545D01*
X50808Y-60519D01*
X50811Y-60485D01*
X50816Y-60470D01*
X50826Y-60437D01*
X50820Y-60424D01*
X50817Y-60423D01*
X50817Y-59642D01*
X50815Y-59635D01*
X50809Y-59633D01*
X50807Y-59656D01*
X50809Y-59679D01*
X50815Y-59676D01*
X50817Y-59642D01*
X50817Y-60423D01*
X50803Y-60422D01*
X50784Y-60428D01*
X50784Y-59007D01*
X50778Y-58995D01*
X50752Y-58987D01*
X50708Y-58979D01*
X50662Y-58974D01*
X50642Y-58980D01*
X50637Y-58993D01*
X50648Y-59012D01*
X50673Y-59010D01*
X50710Y-59013D01*
X50724Y-59028D01*
X50747Y-59053D01*
X50768Y-59046D01*
X50778Y-59028D01*
X50784Y-59007D01*
X50784Y-60428D01*
X50776Y-60430D01*
X50771Y-60441D01*
X50757Y-60451D01*
X50737Y-60448D01*
X50737Y-59939D01*
X50737Y-59935D01*
X50736Y-59881D01*
X50695Y-59931D01*
X50664Y-59974D01*
X50656Y-59998D01*
X50672Y-60002D01*
X50680Y-59999D01*
X50712Y-59990D01*
X50722Y-59989D01*
X50732Y-59974D01*
X50737Y-59939D01*
X50737Y-60448D01*
X50718Y-60446D01*
X50714Y-60445D01*
X50714Y-60150D01*
X50708Y-60144D01*
X50689Y-60122D01*
X50687Y-60112D01*
X50673Y-60094D01*
X50643Y-60089D01*
X50612Y-60090D01*
X50611Y-60100D01*
X50630Y-60121D01*
X50666Y-60146D01*
X50696Y-60153D01*
X50714Y-60150D01*
X50714Y-60445D01*
X50664Y-60429D01*
X50647Y-60426D01*
X50647Y-60443D01*
X50655Y-60467D01*
X50674Y-60502D01*
X50711Y-60525D01*
X50747Y-60537D01*
X50793Y-60553D01*
X50814Y-60569D01*
X50818Y-60593D01*
X50817Y-60603D01*
X50806Y-60637D01*
X50778Y-60646D01*
X50776Y-60646D01*
X50750Y-60650D01*
X50747Y-60658D01*
X50768Y-60670D01*
X50798Y-60671D01*
X50818Y-60662D01*
X50821Y-60656D01*
X50834Y-60643D01*
X50868Y-60639D01*
X50908Y-60644D01*
X50943Y-60656D01*
X50955Y-60665D01*
X50974Y-60683D01*
X50984Y-60671D01*
X50988Y-60662D01*
X50994Y-60620D01*
X50994Y-61231D01*
X50911Y-61236D01*
X50855Y-61242D01*
X50823Y-61252D01*
X50810Y-61270D01*
X50808Y-61274D01*
X50788Y-61300D01*
X50770Y-61306D01*
X50750Y-61314D01*
X50738Y-61345D01*
X50734Y-61376D01*
X50738Y-61467D01*
X50772Y-61543D01*
X50785Y-61560D01*
X50809Y-61585D01*
X50816Y-61584D01*
X50806Y-61559D01*
X50792Y-61507D01*
X50793Y-61444D01*
X50809Y-61387D01*
X50815Y-61376D01*
X50851Y-61345D01*
X50901Y-61342D01*
X50940Y-61357D01*
X50965Y-61369D01*
X50978Y-61365D01*
X50987Y-61341D01*
X50995Y-61297D01*
X51005Y-61231D01*
X51005Y-61611D01*
X50996Y-61583D01*
X50972Y-61532D01*
X50951Y-61512D01*
X50942Y-61513D01*
X50911Y-61521D01*
X50903Y-61522D01*
X50890Y-61536D01*
X50887Y-61557D01*
X50873Y-61590D01*
X50852Y-61601D01*
X50834Y-61608D01*
X50833Y-61620D01*
X50852Y-61644D01*
X50881Y-61672D01*
X50933Y-61717D01*
X50967Y-61735D01*
X50985Y-61725D01*
X50987Y-61707D01*
X50996Y-61677D01*
X51006Y-61669D01*
X51014Y-61653D01*
X51014Y-62453D01*
X51008Y-62454D01*
X50963Y-62454D01*
X50963Y-62088D01*
X50963Y-62074D01*
X50962Y-62047D01*
X50957Y-62016D01*
X50948Y-61994D01*
X50940Y-61988D01*
X50937Y-62002D01*
X50937Y-61956D01*
X50925Y-61933D01*
X50925Y-61933D01*
X50925Y-61849D01*
X50912Y-61830D01*
X50875Y-61803D01*
X50845Y-61783D01*
X50773Y-61728D01*
X50710Y-61658D01*
X50664Y-61585D01*
X50649Y-61545D01*
X50646Y-61542D01*
X50646Y-61568D01*
X50649Y-61606D01*
X50660Y-61680D01*
X50676Y-61726D01*
X50699Y-61750D01*
X50728Y-61756D01*
X50787Y-61764D01*
X50817Y-61788D01*
X50821Y-61807D01*
X50832Y-61833D01*
X50846Y-61838D01*
X50874Y-61852D01*
X50881Y-61863D01*
X50893Y-61885D01*
X50906Y-61880D01*
X50919Y-61865D01*
X50925Y-61849D01*
X50925Y-61933D01*
X50921Y-61930D01*
X50906Y-61934D01*
X50904Y-61946D01*
X50913Y-61968D01*
X50921Y-61972D01*
X50937Y-61960D01*
X50937Y-61956D01*
X50937Y-62002D01*
X50929Y-62022D01*
X50907Y-62019D01*
X50878Y-61999D01*
X50849Y-61966D01*
X50825Y-61925D01*
X50819Y-61910D01*
X50803Y-61873D01*
X50788Y-61855D01*
X50786Y-61855D01*
X50774Y-61858D01*
X50773Y-61870D01*
X50784Y-61900D01*
X50804Y-61944D01*
X50853Y-62014D01*
X50900Y-62052D01*
X50938Y-62074D01*
X50960Y-62087D01*
X50963Y-62088D01*
X50963Y-62454D01*
X50959Y-62455D01*
X50920Y-62462D01*
X50916Y-62463D01*
X50903Y-62465D01*
X50903Y-62283D01*
X50891Y-62284D01*
X50874Y-62298D01*
X50864Y-62317D01*
X50869Y-62322D01*
X50892Y-62309D01*
X50896Y-62304D01*
X50903Y-62283D01*
X50903Y-62465D01*
X50884Y-62468D01*
X50832Y-62467D01*
X50795Y-62464D01*
X50741Y-62455D01*
X50713Y-62443D01*
X50711Y-62439D01*
X50711Y-62016D01*
X50708Y-62011D01*
X50674Y-62008D01*
X50667Y-62011D01*
X50664Y-62017D01*
X50687Y-62019D01*
X50711Y-62016D01*
X50711Y-62439D01*
X50704Y-62425D01*
X50704Y-62423D01*
X50692Y-62387D01*
X50679Y-62372D01*
X50648Y-62362D01*
X50620Y-62382D01*
X50614Y-62395D01*
X50614Y-61796D01*
X50607Y-61790D01*
X50593Y-61768D01*
X50587Y-61746D01*
X50587Y-60747D01*
X50579Y-60739D01*
X50571Y-60747D01*
X50579Y-60756D01*
X50587Y-60747D01*
X50587Y-61746D01*
X50583Y-61730D01*
X50578Y-61700D01*
X50575Y-61700D01*
X50574Y-61731D01*
X50573Y-61740D01*
X50576Y-61793D01*
X50590Y-61815D01*
X50608Y-61811D01*
X50614Y-61796D01*
X50614Y-62395D01*
X50598Y-62429D01*
X50595Y-62442D01*
X50577Y-62481D01*
X50569Y-62492D01*
X50569Y-60806D01*
X50564Y-60796D01*
X50554Y-60814D01*
X50542Y-60849D01*
X50540Y-60867D01*
X50549Y-60862D01*
X50554Y-60856D01*
X50568Y-60820D01*
X50569Y-60806D01*
X50569Y-62492D01*
X50567Y-62495D01*
X50567Y-61583D01*
X50565Y-61549D01*
X50558Y-61536D01*
X50548Y-61536D01*
X50551Y-61565D01*
X50551Y-61567D01*
X50559Y-61595D01*
X50565Y-61591D01*
X50567Y-61583D01*
X50567Y-62495D01*
X50544Y-62528D01*
X50503Y-62572D01*
X50487Y-62585D01*
X50487Y-61164D01*
X50479Y-61156D01*
X50471Y-61164D01*
X50479Y-61172D01*
X50487Y-61164D01*
X50487Y-62585D01*
X50462Y-62606D01*
X50459Y-62607D01*
X50459Y-60246D01*
X50459Y-60245D01*
X50439Y-60228D01*
X50393Y-60220D01*
X50319Y-60222D01*
X50314Y-60222D01*
X50274Y-60217D01*
X50251Y-60203D01*
X50240Y-60193D01*
X50241Y-60213D01*
X50241Y-60214D01*
X50254Y-60239D01*
X50288Y-60242D01*
X50290Y-60242D01*
X50326Y-60246D01*
X50342Y-60270D01*
X50351Y-60291D01*
X50370Y-60295D01*
X50409Y-60285D01*
X50450Y-60267D01*
X50459Y-60246D01*
X50459Y-62607D01*
X50457Y-62608D01*
X50457Y-62410D01*
X50444Y-62387D01*
X50425Y-62378D01*
X50421Y-62384D01*
X50411Y-62406D01*
X50387Y-62442D01*
X50371Y-62463D01*
X50350Y-62492D01*
X50350Y-62064D01*
X50346Y-62048D01*
X50329Y-62012D01*
X50311Y-61975D01*
X50287Y-61921D01*
X50273Y-61868D01*
X50266Y-61802D01*
X50265Y-61757D01*
X50263Y-61694D01*
X50261Y-61647D01*
X50259Y-61624D01*
X50259Y-61622D01*
X50254Y-61628D01*
X50254Y-61281D01*
X50246Y-61272D01*
X50237Y-61281D01*
X50246Y-61289D01*
X50254Y-61281D01*
X50254Y-61628D01*
X50249Y-61635D01*
X50229Y-61667D01*
X50229Y-61291D01*
X50204Y-61296D01*
X50204Y-60097D01*
X50196Y-60089D01*
X50187Y-60097D01*
X50196Y-60106D01*
X50204Y-60097D01*
X50204Y-61296D01*
X50179Y-61300D01*
X50131Y-61314D01*
X50111Y-61333D01*
X50115Y-61363D01*
X50116Y-61365D01*
X50126Y-61387D01*
X50131Y-61377D01*
X50134Y-61363D01*
X50152Y-61331D01*
X50184Y-61310D01*
X50229Y-61291D01*
X50229Y-61667D01*
X50229Y-61668D01*
X50213Y-61694D01*
X50178Y-61776D01*
X50174Y-61852D01*
X50203Y-61929D01*
X50219Y-61955D01*
X50253Y-61998D01*
X50291Y-62035D01*
X50325Y-62060D01*
X50348Y-62066D01*
X50350Y-62064D01*
X50350Y-62492D01*
X50335Y-62515D01*
X50323Y-62546D01*
X50334Y-62557D01*
X50368Y-62545D01*
X50395Y-62529D01*
X50431Y-62494D01*
X50453Y-62450D01*
X50457Y-62410D01*
X50457Y-62608D01*
X50430Y-62622D01*
X50427Y-62622D01*
X50396Y-62626D01*
X50348Y-62635D01*
X50328Y-62640D01*
X50282Y-62654D01*
X50260Y-62671D01*
X50254Y-62698D01*
X50254Y-62704D01*
X50242Y-62750D01*
X50220Y-62781D01*
X50189Y-62817D01*
X50148Y-62876D01*
X50127Y-62909D01*
X50127Y-62347D01*
X50127Y-62340D01*
X50113Y-62358D01*
X50096Y-62385D01*
X50087Y-62402D01*
X50087Y-61036D01*
X50074Y-61031D01*
X50054Y-61034D01*
X50027Y-61033D01*
X50021Y-61016D01*
X50021Y-60931D01*
X50012Y-60922D01*
X50004Y-60931D01*
X50012Y-60939D01*
X50021Y-60931D01*
X50021Y-61016D01*
X50008Y-60992D01*
X49996Y-60989D01*
X49966Y-60978D01*
X49939Y-60957D01*
X49894Y-60934D01*
X49865Y-60934D01*
X49857Y-60938D01*
X49857Y-60838D01*
X49852Y-60835D01*
X49812Y-60830D01*
X49768Y-60839D01*
X49752Y-60848D01*
X49752Y-60697D01*
X49740Y-60670D01*
X49731Y-60657D01*
X49712Y-60617D01*
X49704Y-60557D01*
X49704Y-60552D01*
X49695Y-60482D01*
X49670Y-60437D01*
X49637Y-60399D01*
X49637Y-60381D01*
X49629Y-60372D01*
X49621Y-60381D01*
X49629Y-60389D01*
X49637Y-60381D01*
X49637Y-60399D01*
X49636Y-60397D01*
X49646Y-60450D01*
X49648Y-60493D01*
X49632Y-60516D01*
X49629Y-60518D01*
X49612Y-60534D01*
X49608Y-60564D01*
X49613Y-60611D01*
X49623Y-60660D01*
X49636Y-60683D01*
X49659Y-60689D01*
X49660Y-60689D01*
X49701Y-60697D01*
X49721Y-60705D01*
X49745Y-60712D01*
X49752Y-60697D01*
X49752Y-60848D01*
X49737Y-60857D01*
X49731Y-60866D01*
X49731Y-60883D01*
X49752Y-60886D01*
X49799Y-60873D01*
X49820Y-60866D01*
X49855Y-60850D01*
X49857Y-60838D01*
X49857Y-60938D01*
X49835Y-60948D01*
X49834Y-60967D01*
X49859Y-60986D01*
X49888Y-60995D01*
X49927Y-61011D01*
X49937Y-61037D01*
X49951Y-61067D01*
X49975Y-61075D01*
X50013Y-61074D01*
X50052Y-61062D01*
X50081Y-61047D01*
X50087Y-61036D01*
X50087Y-62402D01*
X50068Y-62441D01*
X50062Y-62482D01*
X50078Y-62503D01*
X50092Y-62505D01*
X50108Y-62489D01*
X50114Y-62444D01*
X50114Y-62443D01*
X50117Y-62391D01*
X50126Y-62350D01*
X50127Y-62347D01*
X50127Y-62909D01*
X50107Y-62942D01*
X50107Y-62764D01*
X50060Y-62752D01*
X50007Y-62739D01*
X50004Y-62738D01*
X50004Y-62330D01*
X49996Y-62322D01*
X49987Y-62330D01*
X49996Y-62338D01*
X50004Y-62330D01*
X50004Y-62738D01*
X49962Y-62726D01*
X49955Y-62724D01*
X49955Y-61861D01*
X49936Y-61856D01*
X49893Y-61855D01*
X49855Y-61855D01*
X49794Y-61856D01*
X49766Y-61859D01*
X49766Y-61394D01*
X49750Y-61389D01*
X49748Y-61389D01*
X49730Y-61398D01*
X49730Y-61165D01*
X49730Y-61151D01*
X49716Y-61118D01*
X49710Y-61101D01*
X49696Y-61077D01*
X49675Y-61077D01*
X49639Y-61102D01*
X49637Y-61103D01*
X49637Y-60897D01*
X49629Y-60889D01*
X49621Y-60897D01*
X49629Y-60906D01*
X49637Y-60897D01*
X49637Y-61103D01*
X49635Y-61105D01*
X49598Y-61135D01*
X49598Y-60370D01*
X49594Y-60358D01*
X49576Y-60331D01*
X49546Y-60298D01*
X49521Y-60280D01*
X49515Y-60284D01*
X49531Y-60306D01*
X49545Y-60321D01*
X49582Y-60358D01*
X49598Y-60370D01*
X49598Y-61135D01*
X49596Y-61138D01*
X49633Y-61138D01*
X49662Y-61145D01*
X49671Y-61156D01*
X49685Y-61169D01*
X49705Y-61172D01*
X49730Y-61165D01*
X49730Y-61398D01*
X49724Y-61401D01*
X49721Y-61414D01*
X49724Y-61436D01*
X49727Y-61439D01*
X49741Y-61428D01*
X49754Y-61414D01*
X49766Y-61394D01*
X49766Y-61859D01*
X49758Y-61861D01*
X49739Y-61871D01*
X49729Y-61890D01*
X49728Y-61893D01*
X49709Y-61927D01*
X49675Y-61968D01*
X49654Y-61989D01*
X49654Y-61634D01*
X49644Y-61605D01*
X49624Y-61593D01*
X49605Y-61605D01*
X49580Y-61619D01*
X49571Y-61619D01*
X49571Y-61164D01*
X49571Y-61014D01*
X49562Y-61006D01*
X49554Y-61014D01*
X49562Y-61022D01*
X49571Y-61014D01*
X49571Y-61164D01*
X49562Y-61156D01*
X49554Y-61164D01*
X49562Y-61172D01*
X49571Y-61164D01*
X49571Y-61619D01*
X49561Y-61619D01*
X49533Y-61626D01*
X49524Y-61651D01*
X49514Y-61681D01*
X49504Y-61689D01*
X49495Y-61700D01*
X49495Y-61148D01*
X49475Y-61159D01*
X49471Y-61161D01*
X49434Y-61181D01*
X49409Y-61189D01*
X49393Y-61175D01*
X49388Y-61139D01*
X49392Y-61093D01*
X49407Y-61045D01*
X49412Y-61033D01*
X49430Y-60988D01*
X49437Y-60951D01*
X49450Y-60914D01*
X49467Y-60895D01*
X49485Y-60877D01*
X49480Y-60861D01*
X49458Y-60840D01*
X49431Y-60811D01*
X49421Y-60788D01*
X49409Y-60776D01*
X49373Y-60779D01*
X49367Y-60781D01*
X49292Y-60792D01*
X49244Y-60788D01*
X49222Y-60769D01*
X49229Y-60737D01*
X49260Y-60698D01*
X49287Y-60670D01*
X49290Y-60658D01*
X49272Y-60656D01*
X49268Y-60656D01*
X49243Y-60649D01*
X49240Y-60624D01*
X49241Y-60614D01*
X49239Y-60578D01*
X49216Y-60543D01*
X49168Y-60508D01*
X49107Y-60477D01*
X49107Y-60316D01*
X49103Y-60292D01*
X49098Y-60279D01*
X49076Y-60249D01*
X49057Y-60239D01*
X49034Y-60225D01*
X49026Y-60208D01*
X49009Y-60185D01*
X48978Y-60185D01*
X48947Y-60199D01*
X48937Y-60215D01*
X48932Y-60231D01*
X48911Y-60243D01*
X48869Y-60255D01*
X48813Y-60266D01*
X48773Y-60274D01*
X48764Y-60282D01*
X48779Y-60290D01*
X48814Y-60298D01*
X48868Y-60304D01*
X48904Y-60306D01*
X48962Y-60309D01*
X49010Y-60316D01*
X49029Y-60321D01*
X49069Y-60328D01*
X49089Y-60327D01*
X49107Y-60316D01*
X49107Y-60477D01*
X49094Y-60471D01*
X48993Y-60430D01*
X48930Y-60417D01*
X48848Y-60412D01*
X48760Y-60417D01*
X48679Y-60430D01*
X48625Y-60447D01*
X48583Y-60468D01*
X48557Y-60486D01*
X48554Y-60492D01*
X48540Y-60504D01*
X48530Y-60506D01*
X48494Y-60520D01*
X48455Y-60560D01*
X48417Y-60617D01*
X48385Y-60683D01*
X48364Y-60752D01*
X48361Y-60768D01*
X48356Y-60809D01*
X48364Y-60834D01*
X48391Y-60854D01*
X48419Y-60870D01*
X48465Y-60891D01*
X48501Y-60904D01*
X48510Y-60906D01*
X48545Y-60918D01*
X48580Y-60950D01*
X48609Y-60992D01*
X48630Y-61036D01*
X48635Y-61074D01*
X48622Y-61096D01*
X48605Y-61119D01*
X48609Y-61144D01*
X48630Y-61156D01*
X48657Y-61169D01*
X48667Y-61198D01*
X48655Y-61229D01*
X48646Y-61250D01*
X48667Y-61263D01*
X48669Y-61263D01*
X48701Y-61287D01*
X48713Y-61306D01*
X48719Y-61322D01*
X48729Y-61330D01*
X48749Y-61331D01*
X48788Y-61324D01*
X48850Y-61310D01*
X48871Y-61305D01*
X48921Y-61295D01*
X48988Y-61284D01*
X49067Y-61273D01*
X49149Y-61263D01*
X49228Y-61255D01*
X49296Y-61249D01*
X49346Y-61246D01*
X49371Y-61248D01*
X49372Y-61248D01*
X49405Y-61254D01*
X49441Y-61243D01*
X49467Y-61222D01*
X49471Y-61209D01*
X49482Y-61171D01*
X49492Y-61156D01*
X49495Y-61148D01*
X49495Y-61700D01*
X49492Y-61703D01*
X49480Y-61739D01*
X49479Y-61743D01*
X49469Y-61791D01*
X49460Y-61830D01*
X49456Y-61851D01*
X49464Y-61845D01*
X49478Y-61826D01*
X49511Y-61794D01*
X49538Y-61792D01*
X49554Y-61817D01*
X49556Y-61834D01*
X49559Y-61851D01*
X49567Y-61836D01*
X49581Y-61790D01*
X49581Y-61788D01*
X49599Y-61735D01*
X49618Y-61694D01*
X49630Y-61679D01*
X49651Y-61649D01*
X49654Y-61634D01*
X49654Y-61989D01*
X49635Y-62009D01*
X49596Y-62041D01*
X49568Y-62055D01*
X49567Y-62055D01*
X49538Y-62066D01*
X49510Y-62087D01*
X49466Y-62113D01*
X49397Y-62138D01*
X49371Y-62144D01*
X49371Y-61579D01*
X49367Y-61558D01*
X49361Y-61556D01*
X49344Y-61561D01*
X49344Y-61367D01*
X49342Y-61361D01*
X49307Y-61359D01*
X49300Y-61361D01*
X49298Y-61367D01*
X49321Y-61370D01*
X49344Y-61367D01*
X49344Y-61561D01*
X49325Y-61568D01*
X49302Y-61596D01*
X49299Y-61622D01*
X49313Y-61651D01*
X49335Y-61649D01*
X49351Y-61636D01*
X49365Y-61610D01*
X49371Y-61579D01*
X49371Y-62144D01*
X49311Y-62160D01*
X49295Y-62162D01*
X49295Y-61914D01*
X49291Y-61886D01*
X49282Y-61866D01*
X49271Y-61845D01*
X49271Y-61454D01*
X49269Y-61449D01*
X49247Y-61446D01*
X49209Y-61457D01*
X49169Y-61475D01*
X49169Y-61388D01*
X49156Y-61377D01*
X49112Y-61372D01*
X49111Y-61372D01*
X49064Y-61377D01*
X49009Y-61388D01*
X48955Y-61404D01*
X48912Y-61421D01*
X48889Y-61437D01*
X48887Y-61441D01*
X48902Y-61450D01*
X48936Y-61455D01*
X48977Y-61454D01*
X49013Y-61449D01*
X49028Y-61440D01*
X49049Y-61428D01*
X49090Y-61416D01*
X49104Y-61414D01*
X49151Y-61401D01*
X49169Y-61388D01*
X49169Y-61475D01*
X49168Y-61476D01*
X49134Y-61497D01*
X49121Y-61516D01*
X49108Y-61542D01*
X49089Y-61558D01*
X49068Y-61580D01*
X49075Y-61606D01*
X49075Y-61607D01*
X49088Y-61621D01*
X49105Y-61620D01*
X49134Y-61601D01*
X49165Y-61575D01*
X49205Y-61539D01*
X49231Y-61508D01*
X49237Y-61495D01*
X49251Y-61472D01*
X49258Y-61468D01*
X49271Y-61454D01*
X49271Y-61845D01*
X49259Y-61822D01*
X49237Y-61864D01*
X49209Y-61895D01*
X49180Y-61905D01*
X49147Y-61917D01*
X49107Y-61946D01*
X49097Y-61955D01*
X49064Y-61986D01*
X49039Y-62004D01*
X49035Y-62005D01*
X49023Y-62019D01*
X49021Y-62038D01*
X49021Y-61714D01*
X49012Y-61706D01*
X49004Y-61714D01*
X49004Y-61681D01*
X48996Y-61672D01*
X48987Y-61681D01*
X48996Y-61689D01*
X49004Y-61681D01*
X49004Y-61714D01*
X49012Y-61722D01*
X49021Y-61714D01*
X49021Y-62038D01*
X49024Y-62055D01*
X49039Y-62061D01*
X49069Y-62054D01*
X49119Y-62033D01*
X49181Y-62004D01*
X49230Y-61977D01*
X49269Y-61948D01*
X49277Y-61940D01*
X49295Y-61914D01*
X49295Y-62162D01*
X49214Y-62177D01*
X49115Y-62188D01*
X49026Y-62192D01*
X48987Y-62189D01*
X48987Y-61930D01*
X48979Y-61922D01*
X48971Y-61930D01*
X48971Y-61830D01*
X48962Y-61822D01*
X48954Y-61830D01*
X48962Y-61838D01*
X48971Y-61830D01*
X48971Y-61930D01*
X48979Y-61938D01*
X48987Y-61930D01*
X48987Y-62189D01*
X48937Y-62186D01*
X48937Y-61863D01*
X48929Y-61855D01*
X48921Y-61863D01*
X48929Y-61872D01*
X48937Y-61863D01*
X48937Y-62186D01*
X48925Y-62186D01*
X48917Y-62184D01*
X48917Y-61740D01*
X48914Y-61739D01*
X48904Y-61747D01*
X48904Y-61681D01*
X48896Y-61672D01*
X48887Y-61681D01*
X48896Y-61689D01*
X48904Y-61681D01*
X48904Y-61747D01*
X48899Y-61751D01*
X48896Y-61756D01*
X48891Y-61771D01*
X48894Y-61772D01*
X48909Y-61760D01*
X48912Y-61756D01*
X48917Y-61740D01*
X48917Y-62184D01*
X48837Y-62172D01*
X48837Y-61940D01*
X48823Y-61913D01*
X48788Y-61896D01*
X48745Y-61895D01*
X48728Y-61899D01*
X48715Y-61909D01*
X48726Y-61923D01*
X48756Y-61940D01*
X48802Y-61963D01*
X48827Y-61969D01*
X48836Y-61957D01*
X48837Y-61940D01*
X48837Y-62172D01*
X48821Y-62170D01*
X48719Y-62147D01*
X48628Y-62119D01*
X48555Y-62088D01*
X48537Y-62075D01*
X48537Y-61310D01*
X48526Y-61280D01*
X48500Y-61239D01*
X48487Y-61223D01*
X48450Y-61173D01*
X48439Y-61137D01*
X48452Y-61106D01*
X48460Y-61097D01*
X48475Y-61063D01*
X48475Y-61031D01*
X48463Y-60999D01*
X48448Y-60989D01*
X48438Y-61004D01*
X48437Y-61016D01*
X48430Y-61033D01*
X48401Y-61038D01*
X48379Y-61036D01*
X48336Y-61035D01*
X48321Y-61049D01*
X48321Y-61051D01*
X48307Y-61068D01*
X48287Y-61072D01*
X48267Y-61074D01*
X48264Y-61084D01*
X48279Y-61110D01*
X48291Y-61129D01*
X48327Y-61174D01*
X48368Y-61209D01*
X48374Y-61213D01*
X48416Y-61247D01*
X48449Y-61289D01*
X48477Y-61323D01*
X48507Y-61338D01*
X48529Y-61333D01*
X48537Y-61310D01*
X48537Y-62075D01*
X48507Y-62055D01*
X48506Y-62053D01*
X48489Y-62038D01*
X48476Y-62037D01*
X48461Y-62055D01*
X48438Y-62097D01*
X48423Y-62126D01*
X48395Y-62187D01*
X48387Y-62206D01*
X48387Y-61431D01*
X48379Y-61422D01*
X48371Y-61431D01*
X48379Y-61439D01*
X48387Y-61431D01*
X48387Y-62206D01*
X48372Y-62245D01*
X48371Y-62248D01*
X48371Y-62013D01*
X48362Y-62005D01*
X48354Y-62013D01*
X48362Y-62022D01*
X48371Y-62013D01*
X48371Y-62248D01*
X48360Y-62284D01*
X48356Y-62321D01*
X48366Y-62336D01*
X48396Y-62338D01*
X48442Y-62352D01*
X48493Y-62395D01*
X48498Y-62400D01*
X48530Y-62439D01*
X48551Y-62469D01*
X48555Y-62479D01*
X48567Y-62498D01*
X48599Y-62529D01*
X48630Y-62555D01*
X48680Y-62602D01*
X48702Y-62640D01*
X48694Y-62668D01*
X48677Y-62678D01*
X48662Y-62689D01*
X48671Y-62705D01*
X48688Y-62719D01*
X48715Y-62750D01*
X48713Y-62781D01*
X48712Y-62782D01*
X48702Y-62821D01*
X48709Y-62864D01*
X48733Y-62917D01*
X48751Y-62958D01*
X48746Y-62981D01*
X48715Y-62990D01*
X48676Y-62991D01*
X48591Y-62990D01*
X48541Y-62986D01*
X48541Y-62870D01*
X48540Y-62858D01*
X48525Y-62826D01*
X48512Y-62801D01*
X48483Y-62741D01*
X48472Y-62698D01*
X48479Y-62674D01*
X48489Y-62672D01*
X48498Y-62664D01*
X48487Y-62647D01*
X48474Y-62611D01*
X48475Y-62589D01*
X48472Y-62553D01*
X48461Y-62537D01*
X48444Y-62529D01*
X48438Y-62547D01*
X48437Y-62561D01*
X48432Y-62594D01*
X48421Y-62605D01*
X48407Y-62619D01*
X48404Y-62640D01*
X48395Y-62677D01*
X48372Y-62720D01*
X48369Y-62724D01*
X48347Y-62758D01*
X48344Y-62780D01*
X48360Y-62802D01*
X48363Y-62805D01*
X48402Y-62831D01*
X48465Y-62854D01*
X48541Y-62870D01*
X48541Y-62986D01*
X48530Y-62986D01*
X48484Y-62977D01*
X48444Y-62964D01*
X48443Y-62963D01*
X48406Y-62949D01*
X48391Y-62952D01*
X48387Y-62976D01*
X48387Y-62987D01*
X48401Y-63035D01*
X48435Y-63083D01*
X48479Y-63121D01*
X48525Y-63138D01*
X48530Y-63138D01*
X48571Y-63128D01*
X48618Y-63104D01*
X48628Y-63097D01*
X48667Y-63070D01*
X48699Y-63056D01*
X48704Y-63055D01*
X48735Y-63050D01*
X48778Y-63037D01*
X48781Y-63035D01*
X48832Y-63024D01*
X48875Y-63034D01*
X48878Y-63035D01*
X48914Y-63063D01*
X48920Y-63097D01*
X48896Y-63128D01*
X48870Y-63141D01*
X48837Y-63156D01*
X48832Y-63172D01*
X48839Y-63182D01*
X48851Y-63216D01*
X48849Y-63237D01*
X48854Y-63269D01*
X48878Y-63286D01*
X48910Y-63285D01*
X48933Y-63268D01*
X48944Y-63240D01*
X48954Y-63192D01*
X48960Y-63153D01*
X48973Y-63082D01*
X48994Y-63009D01*
X49005Y-62981D01*
X49040Y-62902D01*
X48997Y-62857D01*
X48962Y-62811D01*
X48955Y-62777D01*
X48976Y-62758D01*
X49000Y-62754D01*
X49046Y-62754D01*
X49002Y-62717D01*
X48969Y-62675D01*
X48948Y-62620D01*
X48941Y-62564D01*
X48949Y-62517D01*
X48965Y-62496D01*
X48986Y-62478D01*
X48979Y-62473D01*
X48967Y-62472D01*
X48943Y-62459D01*
X48937Y-62431D01*
X48941Y-62400D01*
X48955Y-62383D01*
X48988Y-62380D01*
X49044Y-62387D01*
X49064Y-62390D01*
X49126Y-62400D01*
X49181Y-62406D01*
X49207Y-62406D01*
X49259Y-62419D01*
X49298Y-62455D01*
X49308Y-62475D01*
X49323Y-62475D01*
X49358Y-62455D01*
X49408Y-62416D01*
X49418Y-62408D01*
X49470Y-62368D01*
X49515Y-62337D01*
X49544Y-62322D01*
X49549Y-62322D01*
X49577Y-62317D01*
X49627Y-62304D01*
X49677Y-62289D01*
X49742Y-62269D01*
X49803Y-62251D01*
X49837Y-62241D01*
X49896Y-62226D01*
X49825Y-62213D01*
X49780Y-62203D01*
X49759Y-62188D01*
X49754Y-62161D01*
X49754Y-62157D01*
X49762Y-62126D01*
X49783Y-62079D01*
X49811Y-62027D01*
X49841Y-61978D01*
X49869Y-61940D01*
X49889Y-61922D01*
X49891Y-61922D01*
X49911Y-61911D01*
X49937Y-61888D01*
X49954Y-61871D01*
X49955Y-61861D01*
X49955Y-62724D01*
X49935Y-62720D01*
X49911Y-62724D01*
X49882Y-62744D01*
X49842Y-62782D01*
X49826Y-62798D01*
X49775Y-62846D01*
X49738Y-62873D01*
X49704Y-62884D01*
X49684Y-62885D01*
X49624Y-62886D01*
X49590Y-62890D01*
X49572Y-62900D01*
X49565Y-62913D01*
X49564Y-62928D01*
X49583Y-62926D01*
X49598Y-62921D01*
X49674Y-62906D01*
X49741Y-62922D01*
X49766Y-62938D01*
X49802Y-62962D01*
X49828Y-62972D01*
X49829Y-62972D01*
X49849Y-62985D01*
X49874Y-63018D01*
X49880Y-63030D01*
X49912Y-63089D01*
X49957Y-63001D01*
X49982Y-62950D01*
X49999Y-62910D01*
X50003Y-62892D01*
X50014Y-62868D01*
X50042Y-62833D01*
X50055Y-62817D01*
X50107Y-62764D01*
X50107Y-62942D01*
X50102Y-62950D01*
X50056Y-63031D01*
X50013Y-63112D01*
X49977Y-63185D01*
X49955Y-63240D01*
X49922Y-63361D01*
X49899Y-63495D01*
X49884Y-63632D01*
X49880Y-63763D01*
X49887Y-63881D01*
X49904Y-63972D01*
X49929Y-64035D01*
X49964Y-64096D01*
X49973Y-64108D01*
X50002Y-64151D01*
X50019Y-64188D01*
X50021Y-64198D01*
X50025Y-64218D01*
X50031Y-64217D01*
X50033Y-64196D01*
X50027Y-64154D01*
X50021Y-64126D01*
X50004Y-64036D01*
X49993Y-63923D01*
X49986Y-63795D01*
X49986Y-63662D01*
X49992Y-63535D01*
X49997Y-63472D01*
X50014Y-63346D01*
X50036Y-63241D01*
X50066Y-63149D01*
X50109Y-63061D01*
X50167Y-62967D01*
X50245Y-62860D01*
X50258Y-62843D01*
X50334Y-62764D01*
X50424Y-62699D01*
X50454Y-62683D01*
X50485Y-62666D01*
X50526Y-62641D01*
X50529Y-62639D01*
X50585Y-62603D01*
X50632Y-62576D01*
X50676Y-62557D01*
X50725Y-62544D01*
X50783Y-62536D01*
X50856Y-62532D01*
X50952Y-62530D01*
X51062Y-62530D01*
X51178Y-62530D01*
X51268Y-62531D01*
X51337Y-62535D01*
X51395Y-62542D01*
X51446Y-62554D01*
X51497Y-62572D01*
X51557Y-62598D01*
X51630Y-62632D01*
X51646Y-62640D01*
X51691Y-62659D01*
X51724Y-62670D01*
X51731Y-62672D01*
X51755Y-62683D01*
X51776Y-62703D01*
X51817Y-62726D01*
X51848Y-62725D01*
X51879Y-62723D01*
X51886Y-62737D01*
X51882Y-62754D01*
X51884Y-62789D01*
X51912Y-62825D01*
X51921Y-62833D01*
X51960Y-62874D01*
X52002Y-62926D01*
X52015Y-62944D01*
X52052Y-62996D01*
X52091Y-63045D01*
X52102Y-63059D01*
X52137Y-63106D01*
X52168Y-63161D01*
X52171Y-63168D01*
X52200Y-63230D01*
X52191Y-63168D01*
X52189Y-63122D01*
X52201Y-63105D01*
X52202Y-63105D01*
X52208Y-63093D01*
X52198Y-63061D01*
X52174Y-63016D01*
X52141Y-62965D01*
X52104Y-62913D01*
X52065Y-62868D01*
X52058Y-62861D01*
X52009Y-62807D01*
X51989Y-62769D01*
X51997Y-62746D01*
X52034Y-62738D01*
X52037Y-62738D01*
X52088Y-62729D01*
X52148Y-62705D01*
X52209Y-62672D01*
X52264Y-62633D01*
X52303Y-62595D01*
X52320Y-62563D01*
X52320Y-62560D01*
X52330Y-62541D01*
X52347Y-62520D01*
X52369Y-62503D01*
X52402Y-62497D01*
X52455Y-62500D01*
X52467Y-62501D01*
X52549Y-62520D01*
X52639Y-62560D01*
X52728Y-62612D01*
X52805Y-62672D01*
X52846Y-62718D01*
X52883Y-62764D01*
X52916Y-62804D01*
X52925Y-62814D01*
X52946Y-62845D01*
X52973Y-62898D01*
X53001Y-62962D01*
X53007Y-62979D01*
X53042Y-63058D01*
X53071Y-63104D01*
X53089Y-63117D01*
X53110Y-63134D01*
X53120Y-63160D01*
X53116Y-63182D01*
X53104Y-63188D01*
X53087Y-63201D01*
X53087Y-63205D01*
X53100Y-63220D01*
X53112Y-63222D01*
X53134Y-63235D01*
X53137Y-63247D01*
X53126Y-63269D01*
X53116Y-63272D01*
X53107Y-63280D01*
X53102Y-63307D01*
X53099Y-63356D01*
X53099Y-63433D01*
X53101Y-63499D01*
X53102Y-63588D01*
X53102Y-63660D01*
X53097Y-63723D01*
X53088Y-63785D01*
X53073Y-63856D01*
X53051Y-63945D01*
X53034Y-64013D01*
X53019Y-64047D01*
X53019Y-63495D01*
X53019Y-63364D01*
X53007Y-63249D01*
X52997Y-63205D01*
X52961Y-63082D01*
X52922Y-62984D01*
X52875Y-62900D01*
X52815Y-62822D01*
X52737Y-62741D01*
X52712Y-62718D01*
X52661Y-62676D01*
X52606Y-62639D01*
X52553Y-62611D01*
X52508Y-62594D01*
X52479Y-62592D01*
X52470Y-62603D01*
X52458Y-62628D01*
X52425Y-62666D01*
X52379Y-62709D01*
X52328Y-62751D01*
X52280Y-62785D01*
X52240Y-62806D01*
X52237Y-62807D01*
X52172Y-62826D01*
X52213Y-62859D01*
X52242Y-62890D01*
X52254Y-62919D01*
X52264Y-62954D01*
X52279Y-62979D01*
X52299Y-63017D01*
X52304Y-63042D01*
X52317Y-63067D01*
X52337Y-63072D01*
X52365Y-63060D01*
X52370Y-63041D01*
X52384Y-63014D01*
X52419Y-62980D01*
X52441Y-62964D01*
X52490Y-62936D01*
X52539Y-62922D01*
X52603Y-62916D01*
X52621Y-62915D01*
X52688Y-62917D01*
X52736Y-62925D01*
X52777Y-62945D01*
X52793Y-62955D01*
X52862Y-63019D01*
X52903Y-63100D01*
X52917Y-63192D01*
X52902Y-63291D01*
X52880Y-63348D01*
X52836Y-63423D01*
X52836Y-63204D01*
X52827Y-63162D01*
X52802Y-63110D01*
X52769Y-63060D01*
X52734Y-63023D01*
X52715Y-63012D01*
X52684Y-63006D01*
X52681Y-63019D01*
X52704Y-63050D01*
X52709Y-63056D01*
X52736Y-63098D01*
X52759Y-63162D01*
X52769Y-63201D01*
X52782Y-63256D01*
X52792Y-63283D01*
X52802Y-63288D01*
X52814Y-63276D01*
X52831Y-63236D01*
X52836Y-63204D01*
X52836Y-63423D01*
X52834Y-63426D01*
X52779Y-63475D01*
X52709Y-63500D01*
X52642Y-63505D01*
X52577Y-63502D01*
X52516Y-63495D01*
X52499Y-63491D01*
X52499Y-63331D01*
X52489Y-63293D01*
X52459Y-63252D01*
X52453Y-63246D01*
X52429Y-63227D01*
X52421Y-63231D01*
X52420Y-63244D01*
X52432Y-63268D01*
X52445Y-63272D01*
X52464Y-63285D01*
X52470Y-63314D01*
X52464Y-63345D01*
X52449Y-63361D01*
X52440Y-63369D01*
X52445Y-63370D01*
X52473Y-63363D01*
X52484Y-63357D01*
X52499Y-63331D01*
X52499Y-63491D01*
X52488Y-63489D01*
X52441Y-63479D01*
X52421Y-63486D01*
X52427Y-63511D01*
X52434Y-63524D01*
X52442Y-63551D01*
X52447Y-63603D01*
X52451Y-63669D01*
X52452Y-63743D01*
X52452Y-63817D01*
X52449Y-63882D01*
X52444Y-63930D01*
X52437Y-63954D01*
X52436Y-63955D01*
X52426Y-63975D01*
X52416Y-64016D01*
X52413Y-64031D01*
X52402Y-64098D01*
X52487Y-64139D01*
X52562Y-64185D01*
X52604Y-64240D01*
X52614Y-64304D01*
X52611Y-64325D01*
X52600Y-64377D01*
X52647Y-64342D01*
X52691Y-64307D01*
X52737Y-64263D01*
X52744Y-64257D01*
X52772Y-64224D01*
X52777Y-64208D01*
X52765Y-64205D01*
X52741Y-64193D01*
X52737Y-64180D01*
X52750Y-64158D01*
X52762Y-64155D01*
X52784Y-64164D01*
X52787Y-64172D01*
X52793Y-64186D01*
X52810Y-64175D01*
X52834Y-64143D01*
X52863Y-64095D01*
X52894Y-64036D01*
X52924Y-63971D01*
X52949Y-63904D01*
X52955Y-63889D01*
X52986Y-63768D01*
X53008Y-63633D01*
X53019Y-63495D01*
X53019Y-64047D01*
X53008Y-64073D01*
X52962Y-64147D01*
X52901Y-64225D01*
X52832Y-64300D01*
X52791Y-64338D01*
X52708Y-64401D01*
X52617Y-64451D01*
X52527Y-64486D01*
X52444Y-64503D01*
X52376Y-64499D01*
X52363Y-64495D01*
X52331Y-64468D01*
X52304Y-64421D01*
X52289Y-64366D01*
X52287Y-64342D01*
X52300Y-64299D01*
X52334Y-64268D01*
X52376Y-64257D01*
X52394Y-64261D01*
X52417Y-64282D01*
X52415Y-64311D01*
X52395Y-64328D01*
X52373Y-64349D01*
X52370Y-64361D01*
X52382Y-64390D01*
X52395Y-64405D01*
X52426Y-64415D01*
X52452Y-64398D01*
X52468Y-64358D01*
X52470Y-64329D01*
X52461Y-64281D01*
X52429Y-64245D01*
X52422Y-64239D01*
X52371Y-64212D01*
X52333Y-64211D01*
X52333Y-63610D01*
X52326Y-63491D01*
X52307Y-63374D01*
X52278Y-63260D01*
X52260Y-63248D01*
X52238Y-63250D01*
X52216Y-63256D01*
X52207Y-63264D01*
X52209Y-63283D01*
X52223Y-63323D01*
X52229Y-63340D01*
X52241Y-63393D01*
X52249Y-63470D01*
X52254Y-63565D01*
X52256Y-63670D01*
X52255Y-63777D01*
X52251Y-63878D01*
X52244Y-63966D01*
X52233Y-64031D01*
X52229Y-64047D01*
X52215Y-64098D01*
X52205Y-64138D01*
X52204Y-64151D01*
X52213Y-64170D01*
X52235Y-64164D01*
X52253Y-64148D01*
X52277Y-64101D01*
X52297Y-64023D01*
X52314Y-63917D01*
X52326Y-63786D01*
X52329Y-63748D01*
X52333Y-63610D01*
X52333Y-64211D01*
X52328Y-64211D01*
X52287Y-64240D01*
X52249Y-64288D01*
X52223Y-64345D01*
X52228Y-64401D01*
X52265Y-64460D01*
X52280Y-64476D01*
X52332Y-64522D01*
X52389Y-64549D01*
X52456Y-64559D01*
X52544Y-64553D01*
X52584Y-64547D01*
X52631Y-64538D01*
X52668Y-64527D01*
X52703Y-64508D01*
X52744Y-64476D01*
X52797Y-64429D01*
X52829Y-64400D01*
X52895Y-64336D01*
X52944Y-64283D01*
X52982Y-64231D01*
X53017Y-64168D01*
X53047Y-64108D01*
X53094Y-64007D01*
X53128Y-63921D01*
X53152Y-63841D01*
X53167Y-63756D01*
X53176Y-63657D01*
X53181Y-63555D01*
X53183Y-63390D01*
X53183Y-64256D01*
X53169Y-64289D01*
X53150Y-64316D01*
X53148Y-64317D01*
X53124Y-64340D01*
X53101Y-64372D01*
X53072Y-64410D01*
X53032Y-64455D01*
X53019Y-64469D01*
X52987Y-64504D01*
X52977Y-64525D01*
X52988Y-64539D01*
X53024Y-64552D01*
X53050Y-64555D01*
X53096Y-64562D01*
X53120Y-64571D01*
X53147Y-64578D01*
X53159Y-64564D01*
X53184Y-64538D01*
X53232Y-64512D01*
X53295Y-64490D01*
X53362Y-64476D01*
X53413Y-64472D01*
X53492Y-64476D01*
X53551Y-64493D01*
X53603Y-64526D01*
X53629Y-64550D01*
X53686Y-64627D01*
X53716Y-64719D01*
X53719Y-64822D01*
X53694Y-64930D01*
X53662Y-65004D01*
X53609Y-65085D01*
X53585Y-65105D01*
X53585Y-64671D01*
X53580Y-64661D01*
X53555Y-64635D01*
X53530Y-64613D01*
X53474Y-64572D01*
X53425Y-64557D01*
X53413Y-64557D01*
X53386Y-64559D01*
X53384Y-64563D01*
X53410Y-64573D01*
X53439Y-64582D01*
X53492Y-64603D01*
X53534Y-64629D01*
X53545Y-64639D01*
X53571Y-64663D01*
X53585Y-64671D01*
X53585Y-65105D01*
X53546Y-65140D01*
X53539Y-65143D01*
X53539Y-64785D01*
X53515Y-64729D01*
X53496Y-64706D01*
X53437Y-64660D01*
X53378Y-64646D01*
X53314Y-64663D01*
X53297Y-64673D01*
X53265Y-64694D01*
X53246Y-64715D01*
X53238Y-64746D01*
X53235Y-64797D01*
X53234Y-64815D01*
X53233Y-64873D01*
X53231Y-64918D01*
X53230Y-64938D01*
X53240Y-64970D01*
X53269Y-65005D01*
X53304Y-65031D01*
X53327Y-65038D01*
X53367Y-65034D01*
X53417Y-65023D01*
X53420Y-65022D01*
X53462Y-65004D01*
X53492Y-64970D01*
X53510Y-64935D01*
X53537Y-64852D01*
X53539Y-64785D01*
X53539Y-65143D01*
X53468Y-65173D01*
X53369Y-65187D01*
X53327Y-65188D01*
X53208Y-65188D01*
X53152Y-65116D01*
X53152Y-64769D01*
X53150Y-64724D01*
X53142Y-64695D01*
X53128Y-64675D01*
X53117Y-64665D01*
X53080Y-64630D01*
X53110Y-64667D01*
X53127Y-64692D01*
X53134Y-64723D01*
X53134Y-64769D01*
X53130Y-64821D01*
X53126Y-64882D01*
X53126Y-64932D01*
X53131Y-64959D01*
X53132Y-64959D01*
X53138Y-64954D01*
X53144Y-64921D01*
X53149Y-64866D01*
X53150Y-64840D01*
X53152Y-64769D01*
X53152Y-65116D01*
X53129Y-65087D01*
X53080Y-65018D01*
X53052Y-64962D01*
X53041Y-64915D01*
X53034Y-64870D01*
X53022Y-64851D01*
X53001Y-64850D01*
X52996Y-64851D01*
X52962Y-64847D01*
X52954Y-64841D01*
X52954Y-64547D01*
X52945Y-64538D01*
X52937Y-64547D01*
X52945Y-64555D01*
X52954Y-64547D01*
X52954Y-64841D01*
X52921Y-64820D01*
X52889Y-64791D01*
X52820Y-64723D01*
X52778Y-64768D01*
X52736Y-64827D01*
X52724Y-64886D01*
X52736Y-64944D01*
X52753Y-64979D01*
X52780Y-65007D01*
X52828Y-65034D01*
X52852Y-65045D01*
X52904Y-65067D01*
X52944Y-65083D01*
X52962Y-65088D01*
X52981Y-65098D01*
X53016Y-65122D01*
X53039Y-65140D01*
X53079Y-65175D01*
X53098Y-65207D01*
X53103Y-65249D01*
X53103Y-65261D01*
X53092Y-65365D01*
X53058Y-65446D01*
X53005Y-65502D01*
X53004Y-65502D01*
X53004Y-65230D01*
X52995Y-65222D01*
X52987Y-65230D01*
X52995Y-65238D01*
X53004Y-65230D01*
X53004Y-65502D01*
X52954Y-65523D01*
X52954Y-65180D01*
X52945Y-65172D01*
X52937Y-65180D01*
X52945Y-65188D01*
X52954Y-65180D01*
X52954Y-65523D01*
X52934Y-65531D01*
X52848Y-65531D01*
X52779Y-65515D01*
X52725Y-65497D01*
X52691Y-65490D01*
X52670Y-65495D01*
X52650Y-65511D01*
X52646Y-65515D01*
X52627Y-65550D01*
X52621Y-65595D01*
X52628Y-65634D01*
X52641Y-65650D01*
X52667Y-65655D01*
X52716Y-65658D01*
X52779Y-65658D01*
X52790Y-65657D01*
X52860Y-65656D01*
X52906Y-65659D01*
X52940Y-65670D01*
X52969Y-65688D01*
X53003Y-65719D01*
X53020Y-65748D01*
X53021Y-65752D01*
X53031Y-65787D01*
X53046Y-65812D01*
X53069Y-65868D01*
X53060Y-65931D01*
X53022Y-65999D01*
X52971Y-66054D01*
X52917Y-66093D01*
X52861Y-66105D01*
X52860Y-66105D01*
X52811Y-66111D01*
X52772Y-66125D01*
X52771Y-66125D01*
X52752Y-66132D01*
X52731Y-66126D01*
X52701Y-66103D01*
X52656Y-66058D01*
X52599Y-66003D01*
X52561Y-65975D01*
X52540Y-65975D01*
X52537Y-65988D01*
X52523Y-66004D01*
X52495Y-66015D01*
X52464Y-66028D01*
X52454Y-66040D01*
X52440Y-66055D01*
X52404Y-66076D01*
X52374Y-66091D01*
X52323Y-66114D01*
X52280Y-66134D01*
X52266Y-66141D01*
X52228Y-66151D01*
X52188Y-66155D01*
X52150Y-66159D01*
X52130Y-66170D01*
X52109Y-66183D01*
X52070Y-66194D01*
X52068Y-66195D01*
X52019Y-66212D01*
X51967Y-66242D01*
X51960Y-66247D01*
X51907Y-66280D01*
X51872Y-66286D01*
X51855Y-66264D01*
X51854Y-66248D01*
X51865Y-66210D01*
X51896Y-66160D01*
X51940Y-66106D01*
X51989Y-66055D01*
X52037Y-66014D01*
X52077Y-65991D01*
X52091Y-65988D01*
X52120Y-65981D01*
X52126Y-65977D01*
X52154Y-65961D01*
X52201Y-65944D01*
X52254Y-65929D01*
X52298Y-65922D01*
X52304Y-65922D01*
X52340Y-65913D01*
X52393Y-65893D01*
X52435Y-65871D01*
X52487Y-65845D01*
X52531Y-65827D01*
X52552Y-65822D01*
X52583Y-65829D01*
X52628Y-65846D01*
X52677Y-65868D01*
X52720Y-65892D01*
X52748Y-65911D01*
X52754Y-65919D01*
X52768Y-65934D01*
X52793Y-65942D01*
X52837Y-65938D01*
X52876Y-65916D01*
X52899Y-65884D01*
X52901Y-65862D01*
X52893Y-65844D01*
X52872Y-65834D01*
X52830Y-65828D01*
X52782Y-65825D01*
X52722Y-65821D01*
X52688Y-65815D01*
X52673Y-65804D01*
X52670Y-65788D01*
X52662Y-65760D01*
X52645Y-65757D01*
X52633Y-65775D01*
X52618Y-65786D01*
X52582Y-65782D01*
X52569Y-65779D01*
X52513Y-65748D01*
X52469Y-65698D01*
X52446Y-65640D01*
X52445Y-65597D01*
X52468Y-65496D01*
X52495Y-65424D01*
X52530Y-65376D01*
X52578Y-65347D01*
X52643Y-65334D01*
X52695Y-65331D01*
X52761Y-65333D01*
X52804Y-65343D01*
X52835Y-65361D01*
X52836Y-65363D01*
X52869Y-65384D01*
X52897Y-65380D01*
X52900Y-65378D01*
X52931Y-65345D01*
X52932Y-65308D01*
X52920Y-65289D01*
X52920Y-65163D01*
X52912Y-65155D01*
X52904Y-65163D01*
X52912Y-65172D01*
X52920Y-65163D01*
X52920Y-65289D01*
X52908Y-65271D01*
X52860Y-65239D01*
X52802Y-65220D01*
X52708Y-65184D01*
X52638Y-65124D01*
X52591Y-65043D01*
X52571Y-64942D01*
X52570Y-64913D01*
X52575Y-64851D01*
X52586Y-64796D01*
X52595Y-64773D01*
X52610Y-64740D01*
X52605Y-64724D01*
X52582Y-64715D01*
X52543Y-64709D01*
X52488Y-64706D01*
X52465Y-64705D01*
X52405Y-64700D01*
X52351Y-64686D01*
X52336Y-64680D01*
X52299Y-64664D01*
X52272Y-64666D01*
X52247Y-64681D01*
X52209Y-64713D01*
X52196Y-64750D01*
X52203Y-64803D01*
X52206Y-64813D01*
X52217Y-64850D01*
X52233Y-64866D01*
X52264Y-64867D01*
X52295Y-64863D01*
X52343Y-64859D01*
X52373Y-64871D01*
X52393Y-64902D01*
X52406Y-64961D01*
X52409Y-64979D01*
X52411Y-65028D01*
X52408Y-65100D01*
X52401Y-65182D01*
X52391Y-65264D01*
X52378Y-65334D01*
X52363Y-65361D01*
X52330Y-65402D01*
X52285Y-65453D01*
X52279Y-65460D01*
X52279Y-65068D01*
X52278Y-65015D01*
X52266Y-64977D01*
X52244Y-64952D01*
X52200Y-64931D01*
X52191Y-64928D01*
X52128Y-64891D01*
X52089Y-64836D01*
X52072Y-64759D01*
X52070Y-64721D01*
X52076Y-64670D01*
X52097Y-64630D01*
X52125Y-64600D01*
X52159Y-64565D01*
X52172Y-64539D01*
X52168Y-64507D01*
X52161Y-64480D01*
X52141Y-64413D01*
X52121Y-64485D01*
X52108Y-64523D01*
X52082Y-64585D01*
X52048Y-64664D01*
X52007Y-64753D01*
X51970Y-64830D01*
X51923Y-64928D01*
X51883Y-65005D01*
X51848Y-65067D01*
X51811Y-65122D01*
X51767Y-65177D01*
X51713Y-65239D01*
X51642Y-65315D01*
X51611Y-65348D01*
X51603Y-65356D01*
X51603Y-63573D01*
X51602Y-63525D01*
X51598Y-63509D01*
X51592Y-63526D01*
X51584Y-63574D01*
X51583Y-63581D01*
X51583Y-63463D01*
X51581Y-63461D01*
X51571Y-63463D01*
X51570Y-63472D01*
X51576Y-63485D01*
X51581Y-63483D01*
X51583Y-63463D01*
X51583Y-63581D01*
X51580Y-63605D01*
X51576Y-63657D01*
X51578Y-63677D01*
X51586Y-63672D01*
X51597Y-63640D01*
X51603Y-63591D01*
X51603Y-63573D01*
X51603Y-65356D01*
X51570Y-65391D01*
X51570Y-63730D01*
X51567Y-63727D01*
X51567Y-63413D01*
X51565Y-63411D01*
X51555Y-63413D01*
X51554Y-63422D01*
X51560Y-63435D01*
X51565Y-63433D01*
X51567Y-63413D01*
X51567Y-63727D01*
X51562Y-63722D01*
X51554Y-63730D01*
X51562Y-63738D01*
X51570Y-63730D01*
X51570Y-65391D01*
X51560Y-65402D01*
X51632Y-65408D01*
X51675Y-65409D01*
X51701Y-65404D01*
X51704Y-65401D01*
X51718Y-65391D01*
X51738Y-65388D01*
X51765Y-65398D01*
X51767Y-65418D01*
X51774Y-65451D01*
X51795Y-65484D01*
X51834Y-65509D01*
X51885Y-65511D01*
X51953Y-65489D01*
X52033Y-65447D01*
X52091Y-65410D01*
X52143Y-65370D01*
X52172Y-65344D01*
X52208Y-65291D01*
X52240Y-65220D01*
X52265Y-65141D01*
X52279Y-65068D01*
X52279Y-65460D01*
X52234Y-65508D01*
X52182Y-65559D01*
X52135Y-65602D01*
X52098Y-65630D01*
X52081Y-65638D01*
X52053Y-65645D01*
X52008Y-65661D01*
X51980Y-65673D01*
X51914Y-65694D01*
X51852Y-65702D01*
X51842Y-65702D01*
X51805Y-65696D01*
X51783Y-65682D01*
X51767Y-65649D01*
X51755Y-65614D01*
X51720Y-65544D01*
X51671Y-65501D01*
X51612Y-65487D01*
X51549Y-65504D01*
X51537Y-65512D01*
X51537Y-63367D01*
X51537Y-63364D01*
X51525Y-63350D01*
X51518Y-63345D01*
X51506Y-63343D01*
X51510Y-63352D01*
X51527Y-63370D01*
X51537Y-63367D01*
X51537Y-65512D01*
X51533Y-65514D01*
X51533Y-64263D01*
X51524Y-64260D01*
X51476Y-64257D01*
X51449Y-64260D01*
X51441Y-64264D01*
X51462Y-64267D01*
X51487Y-64267D01*
X51523Y-64266D01*
X51533Y-64263D01*
X51533Y-65514D01*
X51514Y-65527D01*
X51482Y-65558D01*
X51473Y-65588D01*
X51477Y-65617D01*
X51499Y-65660D01*
X51544Y-65685D01*
X51616Y-65695D01*
X51620Y-65696D01*
X51644Y-65699D01*
X51658Y-65713D01*
X51664Y-65747D01*
X51667Y-65788D01*
X51665Y-65843D01*
X51656Y-65903D01*
X51642Y-65959D01*
X51625Y-66002D01*
X51608Y-66021D01*
X51606Y-66022D01*
X51591Y-66035D01*
X51568Y-66067D01*
X51563Y-66076D01*
X51530Y-66122D01*
X51515Y-66138D01*
X51515Y-65800D01*
X51503Y-65777D01*
X51479Y-65772D01*
X51452Y-65757D01*
X51425Y-65720D01*
X51402Y-65670D01*
X51388Y-65618D01*
X51387Y-65599D01*
X51385Y-65559D01*
X51382Y-65539D01*
X51381Y-65538D01*
X51379Y-65539D01*
X51379Y-64705D01*
X51371Y-64694D01*
X51334Y-64689D01*
X51313Y-64688D01*
X51304Y-64689D01*
X51304Y-63313D01*
X51295Y-63305D01*
X51287Y-63313D01*
X51295Y-63322D01*
X51304Y-63313D01*
X51304Y-64689D01*
X51301Y-64689D01*
X51301Y-64066D01*
X51298Y-64061D01*
X51278Y-64059D01*
X51276Y-64061D01*
X51278Y-64070D01*
X51287Y-64072D01*
X51301Y-64066D01*
X51301Y-64689D01*
X51268Y-64692D01*
X51241Y-64700D01*
X51237Y-64705D01*
X51252Y-64716D01*
X51288Y-64721D01*
X51303Y-64722D01*
X51347Y-64718D01*
X51375Y-64708D01*
X51379Y-64705D01*
X51379Y-65539D01*
X51367Y-65544D01*
X51367Y-65366D01*
X51365Y-65361D01*
X51345Y-65359D01*
X51342Y-65361D01*
X51345Y-65370D01*
X51354Y-65372D01*
X51367Y-65366D01*
X51367Y-65544D01*
X51365Y-65545D01*
X51328Y-65563D01*
X51298Y-65577D01*
X51221Y-65617D01*
X51286Y-65638D01*
X51330Y-65657D01*
X51357Y-65677D01*
X51360Y-65683D01*
X51365Y-65720D01*
X51361Y-65777D01*
X51352Y-65841D01*
X51337Y-65903D01*
X51321Y-65951D01*
X51309Y-65970D01*
X51257Y-66002D01*
X51257Y-65875D01*
X51249Y-65841D01*
X51218Y-65813D01*
X51174Y-65795D01*
X51154Y-65792D01*
X51154Y-63513D01*
X51145Y-63505D01*
X51137Y-63513D01*
X51145Y-63522D01*
X51154Y-63513D01*
X51154Y-65792D01*
X51148Y-65791D01*
X51148Y-64591D01*
X51148Y-64552D01*
X51142Y-64488D01*
X51139Y-64462D01*
X51134Y-64424D01*
X51134Y-64112D01*
X51132Y-64102D01*
X51124Y-64096D01*
X51121Y-64112D01*
X51125Y-64134D01*
X51130Y-64134D01*
X51134Y-64112D01*
X51134Y-64424D01*
X51124Y-64347D01*
X51122Y-64449D01*
X51123Y-64509D01*
X51127Y-64559D01*
X51132Y-64582D01*
X51143Y-64602D01*
X51148Y-64591D01*
X51148Y-65791D01*
X51140Y-65790D01*
X51140Y-64734D01*
X51139Y-64725D01*
X51133Y-64675D01*
X51127Y-64659D01*
X51122Y-64675D01*
X51120Y-64723D01*
X51120Y-64730D01*
X51122Y-64774D01*
X51128Y-64797D01*
X51132Y-64799D01*
X51139Y-64775D01*
X51140Y-64734D01*
X51140Y-65790D01*
X51126Y-65789D01*
X51099Y-65796D01*
X51099Y-63384D01*
X51099Y-63378D01*
X51077Y-63374D01*
X51067Y-63377D01*
X51061Y-63384D01*
X51077Y-63387D01*
X51099Y-63384D01*
X51099Y-65796D01*
X51085Y-65800D01*
X51074Y-65808D01*
X51055Y-65848D01*
X51064Y-65896D01*
X51089Y-65932D01*
X51119Y-65956D01*
X51151Y-65958D01*
X51195Y-65938D01*
X51215Y-65926D01*
X51245Y-65898D01*
X51257Y-65875D01*
X51257Y-66002D01*
X51253Y-66005D01*
X51179Y-66030D01*
X51105Y-66038D01*
X51059Y-66032D01*
X51023Y-66008D01*
X51001Y-65982D01*
X50969Y-65931D01*
X50947Y-65876D01*
X50945Y-65867D01*
X50943Y-65808D01*
X50955Y-65744D01*
X50977Y-65684D01*
X51005Y-65641D01*
X51024Y-65627D01*
X51040Y-65617D01*
X51039Y-65606D01*
X51019Y-65588D01*
X50988Y-65567D01*
X50988Y-64962D01*
X50983Y-64960D01*
X50954Y-64958D01*
X50954Y-63513D01*
X50946Y-63505D01*
X50937Y-63513D01*
X50946Y-63522D01*
X50954Y-63513D01*
X50954Y-64958D01*
X50941Y-64958D01*
X50925Y-64960D01*
X50920Y-64965D01*
X50943Y-64968D01*
X50954Y-64968D01*
X50984Y-64966D01*
X50988Y-64962D01*
X50988Y-65567D01*
X50975Y-65559D01*
X50956Y-65548D01*
X50905Y-65518D01*
X50865Y-65498D01*
X50845Y-65492D01*
X50844Y-65493D01*
X50844Y-65512D01*
X50853Y-65544D01*
X50862Y-65592D01*
X50858Y-65642D01*
X50844Y-65683D01*
X50827Y-65700D01*
X50817Y-65710D01*
X50817Y-63063D01*
X50808Y-63060D01*
X50760Y-63057D01*
X50733Y-63060D01*
X50725Y-63064D01*
X50746Y-63067D01*
X50771Y-63067D01*
X50807Y-63066D01*
X50817Y-63063D01*
X50817Y-65710D01*
X50806Y-65722D01*
X50804Y-65732D01*
X50792Y-65760D01*
X50778Y-65776D01*
X50778Y-64533D01*
X50775Y-64527D01*
X50741Y-64525D01*
X50733Y-64527D01*
X50731Y-64533D01*
X50754Y-64536D01*
X50778Y-64533D01*
X50778Y-65776D01*
X50771Y-65784D01*
X50742Y-65821D01*
X50743Y-65862D01*
X50774Y-65913D01*
X50780Y-65919D01*
X50864Y-65996D01*
X50964Y-66043D01*
X51078Y-66061D01*
X51207Y-66049D01*
X51294Y-66026D01*
X51348Y-66002D01*
X51400Y-65965D01*
X51446Y-65922D01*
X51483Y-65877D01*
X51507Y-65835D01*
X51515Y-65800D01*
X51515Y-66138D01*
X51485Y-66172D01*
X51436Y-66218D01*
X51392Y-66252D01*
X51370Y-66264D01*
X51348Y-66284D01*
X51349Y-66306D01*
X51347Y-66333D01*
X51330Y-66338D01*
X51307Y-66326D01*
X51304Y-66313D01*
X51297Y-66300D01*
X51273Y-66293D01*
X51226Y-66291D01*
X51190Y-66292D01*
X51124Y-66291D01*
X51064Y-66285D01*
X51028Y-66277D01*
X50980Y-66260D01*
X50921Y-66242D01*
X50909Y-66238D01*
X50854Y-66214D01*
X50807Y-66181D01*
X50798Y-66173D01*
X50760Y-66134D01*
X50714Y-66089D01*
X50700Y-66077D01*
X50660Y-66031D01*
X50628Y-65983D01*
X50622Y-65968D01*
X50603Y-65922D01*
X50586Y-65885D01*
X50586Y-65884D01*
X50573Y-65850D01*
X50571Y-65834D01*
X50583Y-65813D01*
X50613Y-65779D01*
X50654Y-65740D01*
X50696Y-65704D01*
X50732Y-65679D01*
X50750Y-65672D01*
X50765Y-65658D01*
X50770Y-65622D01*
X50766Y-65578D01*
X50753Y-65536D01*
X50751Y-65533D01*
X50723Y-65492D01*
X50721Y-65490D01*
X50721Y-63413D01*
X50712Y-63405D01*
X50704Y-63413D01*
X50712Y-63422D01*
X50721Y-63413D01*
X50721Y-65490D01*
X50712Y-65482D01*
X50712Y-65371D01*
X50704Y-65363D01*
X50704Y-64980D01*
X50701Y-64977D01*
X50701Y-62982D01*
X50698Y-62977D01*
X50679Y-62975D01*
X50676Y-62977D01*
X50679Y-62987D01*
X50687Y-62988D01*
X50701Y-62982D01*
X50701Y-64977D01*
X50696Y-64972D01*
X50687Y-64980D01*
X50696Y-64988D01*
X50704Y-64980D01*
X50704Y-65363D01*
X50684Y-65344D01*
X50684Y-63558D01*
X50682Y-63551D01*
X50676Y-63549D01*
X50673Y-63572D01*
X50676Y-63595D01*
X50682Y-63593D01*
X50684Y-63558D01*
X50684Y-65344D01*
X50666Y-65327D01*
X50666Y-64528D01*
X50644Y-64524D01*
X50634Y-64527D01*
X50628Y-64534D01*
X50644Y-64537D01*
X50666Y-64534D01*
X50666Y-64528D01*
X50666Y-65327D01*
X50642Y-65304D01*
X50603Y-65267D01*
X50578Y-65238D01*
X50571Y-65227D01*
X50561Y-65210D01*
X50535Y-65177D01*
X50517Y-65155D01*
X50391Y-64996D01*
X50295Y-64842D01*
X50284Y-64822D01*
X50256Y-64779D01*
X50233Y-64751D01*
X50210Y-64711D01*
X50204Y-64681D01*
X50198Y-64646D01*
X50187Y-64630D01*
X50178Y-64639D01*
X50172Y-64677D01*
X50171Y-64720D01*
X50168Y-64781D01*
X50165Y-64796D01*
X50165Y-64600D01*
X50163Y-64582D01*
X50150Y-64544D01*
X50140Y-64520D01*
X50118Y-64459D01*
X50095Y-64387D01*
X50087Y-64355D01*
X50065Y-64263D01*
X50037Y-64355D01*
X50010Y-64447D01*
X50063Y-64475D01*
X50106Y-64509D01*
X50137Y-64553D01*
X50137Y-64555D01*
X50153Y-64587D01*
X50164Y-64600D01*
X50165Y-64600D01*
X50165Y-64796D01*
X50159Y-64822D01*
X50137Y-64857D01*
X50120Y-64879D01*
X50075Y-64920D01*
X50025Y-64952D01*
X50011Y-64958D01*
X49967Y-64981D01*
X49955Y-65007D01*
X49969Y-65031D01*
X49983Y-65056D01*
X50000Y-65099D01*
X50003Y-65109D01*
X50031Y-65161D01*
X50081Y-65221D01*
X50146Y-65283D01*
X50218Y-65342D01*
X50291Y-65391D01*
X50357Y-65425D01*
X50409Y-65438D01*
X50439Y-65431D01*
X50487Y-65412D01*
X50524Y-65395D01*
X50591Y-65367D01*
X50644Y-65360D01*
X50661Y-65362D01*
X50712Y-65371D01*
X50712Y-65482D01*
X50687Y-65458D01*
X50654Y-65439D01*
X50647Y-65438D01*
X50604Y-65452D01*
X50559Y-65485D01*
X50524Y-65527D01*
X50513Y-65554D01*
X50505Y-65581D01*
X50494Y-65596D01*
X50469Y-65603D01*
X50423Y-65605D01*
X50386Y-65605D01*
X50329Y-65603D01*
X50288Y-65597D01*
X50271Y-65590D01*
X50271Y-65589D01*
X50257Y-65574D01*
X50221Y-65552D01*
X50198Y-65541D01*
X50121Y-65494D01*
X50042Y-65424D01*
X49967Y-65338D01*
X49904Y-65244D01*
X49888Y-65213D01*
X49855Y-65140D01*
X49837Y-65080D01*
X49830Y-65018D01*
X49829Y-64997D01*
X49829Y-64897D01*
X49904Y-64891D01*
X49977Y-64877D01*
X50023Y-64844D01*
X50044Y-64791D01*
X50045Y-64747D01*
X50034Y-64674D01*
X50008Y-64620D01*
X49974Y-64583D01*
X49953Y-64566D01*
X49944Y-64565D01*
X49944Y-64313D01*
X49942Y-64256D01*
X49927Y-64207D01*
X49900Y-64173D01*
X49862Y-64159D01*
X49837Y-64163D01*
X49812Y-64171D01*
X49812Y-64037D01*
X49811Y-64022D01*
X49793Y-63958D01*
X49782Y-63871D01*
X49777Y-63768D01*
X49780Y-63658D01*
X49790Y-63552D01*
X49800Y-63474D01*
X49805Y-63424D01*
X49806Y-63396D01*
X49801Y-63385D01*
X49795Y-63386D01*
X49795Y-63106D01*
X49793Y-63085D01*
X49788Y-63080D01*
X49773Y-63084D01*
X49771Y-63096D01*
X49776Y-63120D01*
X49791Y-63113D01*
X49795Y-63106D01*
X49795Y-63386D01*
X49790Y-63387D01*
X49785Y-63390D01*
X49755Y-63411D01*
X49746Y-63422D01*
X49724Y-63431D01*
X49700Y-63434D01*
X49700Y-63094D01*
X49696Y-63071D01*
X49682Y-63035D01*
X49667Y-63022D01*
X49656Y-63036D01*
X49654Y-63055D01*
X49649Y-63082D01*
X49641Y-63088D01*
X49634Y-63103D01*
X49630Y-63141D01*
X49629Y-63168D01*
X49626Y-63224D01*
X49619Y-63271D01*
X49615Y-63284D01*
X49608Y-63315D01*
X49615Y-63322D01*
X49632Y-63307D01*
X49652Y-63275D01*
X49659Y-63259D01*
X49686Y-63189D01*
X49699Y-63138D01*
X49700Y-63094D01*
X49700Y-63434D01*
X49681Y-63437D01*
X49648Y-63438D01*
X49591Y-63435D01*
X49554Y-63423D01*
X49554Y-63263D01*
X49554Y-63123D01*
X49549Y-63095D01*
X49543Y-63080D01*
X49532Y-63062D01*
X49519Y-63074D01*
X49505Y-63111D01*
X49514Y-63134D01*
X49529Y-63138D01*
X49551Y-63130D01*
X49554Y-63123D01*
X49554Y-63263D01*
X49546Y-63255D01*
X49537Y-63263D01*
X49546Y-63272D01*
X49554Y-63263D01*
X49554Y-63423D01*
X49550Y-63422D01*
X49509Y-63391D01*
X49499Y-63382D01*
X49456Y-63348D01*
X49436Y-63343D01*
X49436Y-62997D01*
X49434Y-62975D01*
X49424Y-62984D01*
X49421Y-62988D01*
X49408Y-63024D01*
X49405Y-63055D01*
X49407Y-63083D01*
X49413Y-63079D01*
X49421Y-63063D01*
X49433Y-63019D01*
X49436Y-62997D01*
X49436Y-63343D01*
X49431Y-63342D01*
X49423Y-63364D01*
X49429Y-63405D01*
X49447Y-63445D01*
X49472Y-63455D01*
X49499Y-63467D01*
X49504Y-63488D01*
X49516Y-63516D01*
X49535Y-63522D01*
X49565Y-63537D01*
X49582Y-63582D01*
X49587Y-63651D01*
X49583Y-63689D01*
X49566Y-63704D01*
X49555Y-63705D01*
X49527Y-63691D01*
X49512Y-63655D01*
X49497Y-63618D01*
X49476Y-63605D01*
X49459Y-63614D01*
X49463Y-63634D01*
X49479Y-63685D01*
X49484Y-63736D01*
X49479Y-63775D01*
X49470Y-63789D01*
X49459Y-63804D01*
X49461Y-63831D01*
X49476Y-63874D01*
X49492Y-63926D01*
X49502Y-63969D01*
X49503Y-63980D01*
X49506Y-64013D01*
X49515Y-64066D01*
X49527Y-64129D01*
X49527Y-64130D01*
X49544Y-64199D01*
X49564Y-64245D01*
X49591Y-64277D01*
X49599Y-64284D01*
X49630Y-64308D01*
X49647Y-64321D01*
X49648Y-64322D01*
X49646Y-64308D01*
X49636Y-64273D01*
X49634Y-64267D01*
X49626Y-64215D01*
X49638Y-64162D01*
X49643Y-64150D01*
X49665Y-64109D01*
X49696Y-64085D01*
X49745Y-64068D01*
X49792Y-64053D01*
X49812Y-64037D01*
X49812Y-64171D01*
X49801Y-64175D01*
X49836Y-64199D01*
X49864Y-64236D01*
X49868Y-64284D01*
X49852Y-64335D01*
X49820Y-64383D01*
X49775Y-64420D01*
X49771Y-64421D01*
X49771Y-64237D01*
X49758Y-64222D01*
X49754Y-64222D01*
X49739Y-64235D01*
X49737Y-64248D01*
X49745Y-64265D01*
X49754Y-64263D01*
X49770Y-64242D01*
X49771Y-64237D01*
X49771Y-64421D01*
X49723Y-64438D01*
X49710Y-64438D01*
X49668Y-64434D01*
X49626Y-64418D01*
X49576Y-64388D01*
X49511Y-64339D01*
X49482Y-64316D01*
X49440Y-64283D01*
X49407Y-64263D01*
X49394Y-64260D01*
X49397Y-64277D01*
X49422Y-64307D01*
X49462Y-64344D01*
X49510Y-64382D01*
X49559Y-64416D01*
X49597Y-64437D01*
X49648Y-64460D01*
X49689Y-64480D01*
X49704Y-64488D01*
X49745Y-64495D01*
X49800Y-64488D01*
X49855Y-64467D01*
X49868Y-64460D01*
X49908Y-64421D01*
X49933Y-64370D01*
X49944Y-64313D01*
X49944Y-64565D01*
X49933Y-64563D01*
X49904Y-64573D01*
X49860Y-64595D01*
X49807Y-64620D01*
X49761Y-64635D01*
X49742Y-64638D01*
X49727Y-64639D01*
X49717Y-64646D01*
X49710Y-64662D01*
X49706Y-64695D01*
X49705Y-64747D01*
X49704Y-64826D01*
X49704Y-64879D01*
X49704Y-65119D01*
X49648Y-65179D01*
X49608Y-65214D01*
X49583Y-65228D01*
X49583Y-64856D01*
X49581Y-64855D01*
X49566Y-64867D01*
X49562Y-64872D01*
X49558Y-64887D01*
X49560Y-64888D01*
X49576Y-64877D01*
X49579Y-64872D01*
X49583Y-64856D01*
X49583Y-65228D01*
X49571Y-65235D01*
X49558Y-65238D01*
X49526Y-65253D01*
X49516Y-65272D01*
X49505Y-65292D01*
X49481Y-65302D01*
X49434Y-65305D01*
X49421Y-65305D01*
X49365Y-65302D01*
X49319Y-65294D01*
X49304Y-65288D01*
X49261Y-65278D01*
X49232Y-65295D01*
X49223Y-65338D01*
X49224Y-65343D01*
X49237Y-65386D01*
X49272Y-65408D01*
X49273Y-65409D01*
X49305Y-65414D01*
X49340Y-65404D01*
X49387Y-65375D01*
X49393Y-65372D01*
X49475Y-65329D01*
X49562Y-65304D01*
X49645Y-65299D01*
X49713Y-65315D01*
X49714Y-65315D01*
X49785Y-65355D01*
X49828Y-65399D01*
X49849Y-65454D01*
X49854Y-65520D01*
X49852Y-65581D01*
X49842Y-65622D01*
X49821Y-65658D01*
X49802Y-65679D01*
X49771Y-65712D01*
X49742Y-65730D01*
X49705Y-65737D01*
X49648Y-65739D01*
X49574Y-65741D01*
X49537Y-65748D01*
X49537Y-65630D01*
X49529Y-65622D01*
X49521Y-65630D01*
X49529Y-65638D01*
X49537Y-65630D01*
X49537Y-65748D01*
X49531Y-65750D01*
X49516Y-65766D01*
X49526Y-65792D01*
X49542Y-65811D01*
X49583Y-65842D01*
X49623Y-65854D01*
X49654Y-65846D01*
X49664Y-65832D01*
X49687Y-65813D01*
X49732Y-65801D01*
X49788Y-65795D01*
X49845Y-65798D01*
X49892Y-65810D01*
X49895Y-65811D01*
X49983Y-65852D01*
X50047Y-65877D01*
X50094Y-65887D01*
X50109Y-65888D01*
X50148Y-65900D01*
X50192Y-65928D01*
X50204Y-65938D01*
X50240Y-65969D01*
X50268Y-65987D01*
X50274Y-65988D01*
X50293Y-66000D01*
X50327Y-66028D01*
X50355Y-66056D01*
X50401Y-66113D01*
X50420Y-66161D01*
X50421Y-66173D01*
X50418Y-66204D01*
X50403Y-66218D01*
X50366Y-66222D01*
X50355Y-66222D01*
X50311Y-66218D01*
X50282Y-66209D01*
X50279Y-66206D01*
X50258Y-66197D01*
X50224Y-66199D01*
X50177Y-66196D01*
X50147Y-66173D01*
X50100Y-66144D01*
X50060Y-66138D01*
X50007Y-66127D01*
X49983Y-66105D01*
X49956Y-66079D01*
X49934Y-66072D01*
X49899Y-66059D01*
X49861Y-66029D01*
X49831Y-65992D01*
X49821Y-65964D01*
X49818Y-65944D01*
X49805Y-65947D01*
X49783Y-65962D01*
X49715Y-66005D01*
X49654Y-66025D01*
X49586Y-66024D01*
X49546Y-66017D01*
X49457Y-65986D01*
X49395Y-65934D01*
X49360Y-65865D01*
X49353Y-65781D01*
X49376Y-65684D01*
X49381Y-65672D01*
X49412Y-65621D01*
X49451Y-65593D01*
X49491Y-65591D01*
X49503Y-65596D01*
X49519Y-65595D01*
X49521Y-65588D01*
X49537Y-65576D01*
X49585Y-65573D01*
X49608Y-65574D01*
X49659Y-65576D01*
X49686Y-65572D01*
X49698Y-65557D01*
X49701Y-65541D01*
X49696Y-65496D01*
X49667Y-65472D01*
X49616Y-65469D01*
X49545Y-65486D01*
X49458Y-65524D01*
X49448Y-65529D01*
X49353Y-65572D01*
X49275Y-65590D01*
X49210Y-65583D01*
X49152Y-65552D01*
X49121Y-65524D01*
X49079Y-65473D01*
X49056Y-65420D01*
X49048Y-65374D01*
X49044Y-65312D01*
X49050Y-65265D01*
X49054Y-65256D01*
X49094Y-65206D01*
X49155Y-65163D01*
X49225Y-65130D01*
X49296Y-65112D01*
X49358Y-65112D01*
X49379Y-65118D01*
X49444Y-65137D01*
X49495Y-65128D01*
X49527Y-65094D01*
X49537Y-65039D01*
X49537Y-64913D01*
X49529Y-64905D01*
X49521Y-64913D01*
X49529Y-64922D01*
X49537Y-64913D01*
X49537Y-65039D01*
X49533Y-65014D01*
X49513Y-65017D01*
X49505Y-65021D01*
X49470Y-65028D01*
X49470Y-65028D01*
X49470Y-64838D01*
X49458Y-64819D01*
X49436Y-64808D01*
X49404Y-64818D01*
X49397Y-64821D01*
X49370Y-64841D01*
X49364Y-64858D01*
X49389Y-64870D01*
X49427Y-64867D01*
X49454Y-64855D01*
X49470Y-64838D01*
X49470Y-65028D01*
X49416Y-65029D01*
X49357Y-65023D01*
X49307Y-65012D01*
X49290Y-65005D01*
X49263Y-65008D01*
X49262Y-65009D01*
X49262Y-64812D01*
X49254Y-64813D01*
X49238Y-64835D01*
X49237Y-64839D01*
X49243Y-64854D01*
X49255Y-64841D01*
X49260Y-64829D01*
X49262Y-64812D01*
X49262Y-65009D01*
X49225Y-65033D01*
X49221Y-65037D01*
X49202Y-65052D01*
X49202Y-64922D01*
X49201Y-64922D01*
X49186Y-64933D01*
X49158Y-64959D01*
X49154Y-64963D01*
X49130Y-64991D01*
X49122Y-65005D01*
X49123Y-65005D01*
X49139Y-64994D01*
X49167Y-64967D01*
X49171Y-64963D01*
X49194Y-64936D01*
X49202Y-64922D01*
X49202Y-65052D01*
X49142Y-65103D01*
X49109Y-65121D01*
X49109Y-64863D01*
X49103Y-64835D01*
X49103Y-64834D01*
X49074Y-64760D01*
X49035Y-64693D01*
X48990Y-64641D01*
X48946Y-64611D01*
X48921Y-64606D01*
X48869Y-64620D01*
X48821Y-64655D01*
X48783Y-64705D01*
X48758Y-64760D01*
X48752Y-64813D01*
X48768Y-64858D01*
X48772Y-64863D01*
X48786Y-64892D01*
X48787Y-64907D01*
X48802Y-64941D01*
X48839Y-64970D01*
X48886Y-64987D01*
X48903Y-64988D01*
X48939Y-64980D01*
X48990Y-64958D01*
X49031Y-64936D01*
X49078Y-64906D01*
X49102Y-64884D01*
X49109Y-64863D01*
X49109Y-65121D01*
X49070Y-65144D01*
X48993Y-65165D01*
X48904Y-65172D01*
X48839Y-65170D01*
X48797Y-65163D01*
X48766Y-65148D01*
X48744Y-65130D01*
X48709Y-65102D01*
X48681Y-65089D01*
X48678Y-65088D01*
X48651Y-65073D01*
X48622Y-65030D01*
X48597Y-64966D01*
X48575Y-64886D01*
X48569Y-64853D01*
X48559Y-64787D01*
X48556Y-64742D01*
X48561Y-64707D01*
X48575Y-64670D01*
X48583Y-64653D01*
X48617Y-64595D01*
X48661Y-64540D01*
X48673Y-64527D01*
X48707Y-64499D01*
X48743Y-64480D01*
X48791Y-64467D01*
X48862Y-64456D01*
X48865Y-64456D01*
X48932Y-64447D01*
X48977Y-64444D01*
X49010Y-64449D01*
X49040Y-64463D01*
X49076Y-64485D01*
X49146Y-64537D01*
X49203Y-64596D01*
X49239Y-64652D01*
X49243Y-64660D01*
X49252Y-64678D01*
X49269Y-64680D01*
X49302Y-64664D01*
X49306Y-64662D01*
X49344Y-64647D01*
X49383Y-64643D01*
X49438Y-64651D01*
X49450Y-64653D01*
X49503Y-64662D01*
X49542Y-64664D01*
X49556Y-64662D01*
X49569Y-64641D01*
X49569Y-64611D01*
X49558Y-64590D01*
X49551Y-64588D01*
X49512Y-64579D01*
X49456Y-64554D01*
X49395Y-64520D01*
X49378Y-64509D01*
X49378Y-64228D01*
X49365Y-64197D01*
X49346Y-64166D01*
X49332Y-64155D01*
X49327Y-64166D01*
X49344Y-64197D01*
X49359Y-64218D01*
X49376Y-64237D01*
X49378Y-64228D01*
X49378Y-64509D01*
X49338Y-64483D01*
X49296Y-64448D01*
X49286Y-64435D01*
X49250Y-64389D01*
X49237Y-64374D01*
X49237Y-63030D01*
X49229Y-63022D01*
X49221Y-63030D01*
X49229Y-63038D01*
X49237Y-63030D01*
X49237Y-64374D01*
X49217Y-64351D01*
X49217Y-63063D01*
X49215Y-63061D01*
X49205Y-63063D01*
X49204Y-63072D01*
X49210Y-63085D01*
X49215Y-63083D01*
X49217Y-63063D01*
X49217Y-64351D01*
X49211Y-64344D01*
X49211Y-63847D01*
X49209Y-63822D01*
X49201Y-63806D01*
X49201Y-63145D01*
X49199Y-63135D01*
X49191Y-63129D01*
X49189Y-63145D01*
X49192Y-63167D01*
X49197Y-63167D01*
X49201Y-63145D01*
X49201Y-63806D01*
X49196Y-63795D01*
X49187Y-63789D01*
X49187Y-63213D01*
X49179Y-63205D01*
X49171Y-63213D01*
X49179Y-63222D01*
X49187Y-63213D01*
X49187Y-63789D01*
X49185Y-63788D01*
X49174Y-63802D01*
X49171Y-63830D01*
X49178Y-63856D01*
X49181Y-63860D01*
X49200Y-63866D01*
X49211Y-63847D01*
X49211Y-64344D01*
X49205Y-64337D01*
X49184Y-64315D01*
X49171Y-64298D01*
X49171Y-63280D01*
X49162Y-63272D01*
X49154Y-63280D01*
X49162Y-63288D01*
X49171Y-63280D01*
X49171Y-64298D01*
X49168Y-64294D01*
X49168Y-63662D01*
X49165Y-63652D01*
X49158Y-63646D01*
X49155Y-63662D01*
X49158Y-63684D01*
X49164Y-63684D01*
X49168Y-63662D01*
X49168Y-64294D01*
X49142Y-64261D01*
X49103Y-64194D01*
X49087Y-64159D01*
X49087Y-63947D01*
X49079Y-63938D01*
X49071Y-63947D01*
X49079Y-63955D01*
X49087Y-63947D01*
X49087Y-64159D01*
X49086Y-64157D01*
X49064Y-64103D01*
X49064Y-63911D01*
X49062Y-63879D01*
X49055Y-63837D01*
X49047Y-63796D01*
X49042Y-63785D01*
X49040Y-63803D01*
X49039Y-63816D01*
X49041Y-63862D01*
X49048Y-63896D01*
X49059Y-63918D01*
X49064Y-63911D01*
X49064Y-64103D01*
X49061Y-64096D01*
X49038Y-64060D01*
X49019Y-64048D01*
X49019Y-63509D01*
X49017Y-63444D01*
X49016Y-63435D01*
X49013Y-63417D01*
X49011Y-63429D01*
X49010Y-63469D01*
X49010Y-63497D01*
X49010Y-63549D01*
X49012Y-63578D01*
X49015Y-63578D01*
X49016Y-63568D01*
X49019Y-63509D01*
X49019Y-64048D01*
X49010Y-64043D01*
X48971Y-64039D01*
X48967Y-64039D01*
X48965Y-64038D01*
X48965Y-63821D01*
X48960Y-63765D01*
X48960Y-63758D01*
X48953Y-63709D01*
X48946Y-63689D01*
X48935Y-63691D01*
X48927Y-63701D01*
X48906Y-63747D01*
X48916Y-63795D01*
X48931Y-63819D01*
X48952Y-63845D01*
X48963Y-63847D01*
X48965Y-63821D01*
X48965Y-64038D01*
X48924Y-64030D01*
X48869Y-64010D01*
X48842Y-63996D01*
X48842Y-63574D01*
X48835Y-63535D01*
X48820Y-63509D01*
X48810Y-63505D01*
X48788Y-63519D01*
X48769Y-63553D01*
X48768Y-63555D01*
X48744Y-63595D01*
X48717Y-63605D01*
X48701Y-63603D01*
X48691Y-63594D01*
X48687Y-63571D01*
X48688Y-63527D01*
X48692Y-63458D01*
X48693Y-63447D01*
X48696Y-63370D01*
X48695Y-63317D01*
X48690Y-63290D01*
X48687Y-63288D01*
X48675Y-63295D01*
X48671Y-63305D01*
X48671Y-63222D01*
X48668Y-63195D01*
X48665Y-63188D01*
X48651Y-63199D01*
X48629Y-63222D01*
X48609Y-63246D01*
X48613Y-63254D01*
X48635Y-63255D01*
X48664Y-63245D01*
X48671Y-63222D01*
X48671Y-63305D01*
X48665Y-63319D01*
X48654Y-63364D01*
X48642Y-63436D01*
X48639Y-63455D01*
X48638Y-63553D01*
X48669Y-63642D01*
X48731Y-63724D01*
X48738Y-63731D01*
X48770Y-63767D01*
X48789Y-63798D01*
X48790Y-63804D01*
X48793Y-63804D01*
X48797Y-63777D01*
X48800Y-63744D01*
X48807Y-63691D01*
X48819Y-63652D01*
X48827Y-63640D01*
X48840Y-63614D01*
X48842Y-63574D01*
X48842Y-63996D01*
X48816Y-63983D01*
X48777Y-63956D01*
X48766Y-63943D01*
X48739Y-63924D01*
X48724Y-63921D01*
X48688Y-63909D01*
X48639Y-63877D01*
X48583Y-63830D01*
X48565Y-63811D01*
X48565Y-63339D01*
X48563Y-63325D01*
X48543Y-63324D01*
X48530Y-63327D01*
X48512Y-63349D01*
X48504Y-63387D01*
X48508Y-63426D01*
X48521Y-63447D01*
X48535Y-63470D01*
X48539Y-63493D01*
X48542Y-63498D01*
X48548Y-63475D01*
X48556Y-63431D01*
X48562Y-63378D01*
X48565Y-63339D01*
X48565Y-63811D01*
X48528Y-63774D01*
X48523Y-63768D01*
X48467Y-63683D01*
X48440Y-63588D01*
X48437Y-63536D01*
X48434Y-63495D01*
X48419Y-63475D01*
X48381Y-63465D01*
X48381Y-63465D01*
X48328Y-63448D01*
X48303Y-63434D01*
X48303Y-62475D01*
X48294Y-62429D01*
X48293Y-62426D01*
X48275Y-62397D01*
X48257Y-62392D01*
X48257Y-60876D01*
X48248Y-60848D01*
X48233Y-60823D01*
X48223Y-60823D01*
X48224Y-60853D01*
X48237Y-60881D01*
X48252Y-60889D01*
X48257Y-60876D01*
X48257Y-62392D01*
X48253Y-62391D01*
X48253Y-61244D01*
X48248Y-61230D01*
X48247Y-61228D01*
X48247Y-61043D01*
X48243Y-61030D01*
X48231Y-61012D01*
X48225Y-61012D01*
X48225Y-61031D01*
X48228Y-61038D01*
X48244Y-61055D01*
X48247Y-61043D01*
X48247Y-61228D01*
X48233Y-61210D01*
X48201Y-61166D01*
X48168Y-61107D01*
X48137Y-61042D01*
X48114Y-60982D01*
X48104Y-60939D01*
X48104Y-60936D01*
X48098Y-60903D01*
X48085Y-60899D01*
X48070Y-60926D01*
X48066Y-60939D01*
X48068Y-60976D01*
X48079Y-60995D01*
X48095Y-61024D01*
X48109Y-61072D01*
X48113Y-61096D01*
X48124Y-61144D01*
X48139Y-61176D01*
X48146Y-61183D01*
X48164Y-61204D01*
X48177Y-61242D01*
X48186Y-61276D01*
X48199Y-61281D01*
X48216Y-61271D01*
X48243Y-61251D01*
X48253Y-61244D01*
X48253Y-62391D01*
X48237Y-62388D01*
X48235Y-62388D01*
X48209Y-62392D01*
X48209Y-61620D01*
X48203Y-61609D01*
X48181Y-61597D01*
X48178Y-61595D01*
X48127Y-61575D01*
X48097Y-61579D01*
X48087Y-61606D01*
X48077Y-61633D01*
X48062Y-61639D01*
X48042Y-61653D01*
X48037Y-61670D01*
X48025Y-61702D01*
X48011Y-61712D01*
X47995Y-61729D01*
X47997Y-61740D01*
X48012Y-61749D01*
X48019Y-61742D01*
X48038Y-61725D01*
X48078Y-61701D01*
X48104Y-61686D01*
X48164Y-61654D01*
X48198Y-61633D01*
X48209Y-61620D01*
X48209Y-62392D01*
X48201Y-62393D01*
X48187Y-62405D01*
X48174Y-62420D01*
X48162Y-62422D01*
X48140Y-62408D01*
X48137Y-62397D01*
X48148Y-62375D01*
X48158Y-62372D01*
X48158Y-62361D01*
X48153Y-62354D01*
X48153Y-62093D01*
X48143Y-62073D01*
X48137Y-62072D01*
X48126Y-62086D01*
X48122Y-62122D01*
X48122Y-62126D01*
X48124Y-62159D01*
X48129Y-62162D01*
X48137Y-62147D01*
X48150Y-62110D01*
X48153Y-62093D01*
X48153Y-62354D01*
X48138Y-62335D01*
X48107Y-62302D01*
X48066Y-62255D01*
X48035Y-62208D01*
X48024Y-62181D01*
X48017Y-62156D01*
X48012Y-62156D01*
X48008Y-62184D01*
X48004Y-62222D01*
X47999Y-62307D01*
X48004Y-62365D01*
X48019Y-62401D01*
X48045Y-62421D01*
X48048Y-62422D01*
X48081Y-62449D01*
X48087Y-62478D01*
X48100Y-62517D01*
X48121Y-62530D01*
X48148Y-62545D01*
X48154Y-62556D01*
X48164Y-62571D01*
X48189Y-62564D01*
X48208Y-62549D01*
X48242Y-62525D01*
X48267Y-62514D01*
X48295Y-62500D01*
X48303Y-62475D01*
X48303Y-63434D01*
X48287Y-63425D01*
X48287Y-62780D01*
X48279Y-62772D01*
X48271Y-62780D01*
X48279Y-62788D01*
X48287Y-62780D01*
X48287Y-63425D01*
X48285Y-63424D01*
X48270Y-63415D01*
X48270Y-62844D01*
X48258Y-62812D01*
X48228Y-62798D01*
X48189Y-62798D01*
X48157Y-62815D01*
X48154Y-62821D01*
X48154Y-62696D01*
X48150Y-62673D01*
X48129Y-62647D01*
X48105Y-62631D01*
X48061Y-62600D01*
X48029Y-62568D01*
X48002Y-62530D01*
X48013Y-62576D01*
X48016Y-62611D01*
X48007Y-62622D01*
X48000Y-62635D01*
X48005Y-62669D01*
X48017Y-62714D01*
X48034Y-62759D01*
X48053Y-62795D01*
X48057Y-62800D01*
X48074Y-62817D01*
X48082Y-62805D01*
X48084Y-62791D01*
X48095Y-62763D01*
X48105Y-62755D01*
X48119Y-62741D01*
X48121Y-62730D01*
X48130Y-62708D01*
X48137Y-62705D01*
X48154Y-62696D01*
X48154Y-62821D01*
X48144Y-62841D01*
X48148Y-62859D01*
X48161Y-62868D01*
X48167Y-62851D01*
X48186Y-62826D01*
X48204Y-62822D01*
X48238Y-62835D01*
X48253Y-62851D01*
X48266Y-62869D01*
X48270Y-62858D01*
X48270Y-62844D01*
X48270Y-63415D01*
X48242Y-63397D01*
X48191Y-63369D01*
X48187Y-63368D01*
X48149Y-63342D01*
X48127Y-63323D01*
X48127Y-63083D01*
X48118Y-63063D01*
X48099Y-63040D01*
X48066Y-63001D01*
X48041Y-62964D01*
X48040Y-62963D01*
X48026Y-62942D01*
X48022Y-62950D01*
X48021Y-62958D01*
X48029Y-62996D01*
X48050Y-63038D01*
X48077Y-63073D01*
X48103Y-63093D01*
X48114Y-63094D01*
X48127Y-63083D01*
X48127Y-63323D01*
X48099Y-63298D01*
X48046Y-63244D01*
X47998Y-63189D01*
X47987Y-63174D01*
X47987Y-62880D01*
X47979Y-62872D01*
X47971Y-62880D01*
X47971Y-62830D01*
X47962Y-62822D01*
X47954Y-62830D01*
X47962Y-62838D01*
X47971Y-62830D01*
X47971Y-62880D01*
X47979Y-62888D01*
X47987Y-62880D01*
X47987Y-63174D01*
X47964Y-63142D01*
X47953Y-63118D01*
X47935Y-63071D01*
X47910Y-63007D01*
X47893Y-62959D01*
X47871Y-62898D01*
X47855Y-62850D01*
X47845Y-62806D01*
X47839Y-62759D01*
X47836Y-62701D01*
X47835Y-62625D01*
X47835Y-62524D01*
X47835Y-62522D01*
X47836Y-62417D01*
X47838Y-62339D01*
X47842Y-62283D01*
X47848Y-62241D01*
X47857Y-62210D01*
X47870Y-62181D01*
X47891Y-62132D01*
X47903Y-62090D01*
X47904Y-62081D01*
X47914Y-62050D01*
X47939Y-62005D01*
X47969Y-61961D01*
X48001Y-61915D01*
X48021Y-61881D01*
X48025Y-61865D01*
X48010Y-61869D01*
X47993Y-61887D01*
X47966Y-61909D01*
X47922Y-61916D01*
X47900Y-61916D01*
X47829Y-61913D01*
X47826Y-61797D01*
X47828Y-61712D01*
X47839Y-61656D01*
X47861Y-61627D01*
X47881Y-61622D01*
X47897Y-61614D01*
X47895Y-61605D01*
X47890Y-61576D01*
X47894Y-61546D01*
X47905Y-61521D01*
X47927Y-61509D01*
X47971Y-61506D01*
X47979Y-61506D01*
X48026Y-61504D01*
X48048Y-61495D01*
X48054Y-61475D01*
X48054Y-61468D01*
X48045Y-61423D01*
X48032Y-61397D01*
X48003Y-61338D01*
X47978Y-61257D01*
X47959Y-61168D01*
X47949Y-61080D01*
X47948Y-61053D01*
X47956Y-60962D01*
X47975Y-60862D01*
X47987Y-60820D01*
X48010Y-60749D01*
X48038Y-60674D01*
X48068Y-60603D01*
X48096Y-60541D01*
X48120Y-60496D01*
X48137Y-60473D01*
X48140Y-60472D01*
X48155Y-60459D01*
X48175Y-60425D01*
X48178Y-60418D01*
X48222Y-60351D01*
X48293Y-60273D01*
X48387Y-60189D01*
X48433Y-60150D01*
X48472Y-60117D01*
X48487Y-60103D01*
X48523Y-60083D01*
X48573Y-60068D01*
X48581Y-60066D01*
X48716Y-60046D01*
X48825Y-60031D01*
X48915Y-60022D01*
X48992Y-60019D01*
X49065Y-60021D01*
X49138Y-60027D01*
X49213Y-60036D01*
X49363Y-60069D01*
X49494Y-60125D01*
X49613Y-60206D01*
X49723Y-60316D01*
X49787Y-60397D01*
X49831Y-60449D01*
X49880Y-60496D01*
X49906Y-60515D01*
X49947Y-60543D01*
X49975Y-60567D01*
X49979Y-60572D01*
X50003Y-60583D01*
X50037Y-60581D01*
X50074Y-60578D01*
X50095Y-60587D01*
X50116Y-60597D01*
X50147Y-60582D01*
X50177Y-60547D01*
X50192Y-60521D01*
X50187Y-60505D01*
X50157Y-60487D01*
X50154Y-60486D01*
X50154Y-60056D01*
X50141Y-60039D01*
X50136Y-60039D01*
X50126Y-60049D01*
X50129Y-60056D01*
X50144Y-60071D01*
X50147Y-60072D01*
X50154Y-60059D01*
X50154Y-60056D01*
X50154Y-60486D01*
X50150Y-60484D01*
X50150Y-60363D01*
X50148Y-60361D01*
X50139Y-60363D01*
X50137Y-60372D01*
X50143Y-60386D01*
X50148Y-60383D01*
X50150Y-60363D01*
X50150Y-60484D01*
X50145Y-60481D01*
X50108Y-60460D01*
X50088Y-60441D01*
X50087Y-60438D01*
X50074Y-60423D01*
X50067Y-60422D01*
X50046Y-60408D01*
X50024Y-60375D01*
X50008Y-60335D01*
X50004Y-60311D01*
X49998Y-60283D01*
X49978Y-60231D01*
X49944Y-60152D01*
X49933Y-60128D01*
X49922Y-60065D01*
X49942Y-59996D01*
X49990Y-59924D01*
X50015Y-59897D01*
X50070Y-59848D01*
X50109Y-59826D01*
X50135Y-59829D01*
X50149Y-59850D01*
X50172Y-59888D01*
X50206Y-59921D01*
X50237Y-59938D01*
X50242Y-59939D01*
X50278Y-59954D01*
X50300Y-59990D01*
X50304Y-60015D01*
X50310Y-60041D01*
X50334Y-60045D01*
X50346Y-60043D01*
X50377Y-60043D01*
X50387Y-60053D01*
X50399Y-60066D01*
X50408Y-60065D01*
X50439Y-60056D01*
X50475Y-60048D01*
X50498Y-60039D01*
X50520Y-60020D01*
X50543Y-59984D01*
X50574Y-59926D01*
X50598Y-59876D01*
X50630Y-59802D01*
X50658Y-59734D01*
X50677Y-59679D01*
X50683Y-59656D01*
X50692Y-59612D01*
X50704Y-59582D01*
X50705Y-59581D01*
X50719Y-59551D01*
X50736Y-59499D01*
X50753Y-59439D01*
X50767Y-59381D01*
X50774Y-59337D01*
X50774Y-59326D01*
X50763Y-59284D01*
X50740Y-59243D01*
X50714Y-59213D01*
X50697Y-59206D01*
X50671Y-59198D01*
X50629Y-59181D01*
X50612Y-59172D01*
X50566Y-59151D01*
X50528Y-59140D01*
X50519Y-59139D01*
X50487Y-59129D01*
X50449Y-59106D01*
X50416Y-59082D01*
X50394Y-59072D01*
X50393Y-59072D01*
X50376Y-59059D01*
X50348Y-59024D01*
X50326Y-58993D01*
X50326Y-58429D01*
X50314Y-58408D01*
X50301Y-58416D01*
X50288Y-58437D01*
X50280Y-58460D01*
X50295Y-58463D01*
X50303Y-58461D01*
X50326Y-58444D01*
X50326Y-58429D01*
X50326Y-58993D01*
X50315Y-58976D01*
X50283Y-58924D01*
X50266Y-58892D01*
X50266Y-58495D01*
X50244Y-58491D01*
X50234Y-58494D01*
X50228Y-58502D01*
X50244Y-58504D01*
X50266Y-58501D01*
X50266Y-58495D01*
X50266Y-58892D01*
X50257Y-58874D01*
X50248Y-58856D01*
X50233Y-58804D01*
X50219Y-58739D01*
X50213Y-58706D01*
X50197Y-58637D01*
X50170Y-58581D01*
X50154Y-58565D01*
X50154Y-58281D01*
X50146Y-58272D01*
X50137Y-58281D01*
X50146Y-58289D01*
X50154Y-58281D01*
X50154Y-58565D01*
X50137Y-58547D01*
X50111Y-58539D01*
X50092Y-58525D01*
X50072Y-58491D01*
X50071Y-58489D01*
X50042Y-58446D01*
X50006Y-58418D01*
X49970Y-58388D01*
X49957Y-58343D01*
X49958Y-58306D01*
X49968Y-58289D01*
X49970Y-58289D01*
X49986Y-58276D01*
X49987Y-58270D01*
X49999Y-58246D01*
X50026Y-58215D01*
X50027Y-58214D01*
X50067Y-58177D01*
X50010Y-58157D01*
X49970Y-58136D01*
X49955Y-58108D01*
X49954Y-58096D01*
X49957Y-58071D01*
X49973Y-58059D01*
X50009Y-58056D01*
X50031Y-58056D01*
X50077Y-58054D01*
X50097Y-58047D01*
X50097Y-58032D01*
X50095Y-58026D01*
X50070Y-57965D01*
X50057Y-57928D01*
X50055Y-57907D01*
X50062Y-57895D01*
X50071Y-57888D01*
X50105Y-57874D01*
X50133Y-57885D01*
X50161Y-57924D01*
X50167Y-57935D01*
X50190Y-57973D01*
X50209Y-57995D01*
X50214Y-57997D01*
X50231Y-57984D01*
X50256Y-57953D01*
X50262Y-57944D01*
X50303Y-57894D01*
X50346Y-57876D01*
X50377Y-57882D01*
X50400Y-57906D01*
X50399Y-57944D01*
X50380Y-57981D01*
X50357Y-58020D01*
X50361Y-58043D01*
X50395Y-58054D01*
X50430Y-58056D01*
X50476Y-58057D01*
X50498Y-58064D01*
X50503Y-58083D01*
X50501Y-58101D01*
X50486Y-58140D01*
X50462Y-58152D01*
X50418Y-58160D01*
X50391Y-58165D01*
X50353Y-58173D01*
X50394Y-58227D01*
X50416Y-58259D01*
X50427Y-58289D01*
X50430Y-58329D01*
X50427Y-58389D01*
X50426Y-58401D01*
X50423Y-58484D01*
X50432Y-58551D01*
X50457Y-58613D01*
X50501Y-58682D01*
X50523Y-58712D01*
X50558Y-58764D01*
X50584Y-58812D01*
X50593Y-58839D01*
X50604Y-58868D01*
X50627Y-58884D01*
X50674Y-58894D01*
X50675Y-58894D01*
X50716Y-58897D01*
X50758Y-58894D01*
X50809Y-58882D01*
X50879Y-58860D01*
X50918Y-58846D01*
X50928Y-58835D01*
X50911Y-58814D01*
X50906Y-58810D01*
X50887Y-58786D01*
X50871Y-58745D01*
X50855Y-58682D01*
X50844Y-58616D01*
X50831Y-58540D01*
X50825Y-58488D01*
X50825Y-58452D01*
X50831Y-58423D01*
X50844Y-58394D01*
X50844Y-58393D01*
X50874Y-58345D01*
X50909Y-58305D01*
X50913Y-58302D01*
X50942Y-58274D01*
X50954Y-58253D01*
X50954Y-58253D01*
X50967Y-58224D01*
X50997Y-58199D01*
X51025Y-58189D01*
X51056Y-58201D01*
X51068Y-58212D01*
X51094Y-58226D01*
X51142Y-58238D01*
X51180Y-58244D01*
X51239Y-58253D01*
X51279Y-58270D01*
X51318Y-58303D01*
X51337Y-58323D01*
X51379Y-58374D01*
X51400Y-58421D01*
X51410Y-58478D01*
X51415Y-58533D01*
X51417Y-58576D01*
X51417Y-58590D01*
X51422Y-58619D01*
X51439Y-58663D01*
X51462Y-58714D01*
X51486Y-58761D01*
X51508Y-58794D01*
X51521Y-58806D01*
X51530Y-58820D01*
X51536Y-58859D01*
X51537Y-58889D01*
X51539Y-58939D01*
X51546Y-58964D01*
X51563Y-58972D01*
X51569Y-58972D01*
X51594Y-58981D01*
X51609Y-59014D01*
X51613Y-59035D01*
X51628Y-59091D01*
X51654Y-59142D01*
X51696Y-59197D01*
X51747Y-59250D01*
X51786Y-59292D01*
X51812Y-59329D01*
X51820Y-59348D01*
X51831Y-59377D01*
X51854Y-59406D01*
X51881Y-59455D01*
X51887Y-59501D01*
X51891Y-59561D01*
X51904Y-59588D01*
X51927Y-59585D01*
X51960Y-59551D01*
X51962Y-59548D01*
X52003Y-59508D01*
X52039Y-59490D01*
X52066Y-59496D01*
X52074Y-59509D01*
X52088Y-59514D01*
X52113Y-59492D01*
X52189Y-59425D01*
X52281Y-59388D01*
X52388Y-59381D01*
X52508Y-59402D01*
X52537Y-59412D01*
X52596Y-59434D01*
X52642Y-59454D01*
X52665Y-59469D01*
X52667Y-59471D01*
X52685Y-59483D01*
X52726Y-59494D01*
X52754Y-59499D01*
X52806Y-59510D01*
X52845Y-59525D01*
X52855Y-59533D01*
X52879Y-59552D01*
X52890Y-59555D01*
X52915Y-59566D01*
X52950Y-59591D01*
X52986Y-59623D01*
X53013Y-59652D01*
X53020Y-59667D01*
X53006Y-59687D01*
X52975Y-59700D01*
X52941Y-59698D01*
X52933Y-59695D01*
X52898Y-59678D01*
X52847Y-59659D01*
X52790Y-59640D01*
X52738Y-59625D01*
X52701Y-59618D01*
X52690Y-59618D01*
X52661Y-59615D01*
X52645Y-59605D01*
X52624Y-59595D01*
X52620Y-59602D01*
X52606Y-59613D01*
X52569Y-59619D01*
X52562Y-59619D01*
X52523Y-59615D01*
X52504Y-59606D01*
X52504Y-59604D01*
X52490Y-59599D01*
X52461Y-59606D01*
X52418Y-59616D01*
X52360Y-59622D01*
X52337Y-59622D01*
X52287Y-59626D01*
X52252Y-59634D01*
X52244Y-59641D01*
X52221Y-59651D01*
X52189Y-59650D01*
X52142Y-59647D01*
X52096Y-59652D01*
X52063Y-59663D01*
X52054Y-59676D01*
X52042Y-59695D01*
X52013Y-59729D01*
X51979Y-59765D01*
X51926Y-59824D01*
X51904Y-59872D01*
X51904Y-59880D01*
X51913Y-59912D01*
X51936Y-59923D01*
X51960Y-59909D01*
X51961Y-59906D01*
X51983Y-59897D01*
X52024Y-59893D01*
X52033Y-59894D01*
X52095Y-59897D01*
X52090Y-59976D01*
X52089Y-60026D01*
X52096Y-60050D01*
X52111Y-60055D01*
X52128Y-60069D01*
X52137Y-60101D01*
X52135Y-60137D01*
X52122Y-60162D01*
X52120Y-60164D01*
X52107Y-60187D01*
X52104Y-60215D01*
X52094Y-60250D01*
X52079Y-60266D01*
X52056Y-60282D01*
X52054Y-60291D01*
X52067Y-60304D01*
X52079Y-60306D01*
X52102Y-60316D01*
X52104Y-60339D01*
X52089Y-60364D01*
X52060Y-60381D01*
X52058Y-60382D01*
X52019Y-60390D01*
X51997Y-60395D01*
X51996Y-60407D01*
X52017Y-60432D01*
X52019Y-60434D01*
X52046Y-60471D01*
X52052Y-60516D01*
X52050Y-60529D01*
X52051Y-60571D01*
X52065Y-60587D01*
X52096Y-60580D01*
X52146Y-60547D01*
X52179Y-60521D01*
X52244Y-60457D01*
X52283Y-60391D01*
X52287Y-60381D01*
X52313Y-60326D01*
X52353Y-60263D01*
X52403Y-60198D01*
X52456Y-60137D01*
X52508Y-60086D01*
X52553Y-60053D01*
X52583Y-60041D01*
X52612Y-60036D01*
X52662Y-60021D01*
X52722Y-59999D01*
X52729Y-59997D01*
X52793Y-59974D01*
X52853Y-59960D01*
X52920Y-59952D01*
X53008Y-59949D01*
X53013Y-59949D01*
X53098Y-59950D01*
X53162Y-59955D01*
X53199Y-59963D01*
X53205Y-59966D01*
X53235Y-59979D01*
X53284Y-59990D01*
X53306Y-59993D01*
X53367Y-60004D01*
X53424Y-60022D01*
X53437Y-60028D01*
X53483Y-60047D01*
X53523Y-60055D01*
X53525Y-60055D01*
X53554Y-60066D01*
X53601Y-60093D01*
X53660Y-60133D01*
X53725Y-60182D01*
X53790Y-60233D01*
X53849Y-60284D01*
X53897Y-60329D01*
X53928Y-60364D01*
X53937Y-60381D01*
X53946Y-60399D01*
X53969Y-60433D01*
X53979Y-60447D01*
X54027Y-60527D01*
X54073Y-60639D01*
X54115Y-60780D01*
X54122Y-60805D01*
X54137Y-60873D01*
X54144Y-60929D01*
X54144Y-60987D01*
X54137Y-61061D01*
X54135Y-61080D01*
X54124Y-61168D01*
X54118Y-61227D01*
X54116Y-61265D01*
X54121Y-61287D01*
X54133Y-61299D01*
X54152Y-61305D01*
X54166Y-61309D01*
X54207Y-61328D01*
X54220Y-61356D01*
X54232Y-61384D01*
X54252Y-61389D01*
X54282Y-61403D01*
X54298Y-61434D01*
X54294Y-61470D01*
X54287Y-61480D01*
X54279Y-61501D01*
X54299Y-61520D01*
X54304Y-61522D01*
X54331Y-61549D01*
X54332Y-61582D01*
X54332Y-61617D01*
X54339Y-61632D01*
X54354Y-61656D01*
X54350Y-61686D01*
X54330Y-61704D01*
X54322Y-61706D01*
X54301Y-61712D01*
X54298Y-61739D01*
X54300Y-61750D01*
X54302Y-61780D01*
X54287Y-61788D01*
X54266Y-61785D01*
X54240Y-61781D01*
X54232Y-61790D01*
X54241Y-61818D01*
X54248Y-61837D01*
X54271Y-61892D01*
X54296Y-61944D01*
X54297Y-61947D01*
X54320Y-62009D01*
X54341Y-62098D01*
X54360Y-62204D01*
X54376Y-62321D01*
X54387Y-62440D01*
X54394Y-62554D01*
X54395Y-62656D01*
X54395Y-62656D01*
X54395Y-62656D01*
G37*
G36*
X50304Y-65830D02*
X50291Y-65852D01*
X50279Y-65855D01*
X50257Y-65842D01*
X50254Y-65830D01*
X50267Y-65808D01*
X50279Y-65805D01*
X50301Y-65818D01*
X50304Y-65830D01*
X50304Y-65830D01*
X50304Y-65830D01*
G37*
G36*
X48954Y-64080D02*
X48940Y-64100D01*
X48921Y-64105D01*
X48894Y-64095D01*
X48887Y-64080D01*
X48901Y-64060D01*
X48921Y-64055D01*
X48948Y-64065D01*
X48954Y-64080D01*
X48954Y-64080D01*
X48954Y-64080D01*
G37*
G36*
X52803Y-59250D02*
X52703Y-59251D01*
X52604Y-59252D01*
X52604Y-59186D01*
X52609Y-59137D01*
X52624Y-59100D01*
X52628Y-59095D01*
X52645Y-59056D01*
X52643Y-59023D01*
X52641Y-58987D01*
X52658Y-58968D01*
X52670Y-58964D01*
X52707Y-58962D01*
X52725Y-58971D01*
X52757Y-58987D01*
X52772Y-58989D01*
X52787Y-58993D01*
X52796Y-59011D01*
X52800Y-59048D01*
X52802Y-59111D01*
X52802Y-59119D01*
X52803Y-59250D01*
X52803Y-59250D01*
X52803Y-59250D01*
G37*
G36*
X53070Y-59036D02*
X53067Y-59073D01*
X53058Y-59089D01*
X53058Y-59089D01*
X53051Y-59104D01*
X53050Y-59141D01*
X53051Y-59164D01*
X53057Y-59239D01*
X52972Y-59239D01*
X52887Y-59239D01*
X52887Y-59172D01*
X52891Y-59125D01*
X52906Y-59099D01*
X52924Y-59089D01*
X52946Y-59078D01*
X52936Y-59073D01*
X52934Y-59073D01*
X52903Y-59059D01*
X52889Y-59028D01*
X52893Y-58992D01*
X52918Y-58963D01*
X52924Y-58959D01*
X52949Y-58946D01*
X52944Y-58941D01*
X52916Y-58940D01*
X52883Y-58933D01*
X52870Y-58918D01*
X52879Y-58866D01*
X52900Y-58828D01*
X52918Y-58817D01*
X52935Y-58811D01*
X52921Y-58808D01*
X52916Y-58807D01*
X52892Y-58792D01*
X52887Y-58767D01*
X52880Y-58729D01*
X52869Y-58711D01*
X52859Y-58681D01*
X52862Y-58637D01*
X52875Y-58593D01*
X52894Y-58563D01*
X52900Y-58560D01*
X52926Y-58559D01*
X52932Y-58567D01*
X52951Y-58577D01*
X52977Y-58576D01*
X53012Y-58583D01*
X53032Y-58613D01*
X53032Y-58660D01*
X53028Y-58674D01*
X53010Y-58700D01*
X52977Y-58701D01*
X52947Y-58700D01*
X52937Y-58707D01*
X52951Y-58718D01*
X52983Y-58725D01*
X53009Y-58731D01*
X53023Y-58745D01*
X53030Y-58777D01*
X53033Y-58821D01*
X53038Y-58875D01*
X53047Y-58915D01*
X53053Y-58929D01*
X53063Y-58952D01*
X53069Y-58992D01*
X53070Y-59036D01*
X53070Y-59036D01*
X53070Y-59036D01*
G37*
G36*
X49318Y-58443D02*
X49314Y-58463D01*
X49297Y-58494D01*
X49259Y-58508D01*
X49251Y-58509D01*
X49212Y-58519D01*
X49191Y-58536D01*
X49191Y-58536D01*
X49191Y-58550D01*
X49212Y-58544D01*
X49218Y-58540D01*
X49258Y-58523D01*
X49284Y-58524D01*
X49298Y-58548D01*
X49305Y-58600D01*
X49306Y-58643D01*
X49308Y-58756D01*
X49309Y-58850D01*
X49307Y-58921D01*
X49305Y-58965D01*
X49302Y-58980D01*
X49279Y-58989D01*
X49239Y-58996D01*
X49198Y-59000D01*
X49184Y-58998D01*
X49184Y-58633D01*
X49182Y-58628D01*
X49162Y-58626D01*
X49160Y-58628D01*
X49162Y-58638D01*
X49171Y-58639D01*
X49184Y-58633D01*
X49184Y-58998D01*
X49170Y-58997D01*
X49166Y-58996D01*
X49158Y-58972D01*
X49154Y-58930D01*
X49154Y-58915D01*
X49149Y-58821D01*
X49136Y-58758D01*
X49115Y-58726D01*
X49102Y-58722D01*
X49079Y-58708D01*
X49069Y-58669D01*
X49073Y-58613D01*
X49089Y-58543D01*
X49118Y-58467D01*
X49119Y-58465D01*
X49144Y-58407D01*
X49154Y-58372D01*
X49151Y-58354D01*
X49144Y-58349D01*
X49128Y-58326D01*
X49121Y-58273D01*
X49121Y-58256D01*
X49125Y-58201D01*
X49140Y-58175D01*
X49170Y-58175D01*
X49220Y-58200D01*
X49231Y-58207D01*
X49274Y-58241D01*
X49285Y-58273D01*
X49266Y-58307D01*
X49261Y-58313D01*
X49245Y-58333D01*
X49256Y-58339D01*
X49269Y-58339D01*
X49299Y-58353D01*
X49316Y-58391D01*
X49318Y-58443D01*
X49318Y-58443D01*
X49318Y-58443D01*
G37*
G36*
X52781Y-58823D02*
X52772Y-58852D01*
X52741Y-58869D01*
X52712Y-58879D01*
X52704Y-58890D01*
X52689Y-58902D01*
X52665Y-58906D01*
X52645Y-58904D01*
X52633Y-58893D01*
X52628Y-58867D01*
X52628Y-58818D01*
X52628Y-58785D01*
X52631Y-58686D01*
X52633Y-58616D01*
X52636Y-58569D01*
X52642Y-58540D01*
X52650Y-58525D01*
X52662Y-58517D01*
X52679Y-58512D01*
X52713Y-58499D01*
X52717Y-58487D01*
X52691Y-58483D01*
X52669Y-58485D01*
X52636Y-58488D01*
X52623Y-58478D01*
X52622Y-58447D01*
X52623Y-58428D01*
X52630Y-58386D01*
X52645Y-58366D01*
X52678Y-58358D01*
X52679Y-58358D01*
X52729Y-58352D01*
X52670Y-58325D01*
X52623Y-58295D01*
X52609Y-58266D01*
X52628Y-58238D01*
X52670Y-58214D01*
X52720Y-58196D01*
X52751Y-58197D01*
X52754Y-58199D01*
X52761Y-58222D01*
X52768Y-58272D01*
X52774Y-58340D01*
X52778Y-58418D01*
X52780Y-58500D01*
X52779Y-58578D01*
X52776Y-58645D01*
X52775Y-58660D01*
X52768Y-58715D01*
X52758Y-58744D01*
X52742Y-58756D01*
X52730Y-58757D01*
X52709Y-58759D01*
X52718Y-58765D01*
X52737Y-58770D01*
X52769Y-58791D01*
X52781Y-58823D01*
X52781Y-58823D01*
X52781Y-58823D01*
G37*
G36*
X49588Y-57242D02*
X49584Y-57279D01*
X49571Y-57303D01*
X49562Y-57306D01*
X49551Y-57306D01*
X49543Y-57310D01*
X49538Y-57324D01*
X49535Y-57351D01*
X49534Y-57398D01*
X49534Y-57470D01*
X49534Y-57539D01*
X49533Y-57618D01*
X49529Y-57685D01*
X49523Y-57732D01*
X49517Y-57751D01*
X49488Y-57768D01*
X49456Y-57774D01*
X49433Y-57777D01*
X49440Y-57781D01*
X49471Y-57787D01*
X49506Y-57795D01*
X49523Y-57809D01*
X49528Y-57840D01*
X49528Y-57876D01*
X49530Y-57922D01*
X49537Y-57951D01*
X49542Y-57956D01*
X49551Y-57969D01*
X49551Y-57993D01*
X49533Y-58025D01*
X49496Y-58041D01*
X49450Y-58051D01*
X49450Y-57897D01*
X49448Y-57894D01*
X49439Y-57897D01*
X49437Y-57906D01*
X49443Y-57919D01*
X49448Y-57917D01*
X49450Y-57897D01*
X49450Y-58051D01*
X49446Y-58052D01*
X49498Y-58054D01*
X49550Y-58056D01*
X49551Y-58171D01*
X49551Y-58232D01*
X49548Y-58267D01*
X49538Y-58284D01*
X49519Y-58292D01*
X49507Y-58294D01*
X49462Y-58301D01*
X49509Y-58303D01*
X49534Y-58306D01*
X49547Y-58316D01*
X49552Y-58341D01*
X49552Y-58390D01*
X49551Y-58410D01*
X49550Y-58474D01*
X49552Y-58557D01*
X49556Y-58646D01*
X49559Y-58683D01*
X49563Y-58767D01*
X49563Y-58823D01*
X49557Y-58856D01*
X49550Y-58868D01*
X49515Y-58881D01*
X49469Y-58885D01*
X49427Y-58878D01*
X49407Y-58867D01*
X49398Y-58840D01*
X49392Y-58792D01*
X49389Y-58751D01*
X49390Y-58695D01*
X49396Y-58663D01*
X49410Y-58646D01*
X49425Y-58639D01*
X49462Y-58624D01*
X49425Y-58623D01*
X49397Y-58616D01*
X49388Y-58588D01*
X49388Y-58576D01*
X49388Y-58548D01*
X49388Y-58492D01*
X49387Y-58411D01*
X49385Y-58311D01*
X49382Y-58195D01*
X49380Y-58069D01*
X49379Y-58026D01*
X49376Y-57884D01*
X49373Y-57771D01*
X49372Y-57684D01*
X49373Y-57620D01*
X49374Y-57576D01*
X49377Y-57547D01*
X49382Y-57531D01*
X49389Y-57524D01*
X49397Y-57522D01*
X49398Y-57522D01*
X49419Y-57519D01*
X49413Y-57509D01*
X49400Y-57499D01*
X49376Y-57466D01*
X49371Y-57442D01*
X49383Y-57411D01*
X49400Y-57400D01*
X49420Y-57394D01*
X49408Y-57391D01*
X49400Y-57391D01*
X49378Y-57379D01*
X49373Y-57343D01*
X49371Y-57294D01*
X49364Y-57260D01*
X49360Y-57210D01*
X49383Y-57177D01*
X49435Y-57161D01*
X49466Y-57159D01*
X49518Y-57163D01*
X49557Y-57172D01*
X49567Y-57176D01*
X49582Y-57203D01*
X49588Y-57242D01*
X49588Y-57242D01*
X49588Y-57242D01*
G37*
G36*
X53015Y-58318D02*
X53015Y-58352D01*
X53012Y-58447D01*
X52942Y-58451D01*
X52920Y-58451D01*
X52920Y-58097D01*
X52912Y-58089D01*
X52904Y-58097D01*
X52912Y-58106D01*
X52920Y-58097D01*
X52920Y-58451D01*
X52895Y-58450D01*
X52871Y-58439D01*
X52865Y-58426D01*
X52861Y-58397D01*
X52858Y-58344D01*
X52855Y-58277D01*
X52854Y-58256D01*
X52853Y-58186D01*
X52851Y-58126D01*
X52850Y-58087D01*
X52849Y-58081D01*
X52849Y-58001D01*
X52857Y-57948D01*
X52873Y-57923D01*
X52879Y-57922D01*
X52899Y-57908D01*
X52904Y-57889D01*
X52916Y-57865D01*
X52946Y-57854D01*
X52979Y-57856D01*
X53002Y-57873D01*
X53005Y-57885D01*
X53010Y-57994D01*
X53011Y-58076D01*
X53009Y-58133D01*
X53002Y-58172D01*
X52991Y-58197D01*
X52981Y-58208D01*
X52958Y-58228D01*
X52962Y-58238D01*
X52983Y-58246D01*
X53002Y-58256D01*
X53012Y-58278D01*
X53015Y-58318D01*
X53015Y-58318D01*
X53015Y-58318D01*
G37*
G36*
X52769Y-57674D02*
X52754Y-57718D01*
X52744Y-57729D01*
X52730Y-57749D01*
X52736Y-57756D01*
X52750Y-57769D01*
X52753Y-57798D01*
X52746Y-57829D01*
X52733Y-57844D01*
X52726Y-57852D01*
X52740Y-57854D01*
X52754Y-57859D01*
X52762Y-57875D01*
X52763Y-57911D01*
X52759Y-57972D01*
X52759Y-57976D01*
X52754Y-58035D01*
X52750Y-58079D01*
X52747Y-58099D01*
X52731Y-58103D01*
X52699Y-58109D01*
X52699Y-57857D01*
X52697Y-57856D01*
X52682Y-57867D01*
X52679Y-57872D01*
X52674Y-57888D01*
X52677Y-57889D01*
X52692Y-57877D01*
X52695Y-57872D01*
X52699Y-57857D01*
X52699Y-58109D01*
X52693Y-58110D01*
X52676Y-58113D01*
X52631Y-58118D01*
X52608Y-58112D01*
X52596Y-58092D01*
X52595Y-58090D01*
X52591Y-58049D01*
X52596Y-58001D01*
X52600Y-57969D01*
X52603Y-57909D01*
X52605Y-57827D01*
X52606Y-57729D01*
X52607Y-57620D01*
X52607Y-57570D01*
X52606Y-57193D01*
X52672Y-57174D01*
X52717Y-57164D01*
X52749Y-57162D01*
X52754Y-57164D01*
X52761Y-57185D01*
X52762Y-57227D01*
X52758Y-57278D01*
X52750Y-57328D01*
X52740Y-57364D01*
X52733Y-57374D01*
X52732Y-57387D01*
X52744Y-57394D01*
X52767Y-57417D01*
X52765Y-57447D01*
X52743Y-57469D01*
X52725Y-57482D01*
X52737Y-57492D01*
X52743Y-57494D01*
X52764Y-57517D01*
X52769Y-57551D01*
X52756Y-57579D01*
X52753Y-57581D01*
X52746Y-57603D01*
X52753Y-57622D01*
X52769Y-57674D01*
X52769Y-57674D01*
X52769Y-57674D01*
G37*
G36*
X49288Y-57606D02*
X49284Y-57813D01*
X49282Y-57899D01*
X49279Y-57958D01*
X49275Y-57995D01*
X49267Y-58016D01*
X49256Y-58026D01*
X49246Y-58029D01*
X49221Y-58033D01*
X49221Y-57731D01*
X49212Y-57722D01*
X49204Y-57731D01*
X49212Y-57739D01*
X49221Y-57731D01*
X49221Y-58033D01*
X49218Y-58034D01*
X49218Y-57849D01*
X49215Y-57844D01*
X49195Y-57842D01*
X49193Y-57844D01*
X49195Y-57854D01*
X49204Y-57856D01*
X49218Y-57849D01*
X49218Y-58034D01*
X49191Y-58038D01*
X49148Y-58033D01*
X49129Y-58018D01*
X49126Y-57993D01*
X49123Y-57942D01*
X49121Y-57869D01*
X49119Y-57780D01*
X49117Y-57680D01*
X49116Y-57575D01*
X49115Y-57472D01*
X49115Y-57374D01*
X49116Y-57288D01*
X49117Y-57219D01*
X49119Y-57172D01*
X49121Y-57155D01*
X49145Y-57143D01*
X49185Y-57143D01*
X49230Y-57151D01*
X49268Y-57165D01*
X49287Y-57183D01*
X49287Y-57187D01*
X49278Y-57248D01*
X49252Y-57283D01*
X49223Y-57291D01*
X49196Y-57293D01*
X49201Y-57298D01*
X49212Y-57301D01*
X49249Y-57315D01*
X49270Y-57339D01*
X49278Y-57381D01*
X49279Y-57434D01*
X49275Y-57504D01*
X49265Y-57547D01*
X49246Y-57567D01*
X49220Y-57572D01*
X49193Y-57579D01*
X49187Y-57589D01*
X49202Y-57601D01*
X49237Y-57605D01*
X49238Y-57606D01*
X49288Y-57606D01*
X49288Y-57606D01*
X49288Y-57606D01*
G37*
G36*
X52237Y-65051D02*
X52229Y-65067D01*
X52203Y-65069D01*
X52154Y-65055D01*
X52133Y-65048D01*
X52086Y-65034D01*
X52062Y-65038D01*
X52054Y-65062D01*
X52054Y-65074D01*
X52046Y-65100D01*
X52038Y-65105D01*
X52021Y-65119D01*
X52013Y-65135D01*
X51996Y-65165D01*
X51965Y-65206D01*
X51944Y-65230D01*
X51907Y-65281D01*
X51891Y-65325D01*
X51899Y-65356D01*
X51921Y-65368D01*
X51944Y-65359D01*
X51982Y-65331D01*
X52026Y-65292D01*
X52070Y-65248D01*
X52106Y-65206D01*
X52128Y-65173D01*
X52130Y-65168D01*
X52148Y-65149D01*
X52178Y-65139D01*
X52207Y-65139D01*
X52220Y-65153D01*
X52220Y-65154D01*
X52207Y-65206D01*
X52172Y-65267D01*
X52122Y-65329D01*
X52063Y-65385D01*
X52003Y-65425D01*
X51989Y-65431D01*
X51932Y-65450D01*
X51887Y-65448D01*
X51839Y-65424D01*
X51826Y-65416D01*
X51783Y-65387D01*
X51746Y-65363D01*
X51743Y-65361D01*
X51723Y-65345D01*
X51724Y-65324D01*
X51737Y-65299D01*
X51762Y-65264D01*
X51801Y-65218D01*
X51837Y-65179D01*
X51888Y-65118D01*
X51938Y-65048D01*
X51962Y-65007D01*
X51992Y-64958D01*
X52021Y-64922D01*
X52039Y-64908D01*
X52066Y-64915D01*
X52108Y-64938D01*
X52155Y-64969D01*
X52198Y-65004D01*
X52228Y-65034D01*
X52237Y-65051D01*
X52237Y-65051D01*
X52237Y-65051D01*
G37*
G36*
X50454Y-65217D02*
X50442Y-65251D01*
X50413Y-65291D01*
X50377Y-65328D01*
X50342Y-65352D01*
X50337Y-65353D01*
X50337Y-65218D01*
X50325Y-65193D01*
X50298Y-65159D01*
X50288Y-65149D01*
X50248Y-65101D01*
X50214Y-65049D01*
X50212Y-65044D01*
X50193Y-65008D01*
X50180Y-64998D01*
X50166Y-65012D01*
X50162Y-65016D01*
X50150Y-65047D01*
X50160Y-65083D01*
X50193Y-65128D01*
X50242Y-65176D01*
X50291Y-65218D01*
X50321Y-65236D01*
X50335Y-65231D01*
X50337Y-65218D01*
X50337Y-65353D01*
X50328Y-65355D01*
X50304Y-65345D01*
X50266Y-65319D01*
X50238Y-65297D01*
X50180Y-65244D01*
X50125Y-65186D01*
X50080Y-65130D01*
X50051Y-65084D01*
X50046Y-65072D01*
X50047Y-65040D01*
X50062Y-65001D01*
X50084Y-64968D01*
X50104Y-64955D01*
X50118Y-64941D01*
X50134Y-64907D01*
X50135Y-64905D01*
X50159Y-64864D01*
X50189Y-64854D01*
X50222Y-64874D01*
X50253Y-64925D01*
X50253Y-64926D01*
X50281Y-64975D01*
X50323Y-65034D01*
X50369Y-65088D01*
X50414Y-65142D01*
X50444Y-65188D01*
X50454Y-65217D01*
X50454Y-65217D01*
X50454Y-65217D01*
G37*
G36*
X52904Y-63730D02*
X52890Y-63752D01*
X52879Y-63755D01*
X52856Y-63742D01*
X52854Y-63730D01*
X52867Y-63708D01*
X52879Y-63705D01*
X52901Y-63718D01*
X52904Y-63730D01*
X52904Y-63730D01*
X52904Y-63730D01*
G37*
G36*
X54341Y-21576D02*
X54333Y-21613D01*
X54324Y-21632D01*
X54299Y-21679D01*
X54260Y-21750D01*
X54207Y-21844D01*
X54143Y-21959D01*
X54066Y-22093D01*
X53980Y-22245D01*
X53885Y-22411D01*
X53834Y-22500D01*
X53834Y-21884D01*
X52419Y-21880D01*
X52156Y-21879D01*
X51867Y-21879D01*
X51559Y-21878D01*
X51238Y-21878D01*
X50913Y-21878D01*
X50590Y-21878D01*
X50275Y-21878D01*
X49977Y-21879D01*
X49702Y-21879D01*
X49589Y-21880D01*
X48174Y-21884D01*
X48968Y-23259D01*
X49082Y-23456D01*
X49191Y-23645D01*
X49295Y-23824D01*
X49391Y-23991D01*
X49480Y-24144D01*
X49559Y-24281D01*
X49628Y-24399D01*
X49685Y-24497D01*
X49729Y-24574D01*
X49759Y-24626D01*
X49774Y-24652D01*
X49776Y-24654D01*
X49785Y-24659D01*
X49808Y-24662D01*
X49846Y-24665D01*
X49901Y-24667D01*
X49976Y-24669D01*
X50072Y-24671D01*
X50191Y-24672D01*
X50336Y-24672D01*
X50507Y-24672D01*
X50708Y-24672D01*
X50939Y-24671D01*
X51008Y-24671D01*
X52226Y-24667D01*
X53030Y-23276D01*
X53834Y-21884D01*
X53834Y-22500D01*
X53782Y-22591D01*
X53672Y-22782D01*
X53557Y-22982D01*
X53457Y-23156D01*
X53338Y-23362D01*
X53223Y-23560D01*
X53115Y-23747D01*
X53014Y-23923D01*
X52921Y-24085D01*
X52837Y-24231D01*
X52763Y-24359D01*
X52701Y-24467D01*
X52651Y-24554D01*
X52615Y-24618D01*
X52593Y-24656D01*
X52587Y-24668D01*
X52603Y-24669D01*
X52649Y-24671D01*
X52720Y-24672D01*
X52815Y-24673D01*
X52928Y-24674D01*
X53056Y-24675D01*
X53195Y-24675D01*
X53212Y-24675D01*
X53837Y-24675D01*
X53837Y-24817D01*
X53837Y-24959D01*
X53124Y-24959D01*
X52412Y-24959D01*
X52052Y-25583D01*
X52052Y-24967D01*
X51528Y-24962D01*
X51363Y-24961D01*
X51176Y-24961D01*
X50979Y-24961D01*
X50784Y-24961D01*
X50601Y-24962D01*
X50479Y-24962D01*
X49954Y-24967D01*
X50475Y-25871D01*
X50566Y-26029D01*
X50653Y-26179D01*
X50733Y-26318D01*
X50806Y-26442D01*
X50870Y-26551D01*
X50923Y-26641D01*
X50963Y-26709D01*
X50991Y-26755D01*
X51003Y-26774D01*
X51004Y-26774D01*
X51013Y-26760D01*
X51038Y-26720D01*
X51076Y-26655D01*
X51127Y-26569D01*
X51189Y-26464D01*
X51260Y-26342D01*
X51339Y-26206D01*
X51424Y-26058D01*
X51515Y-25900D01*
X51532Y-25870D01*
X52052Y-24967D01*
X52052Y-25583D01*
X51720Y-26159D01*
X51577Y-26406D01*
X51450Y-26626D01*
X51338Y-26816D01*
X51243Y-26979D01*
X51163Y-27112D01*
X51099Y-27217D01*
X51051Y-27293D01*
X51019Y-27340D01*
X51004Y-27358D01*
X51003Y-27359D01*
X50989Y-27344D01*
X50959Y-27300D01*
X50913Y-27228D01*
X50851Y-27126D01*
X50773Y-26996D01*
X50679Y-26837D01*
X50570Y-26649D01*
X50444Y-26433D01*
X50303Y-26189D01*
X50286Y-26159D01*
X49596Y-24960D01*
X48883Y-24959D01*
X48171Y-24959D01*
X48171Y-24817D01*
X48171Y-24675D01*
X48796Y-24675D01*
X48936Y-24675D01*
X49066Y-24675D01*
X49181Y-24674D01*
X49277Y-24673D01*
X49352Y-24672D01*
X49401Y-24670D01*
X49420Y-24669D01*
X49421Y-24669D01*
X49413Y-24654D01*
X49389Y-24612D01*
X49351Y-24545D01*
X49299Y-24455D01*
X49235Y-24344D01*
X49160Y-24213D01*
X49075Y-24065D01*
X48980Y-23901D01*
X48878Y-23723D01*
X48769Y-23534D01*
X48654Y-23335D01*
X48551Y-23157D01*
X48432Y-22950D01*
X48317Y-22751D01*
X48209Y-22562D01*
X48107Y-22384D01*
X48013Y-22220D01*
X47928Y-22071D01*
X47854Y-21940D01*
X47791Y-21828D01*
X47740Y-21737D01*
X47703Y-21670D01*
X47681Y-21628D01*
X47674Y-21613D01*
X47667Y-21576D01*
X51004Y-21576D01*
X54341Y-21576D01*
X54341Y-21576D01*
X54341Y-21576D01*
G37*
G54D12*
X55970Y-68620D03*
X45955Y-68620D03*
X45955Y-20385D03*
X55970Y-20415D03*
G54D13*
X51176Y-52455D03*
X51152Y-46288D03*
X56124Y-46244D03*
X46224Y-46288D03*
G54D14*
X54892Y-39644D03*
X47075Y-34720D03*
X54914Y-31108D03*
M02*
