M48
;DRILL file {Pcbnew (2012-apr-16-27)-stable} date Thu 18 Jun 2015 01:52:13 CEST
;FORMAT={-:-/ absolute / inch / decimal}
FMAT,2
INCH,TZ
T1C0.025
T2C0.032
T3C0.039
T4C0.040
T5C0.045
T6C0.059
T7C0.087
T8C0.098
%
G90
G05
M72
T1
X5.014Y-2.566
X5.222Y-2.794
X5.258Y-3.218
X5.266Y-3.474
X5.338Y-2.288
X5.374Y-2.962
X5.414Y-2.936
X5.448Y-2.552
X5.486Y-3.106
X5.558Y-3.376
X5.582Y-2.932
X5.614Y-2.356
X5.628Y-2.828
X5.630Y-2.694
X5.670Y-3.000
X5.726Y-3.018
X5.788Y-3.508
X5.826Y-4.068
X5.864Y-4.318
X5.878Y-3.976
X5.934Y-4.028
X5.986Y-4.414
X5.998Y-3.454
X6.042Y-4.294
X6.164Y-4.294
X6.372Y-4.140
T2
X5.086Y-4.516
X5.086Y-4.816
X5.192Y-4.518
X5.192Y-4.818
X5.510Y-4.512
X5.510Y-4.812
X5.626Y-4.510
X5.626Y-4.810
X6.080Y-2.422
X6.082Y-2.530
X6.380Y-2.422
X6.382Y-2.530
T3
X5.189Y-2.127
X5.288Y-2.127
X5.386Y-2.127
X5.971Y-1.763
X5.997Y-3.173
X6.070Y-1.763
X6.095Y-3.173
X6.168Y-1.763
X6.194Y-3.173
T4
X5.200Y-1.862
X5.300Y-1.862
X5.400Y-1.862
X5.500Y-1.862
X5.600Y-1.862
X6.064Y-4.586
X6.064Y-4.686
X6.064Y-4.786
X6.064Y-4.886
X6.064Y-4.986
X6.164Y-4.586
X6.164Y-4.686
X6.164Y-4.786
X6.164Y-4.886
X6.164Y-4.986
T5
X5.130Y-3.998
X5.230Y-3.998
X5.330Y-3.998
T6
X5.382Y-3.550
X5.874Y-4.168
X5.875Y-3.550
X6.370Y-3.550
T7
X5.097Y-2.409
X5.496Y-2.409
X5.879Y-2.045
X5.886Y-2.890
X6.278Y-2.045
X6.285Y-2.890
T8
X5.051Y-3.550
X5.216Y-3.357
X5.216Y-3.680
X5.543Y-4.168
X5.545Y-3.550
X5.709Y-3.975
X5.709Y-4.298
X5.710Y-3.357
X5.710Y-3.680
X6.039Y-3.550
X6.205Y-3.357
X6.205Y-3.680
T0
M30
